<svg width="208" height="129" viewBox="0 0 208 129" fill="none" xmlns="http://www.w3.org/2000/svg">
<g clip-path="url(#clip0_232_7)">
<path d="M207.324 59.2862C206.536 52.3908 204.173 46.0279 200.514 40.1466C195.695 32.3893 189.241 26.2123 181.788 21.0154C173.641 15.3369 164.739 11.1625 155.355 7.96839C143.82 4.04752 131.945 1.77443 119.826 0.692807C112.694 0.0505959 105.538 -0.126857 98.3725 0.0843965C91.8765 0.27875 85.4058 0.802659 78.969 1.71528C69.6611 3.0335 60.531 5.11224 51.6381 8.18809C43.0755 11.1541 34.9194 14.9482 27.3562 19.976C20.4959 24.5391 14.4064 29.9219 9.51106 36.589C3.91275 44.2195 0.550381 52.695 0.0591524 62.193C-0.37279 70.6009 1.48202 78.5102 5.43725 85.9379C9.03677 92.6896 13.9406 98.3681 19.7506 103.303C27.1106 109.565 35.4106 114.28 44.2951 118.006C56.9654 123.321 70.2201 126.372 83.8474 127.91C90.4875 128.662 97.1445 129.025 103.827 128.983C109.222 129.025 114.608 128.763 119.987 128.29C126.525 127.715 133.013 126.761 139.441 125.392C148.656 123.423 157.616 120.651 166.213 116.764C174.242 113.131 181.737 108.643 188.411 102.864C194.255 97.7935 199.167 91.9713 202.674 85.0422C206.782 76.9132 208.374 68.3194 207.34 59.2777L207.324 59.2862ZM200.108 82.7945C196.483 90.3574 191.088 96.5091 184.634 101.774C176.385 108.5 167.06 113.283 157.108 116.933C148.63 120.043 139.898 122.181 130.98 123.583C123.722 124.733 116.429 125.392 109.078 125.586C107.333 125.628 105.589 125.662 103.844 125.662C96.5008 125.679 89.1747 125.248 81.891 124.327C69.7543 122.789 57.9224 120.009 46.5734 115.387C37.8922 111.855 29.77 107.368 22.5371 101.368C16.5238 96.3823 11.4675 90.594 7.92727 83.5972C4.3701 76.5498 2.82019 69.0968 3.4554 61.2043C4.20071 51.8331 7.9188 43.6956 13.7712 36.4538C19.7167 29.1022 27.119 23.5167 35.3514 18.962C44.3967 13.9511 54.0434 10.4612 64.0628 7.96839C71.4905 6.1178 79.0283 4.89253 86.6423 4.14892C93.401 3.48981 100.185 3.22785 106.977 3.3546C117.962 3.55741 128.846 4.68128 139.585 7.03042C151.484 9.63307 162.901 13.5624 173.514 19.6296C181.009 23.9138 187.785 29.1107 193.34 35.7609C198.405 41.8197 202.022 48.5967 203.555 56.3878C205.359 65.5562 204.173 74.3697 200.133 82.786L200.108 82.7945Z" fill="white"/>
<path d="M192.96 50.2531C191.486 48.6645 190.004 47.4477 188.395 46.0027C185.32 43.2395 184.185 42.6226 180.349 41.1861C180.12 41.1016 177.333 39.9355 176.783 39.8679C174.251 39.5637 171.49 39.0229 169.025 39.7158C169.093 39.5806 175.961 28.0039 175.961 28.0039C176.182 27.6321 176.393 27.3955 176.842 27.6574L177.054 27.7926L177.418 27.218L172.218 24.1337L171.879 24.6914L172.04 24.7928C172.404 25.0717 172.303 25.3167 172.108 25.6294C172.108 25.6294 168.474 31.7473 167.932 32.6599L165.815 21.8522C165.739 21.2691 165.951 21.2607 166.391 21.4719L166.721 21.6409L167.052 21.0579L160.276 17.0525L159.937 17.6271C159.937 17.6271 159.996 17.6778 160.157 17.7792C160.699 18.1257 160.31 18.6665 160.31 18.6665L152.831 31.2234C152.831 31.2234 152.518 31.8994 151.993 31.5698L151.679 31.4262L151.392 32.0431L156.778 35.2119L157.1 34.6035L156.888 34.4852C156.448 34.1978 156.499 34.0119 156.778 33.488L161.64 25.3252C162.334 28.7982 162.986 32.2205 163.664 35.5837C163.833 36.4287 164.028 37.2652 164.18 38.1103C164.223 38.3384 164.358 38.8032 163.808 38.575L163.503 38.4314L163.147 38.9975C164.189 39.6313 165.646 40.4594 166.73 41.1016C166.145 41.5833 165.188 42.3607 164.689 42.8254C164.689 42.8254 164.553 42.724 164.223 42.4536C160.937 39.8172 157.379 37.6202 153.619 35.7273C145.378 31.5783 136.646 28.9334 127.601 27.2349C127.279 27.1758 126.923 27.1166 126.568 27.0575C126.568 27.0575 126.33 26.8885 126.161 26.7195C125.932 26.4998 125.407 26.4322 125.119 26.5167C124.899 26.5843 124.586 26.7195 124.586 26.7195C124.018 26.6181 121.037 26.1026 119.758 26.0942C121.621 26.5927 123.087 27.0575 124.052 27.3701L123.679 28.0546C119.665 26.7279 114.363 25.4942 113.592 25.4181C112.466 25.3083 109.654 25.1646 107.901 25.19C108.163 25.2998 108.29 25.359 108.426 25.4181C112.94 27.3279 118.005 29.7362 122.35 32.0008L122.104 32.7867C117.912 30.5727 113.042 28.2574 108.587 26.3561C114.558 30.2939 118.301 33.1416 122.113 36.623L121.808 37.3667C116.87 32.9557 111.339 28.8573 105.623 25.5364C106.376 26.542 107.342 27.8433 108.121 28.8911L107.189 28.8658C106.512 27.894 104.97 26.0012 104.225 25.0632H103.378C102.904 25.6547 101.921 26.8969 101.473 27.4969L100.736 27.2096C100.981 26.8378 101.769 25.866 102.032 25.5195C101.388 25.8406 100.727 26.2801 100.228 26.5927C99.965 26.7533 99.7618 26.8716 99.7618 26.8716C99.1181 26.3561 98.8047 26.3392 98.0509 26.6941C97.7968 26.8209 97.5597 26.9899 97.2971 27.1082C93.3165 28.8574 88.87 30.9783 85.0503 33.0402H83.348C88.7261 30.0826 94.1126 27.5729 99.8464 25.1477C98.8555 25.1477 94.6885 25.3252 93.74 25.5111C82.3486 27.818 71.7617 32.1107 61.9118 38.2455C60.9463 38.8454 59.8876 39.5806 58.795 40.2989C63.2415 39.6566 69.746 38.8961 74.3026 38.5074C74.3026 38.5074 74.6075 38.3046 75.3274 37.8314C75.8864 37.4596 76.3098 37.1976 77.1399 36.6484C76.9027 37.054 76.8095 37.13 76.6994 37.4005C76.6232 37.6033 76.5809 37.7554 76.5724 37.9666C76.5724 37.9666 76.2675 38.1356 76.0219 38.3469H76.3607C75.9626 38.668 75.5899 39.0482 75.302 39.0398C74.5567 39.0144 73.6758 39.8087 73.2862 40.1045C73.2862 40.1045 73.1761 40.1045 72.8458 40.1214C72.4139 40.1552 71.9735 40.4763 71.8888 40.8312C71.8295 41.0763 71.821 41.1185 71.821 41.1185C68.1029 43.7803 65.1725 46.1802 61.9118 49.5602C61.9118 49.5602 60.4466 50.0503 60.4381 50.025C64.1392 45.8337 68.6026 42.3522 73.1338 39.2172C72.7357 39.2595 72.3885 39.2764 72.1768 39.3017C67.6456 39.7665 62.3776 40.3665 57.8803 41.0425L57.6686 41.1016C56.1102 42.3015 54.3231 43.7127 52.8833 45.0478C52.9087 45.0732 52.9257 45.0816 52.9342 45.0985C53.0527 45.2253 53.1798 45.352 53.3068 45.4788C55.0854 47.3716 55.5512 49.6109 55.0769 52.0953C54.9753 52.6107 54.7297 53.1008 54.1368 53.1684C53.3407 53.2529 52.57 53.2107 51.8839 52.6445C50.8422 51.7911 49.2838 50.701 48.2251 49.8644L46.3195 52.4333C46.5143 53.6585 46.4635 55.45 46.4381 56.5907C46.4296 57.0386 46.4042 57.2076 46.4042 57.2076C47.9457 56.9963 49.2245 56.9457 50.749 56.8273C50.749 56.8273 50.8676 57.3597 50.8422 57.6301C50.8422 57.6301 48.4623 57.816 47.3867 57.9512C46.6752 58.0357 46.2687 58.1202 46.2687 58.1202C46.1078 59.1511 45.6674 59.8018 45.4218 60.0891C45.3201 60.2074 45.1846 60.3426 45.1846 60.3426C45.2185 61.9228 44.7188 62.7087 43.8803 63.8325C43.3298 64.5677 43.1265 65.3874 42.5591 66.3084C42.5591 66.3084 42.6184 67.2717 42.7624 67.9224C43.6178 71.9278 45.6928 75.5444 48.2844 78.7808L48.5385 79.085C51.0031 77.7922 54.4332 76.643 56.9148 75.8486C56.9148 75.8486 56.9487 76.0683 57.008 76.2373C57.0842 76.4824 57.1689 76.6514 57.1689 76.6514C54.0691 77.5978 53.3068 77.8513 51.0539 78.7977C50.1731 79.1695 49.0975 79.7104 49.0975 79.7104C49.6395 80.3779 51.1386 81.9327 52.0195 82.7609C57.5077 87.9155 62.8265 91.2448 69.9323 94.9206C70.1949 95.0558 70.9148 95.4107 70.9148 95.4107C72.5833 94.6756 75.3528 93.9151 78.8337 93.3658C74.7853 90.9913 71.6178 88.8027 68.5603 86.4367C68.4248 86.3268 68.086 86.0226 68.086 86.0226L68.8313 85.4903C68.8313 85.4903 69.6274 86.1325 69.7714 86.2423C73.1084 88.8281 76.5385 90.8984 80.0872 93.1038C80.0872 93.1038 82.3316 92.7405 85.5246 92.4447C82.3994 89.5379 79.5282 86.5043 76.8942 83.2256C77.3939 83.1496 77.9021 83.0228 77.9021 83.0228C80.6208 86.4958 83.4072 89.3435 86.3546 91.9969C86.6087 92.225 86.7019 92.2842 86.7019 92.2842C89.5899 92.056 91.1483 91.9462 94.2905 91.7856C94.2905 91.7856 94.1973 91.6673 93.9348 91.1772C91.8089 87.2563 90.2506 83.4707 88.7176 78.3921L89.5137 77.9781C91.3516 84.2396 93.0539 87.6535 95.1967 91.6927C95.1967 91.6927 95.4593 91.6842 95.8912 91.6589C97.2887 91.5913 98.2034 91.6082 99.4145 91.5659C103.353 91.4392 107.291 91.473 111.221 91.6758C112.212 91.7265 112.508 91.6927 112.508 91.6927C113.22 90.4251 113.957 88.8872 114.439 87.9493C114.634 88.2788 114.812 88.8196 114.71 89.2928C114.676 89.4449 114.397 89.8674 113.965 90.7716C113.965 90.7716 113.728 91.2702 113.491 91.7434C114.287 91.7772 114.651 91.8025 115.464 91.8701C115.464 91.8701 115.786 92.3602 116.43 92.7827C114.448 92.5546 112.974 92.5715 112.974 92.5715C111.196 95.7487 109.112 98.9851 106.893 101.875C106.622 102.23 105.953 102.999 105.682 103.354C106.088 103.134 106.249 103.05 106.419 102.948C110.62 100.363 114.651 97.5486 118.462 94.4221C118.64 94.2784 118.92 94.0503 118.92 94.0503C119.241 93.9404 119.707 93.9827 120.088 94.2615C116.116 97.4979 113.44 99.526 108.697 102.517C109.569 102.171 109.739 102.078 109.908 102.002C114.219 100.126 118.454 98.0979 122.595 95.8839C122.824 95.7572 123.044 95.6051 123.332 95.6135C124.052 95.6389 124.662 95.3431 125.246 94.9713C125.509 94.8023 125.907 94.6671 126.313 94.8784C120.427 98.2077 114.236 101.055 108.079 103.726C109.925 103.641 111.754 103.633 113.11 103.481C115.676 103.202 120.004 101.867 122.833 101.022L122.96 101.909C122.96 101.909 122.926 101.909 122.553 102.01C121.672 102.255 120.986 102.467 119.284 102.898C121.655 102.686 123.07 102.467 123.07 102.467C123.07 102.467 123.07 102.509 123.171 102.898C123.375 103.692 123.713 104.435 124.255 105.069C125.119 106.083 126.347 106.303 127.465 105.593C128.075 105.204 128.66 104.757 129.21 104.283C129.718 103.852 130.04 103.447 130.074 102.627C130.091 102.298 130.32 102.331 130.336 101.85C130.362 101.326 130.548 101.191 130.624 101.14C130.87 100.988 131.141 100.971 131.751 100.844C134.215 100.329 137.248 99.5091 139.661 98.7823C139.661 98.7823 139.763 98.326 139.297 97.8275C138.73 97.2191 138.078 96.9402 137.349 96.5684C136.977 96.3825 136.799 96.3318 136.799 96.3318C133.724 97.8275 132.31 98.3936 130.489 99.1288C130.489 99.1288 130.032 98.9513 129.108 98.8415C131.446 97.8613 133.623 96.9487 135.782 95.867C134.639 95.5459 133.724 95.3516 132.42 95.0136C133.267 94.5319 133.911 94.4474 133.911 94.4474C134.707 94.8192 134.707 94.9375 135.317 94.9291C135.698 94.9291 136.392 95.1995 136.816 95.4445C136.816 95.4445 136.96 95.3347 137.248 95.1826C138.611 94.4559 139.992 93.7714 141.338 93.0193C147.572 89.521 153.382 85.4649 158.226 80.1413C158.565 79.7611 158.65 79.6766 158.65 79.6766C156.041 78.5189 152.543 77.1838 149.503 76.3556C149.503 76.3556 149.503 76.1782 149.571 75.9585C149.638 75.7557 149.74 75.6036 149.74 75.6036C152.323 76.2542 155.753 77.4964 159.141 79.0512C159.141 79.0512 159.192 79.0259 159.387 78.7893C161.826 75.8064 164.833 71.0405 165.197 65.5733C165.552 65.8775 166.044 66.469 165.976 66.807C165.79 67.7111 165.637 69.0378 165.366 69.9166C164.418 73.0178 162.656 76.1782 160.411 78.9498C160.03 79.4146 159.98 79.4907 159.98 79.4907C161.834 80.4455 163.503 81.4849 165.087 82.8031C165.087 82.8031 164.977 82.913 164.875 83.0059C164.697 83.1665 164.528 83.3524 164.528 83.3524C162.283 81.5018 159.429 80.116 159.429 80.116C154.923 85.1945 148.199 90.7632 137.781 95.8924C138.797 96.3741 139.433 96.7543 140.042 97.4472C140.449 97.912 140.525 98.4866 140.525 98.4866C140.525 98.4866 141.601 98.1486 142.033 97.9965C142.329 97.8951 142.617 97.8021 142.914 97.7007C148.902 95.6389 154.635 93.0362 159.954 89.5801C160.268 89.3773 160.555 89.0647 160.903 88.9886C161.326 88.8872 161.411 89.4872 161.69 89.6477C161.834 89.7322 162.156 89.7238 162.343 90.1632C162.605 90.7716 162.639 91.1265 163.139 91.6504C163.647 92.1828 163.41 92.7996 163.198 93.2475C163.156 93.332 163.02 93.8306 163.02 93.9658C163.367 93.7883 163.621 93.5686 163.875 93.3151C164.062 93.1292 164.079 92.8672 164.113 92.6813C164.147 92.4701 164.299 92.2335 164.299 92.2335C164.299 92.2335 164.087 91.887 163.85 91.549C163.613 91.211 163.139 90.4082 163.037 90.028C162.859 89.352 162.791 89.4787 162.241 89.1407C161.572 88.7182 161.521 88.0169 162.063 87.4253C162.258 87.2141 162.478 87.0197 162.715 86.8676C163.215 86.5296 163.604 86.3691 163.604 86.3691C163.359 85.5494 164.79 84.0622 165.468 83.4622C165.747 83.2172 165.823 83.1242 165.823 83.1242C165.679 82.051 165.663 80.7075 165.688 79.8371C165.713 78.84 165.908 78.5611 166.603 78.2316C167.111 77.995 167.314 77.5894 167.34 77.0148C167.39 76.0514 167.339 74.8262 167.577 73.8037C168.271 76.2289 167.873 76.5415 168.745 76.9641C168.932 77.057 168.847 77.5133 168.856 77.7161C168.864 78.0034 168.847 78.2316 168.957 78.5104C169.381 79.5329 169.355 80.4709 169.135 81.5102C169.033 81.975 168.983 82.2708 168.983 82.2708C170.389 82.1017 170.626 82.3046 170.778 83.158C170.897 83.7918 170.846 84.4847 170.88 85.1269C170.88 85.2621 170.897 85.5156 170.897 85.5156C171.735 85.5917 171.888 86.0733 172.065 86.6395C172.514 86.2592 172.701 86.0395 173.116 85.71C173.421 85.4649 173.539 85.3466 173.878 85.1269C173.878 85.1269 173.903 84.6959 174.005 84.5692C174.14 84.3917 174.352 84.3917 174.395 84.3157C174.784 83.6397 175.004 83.1834 175.275 82.3468C175.275 82.3468 174.632 82.0003 173.598 81.6877C172.565 81.375 171.413 79.7864 172.489 78.5442C172.819 78.164 173.2 77.8175 173.539 77.395C173.116 77.2514 172.65 77.1162 172.26 76.9641C170.761 76.3979 170.439 75.8402 170.524 74.2516C170.558 73.6432 170.397 73.2629 169.948 72.8488C168.737 71.725 168.703 71.1673 169.592 69.7392C169.652 69.6462 169.77 69.5448 169.753 69.4603C169.626 68.7167 170.219 68.3703 170.609 67.9224C170.905 67.5844 171.549 67.5759 171.854 67.8463C172.599 68.4801 173.192 68.666 173.124 70.018L173.107 70.449C173.107 70.449 173.81 70.5842 173.971 70.6349C175.563 71.201 176.097 72.2489 174.716 73.584C174.716 73.584 174.75 73.7192 174.852 73.9389C175.326 75.0036 175.767 76.0852 176.859 76.719C177.181 76.9049 177.427 77.2091 177.706 77.4542C179.197 78.7386 180.052 79.6512 180.653 81.5863C181.077 82.9552 181.119 83.7664 181.119 83.7664C181.119 83.7664 181.755 84.2565 181.932 84.5945C182.11 84.9325 181.966 86.1325 181.966 86.1325L182.661 86.3522C182.661 86.3522 182.678 86.0649 182.678 85.9128C182.712 84.6537 182.915 84.4255 181.856 83.5383C181.729 83.4284 181.78 83.1749 181.729 82.8369C181.678 82.5412 181.483 82.2031 181.729 81.9412C182.729 80.8511 183.813 79.8033 185.32 79.4315C186.616 79.1188 187.454 78.333 187.937 77.1331C188.843 74.8938 190.038 72.8235 191.367 70.8124C191.791 70.1701 191.986 69.4603 191.96 68.6829C191.884 66.6126 191.884 64.5339 191.74 62.472C191.672 61.5425 191.655 60.4863 191.901 59.937C192.011 59.7004 192.773 58.9314 193.442 58.4498C194.154 57.9428 194.56 57.2668 194.696 56.4217C195.077 54.0979 194.603 51.9939 192.968 50.2362L192.96 50.2531ZM164.833 44.3549C166.908 42.6142 169.211 41.2368 171.684 40.1299C172.726 39.6651 173.751 39.8256 174.793 40.0792L175.165 40.189C175.165 40.189 174.81 40.9664 174.75 41.0932L175.555 42.048C175.555 42.048 177.96 42.0058 178.951 42.2255L178.019 43.2818C177.223 43.6029 175.165 43.7212 174.301 43.7296C173.869 43.7296 173.539 43.4339 173.166 43.2057C173.166 43.2057 172.277 43.0705 171.676 43.0452C169.753 42.9691 167.839 43.3325 166.154 44.1099C165.874 44.2366 165.493 44.4225 165.273 44.6507C164.951 44.9718 165.154 45.2675 165.154 45.2675C165.349 45.5548 165.646 45.8929 165.646 45.8929C168.119 44.6929 171.32 45.0478 171.981 45.5295C171.388 46.1295 168.686 45.8844 166.535 46.3407C165.874 46.4844 165.29 46.721 164.773 47.1857C164.113 47.7941 163.308 48.4448 162.512 48.9349C162.749 46.383 163.469 45.4957 164.824 44.3549H164.833ZM110.027 31.6374C111.043 33.2345 112.508 35.6682 113.406 37.3413C113.406 37.3413 113.465 37.3413 113.855 37.3498C116.303 37.4174 119.055 37.5188 121.706 37.7385L121.511 38.2962C119.419 38.1863 117.387 38.0511 113.711 37.9582C114.033 38.6088 114.312 39.175 114.626 39.7918L113.618 39.4369C113.338 38.7694 112.856 37.9244 112.856 37.9244H110.416L109.629 37.299C110.56 37.299 111.602 37.316 112.525 37.316C111.356 35.1443 110.366 33.5725 109.485 32.2036L110.027 31.6374ZM97.0854 27.6321C97.1447 28.2743 96.7974 28.6207 95.7218 28.5785C96.23 28.2236 96.7127 27.8856 97.0854 27.6321ZM90.4792 32.4064C90.3437 32.5923 90.0812 33.0148 90.0219 33.319C89.9626 33.5979 89.8864 33.826 89.8101 33.9021C89.429 34.2739 89.0479 34.5866 88.6583 34.8992L87.4218 34.9246C88.4296 34.0964 89.6238 33.1078 90.4792 32.4064ZM129.337 99.8978C129.574 99.8978 129.786 100.008 129.913 100.092C130.099 100.21 130.133 100.337 129.854 100.565C129.252 101.039 129.532 101.258 129.405 101.638C129.286 101.985 128.956 102.255 129.007 102.61C129.075 103.092 128.744 103.345 127.796 104.148C126.847 104.951 126.144 105.019 125.492 104.697C125.229 104.571 125.001 104.385 124.823 104.157C124.222 103.362 123.925 102.509 123.984 101.3C123.951 100.726 124.027 100.464 123.815 99.7119C123.603 98.9598 123.925 98.8584 124.416 99.0696C124.848 99.2471 125.187 99.4415 125.602 99.7795C126.093 100.185 126.703 100.379 127.22 100.092C127.389 99.9992 127.965 100.033 128.541 100.008C128.812 99.9992 129.083 99.9147 129.329 99.9147L129.337 99.8978ZM149.283 70.7701C149.316 71.2095 149.325 71.6489 149.359 72.0883C149.477 73.8797 149.139 73.7192 148.851 74.4882C148.63 75.0712 149.088 75.1642 148.105 76.2289C147.953 76.3894 147.902 76.5923 147.843 76.8204C147.529 78.1893 147.021 79.4569 146.09 80.5469C145.649 81.0624 145.302 81.6623 144.887 82.2031C144.574 82.6172 144.235 83.0144 143.642 82.8707C143.583 82.8538 143.312 82.8031 143.303 82.8285C142.905 84.0368 142.084 83.589 141.982 84.4762C141.863 85.4649 141.584 85.5325 141.245 85.8959C140.737 86.4451 140.203 86.9099 140.144 87.7127C140.144 87.831 139.898 88.0422 139.797 88.1183C139.289 88.5154 139.035 88.6084 138.747 89.1154C138.696 89.2083 138.764 89.5717 138.467 89.9857C137.967 90.6618 137.493 91.6758 137.248 92.2504C137.137 92.5123 137.197 93.1292 137.036 93.332C136.756 93.6785 136.545 93.6954 135.554 93.6362C135.037 93.6109 134.563 93.8897 134.563 93.8897C134.495 93.6447 134.47 93.5602 134.317 93.5179C134.071 93.4587 132.937 93.5179 132.428 93.9658C131.692 94.6249 131.556 94.5995 130.955 94.6249C130.497 94.6502 130.176 95.0727 129.803 95.3009C129.159 95.698 128.837 95.7234 128.482 95.0643C128.253 94.6333 127.999 94.5657 127.923 94.1939C127.863 93.8897 127.575 93.8813 127.372 93.8813C126.983 93.8813 126.661 94.0756 126.339 93.6869C126.144 93.4503 125.814 93.2644 125.526 93.4334C125.289 93.5686 125.551 93.8728 125.212 93.8813C124.205 93.9151 125.483 94.0503 123.493 94.7347C123.002 94.9037 122.502 94.5235 122.087 94.2446C121.74 94.008 121.376 93.7968 121.054 93.5264C120.512 93.0616 119.894 92.9348 119.208 92.9602C119.064 92.9602 118.81 93.2137 118.674 93.1207C118.623 93.0785 118.742 92.7743 118.64 92.7236C117.844 92.2926 117.429 91.7518 117.073 91.7941C116.421 91.8786 116.32 91.6589 116.379 91.1772C116.404 90.9491 116.345 90.6786 116.15 90.5773C115.379 90.1632 115.515 89.4027 115.583 88.7774C115.684 87.8056 115.447 87.2563 114.482 86.8761C113.474 86.4789 112.542 85.7945 112.805 84.434C112.872 84.0622 112.568 84.1213 112.415 83.8425C112.339 83.7073 112.449 82.6679 111.187 83.2003C110.772 83.3777 110.924 82.8707 110.992 82.7102C111.187 82.2454 111.458 81.8144 111.551 81.3074C111.644 80.792 111.611 80.3441 111.035 80.1329C110.484 79.9301 110.052 80.2089 109.756 80.6821C109.366 81.3074 108.883 81.6961 108.18 81.9327C107.875 82.0341 107.672 82.3384 107.486 82.5834C107.266 82.8792 106.986 83.2848 106.639 83.5467C106.58 82.9806 106.639 82.7102 105.953 82.1355C105.529 81.7806 105.258 81.4764 104.894 81.0962C104.674 80.868 104.894 80.5216 104.547 80.4286C104.14 80.3188 104.242 79.8709 103.886 79.7188C103.141 79.4061 103.437 78.8062 103.31 78.6287C102.862 78.0034 101.066 77.1331 99.7872 77.0148C98.9317 76.9387 98.2118 76.6007 97.3988 76.0683C96.2977 75.3501 95.383 75.2571 94.1634 75.5698C92.9862 75.8655 92.4441 76.0599 91.5379 76.1951C90.2336 76.381 89.6916 76.7106 88.8362 77.1584C87.354 77.9443 86.0751 78.2823 85.0503 78.1809C83.9493 78.071 83.8138 78.4766 82.7297 78.747C81.6456 79.0174 81.5694 79.3723 81.1205 79.4484C80.5107 79.5583 80.0957 79.9132 79.6976 80.4455C79.2996 80.9779 79.2064 80.4962 78.5034 81.6032C78.0884 82.2539 77.2415 82.2454 76.5639 82.2538C75.9202 82.2538 75.014 82.1356 74.3703 82.1609C73.6166 82.1947 73.0745 82.0595 72.4647 82.237C72.2022 82.313 72.0666 82.6003 71.6855 82.8792C71.2028 83.2256 70.7624 83.2594 70.1271 83.496C69.763 83.6312 69.6359 83.9692 69.1193 84.1044C68.4841 84.265 68.1199 84.603 67.8235 84.9325C66.9511 85.8874 66.0957 86.0733 64.9608 85.8705C64.0461 85.7015 63.2245 86.0057 62.1913 85.8114C62.0727 85.786 61.9202 85.8959 61.7847 85.7522C61.4544 85.4058 61.7509 85.3889 61.5984 85.279C61.3359 85.1015 61.1411 85.279 60.6329 84.8311C60.455 84.679 60.2772 84.6114 60.2264 84.4593C60.1586 84.2565 60.2772 84.3072 60.3195 84.1805C60.3619 84.0537 60.3026 83.8087 60.4127 83.7242C60.7091 83.4791 60.7599 83.1158 60.6414 82.651C60.6075 82.5074 60.5313 82.3891 60.4889 82.2454C60.4212 81.9834 60.6329 82.1102 60.6159 81.9158C60.6075 81.7806 60.5143 81.6961 60.5143 81.544C60.5143 80.9018 60.3365 81.1891 60.328 80.9441C60.328 80.7835 60.4974 80.868 60.4974 80.6821C60.4974 80.4033 60.3703 80.5385 60.3619 80.3441C60.3365 79.8878 60.3957 79.2202 60.3449 79.1526C60.2602 79.0512 59.9638 78.9752 59.7182 77.7584C59.7013 77.6908 59.498 77.6401 59.4302 77.6147C58.8797 77.4119 58.3885 77.2936 58.4647 76.6429C58.4816 76.4655 57.8803 76.5838 57.7617 75.0543C57.6432 73.5079 57.2366 72.8488 56.6099 72.5277C56.3982 72.4179 56.6946 72.0799 56.4829 71.894C55.2717 70.8123 56.0001 70.9053 55.5851 70.3391C54.9584 69.4941 54.8483 69.3505 54.5349 68.8773C54.1284 68.2773 53.7472 67.1619 53.112 66.883C53.0104 66.8408 53.0189 66.2324 53.112 66.2324C53.5185 66.2577 53.7303 66.1986 53.7049 65.9366C53.6625 65.4719 53.8404 65.3536 53.8404 65.0493C53.8404 64.5677 53.5186 64.6437 53.4508 64.348C53.3915 64.086 53.5609 63.7734 53.4 63.748C53.0527 63.7058 53.1798 63.3762 52.9765 63.0974C52.7563 62.7847 52.7563 63.165 52.1042 62.4636C51.9856 62.3368 51.9771 62.2185 51.8924 62.1087C51.8077 61.9988 51.6045 61.9397 51.5706 61.8045C51.5367 61.6693 51.6722 61.5763 51.6807 61.4242C51.7061 61.1369 51.3504 61.2637 51.723 60.4863C52.2481 59.3708 51.7569 59.0244 51.7823 57.3344C51.7823 57.1569 51.6976 56.8358 51.6468 56.6752C51.4605 56.1091 51.74 55.9485 52.3159 55.864C53.1713 55.7457 53.3492 55.7373 53.5355 55.0021C53.5863 54.7909 53.815 54.85 54.0182 54.7233C54.23 54.5881 54.374 54.3177 54.5772 54.2416C55.1701 54.0135 55.3734 53.7684 56.2203 53.329C56.4405 53.2191 56.3558 52.8642 56.5167 52.6783C56.6777 52.4924 57.1096 52.5347 57.2366 52.3403C57.6601 51.6728 58.4732 51.6052 59.1846 51.47C61.014 51.1235 61.0902 51.4869 61.8779 50.9291C62.2251 50.6841 62.7333 50.5911 63.089 50.3545C63.6988 49.9405 64.0291 49.7546 64.6982 49.8053C65.7569 49.8898 65.6468 49.4335 66.3074 49.3828C67.2645 49.3152 67.4508 49.3997 68.2554 48.9434C68.501 48.8082 68.8398 48.7406 69.1108 48.6054C69.4072 48.4617 69.5173 48.2166 69.763 48.0307C70.017 47.8448 70.4236 47.8533 70.3389 47.5744C70.2118 47.1519 70.7031 47.2195 70.7285 46.9407C70.7793 46.4168 71.0418 46.2224 71.2197 45.8253C71.5246 45.1408 71.6855 44.5155 72.2445 44.2366C72.4308 44.1437 72.2953 43.9578 72.2445 43.8141C72.109 43.4001 72.1175 42.9776 72.3377 42.5973C72.5071 42.31 72.7865 42.1156 72.9475 41.8283C73.0322 41.6762 72.8204 41.5326 72.8797 41.465C72.9305 41.4058 73.2778 41.5917 73.2354 41.0932C73.2185 40.8988 73.6166 40.8819 73.8114 40.9918C74.0062 41.0932 74.1247 41.2706 74.2856 41.4227C74.5821 41.71 74.9293 41.7607 75.2766 41.6255C75.6323 41.4819 75.8694 41.034 75.7763 40.8059C75.5391 40.2144 75.9965 40.0284 76.3183 39.8594C76.8688 39.5637 77.4363 39.2172 77.4532 38.6764C77.4532 38.4652 77.7666 38.3469 77.8089 38.1525C77.8428 38.0089 77.7242 37.8568 77.7242 37.6962C77.7327 37.4343 78.0715 37.3413 78.3086 37.2822C78.9354 37.13 79.1725 36.6991 79.2064 36.0484C79.2318 35.5837 79.5452 35.3809 79.9517 35.364C80.5107 35.3386 80.5869 35.1781 80.8664 34.9077C81.6879 34.1049 83.0261 33.5894 84.1526 34.0542C84.9572 34.3837 85.7956 34.8232 86.0921 35.2541C86.1852 35.3893 86.0836 35.5921 86.3207 35.7273C86.6087 35.8963 86.8543 36.0738 87.083 36.0738C88.0316 36.0653 89.158 36.0822 90.0896 35.9132C90.4877 35.8372 90.818 35.5921 91.0552 35.2626C91.2245 35.026 91.3939 34.7049 91.1737 34.4683C90.962 34.2485 90.6486 33.9528 90.7418 33.8345C90.962 33.5472 91.1737 33.3866 91.1399 33.1331C91.089 32.8289 91.2838 32.8965 91.4363 32.8289C91.5803 32.7613 91.6565 32.8289 91.7751 32.7444C91.8852 32.6599 91.9275 32.5163 92.1477 32.3388C92.5627 32.0008 92.6389 31.5952 92.6051 31.2403C92.5458 30.5558 92.749 30.5474 94.1211 29.846C94.6547 29.5756 95.2814 29.5672 95.8827 29.6179C96.0606 29.6348 96.2385 29.6094 96.4078 29.5925C97.5173 29.4827 97.9239 29.0348 97.9747 28.0884C98.0001 27.6828 98.161 27.6997 98.4998 27.6912C99.135 27.6743 98.864 27.9785 99.0419 28.0039C99.1011 28.0123 99.1265 27.8011 99.1858 27.8011C99.4653 27.818 99.7702 27.8433 99.9142 27.9954C100.609 28.7475 101.346 28.6545 102.209 28.6968C102.87 28.7306 103.217 28.6968 103.751 29.263C104.217 29.7615 105.191 29.9559 105.877 29.9728C106.893 29.9897 107.909 29.9728 108.926 29.9728C109.163 29.9728 109.434 29.9052 109.544 30.2094C109.637 30.4544 109.51 30.6319 109.307 30.7671C109.163 30.86 109.12 31.0037 109.104 31.1642C109.07 31.4938 108.892 31.6713 108.553 31.722C108.028 31.7896 107.799 32.1698 107.731 32.6346C107.621 33.488 107.384 34.2485 107.139 35.1358C106.876 36.0907 107.122 36.7582 107.943 37.3075C108.24 37.5019 108.545 37.6878 108.739 37.992C109.044 38.4483 109.459 38.7609 109.942 39.006C111.094 39.6059 112.212 40.2735 113.465 40.6791C113.694 40.7552 113.931 40.8481 114.117 40.9918C115.015 41.6847 116.015 42.1917 117.022 42.6818C117.243 42.7916 117.514 42.7916 117.514 43.1297C117.514 43.9747 118.716 44.169 119.699 43.7381C119.826 43.6789 119.521 43.4339 119.724 43.2564C119.834 43.155 120.004 43.3325 120.156 43.1888C120.546 42.817 121.249 42.2001 121.249 42.2001C121.232 41.4312 121.537 41.4988 121.715 41.1101C121.774 40.9833 121.655 40.8819 121.74 40.7805C122.502 39.8341 122.418 39.5975 122.646 38.6595C122.739 38.2624 122.977 38.2539 123.061 37.7047C123.214 36.6906 123.053 35.7104 123.248 34.3753C123.358 33.6232 123.044 33.7246 123.112 33.3866C123.12 33.319 123.231 33.15 123.315 32.8881C123.425 32.5501 123.442 32.136 123.451 31.9332C123.451 31.8149 123.671 31.5276 123.739 31.4177C123.883 31.198 124.315 30.8516 124.315 30.8516C123.883 30.7164 124.12 30.5051 123.934 30.2516C123.883 30.184 123.95 29.8629 124.018 29.846C124.289 29.7446 124.459 29.5587 124.569 29.3221C124.637 29.1869 124.569 28.9672 124.62 28.8066C124.662 28.6714 124.764 28.663 124.831 28.5447C124.916 28.3841 124.916 28.0968 125.009 27.9447C125.06 27.8518 125.187 27.6321 125.323 27.6743C125.407 27.6997 125.492 27.8602 125.509 27.9447C125.966 29.7362 126.119 29.1193 126.601 29.7108C126.83 29.9812 127.135 30.446 127.084 30.8093C127.067 30.9699 127.355 31.2994 127.499 31.7558C127.643 32.2121 127.702 32.8036 127.711 33.2176C127.711 34.0119 127.838 34.6964 128.194 35.3893C128.465 35.9301 128.837 36.285 129.566 36.1076C130.48 35.8879 131.666 36.6991 132.005 37.7469C132.301 38.668 132.589 39.5975 132.581 40.5862C132.581 41.3889 132.92 42.0818 133.284 42.7578C133.665 43.4677 133.978 43.8817 133.894 45.4027C133.86 46.0027 134.122 45.7323 134.139 46.2055C134.156 46.6787 134.3 47.4139 134.588 47.9547C134.749 48.2504 134.969 48.3265 135.24 48.3518C135.604 48.3772 135.901 48.4025 136.163 48.5969C136.604 48.918 136.197 48.8335 136.578 49.1631C136.714 49.2814 136.9 49.2645 137.222 49.5264C137.544 49.7884 137.188 50.194 138.205 50.3883C139.331 50.608 140.161 51.1742 140.39 52.3995C140.415 52.5347 140.525 52.6952 140.635 52.7797C141.262 53.2445 141.719 54.2247 141.821 54.943C142.016 56.3626 142.261 56.5907 143.989 57.2583C145.022 57.6555 144.828 57.74 144.879 58.3146C144.929 58.8892 145.2 58.8976 145.285 59.2018C145.387 59.5652 145.353 60.106 145.539 60.3849C145.649 60.5539 145.92 60.444 146.039 60.5877C146.217 60.7989 145.946 61.0778 146.496 61.4411C146.937 61.7369 146.962 62.1425 147.064 62.5735C147.199 63.1312 147.707 63.4523 148.105 63.8241C149.283 64.9226 149.681 66.2746 149.24 67.7872C148.935 68.835 149.139 69.8321 149.215 70.8461L149.283 70.7701ZM151.925 57.2752C154.779 63.7734 153.67 70.0349 149.799 75.3923C150.062 74.598 150.197 73.1446 150.197 73.1446C151.883 70.2969 152.882 66.7732 152.653 63.4185C152.509 61.3482 151.849 59.4384 151.146 57.6555C151.01 57.309 150.9 57.1738 150.9 57.1738C149.52 57.064 147.131 56.9118 145.556 56.8189C145.556 56.8189 145.158 56.3541 144.743 56.0753C145.251 56.0753 147.241 56.1429 147.682 56.1598C149.045 56.2274 150.468 56.3288 150.477 56.3288C150.477 56.3288 150.257 55.8725 150.163 55.7035C148.741 53.16 146.979 51.0052 144.963 48.9265C141.83 45.6985 138.145 42.7578 134.419 40.1721C134.156 39.9946 133.758 39.7242 133.758 39.7242C133.758 39.7242 133.563 39.1158 133.411 38.5666C138.721 38.9384 144.472 39.682 148.597 40.2566C148.224 39.9693 147.995 39.7749 147.724 39.589C141.762 35.5499 135.35 32.3726 128.634 29.8038C128.16 29.6263 127.906 29.5334 127.906 29.5334C127.525 28.8996 127.067 28.5362 126.83 28.325C127.821 28.6968 128.914 29.0433 129.896 29.432C137.07 32.2543 144.235 36.0484 150.494 40.5777C150.494 40.5777 152.399 40.8397 152.747 40.8988C156.592 41.5579 160.53 42.2677 164.358 43.1043C164.07 43.3494 163.74 43.662 163.74 43.662C163.74 43.662 163.435 43.5691 163.206 43.5184C159.581 42.724 153.094 41.6002 151.679 41.4312C152.967 42.4114 154.102 43.4085 155.22 44.4056C157.168 46.1464 158.955 48.0307 160.555 50.101C160.674 50.2531 160.81 50.4137 160.877 50.5911C160.987 50.8784 160.911 50.9967 160.784 51.1657C160.657 51.3348 160.505 51.4361 160.505 51.4361C157.49 47.4223 154.923 45.0309 150.993 41.9466C150.307 41.4058 149.926 41.1101 149.926 41.1101C145.819 40.5101 142.236 40.0538 134.707 39.3271C136.045 40.3073 137.332 41.2199 138.586 42.1748C142.388 45.0816 145.929 48.2589 148.817 52.1122C149.748 53.3459 150.587 54.6472 151.273 56.0246C151.425 56.3288 151.451 56.3964 151.451 56.3964C153.89 56.5485 156.609 56.7513 159.2 57.0302C159.2 57.0302 159.378 57.4696 159.497 57.8583C156.922 57.6724 154.991 57.4696 151.917 57.2752H151.925ZM171.015 64.7367C169.762 65.4127 168.398 65.7761 166.992 65.5141C164.968 65.1423 164.053 63.6213 163.562 61.8045C163.173 60.368 162.402 59.1427 161.487 58.0188C160.759 57.1231 160.674 56.9287 160.225 55.8809C159.903 55.1373 159.92 54.7824 159.988 54.4782C160.107 53.9458 160.632 53.5994 160.632 53.5994C160.293 52.9149 160.674 52.4417 161.038 52.0192C161.25 51.7657 161.462 51.5291 161.775 51.3855C162.275 51.1573 162.817 51.0221 162.758 50.2447C162.724 49.8644 163.3 49.7715 163.638 49.6701C164.231 49.4842 164.968 49.5095 165.646 49.4419C164.833 48.8673 165.12 48.318 165.798 47.8364C166.747 47.1604 167.865 47.1097 168.966 47.0336C169.558 46.9998 171.523 47.059 171.523 47.059L171.591 47.397C171.684 47.9293 171.786 48.4617 171.261 48.842C171.1 48.9518 170.914 49.0532 170.719 49.087C169.863 49.2391 169.22 49.7377 168.686 50.363C167.492 51.7573 166.069 53.3543 164.689 54.5543C163.037 55.9908 163.257 57.6386 163.308 59.8356C163.308 60.1398 163.554 60.3511 163.791 60.5201C164.697 61.1876 165.595 61.8636 166.518 62.5059C167.179 62.9622 167.932 63.0974 168.728 63.0382C169.542 62.9875 169.974 62.4129 170.321 61.7876C170.736 61.0524 170.931 60.2328 171.1 59.4131C171.142 59.2018 171.134 58.9821 171.032 58.7709C170.693 58.0864 169.059 56.8442 168.805 56.7428C168.601 56.6583 166.764 56.3203 166.196 56.4386C165.451 56.5992 165.154 57.0809 165.239 57.8498C165.358 58.9145 165.84 59.7173 166.755 60.2666C167.009 60.4187 167.255 60.5201 167.458 60.2581C167.661 59.9962 167.348 59.8779 167.229 59.7257C166.848 59.261 166.442 58.8216 166.247 58.247C166.103 57.7991 166.196 57.571 166.764 57.4358C167.035 57.3766 167.771 57.309 167.992 57.4696C169.431 58.5174 169.923 59.1258 169.626 60.4187C169.592 60.5708 169.626 61.1454 169.618 61.2975C169.558 61.9059 168.356 62.3199 167.755 62.0833C166.467 61.5848 165.4 61.1538 163.935 59.9793C163.935 59.9793 163.926 59.6835 163.935 59.3032C163.96 58.2132 164.163 57.1569 164.621 56.1598C165.061 55.1965 165.747 54.8585 166.781 55.1796L167.331 55.3908C167.678 54.5374 168.33 53.0924 168.703 52.2474C168.864 51.8756 169.101 51.5629 169.542 51.6559C170.016 51.7573 170.482 51.9432 170.566 52.5347C170.66 53.1262 170.753 53.7092 170.837 54.3008C170.998 55.3655 171.21 56.3879 171.828 57.3344C172.557 58.4413 172.997 59.7089 173.073 61.0524C173.166 62.7087 172.48 63.9593 171.007 64.7451L171.015 64.7367ZM190.851 61.5172C190.173 62.7002 190.402 65.7085 190.359 67.8548C190.343 68.7083 190.393 69.5533 189.826 70.2715L189.707 70.4152C189.707 70.4152 189.75 70.8123 189.758 70.9813C189.767 71.6827 189.69 72.3334 188.92 72.6038C188.691 72.6798 188.606 72.7136 188.606 72.7136C188.606 72.7136 188.615 73.0009 188.606 73.3474C188.598 75.5444 187.759 76.1444 185.608 75.2571C185.041 75.0205 184.499 74.8093 183.94 74.5558C183.381 74.3023 182.813 73.9305 182.229 73.4995C182.313 74.8177 182.898 75.6881 183.914 76.2796C184.219 76.457 184.516 76.6599 184.837 76.8035C185.439 77.0655 185.405 77.3274 185.007 77.8091C184.253 78.7048 183.516 79.0174 182.466 78.3161C181.068 77.3781 180.315 76.1613 180.391 74.3868C180.501 71.632 180.501 68.8773 180.137 66.1394C180.044 65.4296 179.764 64.7789 179.442 64.1536C178.274 61.8636 177.029 59.6328 174.733 58.2301C174.496 58.0864 174.437 58.0611 174.437 58.0611C174.903 56.1767 175.081 53.8867 174.86 51.9685C174.826 51.6474 174.818 51.546 174.818 51.546C176.91 52.0868 178.587 52.9487 179.688 54.512C180.425 55.5598 181.238 56.5485 182.11 57.4865C182.686 58.1033 182.559 58.8723 182.61 59.6159C182.627 59.8948 182.457 60.2835 182.932 60.3933C183.415 60.5032 183.846 60.5708 184.194 60.0891C184.321 59.9117 184.405 59.7004 184.499 59.506C184.854 58.7878 185.481 58.8892 186.218 58.8892C186.895 58.8892 187.209 58.4244 187.785 58.9652C188.268 59.4131 188.53 60.1567 188.53 60.1567C188.53 60.1567 189.148 59.8525 189.572 59.8356C190.376 59.7934 191.181 60.9257 190.834 61.5341L190.851 61.5172ZM193.019 57.064L191.528 57.0217C190.419 56.9964 189.352 56.7259 188.301 56.3541C187.234 55.9739 187.031 55.5429 187.429 54.4867C187.675 53.8444 187.802 53.236 187.395 52.6023C187.09 52.1291 186.735 51.9516 186.176 52.0784C185.015 52.3234 184.041 52.5938 182.864 52.7713C181.399 52.991 179.798 52.8051 178.612 51.7995C178.231 51.4784 177.935 51.1066 177.909 50.5742C177.884 50.0419 177.604 49.856 177.079 49.9151C176.741 49.9489 176.292 49.9405 175.953 49.9405C176.148 49.5771 176.283 49.3067 176.376 49.1377C176.563 48.8166 176.309 48.6899 176.309 48.6899C176.004 48.5124 175.597 48.3096 175.301 48.673C175.047 49.0025 174.843 49.3743 174.581 49.7039C174.107 50.3123 173.581 50.3461 173.133 50.0165C172.633 49.6447 172.819 49.1969 173.048 48.7744C173.234 48.4279 173.463 48.1068 173.7 47.735C173.37 47.7096 172.904 47.811 172.616 47.9209C172.074 48.1406 172.133 47.7772 172.142 47.3463C172.15 46.9153 172.269 46.2393 172.455 45.7239C172.455 45.7239 173.336 44.7098 174.699 44.3887C175.377 44.2366 175.995 44.7267 176.385 45.8084C176.385 45.8084 177.003 45.7746 177.342 45.7408C178.189 45.6732 178.477 45.7661 179.112 46.3999C179.679 46.966 180.382 46.9407 181.077 46.5773C181.424 46.3914 181.763 46.1802 182.093 45.9605C182.297 45.8253 182.618 45.7154 182.508 45.3689C182.398 45.0478 182.119 44.845 181.788 44.8704C180.264 44.9802 178.697 44.6676 178.697 44.6676C178.697 43.1804 179.171 42.8677 179.815 43.0452C180.67 43.2902 181.458 43.3916 182.364 43.155C182.923 43.0114 183.398 43.3071 183.846 43.6029C185.379 44.6 186.607 45.9436 187.92 47.1857C189.513 48.6814 191.062 50.2278 192.621 51.7573C193.536 52.653 194.069 53.5487 193.019 57.0555V57.064Z" fill="white"/>
<path d="M26.9159 80.7834C27.1445 80.513 27.1445 80.082 27.3055 79.5665C27.4579 79.0933 27.4664 78.4934 27.3309 78.2821C27.1953 78.0624 27.0598 77.7498 26.7634 77.792C26.45 77.8427 26.467 78.1892 26.4331 78.4427C26.3061 79.5158 26.45 79.7694 24.7646 79.651C24.9255 79.3806 25.2728 79.0426 25.3998 78.7638C25.5353 78.4596 25.7132 77.9526 25.5438 77.8174C25.5438 77.8174 24.7731 77.7751 24.4258 77.9695C24.2819 78.054 24.1633 78.2061 24.0616 78.3413C23.9261 78.5103 23.833 78.7553 23.6297 78.6877C22.8675 78.4089 22.0883 77.3949 22.0544 77.1921C22.0459 77.0906 22.1645 76.9723 22.2238 76.8878C22.588 76.3217 22.1899 75.9837 21.8427 75.6457C21.6479 75.4598 21.3599 75.5105 21.3091 75.764C21.1905 76.3893 21.1143 76.3132 20.7247 76.102C19.8015 75.595 19.0985 74.5894 18.6073 73.6937C18.4041 73.3134 18.4549 73.0937 18.7259 72.8402C18.9715 72.6121 19.251 72.4431 19.5644 72.3248C19.7253 72.2656 19.8862 72.2403 19.9624 72.029C20.1911 71.4206 20.6485 70.9558 21.0804 70.4826C21.7495 69.739 22.029 68.8771 21.885 67.9222C21.7071 66.7646 22.0374 65.8266 22.7404 64.914C23.9515 63.3254 23.3756 62.024 21.3938 61.7452C21.0465 61.6945 20.6823 61.6945 20.3351 61.7452C19.937 61.8043 19.5559 61.9987 19.4204 62.4127C19.2849 62.8183 19.5898 63.0803 19.8693 63.2916C20.1826 63.5282 20.3266 63.8155 20.2758 64.2042C20.0979 65.497 20.1826 66.7984 20.1742 68.0997C20.1742 69.156 19.6999 69.9587 18.7259 70.4319C17.8027 70.8798 16.7525 71.2854 15.7362 71.429C14.4742 71.5981 13.8221 71.0319 12.8566 70.0179C12.2044 69.1137 11.7386 68.9785 11.7555 68.4292C11.764 68.0236 11.1034 65.6069 11.5777 64.5337C11.764 64.1112 12.0604 63.9676 12.0604 63.8493C12.0858 62.962 12.1536 62.5733 12.3399 62.2015C12.594 61.6607 12.2976 60.8495 13.0005 61.2128C13.0005 61.2128 12.9582 61.0016 12.9328 60.9086C12.882 60.7058 12.8735 60.5199 12.9497 60.3256C13.2123 59.6749 13.4918 59.6073 13.7035 58.8383C13.7035 58.8383 13.7204 58.6862 14.0508 58.7031C14.2456 58.7031 14.0846 58.5426 14.1524 58.2722C14.2201 58.0271 14.5843 58.0271 14.4996 57.537C14.4234 57.0976 14.542 56.6413 14.7537 56.2779C15.6007 54.8161 15.3974 53.633 15.5753 52.0613L15.8293 52.0782C15.6091 49.2897 17.0151 48.1573 18.2347 47.3461C20.4452 45.8758 23.0623 45.0561 25.8064 45.0815C26.7465 45.0899 27.2377 44.9125 27.839 44.4393C28.2201 44.1435 28.6521 43.9661 29.1349 44.1942C30.2189 44.7012 31.0151 45.4955 31.4385 46.6279C31.591 47.0335 31.5402 47.3884 31.0998 47.6419C30.5238 47.9714 30.0665 48.47 29.4567 48.7404C29.084 48.9094 29.0332 49.2305 29.101 49.577C29.3127 50.6586 29.5753 51.7233 30.0411 52.7289C30.1851 53.0331 30.3714 53.3457 30.6001 53.5485C31.0066 53.9119 31.6164 54.0978 31.6757 53.9964C31.6757 53.9964 31.2353 54.9935 31.0998 55.5935C30.3799 58.7876 30.2189 60.7312 29.9564 63.3169C29.7616 65.2773 29.787 65.1083 27.5511 67.2293C27.424 67.3476 27.1869 67.3814 27.0005 67.4237C26.2976 67.5927 25.9503 67.9645 25.8995 68.6405C25.8402 69.3419 26.1282 69.8151 26.8312 70.0517C27.2462 70.1953 27.6866 70.2798 28.1185 70.3305C31.7943 70.8122 35.326 70.3052 38.7477 68.8602C40.0689 68.3025 41.0852 67.4913 41.7543 66.2238C42.4149 64.9562 43.0247 63.6634 43.8802 62.4972C44.3036 61.9226 44.4391 61.2128 44.4222 60.4861C44.4222 60.2833 44.3714 59.9284 44.3714 59.9284C45.0066 59.7087 45.3369 58.8214 45.4639 58.1623C45.8705 56.1005 45.9044 54.0555 45.4894 52.0275L45.6587 51.7909C45.2099 50.9712 44.7779 49.5601 44.6932 49.0446C44.5238 48.039 44.9388 47.7179 45.9298 48.0052C46.9969 48.3094 47.8777 48.7742 48.7501 49.408C50.0205 50.329 51.2994 51.3261 52.7646 52.4247C52.9171 52.543 53.8741 52.6528 54.1282 52.4923C54.3653 52.3402 54.4246 51.9599 54.4754 51.512C54.7973 48.5967 53.6285 46.1969 51.0453 44.7942C49.055 43.721 46.8783 43.121 44.7949 42.276C42.9909 41.5409 41.1191 41.0423 39.1711 40.8395C38.1379 40.7381 37.1046 40.8733 36.0713 40.6536C34.3774 40.2902 32.7598 40.1635 31.1167 41.1775C29.5922 42.1155 27.8475 42.707 26.1875 43.4253C25.1881 43.8562 24.3835 44.1266 23.2825 44.1351C20.2165 44.1689 17.3115 45.9349 15.6345 48.2165C14.7622 49.408 14.4319 50.929 14.3726 52.4669C14.3218 53.7936 14.3133 54.3428 13.441 56.3202C12.5686 58.2975 11.7217 60.4016 11.0356 62.5648C10.5275 64.1619 10.2988 65.8013 10.5613 67.4575C10.934 69.8489 12.3653 71.4544 14.525 72.4853C15.7446 73.0599 16.9473 73.6599 17.8281 74.7415C19.0562 76.2541 20.5214 77.547 21.9019 78.899C22.7997 79.7778 23.7398 80.6228 24.934 81.1129C25.764 81.4509 26.5009 81.3242 26.9497 80.8003L26.9159 80.7834ZM31.0913 50.9628C30.5662 50.5065 30.5408 50.1093 31.0066 49.6108C31.1845 49.4249 31.3962 49.2474 31.6249 49.1207C33.4797 48.0982 35.4192 47.363 37.5789 47.4053C38.0616 47.4137 38.5359 47.4053 39.1796 47.4053C38.5783 48.0644 37.9939 48.4615 37.401 48.8333C36.0798 49.6446 34.8094 50.498 33.7084 51.5965C33.5051 51.7994 33.2679 51.9684 33.0308 52.1289C32.1754 52.6951 31.4809 52.5852 31.4555 51.4698C31.4555 51.1909 31.2522 51.1064 31.0913 50.9712V50.9628ZM42.957 61.179C42.9146 61.7029 42.6606 62.1423 42.3387 62.5395C41.695 63.3338 40.9074 63.976 40.1875 64.6943C39.9334 64.9393 39.6878 65.1928 39.4676 65.4717C39.3575 65.6069 39.1034 65.7337 39.2728 65.9534C39.4252 66.1562 39.6878 66.1393 39.8826 66.0548C40.2214 65.9111 40.5347 65.7252 40.8566 65.5562C40.2552 66.697 39.3998 67.4575 38.231 67.9729C36.7912 68.6152 35.3684 69.232 33.8185 69.5531C32.7513 69.7728 31.7011 69.832 30.6085 69.5278C30.0157 69.3588 29.3889 69.2743 28.813 69.0123C28.3811 68.818 28.271 68.5137 28.5674 68.1166C28.8299 67.7617 29.0671 67.3899 29.1687 66.9505C29.2111 66.7646 29.3296 66.7054 29.4821 66.6547C30.9388 66.1308 31.4216 64.9816 31.5317 63.562C31.6672 61.8297 31.7773 60.0974 31.9891 58.3736C32.1246 57.3088 32.5396 56.3033 33.2256 55.4498C33.4627 55.1541 33.5136 54.909 33.4289 54.5625C33.2595 53.802 33.2002 53.0584 34.0217 52.5852C34.0725 52.5599 34.1149 52.4923 34.1318 52.4331C34.4537 51.2247 35.4531 50.6924 36.444 50.2192C37.7567 49.5939 39.1119 49.07 40.4585 48.5122C41.0005 48.2841 41.3393 48.5798 41.5849 49.0277C41.9661 49.7291 42.0762 50.498 42.0677 51.267C42.0423 53.3964 42.2456 55.4921 42.6944 57.5708C42.8045 58.0863 42.8045 58.6271 42.7537 59.151C42.686 59.903 42.4234 60.1819 41.6696 60.2073C41.3054 60.2241 41.0683 60.3425 40.8142 60.596C39.1457 62.2437 37.1046 63.3507 35.055 64.4408C34.1234 64.9393 33.1494 65.3956 32.4379 66.2153C32.2855 66.3843 32.0229 66.5956 32.1754 66.8322C32.3024 67.0265 32.5819 66.9082 32.8021 66.8744C33.4289 66.7815 34.0217 66.773 34.5722 66.528C34.6908 66.4773 34.5807 66.2745 34.6993 66.2238C36.0544 65.6238 36.5456 65.2266 37.2994 64.6436C38.3411 63.8324 39.2982 62.9113 40.3061 62.0494C40.9328 61.517 41.6442 61.1283 42.3895 60.7734C42.8638 60.5453 42.9739 60.7565 42.9401 61.1706L42.957 61.179ZM46.4972 44.1858C48.8687 44.5576 50.7574 45.8082 52.3581 47.5067C53.0695 48.2587 53.1966 49.2728 53.2643 50.2952C53.222 50.5741 53.3829 50.9543 53.0526 51.1233C52.7307 51.2839 52.4597 51.0135 52.231 50.8276C50.444 49.3235 48.496 48.0052 46.8783 46.3068C46.4803 45.8927 46.0822 45.4702 45.8874 44.9209C45.7011 44.3801 45.9213 44.1013 46.4888 44.1942L46.4972 44.1858ZM43.7023 43.4844C44.3121 43.5858 45.2353 43.5943 45.8705 43.89C45.0405 44.3632 45.0235 44.4477 45.4216 45.2674C45.5486 45.5209 45.6842 45.7828 45.7773 46.0448C45.8705 46.3237 45.8874 46.6279 45.5741 46.7969C45.2946 46.949 45.0151 46.9152 44.7695 46.7124C44.3375 46.3575 44.1512 45.8589 44.0411 45.335C43.9225 44.7773 43.931 44.3041 43.8209 43.7464L43.7108 43.4844H43.7023ZM43.7785 52.7542C43.9903 53.1007 44.1258 53.4133 44.058 53.7936C44.058 53.7936 44.0241 54.14 43.9056 54.3766C43.7362 54.7147 43.6854 54.8076 43.5668 54.833C43.516 54.8414 43.6261 53.7767 43.3296 52.8556C43.2365 52.5768 43.2195 52.3317 43.2958 52.3148C43.3805 52.2979 43.6938 52.5937 43.787 52.7458L43.7785 52.7542ZM43.4652 52.112C42.7876 51.0726 42.7537 49.915 42.8299 48.7235C43.5837 49.7544 43.5837 50.9205 43.4652 52.112ZM33.0139 41.4226C33.3865 41.2198 33.8185 41.2198 34.1826 41.524C34.6739 41.938 34.9025 42.5211 35.182 43.0619C35.5039 43.6872 35.8765 44.2618 36.5033 44.7519C36.6218 44.1182 36.3508 43.6872 36.1306 43.2478C35.9189 42.8168 35.6648 42.4028 35.5632 41.9127C35.5208 41.7099 35.4869 41.4986 35.6648 41.3634C35.8342 41.2367 36.0375 41.3043 36.2322 41.3888C36.9522 41.7099 37.4688 42.2084 37.7059 42.9858C37.833 43.4168 37.977 43.8562 38.4851 44.1351C38.5783 43.5351 38.3327 43.0365 38.3496 42.5211C38.3665 41.7775 38.6545 41.5662 39.349 41.8282C40.0096 42.0817 40.5432 42.4873 40.8566 43.1295C41.0937 43.6281 41.3054 44.1266 41.5426 44.6252C41.6188 44.7773 41.5849 45.0899 41.8814 44.9801C42.127 44.8871 42.2456 44.6674 42.127 44.3886C41.9999 44.0844 41.8475 43.7886 41.7204 43.4844C41.5765 43.1464 41.3563 42.8253 41.4579 42.3605C41.8729 42.4873 42.127 42.7408 42.2964 43.0534C42.7537 43.9069 43.1179 44.8111 43.3889 45.7321C43.4567 45.9518 43.5075 46.4335 42.8215 46.18C42.669 46.1209 42.4488 46.3913 42.1439 46.4166C40.9836 46.5265 40.3569 46.0617 39.078 45.842C38.6037 45.7575 38.1463 45.749 37.689 46.0448C37.0961 46.4251 36.3932 46.1885 35.741 46.2054C35.3514 46.2138 35.2074 45.7828 34.9872 45.5293C34.3266 44.7604 33.6999 43.9661 33.2002 43.0703C33.0731 42.8422 32.9461 42.6056 32.8699 42.3521C32.7598 42.0225 32.6073 41.6169 33.0054 41.4057L33.0139 41.4226ZM29.9479 43.29C30.1342 42.707 30.7864 42.8591 31.2691 42.783C31.6164 42.7239 31.8281 42.8844 32.0568 43.1379C32.5734 43.7041 33.1578 44.2196 33.7084 44.7604C33.9286 44.9801 34.1657 45.1829 34.352 45.4279C34.9534 46.1969 34.8009 46.6363 33.9201 47.0335C33.2764 47.3208 33.0562 47.3799 32.8191 47.4222C32.8191 47.4222 32.7259 46.9574 32.4888 46.518C32.0399 45.673 31.4894 44.9125 30.7271 44.3125C30.3799 44.0421 29.7701 43.8309 29.9479 43.29Z" fill="white"/>
<path d="M29.8463 27.8095C30.1342 27.8095 31.0235 28.8151 31.6587 29.3981C34.9364 32.4148 38.1971 35.4653 41.4494 38.5074C41.7543 38.7947 42.3133 39.0651 41.695 39.5975C41.6611 39.6313 41.6019 39.6735 41.6019 39.6735L41.9406 40.1974C41.9406 40.1974 42.0338 40.1467 42.1778 40.0707C44.0919 39.0144 46.006 37.9581 47.9116 36.9019C48.0471 36.8258 48.1657 36.7582 48.1657 36.7582L47.8354 36.2089C47.8354 36.2089 47.7676 36.2427 47.6999 36.2681C47.0477 36.5385 46.9546 36.0568 46.8699 35.6597C46.4549 33.7415 46.0907 31.8064 45.6841 29.8967C45.3623 28.3672 44.9049 26.4913 44.5746 24.9618C44.5746 24.9618 51.6805 32.1951 52.3496 32.9218C52.5613 33.15 52.7138 33.4035 52.375 33.6401C52.2988 33.6908 52.1463 33.8007 52.1463 33.8007L52.519 34.3753C52.519 34.3753 52.7392 34.2401 52.8408 34.1809C53.6708 33.7246 54.5008 33.2683 55.3308 32.812C56.2794 32.2881 57.2195 31.7642 58.1681 31.2403C58.3121 31.1642 58.4899 31.0797 58.4899 31.0797L58.2105 30.5051L58.1004 30.5473C57.4143 30.7924 57.4482 30.2769 57.3635 29.8798C57.2703 29.4488 55.3986 19.5875 54.5601 15.0836C54.4924 14.7287 54.323 14.2301 54.6279 14.0189C54.6618 13.9935 54.6872 13.9682 54.6872 13.9682L54.3823 13.4358C54.3823 13.4358 54.2298 13.5287 54.1197 13.5879C52.6714 14.3907 51.2232 15.185 49.7749 15.9877C49.6394 16.0638 49.4615 16.1652 49.4615 16.1652L49.7664 16.7313C49.7664 16.7313 49.9019 16.6722 49.9612 16.6553C50.5625 16.4778 50.6218 16.8919 50.6981 17.2975L52.5275 26.6096C50.2576 24.2942 47.9794 21.8606 45.7942 19.6298C45.5994 19.4354 45.5063 19.241 45.7434 19.0129C45.9721 18.7932 45.7942 18.6157 45.6672 18.4383C45.5232 18.2355 45.3877 18.4129 45.2776 18.4721C43.1856 19.6213 41.1022 20.7705 39.0187 21.9197C38.9255 21.9704 38.6968 22.0972 38.6968 22.0972L39.0526 22.6465C39.0526 22.6465 39.1373 22.6127 39.1881 22.5958C39.8148 22.3422 39.8487 22.8408 39.9334 23.2042C40.3399 24.9618 40.738 26.7194 41.1276 28.4855C41.4071 29.7784 41.695 31.1727 41.9999 32.6176C41.2207 31.8825 40.5347 31.1727 39.8826 30.5473C38.2649 29.0179 36.6388 27.4884 35.0296 25.9505C34.8348 25.7646 34.4282 25.4266 34.5976 25.2238L34.9957 24.8857L34.6823 24.328C34.6823 24.328 34.5214 24.4125 34.3859 24.4886C32.819 25.3505 29.3889 27.2602 29.3889 27.2602L29.7023 27.8348C29.7023 27.8348 29.7531 27.8095 29.8463 27.8095Z" fill="white"/>
<path d="M58.0327 13.6216C58.49 13.5287 58.6425 13.7822 58.7441 14.1793C60.0399 18.8692 61.3442 23.5505 62.6655 28.2319C62.784 28.6544 62.7248 28.9333 62.3013 29.0516L61.9964 29.153L62.1827 29.8036L77.4447 25.5448C77.4447 25.5448 77.9698 25.3251 78.1646 25.7983L78.3001 26.1025L78.9099 25.9166L77.3092 20.162L76.6739 20.3733C76.6739 20.3733 76.7163 20.5423 76.7502 20.7958C76.801 21.1338 76.7332 21.3619 76.3267 21.4718C73.2608 22.3084 66.7223 24.142 66.7223 24.142L66.0109 21.4465L71.4652 19.9508C71.8972 19.824 72.2529 19.8071 72.5155 20.2043L72.6171 20.4071L73.2269 20.1958L71.8125 15.0919L71.2112 15.3032V15.4722C71.1942 15.9877 70.83 16.1398 70.4066 16.2496C69.1954 16.5792 64.9692 17.7537 64.9692 17.7537L64.3509 15.3623L73.7605 12.7766C74.2009 12.6498 74.4888 12.6667 74.6413 13.1315L74.7344 13.4273L75.3697 13.3005L73.7774 7.52905L73.1676 7.74031C73.1676 7.74031 73.193 7.79946 73.2523 8.06986C73.3539 8.55997 73.0744 8.72052 72.651 8.83038L57.4822 13.047L57.6939 13.6639C57.6939 13.6639 57.9141 13.6216 58.0242 13.5963L58.0327 13.6216Z" fill="white"/>
<path d="M117.09 6.90381C117.547 6.99676 117.581 7.29252 117.522 7.69812C116.828 12.5063 116.15 17.3228 115.481 22.1394C115.422 22.5788 115.252 22.807 114.82 22.7478L114.498 22.7225L114.405 23.3985L130.099 25.5871C130.099 25.5871 130.667 25.5955 130.658 26.1026V26.4321L131.302 26.5082L132.149 20.5931L131.48 20.5339C131.48 20.5339 131.446 20.7029 131.378 20.9564C131.285 21.286 131.141 21.4719 130.717 21.4127C127.575 20.9564 120.842 20.0269 120.842 20.0269L121.266 17.2721L126.864 18.0834C127.304 18.1425 127.643 18.2693 127.728 18.7425L127.745 18.9706L128.388 19.0213L129.142 13.7738L128.507 13.7231L128.448 13.8836C128.219 14.3484 127.829 14.3399 127.389 14.2723C126.144 14.0949 121.799 13.478 121.799 13.478L122.189 11.0444L131.852 12.4302C132.301 12.4894 132.564 12.6161 132.513 13.1062L132.479 13.4189L133.106 13.5541L133.961 7.63052L133.318 7.57982C133.318 7.57982 133.318 7.64742 133.258 7.91783C133.157 8.40794 132.826 8.44174 132.403 8.37414L116.811 6.18555L116.76 6.83621C116.76 6.83621 116.98 6.88691 117.09 6.91226V6.90381Z" fill="white"/>
<path d="M40.9583 94.1008C41.1954 94.2698 41.1446 94.4473 41.0091 94.667C39.4338 97.2612 37.7738 100.016 36.2069 102.619C36.0629 102.855 35.9105 102.948 35.6733 102.804L35.4955 102.712L35.343 102.973L43.9734 108.153C43.9734 108.153 44.2952 108.297 44.1682 108.584L44.092 108.779L44.2868 108.889L46.1839 105.838L45.9552 105.728C45.9552 105.728 45.896 105.821 45.7943 105.948C45.6588 106.117 45.5318 106.185 45.3031 106.049C43.6092 105.018 39.7133 102.669 39.7133 102.669L40.6703 101.055L43.9395 103.024C44.1767 103.168 44.346 103.32 44.2698 103.607L44.219 103.742L44.4392 103.878L46.0569 101.165L45.8451 101.021L45.7604 101.106C45.5148 101.317 45.2946 101.216 45.0575 101.072C44.3884 100.667 41.8306 99.1455 41.8306 99.1455L42.703 97.6583L48.2251 100.988C48.4707 101.131 48.5892 101.267 48.4368 101.537L48.3436 101.706L48.5723 101.841L50.4017 98.816L50.1984 98.6892C50.1984 98.6892 50.1646 98.7399 50.0629 98.8836C49.8851 99.1371 49.6903 99.0779 49.4616 98.9343L40.8905 93.7712L40.7635 93.9656C40.7635 93.9656 40.8736 94.0501 40.9329 94.0839L40.9583 94.1008Z" fill="white"/>
<path d="M76.4792 108.348C76.7671 108.415 76.7841 108.601 76.7417 108.846C76.2505 111.838 75.7508 115.015 75.2765 118.015C75.2342 118.285 75.1241 118.429 74.853 118.387L74.6498 118.37L74.6074 118.665L84.5506 120.237C84.5506 120.237 84.9063 120.246 84.8893 120.567V120.778L85.1095 120.803L85.7193 117.263L85.4653 117.246C85.4653 117.246 85.4399 117.356 85.3975 117.508C85.3382 117.711 85.2451 117.829 84.9825 117.787C83.0261 117.466 78.5373 116.747 78.5373 116.747L78.8252 114.888L82.6026 115.488C82.8821 115.53 83.0853 115.615 83.1277 115.911V116.054L83.3818 116.097L83.8645 112.979L83.6105 112.928L83.5681 113.038C83.4241 113.325 83.1785 113.317 82.9075 113.266C82.1368 113.139 79.1894 112.691 79.1894 112.691L79.4435 110.984L85.821 111.998C86.1005 112.041 86.2614 112.125 86.2275 112.429L86.2021 112.624L86.4647 112.666L87.0236 109.176L86.7865 109.134C86.7865 109.134 86.7696 109.193 86.7357 109.362C86.6679 109.666 86.4647 109.683 86.2021 109.641L76.3183 108.061L76.2759 108.289C76.2759 108.289 76.4114 108.323 76.4792 108.339V108.348Z" fill="white"/>
<path d="M149.537 103.075C149.808 102.973 149.926 103.117 150.028 103.354C151.281 106.117 152.62 109.041 153.89 111.795C154.009 112.049 153.992 112.226 153.746 112.336L153.568 112.429L153.704 112.7L162.859 108.525C162.859 108.525 163.164 108.339 163.325 108.61L163.443 108.779L163.638 108.677L162.19 105.39L161.97 105.517C161.97 105.517 162.012 105.618 162.063 105.77C162.122 105.973 162.114 106.125 161.868 106.227C160.064 107.038 155.914 108.914 155.914 108.914L155.118 107.207L158.599 105.627C158.853 105.508 159.073 105.458 159.277 105.686L159.361 105.804L159.59 105.694L158.26 102.83L158.023 102.923L158.048 103.041C158.091 103.362 157.871 103.489 157.625 103.599C156.914 103.92 154.212 105.17 154.212 105.17L153.475 103.607L159.353 100.937C159.607 100.819 159.793 100.793 159.929 101.072L160.013 101.25L160.251 101.14L158.777 97.9287L158.557 98.0217C158.557 98.0217 158.582 98.0808 158.641 98.2414C158.751 98.5287 158.591 98.6639 158.345 98.7653L149.24 102.906L149.333 103.117C149.333 103.117 149.469 103.066 149.528 103.041L149.537 103.075Z" fill="white"/>
<path d="M81.8658 16.6721C83.8561 17.1115 85.8634 17.0101 87.8791 16.9847C88.9632 16.9678 90.0473 16.9087 91.1229 17.0861C92.1562 17.2636 92.4357 18.0325 91.7581 18.8522C91.504 19.1649 91.1822 19.4184 90.8095 19.562C87.8114 20.669 84.8132 20.669 81.8235 19.5029C81.2983 19.3001 80.8833 18.9874 80.985 18.3283L81.0273 18.1762L80.4429 17.9142L78.7152 24.1505L79.3334 24.2688L79.3927 24.1505C79.7061 23.6688 80.138 23.7617 80.57 23.8716C83.602 24.6237 86.651 24.6321 89.7085 24.0998C91.5549 23.7786 93.325 23.2378 94.8071 22.0295C96.5434 20.6098 97.1701 18.7846 96.6789 16.596C96.2046 14.4581 94.6547 13.5117 92.6559 13.0808C91.0636 12.7427 89.4544 12.7765 87.3117 12.8357C86.7781 12.8357 85.7194 12.8357 84.6607 12.8357C84.2627 12.8357 83.8646 12.7681 83.4919 12.6244C82.7551 12.3371 82.645 11.7287 83.2294 11.1879C83.5258 10.9175 83.8815 10.7232 84.2627 10.6133C86.8967 9.8528 89.5391 9.8697 92.1816 10.5288C92.5627 10.6218 92.9523 10.7654 92.9862 11.2724V11.5006L93.596 11.678L95.3492 6.66709L94.7394 6.52344L94.6377 6.70089C94.3159 7.18255 93.8416 7.1572 93.3334 7.08115C90.6656 6.64174 87.9807 6.40514 85.279 6.76004C83.5258 6.9882 81.8658 7.49521 80.4345 8.56837C79.3165 9.40494 78.5373 10.4866 78.334 11.8893C77.9699 14.4074 79.2233 16.0975 81.8658 16.6805V16.6721Z" fill="white"/>
<path d="M175.36 94.0078C176.495 93.4417 177.401 92.6135 178.367 91.8108C178.883 91.3798 179.459 90.8897 180.052 90.5601C180.619 90.239 181.119 90.5855 181.119 91.2531C181.119 91.5066 181.009 91.9798 180.882 92.191C179.866 93.9064 178.29 95.0894 176.385 95.6978C176.046 95.8077 175.724 95.8161 175.512 95.4612L175.385 95.2584L175.106 95.4274L176.664 99.061L176.901 98.9681L176.884 98.892C176.774 98.4188 176.944 98.4188 177.494 98.1315C179.222 97.2358 180.704 96.1203 181.983 94.6585C182.754 93.7797 183.448 92.8501 183.685 91.684C183.965 90.3151 183.668 89.2166 182.567 88.3462C181.492 87.5012 180.357 87.6617 179.222 88.2364C178.316 88.7011 177.486 89.3602 176.469 90.2306C176.215 90.4418 175.741 90.8221 175.224 91.2362C175.03 91.3967 174.759 91.5742 174.521 91.6502C174.047 91.8023 173.607 91.5995 173.632 91.0334C173.649 90.7799 173.759 90.4587 173.903 90.2559C174.877 88.8532 176.402 87.6702 177.943 86.9435C178.163 86.8421 178.409 86.7491 178.629 86.9857L178.722 87.0956L179.01 86.9773L178.019 83.9944L177.706 84.1465L177.723 84.2732C177.757 84.6366 177.52 84.8141 177.24 84.9662C175.775 85.8027 174.25 86.8167 173.082 88.0505C172.319 88.8532 171.718 89.7489 171.447 90.8306C171.235 91.6756 171.286 92.5037 171.743 93.2642C172.565 94.6247 173.835 94.7514 175.343 93.9994L175.36 94.0078Z" fill="white"/>
<path d="M48.1827 80.1328L48.0218 80.2173C45.8028 81.4172 43.4991 82.6932 41.5342 84.9494C41.5342 84.9494 41.5342 84.9663 41.8391 85.2283C43.2281 86.4197 44.6679 87.552 46.1754 88.5914C52.4767 92.9601 59.4047 96.0275 66.68 98.3936C67.0103 98.5034 67.1458 98.5372 67.1458 98.5372C67.1543 97.9542 67.5947 96.9233 69.8814 95.8839C62.7332 92.2419 54.5433 87.4084 48.1827 80.1328Z" fill="white"/>
<path d="M96.8904 10.9007L96.9074 10.5796C96.9328 10.0979 97.2207 9.97964 97.6696 9.97964L102.709 10.081L102.607 21.7338C102.607 22.1141 102.59 22.4774 102.099 22.4943C101.786 22.5028 101.684 22.5028 101.684 22.5028V23.1788L108.502 23.2717V22.5788H108.206C107.689 22.5366 107.638 22.2155 107.638 21.7929C107.655 19.9424 107.689 10.0895 107.689 10.0895L112.83 10.1571C113.66 10.1571 113.584 11.0528 113.584 11.0528H114.194L114.278 5.0025H113.618C113.618 5.0025 113.618 5.11235 113.584 5.36586C113.533 5.84751 113.236 5.94892 112.788 5.93202C112.788 5.93202 97.8475 5.77146 97.8051 5.77146C97.3139 5.77146 96.9836 5.67851 96.9497 5.1377V4.8335H96.2806L96.2383 10.9007H96.8989H96.8904Z" fill="white"/>
<path d="M139.043 109.379L138.984 109.184C138.899 108.889 139.06 108.728 139.331 108.635L142.558 107.655L144.828 114.812C144.904 115.04 144.929 115.243 144.641 115.353C144.455 115.421 144.396 115.446 144.396 115.446L144.489 115.733L148.478 114.508L148.368 114.212L148.19 114.263C147.877 114.348 147.8 114.195 147.716 113.942C147.36 112.835 145.421 106.768 145.421 106.768L148.715 105.72C149.206 105.559 149.342 106.1 149.342 106.1L149.579 106.033L148.461 102.602L148.266 102.678C148.266 102.678 148.283 102.754 148.317 102.906C148.376 103.202 148.224 103.32 147.961 103.396C147.961 103.396 138.662 106.311 138.645 106.311C138.357 106.413 138.137 106.421 138.01 106.1L137.942 105.897L137.713 105.973L138.848 109.438L139.06 109.379H139.043Z" fill="white"/>
<path d="M59.3369 106.489L59.4047 106.294C59.4978 106.007 59.7265 105.956 59.9975 106.033L63.2074 107.047L61.0223 114.229C60.9546 114.457 60.8614 114.643 60.5565 114.567C60.3702 114.516 60.3024 114.5 60.3024 114.5L60.2177 114.787L64.2068 116.029L64.2831 115.725L64.1052 115.666C63.8003 115.556 63.8172 115.387 63.8935 115.133C64.2238 114.018 66.0701 107.925 66.0701 107.925L69.3817 108.922C69.8814 109.066 69.6781 109.59 69.6781 109.59L69.9068 109.666L70.9316 106.202L70.7283 106.151C70.7283 106.151 70.7029 106.218 70.6436 106.371C70.525 106.649 70.3303 106.658 70.0677 106.573C70.0677 106.573 60.7513 103.734 60.7259 103.726C60.4295 103.641 60.2431 103.531 60.3194 103.193L60.3786 102.99L60.15 102.923L59.1167 106.421L59.3284 106.489H59.3369Z" fill="white"/>
<path d="M83.3987 27.4207C84.6013 27.0236 86.8034 26.3983 88.1924 26.0349C72.4561 28.0798 56.7961 32.6091 44.7949 41.448C45.4809 41.7184 46.9462 42.3184 46.9462 42.3184C49.3938 41.8198 52.4598 41.279 54.9244 40.9072C55.8137 40.772 57.0333 40.5776 57.0333 40.5776C65.0454 34.7639 74.1246 30.4543 83.3902 27.4207H83.3987Z" fill="white"/>
<path d="M41.7627 67.5337C41.2969 68.2773 40.6617 68.8688 39.6793 69.2998C38.1039 69.9758 36.9352 70.3645 35.8934 70.6687C34.6569 71.0236 33.5982 71.2264 32.0144 71.294L32.4548 72.5108C34.0555 76.7697 36.7912 80.2427 39.9503 83.4369C40.2467 83.7326 40.5093 84.0368 40.9327 84.4086C40.9327 84.4086 42.5165 82.1947 47.6998 79.516C47.6998 79.516 47.5643 79.3639 47.361 79.1188C44.7609 76.0176 42.5504 72.0207 41.7458 67.5337H41.7627Z" fill="white"/>
<path d="M104.217 103.844C107.215 100.278 109.671 96.6698 111.78 92.9771C111.848 92.8588 111.958 92.6813 112.009 92.6053C106.622 92.3856 101.058 92.3687 95.6033 92.6053C95.6964 92.7405 95.7134 92.7743 95.7557 92.8419C97.9154 96.6191 100.592 100.489 103.37 103.844H104.217Z" fill="white"/>
<path d="M39.1544 93.6867C39.3068 93.5262 39.4593 93.3572 39.7218 93.5008C39.8235 93.56 39.9336 93.6614 39.9336 93.6614L40.1029 93.4586C39.0612 92.4699 37.164 90.67 36.1138 89.6898L35.8936 89.8757C36.0461 90.0701 36.3764 90.425 35.8682 90.6109C34.4792 91.1348 32.9886 91.684 31.4895 92.2586C32.0231 90.7714 32.5313 89.3349 33.0055 87.9913C33.1072 87.6956 33.3104 87.4759 33.6153 87.704C33.6831 87.7547 33.7593 87.8223 33.7593 87.8223L33.9457 87.6195L30.0666 83.9521L29.8803 84.1465C29.8803 84.1465 29.9565 84.2226 30.0243 84.2986C30.2953 84.5944 29.8549 85 29.8549 85L23.7315 91.4981C23.4943 91.7432 23.325 91.9967 22.7744 91.5488L22.6135 91.7516L25.2899 94.2613L25.4508 94.0754C24.9511 93.5769 25.3576 93.2811 25.6286 93.0107C26.0775 92.5544 26.6958 91.9037 27.1362 91.439C28.2034 90.3151 29.279 89.1912 30.3461 88.0674L30.4478 88.135C29.5246 90.7714 27.7037 96.1288 27.7037 96.1288L35.8682 92.8755C35.8682 92.8755 32.3957 96.5598 30.9221 98.1062C30.5409 98.5033 30.3885 98.7146 29.8973 98.2667L29.7448 98.4442L32.7345 101.292L32.9124 101.106C32.9124 101.106 32.7345 100.937 32.6837 100.793C32.6075 100.582 32.7091 100.413 32.8362 100.278C34.9281 98.0723 39.1628 93.6614 39.1628 93.6614L39.1544 93.6867Z" fill="white"/>
<path d="M71.9312 95.9261C72.1683 96.0529 72.3631 96.1543 72.5155 96.2303C77.9783 98.9175 86.7188 101.883 90.6486 102.669C92.4442 103.033 93.884 103.489 94.5192 103.531C95.5948 103.607 97.3734 103.776 99.6517 103.734C99.4738 103.658 99.3552 103.599 99.2367 103.548C93.2996 101.038 87.1253 98.3598 80.011 94.084C80.011 94.084 75.6662 94.7177 71.9481 95.9261H71.9312Z" fill="white"/>
<path d="M122.29 109.835C120.275 109.328 118.293 109.522 116.421 110.46C114.304 111.517 113.262 113.494 113.516 115.851C113.762 118.099 115.227 119.789 117.48 120.372C119.555 120.905 121.571 120.676 123.459 119.679C125.28 118.716 126.271 117.187 126.271 115.082C126.271 112.446 124.806 110.469 122.29 109.835ZM123.07 116.02C122.519 117.651 120.385 118.53 118.538 117.905C116.972 117.364 116.167 115.742 116.692 114.195C117.116 112.953 118.428 112.133 119.995 112.125C122.265 112.108 123.756 114.001 123.07 116.029V116.02Z" fill="white"/>
<path d="M100.219 110.672L95.4506 110.359L95.4167 110.646C96.1197 110.672 95.9503 110.984 95.6369 111.297C95.1626 111.762 93.8329 113.156 93.8329 113.156L92.1983 110.891C92.0374 110.638 92.0035 110.41 92.6303 110.46L92.6472 110.173L87.8704 109.911L87.8535 110.198C87.8535 110.198 88.1076 110.198 88.3109 110.435L91.8003 115.446L87.4724 119.958C87.1336 120.305 86.8287 120.279 86.8287 120.279L86.8118 120.55L91.5377 120.913L91.5631 120.668C91.0804 120.601 90.8686 120.44 91.3175 119.967C91.868 119.392 93.4772 117.829 93.4772 117.829L94.9848 120.195C95.6369 121.065 94.8493 120.913 94.8493 120.913V121.141L99.643 121.42L99.6599 121.217C99.6599 121.217 99.2957 121.124 98.9485 120.609L95.4591 115.556L99.372 111.356C99.372 111.356 99.7361 110.908 100.185 110.934L100.21 110.663L100.219 110.672Z" fill="white"/>
<path d="M109.205 110.595L101.447 110.629V110.933C101.447 110.933 102.099 110.891 102.108 111.398L102.235 120.55C102.235 120.879 102.362 121.2 101.684 121.2V121.462L105.902 121.429V121.175C105.902 121.175 105.648 121.15 105.495 121.065C105.318 120.972 105.267 120.803 105.267 120.347L105.233 117.322H109.281C110.526 117.246 111.619 116.806 112.313 115.699C112.635 115.175 112.737 114.542 112.754 113.976C112.813 112.226 111.534 110.595 109.214 110.595H109.205ZM108.748 115.209L105.165 115.251V112.894L108.485 112.852C109.501 112.852 109.942 113.392 109.942 113.95C109.942 114.601 109.679 115.142 108.748 115.218V115.209Z" fill="white"/>
<path d="M52.807 100.726C53.2559 100.971 53.2051 101.064 52.9341 101.343C50.6727 103.667 46.0992 108.432 46.0992 108.432C46.0992 108.432 45.8451 108.762 45.3708 108.635L45.2607 108.872L48.53 110.291L48.657 110.063C48.657 110.063 48.2505 109.861 48.3944 109.666L49.8004 108.247L54.2468 110.19L54.1875 112.058C54.1875 112.269 54.0012 112.252 53.654 112.193L53.5608 112.421L57.2874 113.984L57.3636 113.773C57.3636 113.773 57.0333 113.638 57.0587 113.072L57.2196 103.354C57.2196 102.83 57.3297 102.644 57.7447 102.813L57.8633 102.593L52.9087 100.515L52.7986 100.734L52.807 100.726ZM54.4077 108.517C54.4077 108.517 51.7992 107.359 50.876 106.962C52.0617 105.72 54.4332 103.244 54.4332 103.244L54.4162 108.517H54.4077Z" fill="white"/>
<path d="M87.5825 93.1375C92.1391 97.0161 96.8312 100.405 101.837 103.354C99.4397 100.396 96.4162 95.8838 94.6884 92.6389C94.6884 92.6389 89.4712 92.9431 87.5825 93.1375Z" fill="white"/>
<path d="M70.8638 96.374C67.4591 97.8105 68.018 98.7823 68.018 98.7823C72.7101 100.219 78.1221 101.63 88.6157 103.024C81.5099 101.131 75.0816 98.4443 71.2534 96.5261C71.1009 96.4501 70.8638 96.374 70.8638 96.374Z" fill="white"/>
<path d="M86.4139 93.2559C84.864 93.4502 82.8482 93.6699 81.2983 93.8558C81.2983 93.8558 81.383 93.9065 81.4847 93.9657C86.9305 97.0669 90.7164 98.9259 98.8809 102.576C98.6014 102.365 98.017 101.993 97.9662 101.951C93.9263 99.3315 90.259 96.619 86.6172 93.4671C86.4647 93.3319 86.4139 93.2559 86.4139 93.2559Z" fill="white"/>
<path d="M32.1161 79.4399C32.3702 79.1864 32.6751 79.1019 32.7682 78.8146C32.8868 78.4428 32.7344 78.3752 32.836 77.9949C32.9037 77.7245 32.9884 76.9724 32.7089 76.8457C32.4549 76.7274 32.1923 76.7358 31.9721 76.9386C31.7942 77.0992 31.6587 77.2766 31.4724 77.4372C30.8795 77.9526 30.2528 77.8766 29.7108 77.3949C29.2026 76.9302 29.5075 76.4401 29.77 75.9922C30.0241 75.5613 30.3714 75.1725 30.5408 74.6824C30.5831 74.5641 30.6509 74.4205 30.5408 74.3106C30.4307 74.2008 30.2867 74.2684 30.1681 74.3191C29.643 74.5388 29.1687 74.7669 28.6521 75.012C27.6781 75.4768 26.9582 74.9866 26.7126 74.0318C26.6194 73.6684 26.6109 73.2882 26.5432 72.9248C26.4331 72.3502 26.0774 71.9023 25.5184 71.8601C24.9425 71.8178 24.5444 72.2403 24.3835 72.7981C24.2226 73.3558 24.1802 73.9557 24.7985 74.243C25.3744 74.505 25.5438 74.9275 25.5946 75.4852C25.6285 75.95 25.6708 76.4147 25.908 76.8288C26.0943 77.1499 26.8396 77.5555 26.8227 77.2597C26.7719 76.5499 27.5002 77.133 27.8983 77.5724C28.7876 78.5442 29.0925 79.5075 29.9648 79.7779C30.4561 79.93 30.8626 80.5468 31.2776 80.8849C31.6587 81.206 32.0314 81.5778 32.7089 81.4341C32.4718 81.1046 32.2685 80.8426 32.0907 80.5722C31.8366 80.1666 31.7942 79.7694 32.1161 79.4399Z" fill="white"/>
<path d="M22.5457 56.8357C22.859 57.7061 23.4688 57.7822 24.2311 57.6723C24.3497 57.6554 24.4852 57.7315 24.6122 57.7737C25.7471 58.1962 26.6195 57.9343 27.3055 56.9371C27.5681 56.5569 27.7713 56.1344 28.0339 55.7541C28.4404 55.1626 28.3388 54.8668 27.6273 54.6471C27.17 54.5035 26.7042 54.5795 26.2468 54.588C26.1198 54.588 25.9673 54.6387 25.8572 54.588C25.3914 54.3936 24.5614 54.4697 24.2819 54.8415C23.7991 55.4837 23.1724 55.5682 22.4525 55.4668C22.1476 55.4246 21.8427 55.3654 21.5293 55.357C20.784 55.3316 20.5045 55.5767 20.3182 56.2949C20.1149 57.0554 20.2166 57.8244 20.1827 58.5934C20.1658 58.9652 20.1742 59.3623 19.827 59.6158C19.268 60.0299 19.2511 60.5707 19.81 61.0017C20.1912 61.2974 20.657 61.365 21.1228 61.4073C21.8004 61.4664 21.9952 61.2045 21.8173 60.5369C21.631 59.8778 21.4277 59.2271 21.3938 58.5173C21.4108 57.9512 21.5971 57.4188 21.8512 56.8949C22.0544 56.4808 22.4271 56.5062 22.5457 56.8273V56.8357Z" fill="white"/>
<path d="M15.4991 69.7053C16.3291 69.0039 16.9727 68.1336 17.5063 67.1871C17.5825 67.0519 17.6249 66.7815 17.7265 66.7477C17.879 66.697 18.023 66.79 18.023 66.79C18.0653 66.6463 18.023 66.2323 17.9637 66.021C17.8112 65.4718 17.4894 65.3028 16.9643 65.0408C16.7017 64.9141 16.4476 64.9732 16.3884 64.8972C16.3206 64.8127 16.7864 64.7028 16.5493 64.5676C15.7193 64.0859 15.3212 64.0859 15.1264 64.0859C14.686 64.0859 14.3896 64.9141 14.3303 65.4633C14.2795 65.9281 14.6352 66.6041 13.7289 66.6548C13.6697 66.6548 13.5934 66.7815 13.5765 66.8576C13.4495 67.4238 13.1191 67.897 12.9074 68.4293C12.7295 68.8687 12.6957 69.3166 12.8905 69.7644C13.9322 70.5672 14.4827 70.5588 15.5075 69.6968L15.4991 69.7053ZM14.9655 67.2209C15.0756 66.8829 15.2026 66.452 15.6007 66.4013C15.8463 66.3675 15.8378 66.7139 15.8378 66.9674C15.8209 67.2716 15.7531 67.6181 15.3297 67.6519C15.0671 67.6773 14.8808 67.466 14.9655 67.2294V67.2209Z" fill="white"/>
<path d="M12.8897 69.7805L12.8735 69.7644L12.8897 69.7805Z" fill="white"/>
<path d="M24.4936 53.8866C25.4676 53.8444 26.4331 53.7599 27.3986 53.7007C28.1524 53.6585 28.8723 53.7261 29.2704 54.512C29.4398 54.85 29.7277 54.7655 29.9564 54.6641C30.5154 54.419 29.8548 53.0332 28.9909 52.8388C28.7961 52.7966 28.6183 52.56 28.5081 52.391C28.1694 51.8755 27.7882 51.7065 27.2039 51.7657C25.9504 51.9178 25.8149 52.1459 25.3745 52.2896C24.934 52.4332 24.7985 52.2135 24.3835 52.467C24.0956 52.6445 23.3841 53.3289 23.5027 53.5486C23.706 53.9289 24.1294 53.9035 24.4852 53.8951L24.4936 53.8866Z" fill="white"/>
<path d="M52.1803 44.5915C52.1803 44.5915 52.2735 44.5154 52.4005 44.4056C53.5354 43.4338 54.7296 42.4705 56.1525 41.3635C53.671 41.7184 50.6812 42.2508 48.115 42.7493C49.6564 43.2479 50.9353 43.831 52.1888 44.5915H52.1803Z" fill="white"/>
<path d="M45.2693 48.5376C45.2693 48.5376 45.7266 50.5403 46.1501 51.3515C46.3364 51.098 47.556 49.5009 47.556 49.5009C46.9801 49.07 46.2009 48.7404 45.2693 48.5376Z" fill="white"/>
<path d="M34.0304 82.3212C34.0388 82.7691 34.3522 83.1747 34.835 83.1494C35.233 83.1325 35.6819 83.0395 35.7327 82.5832C35.7666 82.2874 35.1992 82.1438 34.7418 82.1184C34.5978 82.1184 34.0219 81.9917 34.0304 82.3212Z" fill="white"/>
<path d="M133.944 24.8687C133.809 25.2912 133.639 25.5363 133.157 25.4264L132.886 25.3588L132.682 25.9757L139.145 28.0375L139.382 27.4038L139.043 27.277C138.713 27.1418 138.577 26.939 138.704 26.5587L140.263 21.6154L143.083 22.5449L144.929 28.3502C145.048 28.7389 145.031 29.0938 144.472 29.0093L144.243 28.9586L144.04 29.6092L150.511 31.6795L150.756 31.0458L150.578 30.9697C150.223 30.8176 150.121 30.4543 150.019 30.1163C149.486 28.3924 148.181 24.1504 148.181 24.1504C148.181 24.1504 148.359 24.1673 148.952 24.1251C153.034 23.8378 154.322 21.0492 154.5 18.2184C154.466 17.0439 154.11 16.0299 153.297 15.1933C152.475 14.3483 151.476 13.7652 150.392 13.4019C146.369 12.0752 142.033 10.6894 138.001 9.39648L137.773 10.0302L138.052 10.1401C138.569 10.3176 138.509 10.6556 138.374 11.095C136.892 15.6834 135.426 20.2718 133.978 24.8603L133.944 24.8687ZM141.414 18.1086L142.422 14.9398C142.422 14.9398 146.039 16.089 147.656 16.6129C147.902 16.6974 148.148 16.8157 148.368 16.9509C149.096 17.3903 149.367 18.0072 149.164 18.7339C148.944 19.5198 148.461 19.9169 147.572 19.9085C147.148 19.9254 146.699 19.7817 146.301 19.6465C144.878 19.1902 141.414 18.1001 141.414 18.1001V18.1086Z" fill="white"/>
<path d="M128.617 118.573C128.676 118.843 128.659 119.13 128.355 119.215L128.185 119.257L128.253 119.536L132.369 118.682L132.301 118.395L131.996 118.437C131.776 118.463 131.641 118.395 131.59 118.142L130.895 114.846L132.953 114.432L135.875 117.119C136.062 117.297 136.138 117.558 135.808 117.685L135.672 117.728L135.757 117.989L139.788 117.136L139.67 116.84L139.551 116.857C139.306 116.882 139.145 116.713 138.984 116.561C138.171 115.784 135.986 113.764 135.986 113.764C135.986 113.764 136.324 113.705 136.553 113.553C138.831 112.083 138.569 110.3 137.806 108.703C137.434 108.069 136.926 107.63 136.231 107.418C135.528 107.207 134.774 107.283 134.071 107.418C131.471 107.908 128.676 108.475 126.085 108.99L126.127 109.32L126.364 109.277C126.703 109.218 126.771 109.429 126.83 109.708C127.423 112.657 128.016 115.607 128.626 118.556L128.617 118.573ZM130.438 112.742L130.015 110.486L133.555 109.81C133.877 109.742 134.232 109.776 134.393 109.81C134.868 109.903 135.13 110.156 135.223 110.57C135.316 111.01 135.105 111.457 134.893 111.61C134.673 111.779 134.419 111.922 133.91 112.057L130.421 112.733L130.438 112.742Z" fill="white"/>
<path d="M165.798 105.99C165.951 106.218 166.044 106.497 165.798 106.683L165.663 106.784L165.832 107.013L169.338 104.697L169.169 104.461L168.898 104.613C168.703 104.723 168.551 104.706 168.415 104.494L166.543 101.697L168.305 100.548L172.023 101.959C172.26 102.052 172.43 102.264 172.176 102.509L172.057 102.593L172.235 102.804L175.656 100.523L175.436 100.295L175.326 100.354C175.106 100.464 174.894 100.371 174.691 100.295C173.641 99.8722 170.871 98.8075 170.871 98.8075C170.871 98.8075 171.159 98.6216 171.32 98.4019C172.887 96.1964 171.981 94.6416 170.676 93.4416C170.092 92.9938 169.457 92.7656 168.737 92.8332C168 92.9008 167.339 93.2473 166.73 93.636C164.502 95.0556 162.114 96.6105 159.903 98.0554L160.064 98.3427L160.268 98.216C160.564 98.0385 160.699 98.216 160.86 98.4441C162.503 100.962 164.163 103.48 165.823 105.999L165.798 105.99ZM165.315 99.906L164.087 97.9709L167.128 96.0274C167.399 95.8499 167.746 95.7401 167.907 95.7147C168.381 95.6302 168.72 95.7654 168.966 96.1119C169.22 96.4837 169.186 96.9738 169.05 97.202C168.906 97.4386 168.728 97.6667 168.313 97.9878L165.324 99.9145L165.315 99.906Z" fill="white"/>
<path d="M129.091 62.9959C129.074 61.9227 128.227 61.0861 127.152 61.0777C126.059 61.0692 125.178 61.9565 125.187 63.0381C125.195 64.1113 126.051 64.9479 127.126 64.9479C128.253 64.9479 129.1 64.1029 129.091 62.9959Z" fill="white"/>
<path d="M100.431 70.8714C100.431 70.8714 100.431 70.8798 100.329 71.1249C100.228 71.3699 99.8803 71.7755 99.3468 71.7755C98.8132 71.7755 98.1187 71.5051 98.1187 70.5587C98.1187 69.8489 98.1441 69.5616 98.5252 69.1729C98.8471 68.8349 99.4653 68.7842 99.9481 69.0039C100.101 69.0715 100.338 69.2658 100.431 69.5785L101.405 69.3757C101.379 69.1729 101.235 68.9194 101.083 68.7504C100.583 68.1927 99.9057 68.0997 99.2028 68.142C97.8138 68.2265 97.0177 69.063 97.0431 70.3813C97.0685 71.6319 97.9239 72.4431 99.2028 72.4853C99.9481 72.4853 100.592 72.3755 101.066 71.8262C101.227 71.6403 101.354 71.4122 101.439 71.1671L100.431 70.8714Z" fill="white"/>
<path d="M178.282 55.4077C178.138 55.3824 177.977 55.3993 177.825 55.4331C177.291 55.5683 176.766 55.7457 176.232 55.864C175.597 56.0077 175.682 56.3034 175.529 57.0048C175.428 57.4611 175.851 57.5879 176.173 57.7062C177.011 58.0273 177.977 58.1287 178.646 58.7793C178.773 58.8976 179.205 58.999 179.205 58.999C179.247 58.585 179.603 57.2498 179.662 56.9963C179.671 56.7597 178.714 56.2612 178.714 56.2612C178.773 55.6443 178.392 55.4246 178.282 55.4077Z" fill="white"/>
<path d="M183.558 66.1139C183.381 65.9196 183.228 65.8604 183.135 65.6069C183.093 65.4802 182.923 64.9478 182.923 64.9478C183.135 64.7873 183.838 64.7957 183.838 64.7957L183.855 64.2126C182.906 64.5845 181.551 65.2013 180.687 66.0125L181.407 66.8237C181.407 66.8237 181.526 66.528 181.712 66.359C181.822 66.2576 181.924 66.2153 182.042 66.1562C182.407 66.0041 182.695 66.0801 182.991 66.359C183.059 66.4266 183.203 66.604 183.203 66.604C183.203 66.604 182.432 66.5449 182.254 67.5082L183.118 67.6096C183.118 67.6096 183.44 67.4153 183.719 67.1195C184.067 66.7646 183.872 66.4266 183.558 66.1055V66.1139Z" fill="white"/>
<path d="M183.677 68.1927L184.16 67.973C185.286 67.4745 185.701 67.128 186.303 68.4293C186.303 68.4462 186.336 68.4547 186.353 68.4716C186.777 68.6997 187.133 68.4293 187.446 68.2434C187.641 68.1251 187.573 67.7871 187.37 67.6604C185.71 66.5787 184.77 66.5618 183.677 68.2012V68.1927Z" fill="white"/>
<path d="M185.151 69.3672C185.007 69.3841 184.566 69.4349 184.693 69.6377C185.159 70.3644 184.71 70.6263 185.405 71.2263C185.718 71.4967 186.091 71.6065 186.438 71.4798C186.751 71.3699 186.658 70.6601 186.658 70.4489C186.718 70.0433 185.337 69.3503 185.151 69.3672Z" fill="white"/>
<path d="M44.0665 54.5796C44.0665 54.5796 43.6345 54.7739 43.5414 55.3148C43.4482 55.8556 43.6599 57.2583 43.7277 57.2667C43.7955 57.2752 44.2697 56.8696 44.3121 56.5316C44.3544 56.1936 44.2189 55.8049 44.1173 55.5007C44.0157 55.1965 44.0665 54.5796 44.0665 54.5796Z" fill="white"/>
<path d="M145.488 68.9193V68.1926H141.753V68.2095V68.9193V69.8489V70.584V71.691V72.4177H142.77H145.488V71.691H142.77V70.584H145.353V69.8489H142.77V68.9193H145.488Z" fill="white"/>
<path d="M125.551 68.9193V68.1926H121.816V68.2095V68.9193V69.8489V70.584V71.691V72.4177H122.832H125.551V71.691H122.832V70.584H125.424V69.8489H122.832V68.9193H125.551Z" fill="white"/>
<path d="M138.509 71.6912V68.2097H137.493V71.6912V72.4179H138.509H141V71.6912H138.509Z" fill="white"/>
<path d="M132.217 68.2097H131.192V72.4179H132.217V68.2097Z" fill="white"/>
<path d="M129.71 68.1926L129.388 68.9193L128.371 71.2431L127.364 68.9193L127.042 68.1926H126L126.322 68.9193L127.533 71.691L127.846 72.4177L127.855 72.4346L127.863 72.4177H128.888L128.897 72.4346L128.905 72.4177L129.218 71.691L130.43 68.9193L130.751 68.1926H129.71Z" fill="white"/>
<path d="M111.543 71.6912L111.229 71.0067L111.111 70.7448L110.281 68.9364L109.942 68.2097H108.824L108.485 68.9364L107.655 70.7448L107.486 71.1081L107.215 71.6912L106.876 72.4179H107.926L108.265 71.6912L108.367 71.4715H110.391L110.492 71.6912L110.831 72.4179H111.881L111.543 71.6912ZM108.705 70.7448L109.383 69.2744L110.06 70.7448H108.705Z" fill="white"/>
<path d="M134.215 71.6912V68.2097H133.191V71.6912V72.4179H134.215H136.706V71.6912H134.215Z" fill="white"/>
<path d="M118.657 71.6912V68.2097H117.632V71.6912V72.4179H118.657H121.147V71.6912H118.657Z" fill="white"/>
<path d="M105.326 68.2097V69.8744H103.302V68.2097H102.286V72.4179H103.302V70.6011H105.326V72.4179H106.351V68.2097H105.326Z" fill="white"/>
<path d="M115.286 70.5673C116.472 70.5673 116.582 69.5956 116.582 69.359C116.582 69.1223 116.54 68.8688 116.226 68.5815C115.803 68.2013 115.074 68.2097 115.074 68.2097H112.449V72.4179H113.474V70.711H114.321C115.032 71.3109 115.761 72.4179 115.761 72.4179H116.997C116.091 70.9053 115.303 70.5673 115.303 70.5673H115.286ZM114.888 69.9843H113.457V68.9449H114.643C114.744 68.9449 115.074 68.9449 115.235 69.0125C115.43 69.097 115.523 69.2744 115.523 69.4688C115.523 69.6632 115.413 69.8406 115.244 69.9167C115.091 69.9843 114.88 69.9927 114.88 69.9927L114.888 69.9843Z" fill="white"/>
</g>
<defs>
<clipPath id="clip0_232_7">
<rect width="207.629" height="129" fill="white"/>
</clipPath>
</defs>
</svg>
