<?xml version="1.0" encoding="UTF-8"?><svg id="_이어_2" xmlns="http://www.w3.org/2000/svg" viewBox="0 0 224.33 239.79"><defs><style>.cls-1{fill:#fff;}</style></defs><g id="_이어_1-2"><g><path class="cls-1" d="M70.27,36.04l2.83,9.13c.12,.48,.22,.76,.3,.86,.22,.27,.59,.28,1.11,.04l.23,.28-3.88,3.14-.23-.28c.33-.39,.37-.75,.11-1.07-.07-.09-.36-.28-.88-.58l-10.58-6.01c-.52-.3-.92-.47-1.18-.51s-.55,.02-.86,.18l-.23-.28,4.19-3.39,.23,.28c-.3,.38-.35,.7-.14,.97,.11,.13,.31,.29,.61,.46l7.5,4.39-2.56-8.44c-.11-.36-.2-.59-.27-.68-.22-.27-.55-.28-1.01-.04l-.23-.28,4.38-3.55,.23,.28c-.32,.43-.36,.78-.14,1.05,.08,.09,.27,.23,.58,.4l7.57,4.32-2.65-8.14c-.13-.41-.25-.69-.37-.84-.21-.26-.56-.25-1.05,0l-.23-.28,4.15-3.36,.23,.28c-.23,.32-.35,.59-.35,.81,0,.22,.08,.63,.27,1.24l3.67,11.6c.17,.55,.32,.9,.43,1.04,.23,.29,.58,.29,1.06,.03l.23,.28-3.93,3.18-.23-.28c.36-.4,.41-.76,.14-1.09-.09-.11-.39-.3-.91-.57l-8.13-4.6Z"/><path class="cls-1" d="M90.65,27.89l1.68,3.86,9.15-3.98c.21-.09,.35-.21,.42-.35,.07-.15,.08-.36,.05-.63l.33-.15,1.58,3.64-.33,.14c-.18-.22-.34-.35-.49-.4-.15-.05-.33-.03-.54,.06l-12.92,5.61-.14-.33c.22-.18,.36-.34,.41-.49,.05-.15,.03-.34-.07-.55l-5.18-11.92c-.09-.21-.21-.35-.36-.42-.15-.07-.36-.08-.64-.04l-.14-.33,12.67-5.51c.21-.09,.35-.21,.42-.35,.07-.15,.08-.36,.05-.63l.33-.15,1.58,3.64-.33,.14c-.18-.21-.34-.35-.49-.4-.15-.05-.33-.03-.54,.06l-8.9,3.87,1.45,3.34,5.77-2.51c.21-.09,.35-.21,.42-.35,.07-.14,.09-.36,.05-.63l.33-.14,1.55,3.56-.33,.15c-.17-.21-.34-.34-.49-.39s-.34-.03-.54,.06l-5.77,2.51Z"/><path class="cls-1" d="M118.39,12.55l-1.13,3.9-.35-.12c0-.08-.01-.14-.02-.18-.05-.25-.32-.48-.8-.68-1.5-.66-3.14-.81-4.93-.46-.79,.15-1.46,.38-2.03,.69-.41,.23-.72,.52-.94,.87-.21,.35-.29,.69-.22,1.04,.11,.57,.53,.89,1.26,.96,.38,.03,1.16,0,2.36-.12l1.79-.16c1.06-.09,1.93-.1,2.61-.04,.68,.07,1.3,.22,1.87,.47,.58,.26,1.07,.66,1.48,1.19,.41,.53,.68,1.13,.81,1.8,.21,1.06,.04,2.07-.49,3.03-.48,.87-1.34,1.62-2.59,2.23-.93,.46-1.95,.8-3.08,1.02-2.02,.39-4.1,.3-6.25-.28-.45-.11-.72-.16-.8-.14-.1,.02-.23,.13-.41,.33l-.36-.1,.93-4.02,.35,.09c.01,.07,.02,.11,.03,.14,.06,.33,.28,.61,.66,.82,.57,.33,1.38,.56,2.46,.67,1.07,.11,2.06,.08,2.97-.09,.99-.19,1.8-.52,2.44-.99,.35-.26,.61-.56,.78-.91,.17-.35,.22-.69,.16-1.02-.1-.5-.44-.8-1.02-.91-.41-.07-1.2-.06-2.38,.04l-1.75,.16c-1.18,.11-2.01,.15-2.51,.14-.5-.01-1.01-.09-1.53-.24-.74-.2-1.37-.59-1.88-1.18-.47-.53-.77-1.18-.92-1.95-.25-1.27,0-2.41,.71-3.42,.95-1.32,2.58-2.21,4.9-2.66,.97-.19,1.9-.27,2.78-.23,.88,.03,2,.19,3.35,.47,.46,.09,.74,.12,.84,.1,.16-.03,.32-.15,.5-.36l.35,.11Z"/><path class="cls-1" d="M132.44,14.44l-.22,11.64c0,.23,.05,.41,.15,.53,.1,.12,.29,.22,.56,.3v.36l-4.85-.09v-.36c.28-.07,.47-.16,.58-.28,.11-.12,.16-.29,.17-.53l.22-11.64-4.82-.09c-.23,0-.4,.04-.53,.14-.12,.1-.23,.29-.31,.56h-.36l.08-3.98h.36c.08,.28,.17,.47,.29,.58,.11,.11,.29,.16,.51,.16l13.01,.25c.23,0,.41-.04,.54-.15,.12-.1,.23-.29,.31-.56h.36l-.08,3.98h-.36c-.07-.28-.17-.47-.28-.58-.12-.1-.3-.16-.53-.16l-4.81-.09Z"/><path class="cls-1" d="M146.06,23.26l-1.2,4.03,9.56,2.85c.22,.07,.4,.06,.55,0,.15-.07,.29-.22,.44-.45l.35,.1-1.13,3.81-.35-.1c0-.28-.04-.49-.12-.62-.09-.14-.24-.23-.46-.3l-13.5-4.03,.1-.34c.28,0,.49-.03,.63-.12,.14-.08,.24-.24,.3-.46l3.71-12.45c.07-.22,.07-.41,0-.55-.07-.15-.22-.29-.46-.44l.1-.35,13.24,3.95c.22,.07,.4,.06,.55,0,.15-.07,.29-.22,.44-.45l.35,.1-1.13,3.81-.35-.1c0-.28-.04-.48-.12-.62-.08-.14-.24-.24-.45-.3l-9.3-2.77-1.04,3.49,6.03,1.8c.22,.07,.4,.06,.55,0,.15-.07,.29-.22,.44-.45l.35,.1-1.11,3.72-.35-.1c0-.27-.04-.48-.12-.62-.09-.14-.24-.24-.45-.31l-6.03-1.8Z"/><path class="cls-1" d="M163.62,31.55l-2.74,4.3c-.12,.19-.17,.37-.14,.53,.03,.16,.13,.34,.32,.54l-.19,.3-4.08-2.6,.19-.3c.27,.08,.48,.1,.64,.06,.15-.04,.29-.16,.41-.35l7-10.96c.13-.2,.18-.37,.15-.53-.03-.16-.13-.34-.32-.55l.19-.3,8.18,5.22c1,.64,1.75,1.2,2.26,1.68,.51,.49,.89,1.01,1.15,1.57,.29,.65,.39,1.34,.28,2.06-.11,.69-.36,1.35-.76,1.97-1.35,2.11-3.32,2.59-5.92,1.44l.25,5.2c.05,.91,.12,1.52,.21,1.84,.09,.31,.28,.57,.57,.79l-.19,.3-4.72-3.02,.19-.3c.36,.16,.59,.15,.71-.03,.07-.11,.1-.48,.08-1.11l-.21-5.5-3.49-2.23Zm1.36-2.13l4.41,2.81c.65,.42,1.12,.69,1.42,.82,.29,.13,.59,.21,.89,.23,.65,.05,1.19-.26,1.62-.94,.43-.68,.49-1.3,.17-1.87-.15-.27-.34-.51-.58-.71-.24-.2-.69-.51-1.35-.94l-4.4-2.81-2.17,3.39Z"/><path class="cls-1" d="M183.26,41.03l-6.94,6.25c-.17,.16-.27,.31-.29,.47-.02,.16,.04,.37,.16,.62l-.27,.24-3.05-3.39,.27-.24c.24,.15,.44,.23,.6,.23,.16,0,.33-.08,.5-.24l9.67-8.7c.17-.15,.26-.31,.28-.46s-.04-.37-.16-.62l.27-.24,3.53,3.92-.27,.24c-.28-.19-.52-.19-.71-.02-.13,.12-.21,.33-.23,.64l-.83,12.25,6.77-6.1c.17-.15,.26-.31,.28-.46,.02-.16-.04-.36-.16-.62l.27-.24,3.05,3.39-.27,.24c-.24-.15-.44-.23-.6-.23-.16,0-.32,.08-.49,.23l-9.67,8.7c-.17,.16-.27,.31-.29,.47-.02,.16,.04,.37,.16,.62l-.27,.24-3.27-3.63,.27-.24c.26,.19,.49,.2,.68,.03,.11-.1,.18-.41,.21-.94l.79-12.41Z"/><path class="cls-1" d="M125.22,163.64c-20.89,0-40.65-10.15-52.84-27.15-.39-.54-.26-1.29,.28-1.67,.54-.39,1.29-.26,1.67,.28,11.74,16.37,30.77,26.15,50.89,26.15,34.51,0,62.58-28.07,62.58-62.58s-28.07-62.58-62.58-62.58c-19.85,0-38.72,9.57-50.48,25.59-.39,.53-1.14,.65-1.68,.26-.53-.39-.65-1.14-.26-1.68,12.21-16.64,31.81-26.57,52.42-26.57,35.83,0,64.98,29.15,64.98,64.98s-29.15,64.98-64.98,64.98Z"/><path class="cls-1" d="M125.45,197.77c-54.52,0-98.88-44.36-98.88-98.88,0-1.34,.03-2.69,.08-4.02,.03-.66,.59-1.17,1.25-1.15,.66,.03,1.18,.58,1.15,1.25-.05,1.3-.08,2.62-.08,3.92,0,53.2,43.28,96.48,96.48,96.48s96.48-43.28,96.48-96.48S178.65,2.4,125.45,2.4c-34.6,0-66.74,18.69-83.89,48.79-.33,.58-1.06,.78-1.64,.45s-.78-1.06-.45-1.64C57.04,19.16,89.99,0,125.45,0c54.52,0,98.88,44.36,98.88,98.88s-44.36,98.88-98.88,98.88Z"/><path class="cls-1" d="M22.3,34.22s9.26,32.61,34.7,52.17c0,0-9.46-4.24-15.2-12.72,0,0-19.17-25.63-19.63-25.7,0,0-.07,3.13,5.09,13.11,0,0-12.46-8.87-15.46-7.89,0,0-.59-.33,2.48,1.7,0,0,12.98,9.85,16.76,14.35,0,0-18.72-13.96-26.67-11.8,0,0-.52,.46,2.09,.91,0,0,19.37,10.63,22.5,13.57,0,0,12.98,7.96,19.11,11.02,0,0-5.93-1.63-15.13-4.96,0,0-22.96-10.43-32.93-4.24,0,0,8.48,.26,14.74,2.87,0,0,14.67,3.98,21.46,5.35,0,0,23.67,5.48,30.72,12.33,0,0-13.5-3.26-15.46-3.91,0,0-34.89-10.37-39.46,1.5,0,0,8.67-3.98,22.63-1.3,0,0,21.13,1.83,32.02,5.09,0,0,2.67,.39,4.5,.33,0,0,2.02,.07,5.8,2.87,0,0,5.28,2.74,7.11,3.59,0,0,2.02,.85-1.83,.33,0,0-37.34-8.22-48.49,11.35,0,0,14.28-15.46,56.93-8.8,0,0,13.21,2.84,17.22,5.72,0,0-12.08-1.86-13.6-1.76,0,0-41.09-4.26-52.14,4.94,0,0,25.43-4.3,49.5-1.47,0,0,2.05,.95-5.67,1.96,0,0-21.42,4.3-36.29,18.91,0,0,21.46-4.83,41.09-17.61,0,0,7.04-4.04,18.78-2.8,0,0,2.05,1.13-1.3,1.43,0,0-10.54,2.03-12.91,4.94,0,0,22.23-4.08,33.58-.27,0,0-50.38-3.23-59.28,14.28,0,0,4.99-9.1,51.95-9.49,0,0,16.04-.98,19.47-1.86l-23.18,12.13s-7.88,3.91-12.77,7.78c0,0-12.77,8.12-13.5,7.92s6.65-.15,16.39-7.09c0,0,23.09-6.55,38.45-21.42,0,0,1.37-.78,4.11-1.08,0,0,7.83-1.57,10.57-2.64,0,0-13.7,8.02-15.65,11.93,0,0-15.85,16.53-26.51,18.2,0,0,8.22,1.76,13.04-1.57,0,0,15.72-9.2,24.13-21.82,0,0,7.04-7.83,9.1-8.02h16.14s-29.15,42.16-65.93,38.25c0,0-.91,1.5,6.78,2.54,0,0,35.48,3.91,60.13-40.11l1.71-.05s.2-2.4,.1-3.33l-3.47-.05s-1.21-1.34-2.05-6.49c0,0-3.46-21.33-25.37-23.22,0,0,10.04,7.89,13.3,13.5,0,0,9.26,14.41,11.35,15.72,0,0,1.5,.65-3.98,.46l-5.61-.13s-15.39-12.98-22.7-15.07c0,0-17.87-30-42.39-34.11,0,0,16.5,15.98,24.33,26.09,0,0,1.17,1.17-2.28,.07,0,0-17.35-6.78-24.52-4.83,0,0,47.84,23.61,49.7,26.84,0,0,.29,.49-3.52-.2,0,0-9.78-1.66-27.2-.68,0,0-8.12,.59-11.35-7.14,0,0-19.17-47.32-28.96-46.27l9.13,21.78s10.96,25.3,21.26,28.83c0,0,.46,1.11-3.46-.65l-8.61-2.74s-16.08-21.29-19.79-27.36c0,0-26.18-36.1-27.75-36.75,0,0,8.58,25.01,18.07,36.55,0,0,13.3,17.12,22.3,22.89,0,0,3.62,2.74,2.93,3.33,0,0-16.43-4.89-20.05-13.3,0,0-12.91-15.46-27.1-24.07,0,0-15.46-14.48-24.07-32.64Z"/><path class="cls-1" d="M61.11,149.98l-3.69,3.5c-.16,.15-.25,.31-.27,.48-.01,.16,.04,.36,.17,.6l-.26,.25-3.29-3.47,.26-.25c.24,.14,.44,.21,.6,.21s.32-.09,.48-.24l9.43-8.93c.17-.16,.26-.32,.28-.48s-.04-.36-.17-.61l.26-.25,6.6,6.96c.8,.85,1.39,1.57,1.76,2.16,.37,.59,.61,1.19,.72,1.79,.12,.7,.04,1.38-.24,2.05-.28,.64-.68,1.22-1.21,1.72-1.82,1.72-3.83,1.72-6.05,0l-1.03,5.07c-.18,.89-.26,1.5-.25,1.82,.01,.32,.13,.62,.36,.89l-.26,.25-3.81-4.02,.26-.25c.31,.24,.53,.28,.69,.14,.1-.09,.21-.44,.35-1.05l1.14-5.36-2.81-2.97Zm1.83-1.74l3.55,3.75c.53,.55,.91,.93,1.16,1.13s.52,.34,.8,.43c.61,.2,1.21,.03,1.79-.52s.79-1.14,.62-1.76c-.08-.3-.2-.57-.38-.82-.18-.25-.54-.65-1.07-1.22l-3.55-3.75-2.92,2.76Z"/><path class="cls-1" d="M81.15,170.43l-5.83-3.82-2.05,1.24c-.28,.17-.47,.33-.57,.47-.18,.28-.1,.6,.25,.98l-.2,.3-4.24-2.78,.2-.3c.28,.11,.53,.15,.75,.11s.52-.18,.93-.44l11.18-6.76c.36-.21,.6-.42,.72-.6,.19-.29,.14-.61-.14-.98l.2-.3,4.54,2.98-.2,.3c-.44-.14-.74-.07-.92,.19-.12,.18-.2,.43-.23,.74l-1.6,13.08c-.07,.55-.07,.96-.02,1.22,.06,.26,.2,.5,.43,.72l-.2,.3-4.72-3.1,.2-.3c.46,.2,.79,.14,1-.17,.09-.13,.15-.37,.19-.71l.3-2.38Zm.35-2.28l.92-5.93-5.11,3.18,4.19,2.75Z"/><path class="cls-1" d="M95.94,170.18l-2.43,9c-.06,.22-.06,.41,.01,.55s.23,.29,.47,.43l-.09,.35-4.35-1.17,.09-.35c.28,0,.49-.05,.62-.14s.23-.24,.29-.47l3.38-12.53c.06-.22,.05-.4-.02-.54s-.23-.29-.47-.43l.09-.35,5.03,1.36-.09,.35c-.33,0-.53,.12-.6,.37-.05,.17,0,.39,.15,.66l5.87,10.69,2.37-8.78c.06-.22,.05-.4-.02-.54s-.23-.29-.47-.43l.09-.35,4.35,1.17-.09,.35c-.28,0-.49,.05-.62,.14s-.23,.24-.29,.46l-3.38,12.53c-.06,.22-.06,.41,.01,.55s.23,.29,.47,.43l-.09,.35-4.66-1.26,.09-.35c.32,.02,.51-.1,.58-.34,.04-.14-.07-.45-.33-.9l-5.98-10.8Z"/><path class="cls-1" d="M126.78,180.63h-3.78c-.23,0-.41,.05-.52,.16-.12,.1-.21,.29-.29,.56h-.36v-3.57h.36c.07,.28,.17,.47,.29,.57,.12,.1,.29,.15,.52,.15h7.27v.36c-.27,.07-.45,.17-.56,.29s-.16,.3-.16,.53v3.14c0,.23,.05,.41,.15,.53s.29,.22,.56,.29v.28c-2.91,1.66-5.73,2.49-8.46,2.49-2.48,0-4.5-.59-6.06-1.76-1.97-1.48-2.95-3.54-2.95-6.18,0-2.46,.88-4.41,2.63-5.86,1.66-1.38,3.87-2.07,6.63-2.07,.88,0,1.7,.08,2.48,.24,.78,.16,1.66,.43,2.65,.81,.51,.2,.87,.3,1.09,.3,.16,0,.34-.09,.55-.26l.31,.17-1.8,3.67-.33-.17c0-.25-.04-.42-.1-.53-.06-.11-.19-.24-.4-.4-.46-.34-1.13-.64-2.01-.88-.88-.24-1.72-.36-2.5-.36-1.6,0-2.93,.45-3.98,1.35-1.19,1.02-1.78,2.36-1.78,4.03s.58,2.92,1.74,3.92c1.06,.91,2.46,1.37,4.2,1.37,.85,0,1.68-.1,2.5-.29s1.53-.46,2.13-.8v-2.09Z"/><path class="cls-1" d="M139.08,177.53l.71,4.14,9.72-1.67c.22-.04,.38-.12,.48-.24s.16-.32,.19-.6l.35-.06,.67,3.91-.35,.06c-.12-.25-.25-.42-.38-.5s-.31-.11-.54-.07l-13.72,2.36-.06-.35c.25-.12,.42-.25,.5-.38s.1-.32,.07-.55l-2.2-12.78c-.04-.23-.12-.39-.24-.49s-.32-.16-.6-.19l-.06-.35,13.46-2.31c.22-.04,.38-.12,.48-.25s.16-.33,.19-.6l.35-.06,.67,3.91-.35,.06c-.12-.25-.25-.42-.38-.5s-.31-.11-.54-.07l-9.45,1.62,.62,3.59,6.13-1.05c.22-.04,.38-.12,.48-.24s.16-.32,.19-.6l.35-.06,.66,3.82-.35,.06c-.12-.25-.25-.41-.38-.5-.14-.09-.32-.11-.54-.07l-6.13,1.05Z"/><path class="cls-1" d="M160.35,175.53l8.4-4.27c.21-.11,.34-.23,.4-.38s.06-.36,0-.63l.32-.16,1.8,3.53-.32,.16c-.19-.21-.36-.33-.51-.37s-.34,0-.54,.1l-12.02,6.12-.16-.32c.21-.19,.33-.36,.37-.51s0-.34-.1-.54l-5.88-11.56c-.11-.21-.23-.34-.38-.4s-.36-.06-.63,0l-.16-.32,4.26-2.17,.16,.32c-.21,.18-.33,.35-.37,.51-.04,.16,0,.34,.1,.55l5.27,10.36Z"/><path class="cls-1" d="M181.61,159.81l-5.5,4.27,.51,2.34c.07,.32,.16,.55,.27,.69,.2,.26,.54,.29,1.01,.08l.22,.28-4,3.11-.22-.28c.2-.23,.32-.45,.35-.67s0-.56-.11-1.02l-2.77-12.76c-.09-.41-.2-.7-.34-.87-.21-.27-.53-.33-.97-.19l-.22-.28,4.29-3.33,.22,.28c-.27,.37-.31,.68-.12,.93,.13,.17,.34,.32,.62,.45l11.86,5.75c.5,.24,.88,.38,1.14,.41,.26,.03,.53-.03,.82-.17l.22,.28-4.46,3.46-.22-.28c.34-.37,.39-.7,.16-1.01-.1-.12-.3-.26-.6-.41l-2.15-1.06Zm-2.05-1.07l-5.31-2.79,1.35,5.86,3.96-3.07Z"/><path class="cls-1" d="M185.36,145.28l7.82,5.08c.19,.13,.37,.18,.53,.16s.34-.13,.55-.31l.3,.2-2.45,3.78-.3-.2c.08-.27,.1-.48,.06-.63s-.16-.29-.36-.42l-10.89-7.07c-.19-.12-.36-.17-.52-.15s-.34,.13-.55,.31l-.3-.2,2.84-4.37,.3,.2c-.11,.31-.05,.54,.17,.69,.15,.1,.37,.12,.67,.06l11.98-2.3-7.63-4.96c-.19-.12-.36-.17-.52-.15s-.34,.13-.55,.31l-.3-.2,2.45-3.78,.3,.2c-.08,.27-.1,.48-.06,.63s.16,.29,.35,.41l10.89,7.07c.19,.13,.37,.18,.53,.16s.34-.13,.55-.31l.3,.2-2.63,4.05-.3-.2c.11-.3,.07-.52-.15-.66-.13-.08-.45-.07-.96,.03l-12.12,2.37Z"/><path class="cls-1" d="M204.69,131.51l-12.68-2.74c-.23-.05-.41-.04-.55,.04s-.27,.24-.4,.49l-.35-.08,1.81-8.36c.4-1.83,.91-3.19,1.54-4.08,.91-1.27,2.14-2.1,3.68-2.47,1.21-.3,2.56-.29,4.03,.03,2.58,.56,4.38,1.78,5.39,3.66,.43,.79,.67,1.66,.72,2.6,.05,.95-.07,2.11-.37,3.5l-1.81,8.36-.35-.08c-.02-.28-.07-.48-.17-.61s-.26-.22-.48-.27Zm-.61-3.56l.89-4.11c.28-1.31,.32-2.34,.1-3.07-.46-1.58-1.81-2.61-4.03-3.09-1.61-.35-2.93-.23-3.95,.34-.57,.32-1.02,.76-1.35,1.32-.33,.56-.6,1.33-.82,2.33l-.89,4.11,10.04,2.17Z"/><path class="cls-1" d="M198.07,95.17l3.44,2.14-.21,.3c-.07-.01-.13-.02-.18-.03-.25-.02-.54,.17-.87,.58-1.04,1.25-1.64,2.77-1.79,4.56-.07,.79-.03,1.5,.11,2.12,.11,.45,.3,.83,.58,1.13,.27,.3,.59,.46,.94,.49,.57,.05,.99-.26,1.26-.94,.14-.35,.31-1.11,.54-2.28l.33-1.74c.2-1.03,.43-1.87,.68-2.49,.25-.63,.57-1.18,.97-1.65,.41-.48,.92-.83,1.55-1.08,.62-.24,1.27-.33,1.95-.28,1.07,.09,2,.52,2.77,1.29,.71,.69,1.18,1.71,1.43,3.07,.19,1.01,.24,2.08,.14,3.2-.18,2.02-.83,3.97-1.97,5.86-.23,.4-.35,.64-.36,.72,0,.1,.06,.26,.21,.48l-.2,.31-3.6-1.98,.18-.31h.15c.34,.04,.66-.09,.97-.39,.47-.45,.91-1.16,1.31-2.15s.64-1.94,.72-2.85c.09-.99,0-1.85-.28-2.58-.15-.4-.37-.74-.66-.99s-.6-.4-.94-.43c-.51-.04-.89,.2-1.15,.72-.18,.37-.39,1.12-.61,2.27l-.33,1.71c-.22,1.15-.4,1.95-.55,2.42-.15,.47-.37,.93-.65,1.39-.39,.65-.94,1.14-1.65,1.47-.64,.3-1.35,.41-2.13,.34-1.29-.11-2.32-.65-3.09-1.61-1.01-1.26-1.42-3.05-1.21-5.38,.08-.98,.26-1.88,.54-2.7,.27-.83,.73-1.85,1.37-3.06,.21-.42,.32-.68,.33-.77,.01-.16-.06-.35-.21-.57l.2-.3Z"/><g><g><path class="cls-1" d="M78.12,204.13c1.6,.63,2.73,1.6,3.41,2.91,.67,1.31,.73,2.67,.18,4.08-.05,.13-.15,.31-.29,.54-.14,.23-.23,.4-.27,.51-.02,.06,0,.11,.09,.14,.2,.08,.46-.31,.8-1.17,.6-1.52,.55-3-.16-4.43-.71-1.43-1.9-2.48-3.58-3.14-2.35-.93-4.88-.96-7.57-.08s-5.87,2.76-9.54,5.65c-5.02,3.96-7.63,5.9-7.81,5.83l-.02-.04s.03-.06,.06-.05c1.57-1.32,3.16-3.92,4.78-7.79,1.32-3.17,2.26-5.21,2.82-6.12s1.34-1.67,2.35-2.28c.2-.11,.31-.17,.31-.2,0-.03-.02-.07-.05-.09-.25-.1-.98,.06-2.19,.47-1.76,.61-4.45,2.27-8.06,5-4.43,3.35-8.05,5.51-10.84,6.48-2.8,.97-5.41,.97-7.85,0-1.27-.5-2.22-1.18-2.83-2.05-.61-.86-.76-1.71-.43-2.55,.22-.56,.42-.81,.59-.74,.08,.03,.09,.15,0,.36-.22,.55-.07,.93,.45,1.14,.32,.12,.63,.11,.95-.04,.32-.15,.54-.4,.68-.74,.26-.65,.04-1.12-.64-1.39-.47-.19-.94-.16-1.4,.08-.46,.24-.79,.62-1,1.16-.37,.93-.22,1.87,.43,2.81,.65,.94,1.67,1.69,3.03,2.22,2.43,.96,5.08,1.07,7.96,.34,2.88-.73,5.74-2.24,8.59-4.54,3.33-2.68,5.38-4.31,6.14-4.89s1.58-1.1,2.45-1.57c1.64-.9,2.62-1.27,2.93-1.1-.04,.04-.08,.08-.11,.1-1.45,.68-2.67,1.65-3.67,2.89s-1.93,2.97-2.8,5.17c-.52,1.32-1.09,2.91-1.7,4.78-.25,.75-.44,1.29-.56,1.61-.66,1.67-1.53,2.53-2.62,2.59-.56,.04-.88,.15-.96,.35-.06,.15,0,.26,.15,.33,.28,.11,1.08-.2,2.4-.93,1.31-.73,2.66-1.62,4.05-2.67,4.79-3.62,7.94-5.86,9.44-6.71,4.78-2.74,8.76-3.48,11.92-2.24Z"/><path class="cls-1" d="M50.45,216.95c-.1,0-.17-.02-.23-.04-.15-.06-.25-.15-.3-.27-.04-.08-.06-.21,0-.38,.15-.39,.74-.48,1.17-.51,.98-.05,1.79-.87,2.41-2.43,.12-.31,.31-.84,.56-1.59,.61-1.87,1.19-3.48,1.71-4.79,.87-2.22,1.83-3.98,2.83-5.24,.63-.79,1.35-1.47,2.17-2.04-.28,.14-.62,.31-1,.52-.85,.46-1.66,.99-2.42,1.55-.76,.57-2.82,2.21-6.14,4.88-2.87,2.31-5.79,3.85-8.68,4.58-2.92,.74-5.64,.62-8.11-.35-1.41-.55-2.46-1.33-3.15-2.31-.7-1.01-.86-2.04-.46-3.05,.23-.59,.61-1.02,1.12-1.29,.52-.27,1.06-.3,1.6-.09,.41,.16,.69,.4,.82,.7,.13,.29,.11,.63-.04,1.01-.16,.4-.43,.69-.8,.87-.38,.18-.77,.2-1.15,.05-.47-.18-.71-.5-.71-.92v.03c-.31,.76-.18,1.52,.38,2.31,.58,.82,1.5,1.48,2.72,1.96,2.37,.93,4.96,.93,7.68-.01,2.75-.95,6.38-3.12,10.77-6.44,3.62-2.73,6.35-4.42,8.13-5.04,1.67-.57,2.13-.56,2.37-.46,.2,.13,.21,.26,.21,.33,0,.03,0,.06-.02,.08-.04,.1-.1,.15-.43,.33-.96,.58-1.72,1.32-2.25,2.19-.55,.89-1.49,2.94-2.8,6.09-1.2,2.85-2.39,5.04-3.57,6.53,1.11-.81,3-2.25,6.18-4.77,3.67-2.9,6.91-4.82,9.62-5.69,2.74-.89,5.34-.86,7.74,.09,1.73,.68,2.98,1.78,3.71,3.26,.73,1.49,.79,3.05,.17,4.63-.31,.79-.66,1.49-1.13,1.31-.24-.09-.29-.31-.23-.46,.05-.13,.15-.31,.29-.55,.16-.26,.23-.42,.27-.5,.53-1.35,.48-2.62-.17-3.88-.64-1.25-1.75-2.19-3.28-2.79-3.08-1.21-7.02-.46-11.71,2.22-1.49,.84-4.65,3.09-9.41,6.69-1.39,1.05-2.76,1.96-4.08,2.69-1.41,.79-2.04,.98-2.38,.98Zm.7-.7h-.02c-.66,.05-.74,.19-.74,.19,.04,.01,.2,.04,.76-.19Zm1.99-1.18c-.08,.1-.16,.2-.24,.29,.11-.06,.21-.12,.32-.19-.03-.03-.06-.06-.08-.1h0Zm8.64-15.46c-1.08,.63-2,1.43-2.78,2.4-.97,1.22-1.9,2.94-2.76,5.11-.51,1.31-1.08,2.91-1.7,4.76-.25,.77-.44,1.3-.57,1.62-.13,.33-.27,.63-.42,.9,1.43-1.37,2.91-3.86,4.4-7.41,1.32-3.17,2.28-5.24,2.84-6.15,.27-.44,.6-.85,.98-1.23Zm-7.37,3.8c-.29,.21-.59,.43-.89,.66-4.43,3.35-8.11,5.54-10.91,6.51-.35,.12-.7,.23-1.05,.32,.28-.06,.57-.12,.85-.19,2.83-.72,5.68-2.23,8.49-4.49,1.4-1.13,2.57-2.07,3.51-2.82Zm20.12-.29c-1.2,0-2.44,.21-3.72,.62-2.65,.86-5.83,2.75-9.46,5.61-.12,.09-.23,.18-.35,.27,2.4-1.75,4.1-2.91,5.08-3.46,4.83-2.76,8.91-3.52,12.14-2.25,1.21,.48,2.17,1.15,2.88,2.02-.69-.91-1.66-1.62-2.89-2.1-1.18-.46-2.41-.7-3.69-.7Zm-42.54,1.64s.08,.01,.11,.03c.08,.03,.15,.1,.19,.18,.06,.13,.04,.28-.04,.5-.17,.42-.08,.66,.31,.81,.25,.1,.5,.09,.75-.04,.26-.12,.44-.32,.55-.6,.1-.25,.12-.47,.04-.63-.08-.17-.26-.32-.54-.43-.41-.16-.79-.14-1.19,.07-.06,.03-.13,.07-.19,.11Zm30.81-6.03s.01,.02,.02,.03c.03-.02,.05-.04,.08-.05-.03,0-.06,.01-.1,.02Z"/></g><g><path class="cls-1" d="M41.34,202.19c1.62,.64,3.36,.62,5.23-.05,.9-.32,1.4-.58,1.48-.79,.04-.09,.02-.15-.06-.19-.02,0-.06,0-.12,.04-.93,.59-1.98,.96-3.16,1.11-1.18,.15-2.25,.03-3.19-.34-1.06-.42-1.8-1.1-2.21-2.05-.41-.95-.4-1.96,.02-3.03,.82-2.08,2.62-3.63,5.41-4.66,2.79-1.03,5.35-1.08,7.7-.16,.82,.32,1.42,.74,1.8,1.26,.38,.52,.47,1.03,.26,1.56-.17,.42-.72,1.04-1.66,1.85-.75,.65-1.25,1.26-1.48,1.85-.24,.6-.24,1.19,0,1.76s.64,.97,1.22,1.2c.84,.33,1.91,.18,3.21-.46,.86-.42,1.33-.74,1.42-.97,.03-.08,0-.14-.08-.17-.05-.02-.13,0-.22,.09-.66,.54-1.41,.93-2.24,1.16-.83,.23-1.5,.25-2.01,.04-.86-.34-1.14-.9-.83-1.68,.11-.28,.37-.6,.79-.98,1.2-1.08,1.93-1.94,2.19-2.59,.35-.88,.33-1.69-.06-2.42-.39-.73-1.09-1.3-2.12-1.71-2.5-.99-5.17-.96-8.02,.07-2.84,1.03-4.7,2.66-5.58,4.88-.45,1.15-.46,2.22-.03,3.22s1.22,1.72,2.35,2.17Z"/><path class="cls-1" d="M43.79,202.91c-.88,0-1.73-.16-2.54-.48-1.19-.47-2.03-1.24-2.49-2.3-.46-1.06-.45-2.2,.03-3.41,.9-2.28,2.82-3.97,5.72-5.02,2.89-1.05,5.64-1.07,8.19-.07,1.08,.43,1.84,1.04,2.25,1.82,.42,.8,.44,1.68,.07,2.63-.27,.7-1.01,1.58-2.25,2.69-.39,.35-.63,.65-.72,.89-.25,.65-.04,1.06,.69,1.35,.46,.18,1.08,.16,1.85-.05,.79-.22,1.51-.6,2.14-1.12,.16-.14,.32-.19,.47-.13,.13,.05,.19,.14,.22,.2,.03,.06,.05,.17,0,.3-.08,.21-.33,.51-1.54,1.1-1.36,.67-2.5,.83-3.41,.47-.64-.25-1.1-.7-1.36-1.34-.26-.63-.26-1.29,0-1.95,.24-.62,.76-1.27,1.54-1.95,1.13-.97,1.49-1.49,1.59-1.75,.17-.44,.1-.87-.23-1.32-.35-.48-.92-.87-1.69-1.18-2.27-.9-4.8-.84-7.52,.16-2.7,1-4.47,2.52-5.26,4.52-.4,1.02-.41,1.95-.02,2.84,.39,.89,1.07,1.52,2.07,1.92,.9,.35,1.94,.46,3.07,.33,1.14-.14,2.17-.5,3.06-1.07,.1-.06,.22-.11,.34-.06,.22,.09,.3,.29,.21,.51-.08,.21-.34,.48-1.63,.93-.98,.35-1.94,.53-2.86,.53Zm11-8.17c-.02,.08-.05,.16-.08,.24-.18,.46-.75,1.1-1.73,1.95-.72,.62-1.19,1.21-1.41,1.75-.17,.42-.21,.83-.12,1.23,.02-.14,.06-.28,.12-.43,.12-.31,.4-.67,.85-1.08,1.17-1.05,1.88-1.89,2.12-2.5,.16-.41,.24-.79,.23-1.16Z"/></g><g><path class="cls-1" d="M132.74,222.93c-1.13,1.51-2.15,2.68-3.08,3.52-.92,.84-2.06,1.63-3.42,2.36,2.26-4.27,4.05-7.51,5.38-9.72-.45,.09-.83,.14-1.13,.15-.37,.01-.69,0-.95-.04l-1.47,2.64c-2.39,4.29-4.2,6.46-5.42,6.5-.46,.02-.7-.22-.72-.72-.02-.46,.43-1.46,1.33-2.98l3.16-5.39c-.52,.09-.92,.15-1.22,.16-.34,.01-.64,0-.9-.04l-2.08,3.69s0-.02-.02-.03c-.08,0-.15,.05-.21,.16-2.59,3.45-4.36,5.17-5.31,5.15-.43,0-.64-.26-.63-.75,0-.44,.41-1.33,1.22-2.67,.81-1.34,3.64-5.81,8.51-13.43-.36,.13-.76,.19-1.19,.18-.26,0-.56-.05-.9-.15-1.44,2.41-3.21,5.25-5.31,8.53-.82,1.29-1.48,2.32-1.98,3.12,0,0,0,0-.01,.02-2.7,3.37-4.52,5.03-5.47,4.98-.43-.02-.63-.28-.61-.77,.02-.44,.46-1.32,1.3-2.63s3.83-5.7,8.93-13.15c-.37,.11-.77,.16-1.19,.14-.26-.01-.56-.07-.89-.17-1.52,2.36-3.37,5.15-5.57,8.36-.87,1.27-1.56,2.29-2.08,3.07-.01,0,0-.03-.03-.04-.06,0-.12,.04-.2,.15-1.17,1.37-2.29,2.51-3.38,3.42-1.09,.91-1.86,1.34-2.31,1.3-.44-.04-.63-.32-.58-.84,.05-.54,.68-1.6,1.87-3.18l3.45-4.52c-.49,.03-.89,.03-1.19,0-.26-.03-.55-.09-.88-.2l-1.01,1.51c.12-.3,.19-.54,.21-.73,.06-.66-.25-1.02-.95-1.09-.82-.08-1.94,.18-3.34,.77-1.67,.69-2.92,1.49-3.78,2.39-.01,0-.02-.01-.03-.01-.06,0-.21,.09-.48,.29-1.25,1.25-2.31,1.8-3.18,1.67-.71-.11-.99-.62-.85-1.53,.05-.33,.19-.73,.43-1.2l.23-.13c.54-.22,.94-.38,1.21-.5,1.7-.73,2.59-1.35,2.67-1.87,.05-.29-.1-.47-.45-.52-.5-.08-1.12,.16-1.85,.72-.73,.55-1.38,1.28-1.96,2.18-.59,.33-1.22,.78-1.91,1.34,1.13-1.24,1.76-2.28,1.89-3.11,.17-1.12-.19-1.75-1.08-1.89-.62-.1-1.96,.84-4.02,2.81l-.37,.36s-.03,.04-.04,.06c-.01,0-.02-.01-.03-.02-.06-.01-.12,.03-.2,.13l-.37,.29-.66,.59c-2.56,2.3-4.28,3.36-5.17,3.18-.45-.09-.63-.37-.54-.84,.12-.57,1.02-1.73,2.69-3.47l3.53-3.67c-.52-.03-.93-.07-1.2-.13-.23-.05-.51-.15-.84-.29l-2.18,2.34c-3.31,3.55-5.52,5.21-6.64,4.97-.42-.09-.58-.37-.48-.86,.1-.5,.42-1.02,.95-1.59l5.26-5.51c-.56-.04-.94-.08-1.15-.12-.21-.04-.5-.14-.86-.3l-2.9,3.1s0,0-.01,0c-.06-.01-.13,.02-.24,.11-3.21,2.8-5.32,4.07-6.32,3.83-.52-.13-.71-.43-.6-.91,.11-.44,.48-.97,1.11-1.59l5.18-5.19,2.16,.54,.19-.21-2.15-.54,2.66-2.64c-.35,0-.68-.03-.99-.11-.3-.07-.6-.19-.91-.36l-2.7,2.63-1.64-.41-.22,.2,1.68,.42-3.05,3.01s-.09,.05-.14,.09c-1.4,1.13-2.72,2.04-3.96,2.73-1.24,.69-2.07,.97-2.51,.84-.42-.12-.56-.43-.42-.93,.15-.52,.96-1.44,2.43-2.78l4.23-3.8c-.49-.06-.88-.14-1.17-.22-.25-.07-.53-.19-.83-.36l-1.28,1.29c.17-.27,.29-.5,.34-.67,.18-.63-.06-1.05-.73-1.24-.79-.23-1.94-.19-3.43,.13-3.4,.71-5.39,2.07-5.98,4.1-.21,.73-.19,1.39,.06,1.98,.25,.59,.66,.98,1.24,1.14,.54,.16,1.18,.06,1.9-.29,.73-.35,1.85-1.11,3.36-2.27-.54,.56-.89,1.13-1.06,1.7-.16,.55-.14,1.05,.07,1.51,.21,.46,.56,.76,1.06,.9,.74,.21,1.97-.24,3.69-1.37,.77-.5,1.41-.92,1.91-1.27-.59,.65-.96,1.25-1.09,1.78-.14,.54-.08,1.04,.18,1.49,.26,.45,.64,.74,1.16,.86,1.04,.26,2.94-.75,5.7-3.03l.33-.27-.36,.38c-.67,.7-1.06,1.37-1.19,1.99-.11,.54-.04,1.03,.21,1.47,.26,.44,.63,.71,1.11,.81,.46,.1,1.01-.04,1.63-.42,.56-.33,1.49-1.03,2.77-2.09l.42-.37c-.59,.66-.92,1.21-1.01,1.63-.11,.54-.04,1.03,.22,1.49,.26,.45,.63,.73,1.12,.83,.78,.16,1.99-.39,3.63-1.64,1.85-1.4,2.85-2.25,3.02-2.57,.08,0,.18-.05,.29-.18,2.01-2.09,3.32-3.08,3.95-2.99,.26,.04,.36,.21,.32,.52-.08,.52-.98,1.76-2.69,3.72l-3.42,3.91c.64,.05,.99,.09,1.03,.09,.1,.02,.44,.09,1.03,.23,1.36-1.64,2.31-2.71,2.84-3.23,.53-.52,1.2-1.02,1.99-1.51-.21,.45-.33,.82-.38,1.13-.15,.96,.2,1.5,1.05,1.63,.75,.12,1.62-.22,2.61-1,.23-.18,.42-.33,.59-.47-.45,.65-.72,1.34-.79,2.08-.07,.76,.07,1.4,.43,1.94,.36,.54,.83,.83,1.43,.89,.56,.05,1.17-.16,1.82-.64,.65-.48,1.61-1.43,2.88-2.85-.43,.65-.67,1.28-.73,1.87-.05,.57,.06,1.06,.35,1.47,.29,.41,.69,.64,1.21,.69,.77,.07,1.89-.6,3.37-2.03,.92-.88,1.62-1.56,2.08-2.06-.21,.32-.36,.57-.45,.72-.31,.55-.49,1.13-.52,1.73-.03,.55,.11,1.01,.4,1.38,.29,.37,.68,.57,1.17,.59,1.01,.05,2.64-1.3,4.89-4.04-.13,.23-.24,.41-.31,.54-.3,.56-.45,1.15-.46,1.75,0,.55,.14,1.01,.44,1.37s.7,.55,1.19,.56c1.02,.02,2.62-1.4,4.8-4.24l.51-.66-.03,.05c-.76,1.36-1.13,2.35-1.11,2.97,.02,.52,.2,.96,.56,1.33,.36,.37,.77,.55,1.23,.54,.54-.02,1.07-.28,1.59-.79,.51-.51,1.33-1.56,2.46-3.18l-2.81,5.26-.25,.16c-.85,.4-1.48,.71-1.9,.94-5.15,2.54-7.69,4.91-7.62,7.12,.01,.42,.18,.76,.5,1.04,.32,.28,.71,.41,1.17,.39,1.36-.04,2.93-.82,4.72-2.32,1.74-1.45,3.38-3.64,4.92-6.55l.78-1.48c2.18-1.26,3.93-2.65,5.26-4.16,1.2-1.38,1.8-2.15,1.79-2.32,0-.07-.04-.1-.1-.1-.05,0-.14,.1-.3,.31Zm-67.49-6.11c-2.55,1.88-4.2,2.71-4.95,2.49-.63-.18-.84-.62-.64-1.3,.34-1.17,1.6-2.47,3.78-3.9,2.18-1.43,3.76-2,4.76-1.71,.49,.14,.66,.47,.51,.99-.22,.74-1.37,1.88-3.45,3.43Zm38.49,7.12c-2.15,2.32-3.62,3.45-4.4,3.37-.65-.06-.94-.45-.88-1.16,.12-1.22,1.11-2.73,2.98-4.53,1.87-1.81,3.32-2.66,4.36-2.56,.51,.05,.73,.34,.68,.88-.07,.77-.99,2.1-2.75,4.01Zm19.64,6.58c-1.65,3.22-3.04,5.49-4.19,6.79-1.14,1.3-2.31,1.97-3.51,2.01-.95,.03-1.44-.37-1.46-1.19-.07-1.98,2.43-4.29,7.49-6.95,1.08-.56,1.71-.9,1.88-1l-.21,.34Z"/><path class="cls-1" d="M115.59,239.79c-.49,0-.92-.15-1.27-.45-.37-.32-.57-.73-.59-1.22-.08-2.34,2.46-4.74,7.76-7.35,.41-.22,1.03-.52,1.91-.94l.17-.11,1.21-2.27c-.19,.22-.35,.4-.49,.54-.56,.55-1.15,.84-1.75,.86-.51,.03-1.01-.19-1.42-.61-.4-.42-.61-.92-.63-1.5,0-.31,.06-.69,.22-1.15-1.81,2.19-3.17,3.26-4.13,3.26h-.02c-.56,0-1.02-.23-1.38-.64-.34-.41-.51-.92-.5-1.53,0-.28,.04-.56,.1-.83-1.72,1.91-3.01,2.84-3.93,2.84-.02,0-.04,0-.06,0-.56-.03-1.02-.26-1.35-.69-.33-.42-.48-.94-.46-1.55,.02-.36,.08-.72,.2-1.06-.27,.26-.56,.54-.89,.85-1.55,1.5-2.71,2.17-3.56,2.1-.59-.06-1.06-.32-1.39-.79-.32-.46-.46-1.01-.4-1.64,.02-.17,.05-.34,.09-.52-.77,.81-1.38,1.38-1.85,1.73-.7,.51-1.36,.74-1.99,.68-.67-.07-1.21-.4-1.61-1-.39-.58-.54-1.29-.47-2.1,.04-.39,.13-.77,.27-1.14-.91,.64-1.74,.91-2.47,.8-.5-.08-.86-.28-1.07-.62-.21-.32-.27-.76-.19-1.3,.02-.14,.06-.29,.11-.45-.5,.34-.93,.7-1.3,1.05-.52,.51-1.47,1.59-2.82,3.21-.06,.07-.16,.11-.25,.08-.58-.13-.91-.21-1.01-.22-.05,0-.39-.04-1.02-.09-.09,0-.17-.07-.21-.16-.04-.09-.02-.19,.04-.26l3.42-3.91c2.19-2.51,2.59-3.33,2.63-3.6,.03-.21-.03-.22-.11-.23-.32-.05-1.19,.27-3.73,2.91-.11,.12-.22,.2-.33,.24-.21,.28-.84,.88-3.02,2.54-1.72,1.32-2.98,1.86-3.84,1.69-.56-.12-.99-.44-1.29-.95-.29-.5-.37-1.06-.25-1.66,.02-.09,.05-.18,.08-.27-.83,.67-1.46,1.12-1.89,1.37-.67,.41-1.28,.56-1.81,.45-.56-.12-.99-.43-1.28-.93-.29-.49-.37-1.05-.24-1.64,.06-.27,.16-.54,.3-.82-2.13,1.6-3.64,2.27-4.59,2.03-.58-.15-1.03-.48-1.31-.98-.29-.5-.36-1.07-.21-1.67,.06-.23,.15-.47,.29-.71-.23,.15-.47,.31-.72,.47-1.8,1.18-3.07,1.64-3.89,1.4-.57-.17-.98-.52-1.22-1.04-.23-.51-.26-1.08-.09-1.68,.05-.16,.11-.33,.19-.49-.91,.65-1.61,1.1-2.14,1.35-.78,.37-1.48,.47-2.08,.3-.65-.19-1.12-.62-1.4-1.29-.27-.65-.29-1.37-.07-2.15,.62-2.11,2.69-3.55,6.17-4.28,1.55-.33,2.71-.37,3.55-.13,.66,.19,.99,.59,.97,1.15l.45-.46c.08-.08,.2-.1,.3-.04,.29,.16,.55,.27,.78,.34,.28,.08,.66,.15,1.13,.21,.1,.01,.18,.08,.21,.17,.03,.09,0,.19-.07,.26l-4.23,3.8c-1.78,1.61-2.27,2.34-2.36,2.66-.05,.19-.06,.33-.02,.43,.01,.03,.06,.13,.26,.19,.21,.06,.78,.03,2.32-.82,1.22-.68,2.54-1.59,3.92-2.7,.05-.04,.1-.08,.15-.11l2.7-2.67-1.25-.31c-.09-.02-.16-.09-.18-.18-.02-.09,0-.18,.08-.25l.22-.2c.06-.06,.14-.08,.23-.05l1.51,.38,2.6-2.53c.08-.08,.2-.09,.29-.04,.29,.16,.57,.27,.85,.34,.29,.07,.6,.09,.92,.1h0c.1,0,.19,.06,.23,.15,.04,.09,.02,.2-.05,.27l-2.35,2.32,1.72,.43c.09,.02,.15,.09,.18,.17,.03,.08,0,.18-.06,.24l-.19,.21c-.06,.07-.15,.1-.24,.07l-2.02-.5-5.08,5.09c-.6,.59-.95,1.09-1.05,1.48-.07,.29-.03,.5,.41,.61,.62,.15,2.19-.37,6.1-3.77,.08-.07,.18-.14,.31-.17l2.83-3.02c.07-.08,.18-.1,.28-.06,.34,.14,.61,.24,.81,.28s.57,.08,1.12,.12c.1,0,.18,.07,.22,.16,.04,.09,.01,.19-.05,.26l-5.26,5.51c-.5,.53-.8,1.02-.89,1.47-.09,.44,.09,.52,.29,.56,.71,.14,2.38-.59,6.41-4.9l2.18-2.34c.07-.08,.19-.1,.29-.06,.31,.14,.58,.23,.79,.28,.26,.05,.66,.1,1.17,.13,.1,0,.18,.07,.22,.16,.04,.09,.02,.19-.05,.26l-3.53,3.67c-2.04,2.12-2.55,2.99-2.63,3.34-.07,.33,.02,.47,.34,.54,.54,.12,1.85-.33,4.95-3.12l1.04-.89c.08-.1,.18-.17,.29-.18l.33-.33c2.87-2.73,3.79-2.94,4.24-2.88,.73,.11,1.54,.58,1.29,2.17-.08,.53-.34,1.11-.77,1.77,.12-.08,.25-.15,.37-.22,.58-.9,1.25-1.64,1.98-2.2,.79-.6,1.46-.85,2.04-.76,.48,.07,.73,.38,.66,.81-.1,.63-1,1.28-2.82,2.06-.27,.12-.67,.28-1.21,.5l-.13,.08c-.2,.42-.33,.78-.37,1.06-.06,.4-.04,.71,.08,.91,.1,.19,.29,.3,.56,.34,.78,.12,1.78-.42,2.96-1.6,.32-.25,.47-.34,.58-.36,.88-.89,2.15-1.69,3.78-2.36,1.46-.61,2.59-.87,3.46-.79,.42,.04,.74,.18,.94,.43,.12,.14,.19,.32,.22,.52l.36-.54c.06-.09,.18-.13,.29-.1,.31,.1,.59,.17,.83,.19,.29,.03,.68,.03,1.15,0,.09,0,.19,.05,.24,.13,.05,.09,.04,.19-.02,.27l-3.45,4.52c-1.45,1.92-1.79,2.72-1.82,3.06-.05,.48,.16,.54,.36,.56,.21,.02,.77-.11,2.12-1.24,1.07-.89,2.2-2.03,3.35-3.39,.03-.04,.14-.19,.31-.23,.51-.76,1.17-1.74,1.99-2.93,2.2-3.21,4.07-6.01,5.57-8.35,.06-.09,.18-.14,.28-.1,.31,.1,.59,.15,.83,.16,.4,.02,.77-.03,1.11-.13,.1-.03,.21,0,.28,.09s.07,.2,0,.29c-5.08,7.41-8.08,11.83-8.93,13.14-1.02,1.58-1.25,2.24-1.26,2.51,0,.13,0,.31,.09,.41,.06,.06,.15,.09,.28,.1,.6,.04,1.99-.8,5.26-4.89,.49-.79,1.15-1.83,1.98-3.11,2.1-3.29,3.89-6.16,5.3-8.52,.06-.1,.18-.14,.28-.11,.31,.09,.59,.13,.83,.14,.39,0,.77-.05,1.1-.17,.1-.03,.21,0,.28,.08,.07,.08,.07,.2,.01,.29-4.83,7.56-7.7,12.07-8.51,13.42-.97,1.61-1.18,2.27-1.19,2.55,0,.45,.19,.49,.39,.5h0c.6,0,1.97-.88,5.1-5.05,.08-.15,.19-.22,.28-.24l2-3.55c.05-.09,.15-.13,.25-.12,.24,.03,.54,.05,.86,.03,.28,0,.68-.06,1.18-.15,.1-.02,.19,.02,.25,.1,.06,.08,.06,.19,.01,.27l-3.16,5.39c-1.08,1.84-1.3,2.56-1.29,2.85,0,.19,.05,.32,.12,.39,.07,.06,.19,.11,.34,.09,.77-.03,2.3-1.15,5.21-6.37l1.47-2.64c.05-.09,.16-.13,.25-.13,.25,.03,.56,.05,.91,.03,.29,0,.66-.06,1.09-.15,.1-.02,.2,.02,.25,.1s.06,.19,0,.27c-1.24,2.07-2.92,5.08-4.97,8.95,1.02-.6,1.9-1.24,2.63-1.91,.91-.82,1.93-2,3.04-3.49h0c.23-.31,.34-.4,.48-.41,.21-.01,.36,.13,.37,.34,0,.15,.01,.34-1.85,2.49-1.33,1.52-3.1,2.92-5.26,4.18l-.75,1.42c-1.55,2.93-3.23,5.16-4.98,6.62-1.83,1.53-3.47,2.33-4.88,2.38-.03,0-.05,0-.08,0Zm7.36-8.97c-.29,.16-.67,.35-1.12,.59-4.94,2.59-7.42,4.85-7.35,6.72,.01,.46,.16,.97,1.21,.95,1.12-.04,2.24-.69,3.33-1.93,1.08-1.23,2.4-3.36,3.94-6.33Zm.65-.17c-1.65,3.22-3.06,5.52-4.22,6.83-.2,.23-.41,.45-.62,.64,.47-.3,.95-.67,1.45-1.08,1.7-1.43,3.34-3.6,4.86-6.48l.78-1.48s.05-.08,.1-.1c.02-.01,.04-.03,.07-.04-.04-.07-.05-.17,0-.25,2.09-3.95,3.8-7.06,5.1-9.26-.23,.03-.44,.05-.63,.06-.31,.01-.58,0-.82-.02l-1.39,2.5c-.53,.95-1.03,1.8-1.5,2.54,.04,.07,.05,.17,0,.24l-2.81,5.26s-.05,.07-.09,.09l-.05,.03c.01,.06,0,.12-.03,.18l-.2,.33Zm-7.72-6.4c.06,.08,.07,.19,.02,.28-.13,.22-.24,.4-.3,.53-.28,.52-.42,1.08-.43,1.64,0,.49,.12,.89,.39,1.2,.11,.13,.24,.24,.38,.31-.09-.16-.13-.36-.13-.6,0-.49,.42-1.41,1.26-2.79,.79-1.32,3.55-5.66,8.18-12.91-.21,.03-.44,.04-.65,.04-.23,0-.49-.04-.77-.11-1.4,2.34-3.15,5.15-5.21,8.37-.82,1.28-1.48,2.32-1.98,3.12,0,.02-.03,.04-.04,.05-.25,.31-.48,.6-.71,.87Zm6.17-.7c.07,.08,.08,.19,.03,.28-.76,1.36-1.12,2.32-1.1,2.9,.01,.46,.18,.84,.49,1.17,.11,.11,.22,.2,.33,.27-.08-.14-.12-.32-.12-.53-.01-.33,.12-1.01,1.36-3.12l2.89-4.92c-.28,.04-.53,.07-.72,.07-.28,.01-.54,0-.77-.02l-2,3.54c-.03,.06-.09,.1-.16,.12-.02,0-.04,0-.06,0,0,.02-.02,.03-.02,.04-.05,.06-.1,.13-.14,.19Zm-11.72,.26c.1,.08,.12,.22,.05,.33-.2,.32-.36,.56-.44,.71-.29,.52-.46,1.06-.48,1.62-.02,.49,.09,.89,.35,1.22,.11,.14,.23,.25,.37,.33-.08-.16-.12-.36-.11-.6,.01-.31,.17-.93,1.34-2.75,.83-1.28,3.72-5.54,8.59-12.64-.21,.03-.42,.03-.65,.02-.23-.01-.49-.06-.77-.13-1.48,2.31-3.33,5.07-5.48,8.21-.87,1.27-1.56,2.28-2.08,3.07-.05,.08-.14,.12-.23,.11h0c-.15,.19-.3,.36-.45,.53Zm-6.24,.11c.06,.08,.06,.19,0,.28-.4,.62-.63,1.21-.69,1.76-.05,.51,.05,.94,.31,1.3,.12,.17,.26,.3,.43,.4-.09-.17-.12-.4-.09-.66,.06-.59,.69-1.67,1.92-3.31l3.13-4.1c-.26,0-.5,0-.69-.02-.23-.02-.48-.08-.76-.16l-.91,1.35c-.07,.1-.2,.14-.31,.09-.39,.77-1.17,1.79-2.34,3.07Zm1.54-4.62c-.95,0-2.3,.84-4.02,2.5-1.82,1.76-2.8,3.23-2.91,4.38-.06,.57,.14,.84,.65,.89,.38,.05,1.45-.34,4.19-3.29h0c2.14-2.31,2.64-3.38,2.69-3.86,.02-.2,0-.35-.08-.44-.07-.09-.2-.14-.38-.16-.05,0-.09,0-.14,0Zm-7.33,3.17c.08,.08,.1,.22,.03,.32-.43,.62-.68,1.28-.74,1.96-.07,.69,.06,1.29,.38,1.78,.1,.15,.21,.28,.33,.39-.09-.21-.12-.47-.09-.78,.12-1.29,1.12-2.82,3.06-4.69,1.05-1.02,1.97-1.74,2.77-2.17-.45,.13-.95,.3-1.5,.53-1.62,.67-2.86,1.45-3.69,2.33-.06,.06-.13,.08-.21,.08-.05,.03-.14,.09-.32,.23l-.02,.02Zm-10.43,3.1c.34,.03,.52,.05,.56,.05,.09,.01,.39,.08,.9,.19,1.33-1.59,2.23-2.62,2.76-3.13,.06-.06,.13-.12,.2-.18-.04-.09-.02-.19,.04-.27,1.09-1.2,1.71-2.2,1.83-2.98,.14-.92-.13-1.31-.47-1.48,.04,.12,.05,.25,.02,.41-.06,.37-.4,1.16-2.74,3.85l-3.09,3.54Zm-5.74-4.63c.05,.09,.04,.21-.03,.29-.56,.63-.88,1.14-.96,1.51-.1,.48-.04,.91,.19,1.31,.1,.17,.21,.31,.35,.43-.05-.16-.06-.35-.01-.57,.08-.4,.46-1.2,2.76-3.59l3.16-3.28c-.29-.03-.52-.06-.7-.1-.21-.04-.45-.12-.73-.24l-2.06,2.21c-.71,.76-1.37,1.43-1.97,2.02Zm-4.6-1.78c.05,.09,.04,.21-.03,.3l-.36,.38c-.63,.67-1.01,1.3-1.13,1.87-.1,.48-.04,.9,.19,1.29,.1,.18,.23,.32,.37,.43-.06-.17-.06-.38-.01-.62,.11-.54,.45-1.11,1.02-1.71l4.9-5.13c-.29-.03-.51-.05-.66-.08-.2-.04-.44-.12-.74-.24l-2.79,2.97c-.05,.06-.12,.09-.21,.08-.01,0-.03,.02-.06,.05-.16,.14-.32,.28-.48,.41Zm-6.29-.86c.07,.09,.06,.22-.02,.31-.57,.63-.92,1.19-1.04,1.67-.12,.48-.07,.91,.16,1.31,.1,.17,.21,.31,.35,.43-.06-.17-.06-.38,0-.6,.12-.49,.51-1.05,1.18-1.71l5.18-5.19s.08-.06,.12-.07c0-.05,.03-.1,.07-.14l2.26-2.24c-.16-.02-.32-.05-.47-.09-.26-.06-.53-.16-.8-.3l-2.57,2.5s-.08,.05-.12,.07c0,.05-.03,.1-.07,.14l-3.05,3.01s-.05,.04-.08,.05c0,0-.03,.02-.07,.05-.35,.28-.7,.55-1.04,.81Zm26.79,.1c-.41,0-.92,.23-1.51,.68-.57,.43-1.1,.99-1.58,1.65,.42-.17,.74-.3,.96-.4,2.19-.93,2.5-1.49,2.53-1.68,.02-.1,.03-.19-.24-.24-.05,0-.1-.01-.15-.01Zm-32.43-1.53c.04,.09,.02,.2-.05,.28-.51,.53-.85,1.07-1,1.6-.14,.49-.12,.93,.06,1.33,.09,.19,.2,.34,.34,.47-.05-.19-.04-.41,.03-.66,.17-.57,.99-1.52,2.51-2.89l3.84-3.45c-.26-.04-.49-.1-.68-.15-.22-.06-.46-.16-.71-.29l-1.15,1.16c-.09,.09-.22,.1-.32,.03-.53,.68-1.48,1.54-2.87,2.58Zm2.02-4.28c-.94,0-2.3,.58-4.06,1.74-2.12,1.39-3.35,2.65-3.67,3.76-.16,.55-.02,.85,.47,.99,.46,.14,1.65-.19,4.73-2.46h0c2.53-1.87,3.22-2.83,3.36-3.3,.13-.44-.04-.59-.34-.68-.15-.04-.31-.07-.49-.07Zm-1.21-.29c-.47,.04-.99,.12-1.57,.25-3.28,.68-5.23,2-5.79,3.93-.2,.67-.18,1.28,.05,1.82,.07,.17,.15,.31,.25,.44-.05-.23-.03-.49,.06-.78,.36-1.24,1.63-2.56,3.88-4.04,1.22-.8,2.26-1.34,3.12-1.61Z"/></g><g><path class="cls-1" d="M168.36,208.77c-.03-.07-.08-.1-.15-.09-.29,.03-.78,.54-1.48,1.53-.7,.99-1.36,2.12-1.99,3.38-2.95,4.32-5.55,6.92-7.8,7.79l-.04-.35c-.3-2.81-2.01-4.32-5.13-4.52,.13-.67,.35-1.33,.66-1.97,2.11-.72,4.29-1.84,6.55-3.36,2.25-1.52,4.26-3.24,6.02-5.16,.09,.4,.16,.84,.21,1.32,.16,1.56-.11,3.09-.82,4.6-.03,.06-.05,.12-.05,.18,.02,.07,.06,.1,.12,.09,.09-.01,.23-.24,.4-.7,.58-1.51,.81-2.89,.67-4.14-.05-.43-.15-.96-.31-1.59,1.18-1.42,1.72-2.56,1.63-3.42-.1-.93-.71-1.34-1.84-1.22-.58,.06-1.46,.38-2.63,.97-1.9-1.2-4.23-1.65-7-1.36-3.49,.37-6.48,1.61-8.97,3.73-2.49,2.12-3.61,4.37-3.36,6.74,.14,1.37,.82,2.41,2.01,3.12,1.2,.71,2.73,.96,4.6,.77,.29-.03,.54-.07,.75-.11-.09,.75-.11,1.27-.08,1.56-.11-.01-.23-.01-.37,0-1.65,.17-3.39,.86-5.22,2.07-1.83,1.2-3.22,2.67-4.16,4.41-.95,1.74-1.32,3.51-1.13,5.31,.22,2.12,1.14,3.75,2.75,4.89s3.62,1.59,6.01,1.34c2.83-.3,5.51-1.34,8.05-3.12,1.77-1.24,3.11-2.59,4.01-4.04,.9-1.45,1.58-3.35,2.05-5.7,.37-1.93,.71-3.35,1-4.26,.29-.91,.78-2.07,1.47-3.48,.84-.87,1.65-1.89,2.44-3.05,.79-1.16,1.17-1.88,1.14-2.17Zm-13.1,9.41c.86,.82,1.32,1.93,1.39,3.32-.3,.08-.61,.13-.95,.17-1.09,.12-2.01-.11-2.74-.66-.73-.56-1.16-1.35-1.27-2.39-.06-.59-.04-1.2,.07-1.81,1.47,.09,2.63,.55,3.49,1.37Zm9.82-16.75c.88-.09,1.36,.24,1.45,1.01,.08,.79-.39,1.8-1.41,3.02-.5-1.31-1.3-2.34-2.39-3.1,.89-.55,1.68-.86,2.35-.94Zm-2.62,1.07c1.18,.79,1.99,1.87,2.44,3.22-1.72,1.87-3.7,3.58-5.94,5.11-2.24,1.54-4.37,2.66-6.39,3.36,.92-2.17,2.31-4.34,4.16-6.53,1.85-2.19,3.76-3.91,5.73-5.16Zm-12.58,12.27c-1.91,.2-3.43-.02-4.58-.65-1.15-.64-1.79-1.62-1.93-2.96-.23-2.17,.92-4.31,3.44-6.4,2.52-2.09,5.42-3.31,8.69-3.66,2.71-.29,4.9,.1,6.57,1.16-6.83,3.7-10.69,7.86-11.58,12.45l-.61,.06Zm11.95,4.63c-2.44,5.25-4.69,8.97-6.72,11.15-2.04,2.18-4.43,3.41-7.17,3.7-2.02,.21-3.71-.14-5.07-1.05-1.36-.92-2.13-2.22-2.31-3.9-.3-2.81,.53-5.46,2.49-7.94,1.95-2.48,4.39-3.97,7.3-4.46,.18,1.72,.75,3.04,1.72,3.95,.97,.92,2.19,1.29,3.68,1.14,.34-.04,.63-.09,.88-.16-.02,1.41-.58,2.83-1.69,4.25-1.11,1.42-2.26,2.19-3.45,2.32-.59,.06-1.11-.07-1.54-.38-.43-.32-.68-.75-.74-1.3-.04-.34,.01-.7,.15-1.1,.13-.4,.29-.6,.46-.62,.07,0,.11,.02,.12,.09,0,.08,0,.17,0,.27-.03,.18-.04,.31-.03,.39,.06,.55,.39,.79,1.01,.72,.33-.04,.61-.2,.85-.5,.24-.3,.34-.61,.31-.95-.08-.74-.53-1.07-1.34-.99-.53,.06-.99,.36-1.38,.92s-.54,1.16-.47,1.8c.06,.62,.35,1.11,.85,1.48,.5,.37,1.1,.52,1.78,.45,1.29-.14,2.5-.92,3.62-2.37,1.12-1.44,1.72-2.97,1.78-4.59,2.13-.82,4.58-3.14,7.34-6.94-.87,1.45-1.68,3-2.42,4.63Z"/><path class="cls-1" d="M146.97,234.91c-1.9,0-3.55-.49-4.92-1.46-1.67-1.18-2.63-2.89-2.86-5.07-.19-1.84,.2-3.68,1.16-5.46,.96-1.77,2.39-3.28,4.24-4.5,1.86-1.22,3.65-1.93,5.33-2.11,.05,0,.09,0,.13,0,0-.25,.02-.58,.06-1-.13,.02-.28,.04-.44,.06-1.93,.2-3.52-.07-4.76-.8-1.26-.75-1.98-1.86-2.13-3.31-.26-2.45,.9-4.79,3.45-6.95,2.52-2.14,5.59-3.42,9.11-3.79,2.76-.29,5.12,.16,7.04,1.33,1.15-.56,2-.87,2.59-.93,.62-.06,1.11,.02,1.47,.26,.37,.25,.59,.64,.64,1.18,.1,.92-.43,2.07-1.61,3.5,.14,.58,.24,1.08,.28,1.5,.14,1.29-.1,2.72-.69,4.26-.24,.61-.39,.83-.61,.85-.18,.02-.33-.09-.38-.28,0-.03-.01-.06,0-.09,0-.09,.03-.18,.07-.27,.69-1.46,.96-2.96,.8-4.47-.03-.28-.07-.56-.11-.82-1.69,1.78-3.62,3.41-5.73,4.84-2.23,1.5-4.42,2.63-6.51,3.36-.23,.5-.41,1.02-.53,1.54,3.07,.28,4.78,1.87,5.08,4.72h0c2.12-.95,4.6-3.49,7.38-7.55,.62-1.24,1.29-2.39,1.99-3.39,.98-1.4,1.4-1.61,1.66-1.64,.18-.01,.33,.07,.41,.24,.01,.02,.02,.05,.02,.08,.03,.25-.09,.73-1.18,2.34-.79,1.16-1.61,2.19-2.44,3.05-.67,1.37-1.15,2.52-1.44,3.41-.29,.9-.62,2.32-.99,4.23-.47,2.37-1.17,4.32-2.09,5.78-.91,1.47-2.29,2.85-4.08,4.11-2.56,1.8-5.31,2.86-8.16,3.17-.43,.04-.86,.07-1.27,.07Zm3.15-17.72c-2.72,.53-5.04,1.98-6.88,4.32-1.9,2.42-2.72,5.03-2.43,7.76,.17,1.6,.91,2.85,2.2,3.72,1.3,.88,2.96,1.22,4.91,1.01,2.67-.28,5.03-1.5,7.02-3.62,2.01-2.15,4.26-5.88,6.68-11.08,.29-.64,.6-1.27,.91-1.89-1.95,2.31-3.75,3.81-5.36,4.48-.1,1.6-.71,3.14-1.83,4.57-1.16,1.49-2.44,2.32-3.79,2.46-.75,.08-1.4-.09-1.96-.49-.56-.41-.88-.97-.95-1.66-.07-.7,.1-1.36,.51-1.96,.42-.62,.95-.96,1.56-1.03,.94-.09,1.52,.33,1.61,1.21,.04,.4-.08,.79-.36,1.13-.28,.35-.62,.54-1.02,.59-1.01,.1-1.24-.55-1.29-.95,0-.06,0-.14,0-.23-.02,.05-.04,.1-.06,.16-.12,.36-.17,.7-.14,.99,.05,.48,.26,.84,.64,1.12,.38,.28,.83,.39,1.36,.34,1.11-.12,2.21-.87,3.28-2.23,.99-1.26,1.54-2.53,1.63-3.78-.18,.04-.38,.07-.59,.09-1.56,.16-2.86-.24-3.88-1.21-.96-.9-1.55-2.19-1.77-3.84Zm12.96,.21c-.35,.68-.69,1.39-1.02,2.11h0c-2.44,5.25-4.72,9.03-6.77,11.21-1.39,1.48-2.95,2.54-4.67,3.17,1.9-.51,3.75-1.39,5.5-2.62,1.74-1.22,3.06-2.55,3.94-3.96,.88-1.42,1.56-3.3,2.02-5.62,.37-1.92,.71-3.36,1-4.28Zm-14.77-.24c-1.1,.34-2.25,.9-3.42,1.67-1.79,1.17-3.16,2.63-4.08,4.33-.92,1.69-1.29,3.42-1.1,5.17,.18,1.68,.82,3.06,1.91,4.1-.74-.84-1.17-1.88-1.3-3.11-.3-2.87,.55-5.6,2.54-8.12,1.52-1.93,3.36-3.29,5.46-4.04Zm1.53,7.57c.1,0,.17,.04,.21,.07,.05,.04,.11,.12,.13,.25,0,.1,0,.21,0,.32-.04,.22-.03,.3-.03,.33,.03,.3,.13,.56,.74,.5,.26-.03,.48-.16,.68-.4,.2-.24,.28-.5,.25-.77-.06-.6-.39-.84-1.06-.77-.34,.04-.64,.19-.91,.46Zm2.15-7.66c-.08,.51-.09,1.02-.03,1.51,.1,.97,.48,1.7,1.17,2.21,.68,.51,1.54,.72,2.56,.61,.25-.03,.49-.07,.71-.12-.1-1.23-.53-2.21-1.3-2.94h0c-.77-.73-1.82-1.17-3.11-1.28Zm-1.46-.35s.06,.09,.06,.14c.17,1.65,.73,2.93,1.64,3.8,.03,.03,.06,.05,.08,.08-.48-.55-.77-1.25-.86-2.1-.06-.62-.04-1.25,.08-1.88,0-.04,.02-.08,.05-.11-.04-.06-.06-.13-.04-.2,.13-.69,.36-1.38,.68-2.03,.03-.06,.08-.11,.14-.13-.03-.07-.04-.14,0-.21,.93-2.18,2.34-4.4,4.2-6.59,1.57-1.86,3.21-3.4,4.88-4.59-6.25,3.54-9.84,7.53-10.68,11.85-.01,.06-.04,.11-.09,.15,.02,.04,.02,.08,.02,.12-.08,.73-.11,1.24-.08,1.51,0,.07-.02,.14-.06,.19Zm11.31,2.68h0Zm-4.69-18.14c-.52,0-1.06,.03-1.62,.09-3.2,.34-6.08,1.55-8.55,3.6-2.44,2.03-3.57,4.11-3.35,6.18,.13,1.26,.72,2.17,1.81,2.77,1.1,.61,2.59,.82,4.43,.62h0l.43-.04c.95-4.49,4.74-8.61,11.28-12.23-1.21-.66-2.69-.99-4.42-.99Zm5.32,1.54c-1.9,1.23-3.76,2.92-5.54,5.02-1.67,1.98-2.98,3.97-3.88,5.93,1.83-.7,3.77-1.75,5.78-3.13,2.17-1.49,4.12-3.16,5.8-4.97-.42-1.18-1.14-2.14-2.16-2.86Zm5.6,6.22c-.18,.14-.53,.48-1.12,1.33-.56,.8-1.11,1.71-1.63,2.7,.58-.67,1.15-1.43,1.71-2.25,.69-1.01,.95-1.53,1.04-1.78Zm-4.88-6.63c.87,.68,1.54,1.54,2.01,2.59,.79-1.02,1.16-1.86,1.09-2.51-.03-.29-.12-.5-.28-.62-.19-.15-.49-.21-.89-.16h0c-.55,.06-1.2,.3-1.93,.71Zm1.9-.96h0Z"/></g><g><path class="cls-1" d="M213.8,204.23c-.03-.06-.07-.08-.14-.06-.05,.02-.09,.1-.09,.23-.92,4.41-1.87,6.81-2.83,7.22-.44,.19-.76,.06-.94-.39-.18-.42-.07-1.6,.3-3.55,.37-1.9,.4-3.22,.1-3.94-.24-.57-.6-.98-1.09-1.24-.49-.25-.97-.28-1.44-.08-.58,.24-1.08,.83-1.49,1.77-.41,.93-.89,2.54-1.43,4.83,.3-1.57,.3-2.7,0-3.39-.19-.46-.49-.81-.89-1.03-.4-.23-.78-.26-1.15-.11-.57,.24-1.22,1.81-1.95,4.72l-.14,.53s-.02,.1-.01,.16c0,.01,.02,.01,.02,.02h0c-.08,.02-.19,.2-.33,.54-.74,1.9-1.53,2.98-2.36,3.24-.46,.15-.91,.01-1.34-.4,1.04-3.06,1.41-5.06,1.12-6-.11-.35-.29-.48-.55-.4-.58,.19-1.01,.91-1.29,2.17-.28,1.27-.26,2.39,.05,3.39,.06,.2,.19,.5,.39,.89-.87,2.91-1.87,4.55-3.01,4.91-.57,.18-.94,0-1.11-.55-.15-.48-.04-1.47,.33-2.97l1.7-6.76c-.23,.13-.54,.26-.93,.38-.16,.05-.54,.14-1.16,.28l-.85,3.82c-.45,1.98-1,3.69-1.64,5.12-.64,1.43-1.22,2.22-1.72,2.38-.46,.14-.77-.03-.92-.54-.14-.45-.06-1.25,.23-2.41l1.83-7.4c-.52,.25-.88,.41-1.07,.47-.21,.07-.55,.13-1.02,.2l-1.06,4.61s-.03,.05-.05,.1c-.27,.77-.69,1.48-1.26,2.12-.57,.64-1.11,1.02-1.62,1.15-.28,.07-.56,.06-.82-.02,.93-2.17,1.24-3.91,.92-5.22-.25-1.04-.87-1.45-1.84-1.21-1.05,.25-2.24,1.15-3.57,2.69-1.21,1.39-1.95,2.69-2.22,3.91-.67,1.23-1.39,1.93-2.15,2.07-.73,.14-1.18-.28-1.36-1.24-.06-.34-.07-.8,0-1.35l.17-.21c.45-.41,.78-.71,1-.92,1.4-1.32,2.05-2.26,1.95-2.81-.06-.31-.27-.43-.62-.36-.52,.1-1.03,.55-1.55,1.37-.52,.81-.9,1.77-1.14,2.88-.46,.54-.92,1.21-1.39,2.01,.67-1.64,.91-2.9,.75-3.78-.22-1.18-.8-1.69-1.72-1.51-.63,.12-1.61,1.53-2.94,4.22l-.23,.49s-.04,.09-.04,.15c.01,.06,.04,.09,.09,.09,.08-.01,.16-.11,.23-.29,1.22-2.8,2.16-4.25,2.8-4.38,.26-.05,.43,.09,.49,.41,.1,.55-.33,2.11-1.31,4.67l-1.96,5.12c.65-.17,.99-.26,1.04-.27,.1-.02,.46-.06,1.08-.13,.75-2.12,1.3-3.53,1.63-4.24,.34-.71,.81-1.44,1.41-2.21-.04,.52-.04,.94,.02,1.26,.19,1.01,.73,1.43,1.6,1.27,.72-.14,1.4-.72,2.06-1.72-.05,.49-.02,.96,.09,1.42,.19,.78,.59,1.4,1.21,1.85,.62,.44,1.27,.59,1.95,.42,1.32-.32,2.47-1.72,3.46-4.21,.31,.07,.64,.06,.99-.02,.84-.2,1.64-.92,2.4-2.16,.09-.14,.15-.26,.23-.38-.3,1.33-.35,2.31-.15,2.94,.17,.55,.49,.96,.94,1.25,.45,.28,.92,.35,1.4,.2,.96-.3,1.88-1.95,2.78-4.93-.09,.75-.07,1.36,.08,1.83,.18,.56,.51,.97,1.02,1.23,.5,.26,1.04,.31,1.6,.13,.63-.2,1.18-.67,1.64-1.39,.46-.73,.96-1.93,1.52-3.62,.5,.43,1,.57,1.49,.41,.73-.23,1.41-1.01,2.05-2.33,.48-.96,.7-1.51,.66-1.63,0,0-.01,0-.02,0,.02,0,.03,0,.05,0,.05-.03,.09-.14,.13-.32,.65-3,1.25-4.62,1.8-4.85,.27-.11,.47,0,.61,.32,.24,.57,.12,2.3-.36,5.19l-.85,5.05c.32-.18,.66-.35,1.04-.51,.11-.05,.43-.16,.98-.33,.83-7.22,2.04-11.15,3.61-11.81,.46-.19,.79-.07,.97,.37,.15,.36,.06,1.36-.28,3.02-.33,1.58-.5,2.62-.53,3.12-.03,.5,.06,.99,.26,1.48,.23,.55,.59,.95,1.08,1.19,.49,.24,.97,.26,1.46,.05,.73-.31,1.42-1.5,2.07-3.57,.78-2.52,1.13-3.9,1.03-4.12Zm-32.68,13.12c.09,.39,.35,.72,.77,1-.97,2.38-2.06,3.71-3.29,4.01-.75,.18-1.22-.12-1.41-.9-.33-1.35,.02-3.2,1.03-5.53s2.03-3.63,3.07-3.88c.83-.2,1.36,.16,1.58,1.08,.12,.49,.13,.95,.05,1.39-.12-.21-.28-.29-.46-.25-.42,.1-.78,.5-1.08,1.2-.3,.7-.38,1.32-.25,1.88Z"/><path class="cls-1" d="M166.54,225.25c-.07,0-.14-.03-.19-.08-.06-.07-.08-.17-.05-.26l1.96-5.12c1.19-3.13,1.36-4.19,1.3-4.54-.03-.15-.08-.19-.09-.2-.03-.02-.07-.01-.11,0-.31,.06-1.07,.69-2.62,4.23-.07,.17-.19,.4-.42,.44-.22,0-.35-.12-.38-.29,0-.15,.03-.25,.08-.34l.21-.46c1.83-3.73,2.66-4.28,3.12-4.36,.54-.1,.98,0,1.33,.31,.33,.29,.55,.76,.68,1.41,.11,.57,.06,1.26-.15,2.09,.1-.14,.21-.26,.31-.39,.25-1.1,.64-2.08,1.16-2.9,.56-.88,1.12-1.36,1.72-1.48,.24-.04,.44-.02,.59,.07,.12,.07,.27,.21,.32,.49,.12,.66-.52,1.62-2.02,3.04-.22,.21-.56,.52-1,.93l-.1,.13c-.05,.5-.05,.9,.01,1.21,.2,1.06,.68,1.12,1.07,1.04,.67-.13,1.33-.77,1.96-1.92,.28-1.25,1.04-2.59,2.26-3.98,1.38-1.59,2.59-2.5,3.7-2.76,.55-.13,1.02-.08,1.39,.16,.36,.24,.61,.65,.76,1.24,.31,1.3,.04,3.01-.82,5.09,.13,0,.27,0,.41-.04,.46-.11,.96-.47,1.49-1.07,.54-.61,.95-1.3,1.21-2.04,.03-.06,.04-.09,.06-.11l1.05-4.57c.02-.1,.11-.18,.21-.19,.45-.06,.78-.12,.98-.19,.13-.04,.41-.15,1.03-.45,.09-.04,.19-.03,.27,.03,.08,.06,.11,.16,.09,.25l-1.83,7.4c-.35,1.38-.32,2-.24,2.27,.06,.19,.14,.31,.24,.37,.09,.05,.22,.05,.37,0,.24-.08,.77-.47,1.57-2.25,.63-1.41,1.18-3.12,1.63-5.07l.85-3.82c.02-.09,.1-.17,.19-.19,.75-.16,1.04-.24,1.14-.27,.37-.12,.67-.24,.88-.36,.09-.05,.19-.05,.28,.02,.08,.06,.12,.16,.09,.26l-1.7,6.76c-.44,1.8-.43,2.54-.33,2.84,.13,.41,.36,.52,.8,.38,1.04-.33,1.98-1.89,2.82-4.64-.18-.35-.3-.63-.36-.83-.33-1.03-.35-2.21-.06-3.52,.3-1.37,.78-2.14,1.46-2.36,.19-.06,.65-.12,.86,.56,.31,.98-.04,2.94-1.06,6,.33,.27,.65,.35,.98,.24,.76-.24,1.5-1.28,2.21-3.09,.11-.28,.2-.44,.28-.54,0-.06,.01-.13,.04-.18l.13-.5c1-4.01,1.68-4.71,2.09-4.89,.44-.18,.9-.15,1.37,.12,.45,.25,.78,.64,1,1.16,.09,.22,.16,.48,.2,.78,.27-.96,.53-1.7,.76-2.23,.44-.99,.98-1.62,1.63-1.89,.55-.23,1.1-.2,1.65,.09,.54,.28,.94,.74,1.2,1.36,.32,.78,.3,2.11-.09,4.08-.48,2.47-.41,3.19-.32,3.4,.07,.16,.15,.26,.24,.29,.09,.04,.22,.02,.38-.04,.6-.25,1.56-1.68,2.68-7.04,.01-.2,.1-.35,.25-.41,.19-.08,.38,0,.46,.19,.07,.16,.18,.43-1.03,4.3-.67,2.16-1.39,3.38-2.21,3.72-.55,.23-1.11,.21-1.67-.06-.54-.27-.94-.71-1.2-1.31-.22-.52-.31-1.05-.28-1.59,.03-.51,.2-1.55,.53-3.16,.42-2.1,.36-2.7,.29-2.88-.11-.27-.26-.4-.65-.24-1.02,.43-2.44,2.79-3.46,11.61-.01,.1-.08,.18-.17,.21-.54,.17-.86,.28-.96,.33-.37,.15-.71,.32-1.01,.5-.08,.05-.19,.05-.27-.01-.08-.05-.12-.15-.1-.25l.85-5.05c.58-3.52,.53-4.69,.38-5.05-.11-.26-.2-.22-.28-.18-.21,.09-.8,.72-1.65,4.67-.04,.2-.09,.32-.16,.41-.04,.22-.2,.63-.69,1.61-.67,1.4-1.39,2.2-2.19,2.45-.48,.15-.96,.07-1.44-.24-.52,1.53-1,2.65-1.44,3.34-.49,.78-1.08,1.28-1.77,1.5-.63,.2-1.23,.15-1.8-.14-.56-.29-.94-.76-1.14-1.38-.04-.11-.07-.23-.09-.36-.78,2.16-1.59,3.35-2.46,3.62-.55,.17-1.09,.1-1.61-.23-.5-.32-.85-.78-1.04-1.38-.15-.46-.17-1.06-.08-1.83-.66,.89-1.37,1.43-2.1,1.61-.31,.07-.61,.09-.89,.06-1.01,2.47-2.18,3.84-3.56,4.17-.75,.18-1.48,.03-2.16-.46-.67-.48-1.11-1.15-1.31-1.99-.05-.23-.09-.46-.11-.7-.56,.67-1.14,1.07-1.75,1.18-.71,.13-1.61-.01-1.89-1.47-.03-.15-.05-.33-.05-.52-.37,.53-.68,1.04-.91,1.53-.33,.7-.88,2.12-1.62,4.21-.03,.09-.11,.15-.21,.16-.61,.07-.96,.11-1.06,.13-.05,0-.39,.1-1.02,.26-.02,0-.04,0-.06,0Zm3.33-10.51c.09,.1,.15,.25,.19,.42,.07,.38,.01,1.3-1.32,4.81l-1.78,4.67c.35-.09,.55-.14,.58-.15,.1-.02,.41-.06,.95-.12,.72-2.03,1.26-3.41,1.59-4.11,.04-.09,.09-.18,.13-.27-.07-.07-.09-.18-.06-.27,.64-1.58,.89-2.81,.73-3.64-.1-.53-.27-.91-.52-1.12-.14-.12-.3-.19-.49-.21Zm5.68,4.03c.06,.05,.09,.13,.08,.21-.05,.47-.02,.92,.08,1.34,.18,.73,.54,1.29,1.11,1.7,.18,.13,.36,.23,.54,.3-.19-.19-.33-.47-.42-.82-.34-1.4,.01-3.32,1.04-5.69,.53-1.22,1.06-2.16,1.6-2.83-.54,.42-1.11,.98-1.71,1.67-1.18,1.35-1.9,2.62-2.16,3.8,0,.02-.01,.04-.02,.07-.05,.09-.1,.17-.15,.26Zm6.15-6.54c-.11,0-.23,.02-.36,.05-.95,.23-1.92,1.49-2.9,3.74-.98,2.27-1.32,4.08-1.01,5.38,.08,.33,.21,.55,.39,.66,.17,.11,.42,.13,.72,.06,1.11-.27,2.13-1.5,3.04-3.68-.37-.29-.61-.64-.7-1.03h0c-.15-.61-.06-1.29,.26-2.04,.34-.78,.75-1.22,1.25-1.34,.08-.02,.19-.03,.32,0,0-.27-.02-.56-.09-.85-.1-.4-.25-.67-.46-.81-.13-.09-.28-.13-.46-.13Zm4.17,3.45c.07,.06,.11,.15,.08,.25-.29,1.28-.34,2.22-.15,2.81,.16,.49,.43,.86,.83,1.11,.16,.1,.32,.17,.48,.21-.14-.13-.25-.31-.32-.55-.16-.5-.08-1.33,.23-2.54l1.7-6.89c-.28,.12-.48,.21-.62,.25-.2,.06-.49,.12-.89,.18l-1.03,4.44s-.01,.04-.03,.07l-.27-.03,.24,.08c-.07,.21-.16,.41-.25,.61Zm4.98-.52c.06,.05,.08,.13,.08,.21-.09,.71-.06,1.29,.07,1.73,.16,.5,.45,.85,.89,1.09,.13,.07,.27,.12,.41,.16-.14-.13-.24-.31-.32-.54-.17-.53-.06-1.55,.32-3.11l1.57-6.24c-.14,.06-.3,.11-.48,.17-.15,.05-.5,.13-1.03,.25l-.81,3.66c-.21,.94-.45,1.82-.71,2.63Zm-9.49,2.13c.08,.31,.27,.58,.61,.82,.54-1.27,.86-2.38,.97-3.34-.11,.01-.19-.04-.25-.12-.09-.15-.15-.14-.18-.13-.34,.08-.64,.44-.91,1.06-.28,.64-.36,1.22-.23,1.72h0Zm-6.73-3.49s-.08,0-.13,.01c-.45,.08-.91,.5-1.39,1.25-.42,.65-.74,1.41-.98,2.25,.36-.33,.63-.58,.82-.76,1.75-1.65,1.92-2.33,1.87-2.58-.01-.08-.04-.13-.08-.16-.03-.02-.07-.02-.12-.02Zm28.67-9.14c.09,.08,.17,.2,.23,.35,.17,.4,.31,1.38-.34,5.33l-.77,4.55c.2-.1,.4-.19,.61-.28,.11-.05,.39-.14,.85-.29,.23-1.92,.48-3.61,.76-5.06-.1-.05-.15-.16-.13-.27,.29-1.51,.29-2.6,.02-3.24-.17-.42-.43-.71-.78-.91-.15-.09-.3-.14-.45-.16Zm-5.99,2.48s-.04,0-.06,.01c-.48,.15-.86,.82-1.12,1.99-.27,1.22-.25,2.31,.05,3.26,.05,.15,.14,.36,.26,.62,.96-2.88,1.32-4.78,1.04-5.64-.06-.2-.12-.25-.18-.25Zm11.4-4.53c.09,.09,.17,.21,.22,.36,.11,.26,.2,.87-.26,3.17-.32,1.57-.5,2.6-.52,3.08-.02,.46,.06,.92,.25,1.37,.21,.5,.52,.84,.96,1.06,.19,.1,.39,.15,.58,.17-.15-.1-.27-.26-.36-.48-.13-.3-.23-1.01,.29-3.69,.36-1.84,.4-3.12,.12-3.79-.22-.52-.54-.88-.97-1.11-.1-.05-.2-.09-.29-.12Z"/></g></g></g></g></svg>