<svg width="220" height="223" viewBox="0 0 220 223" fill="none" xmlns="http://www.w3.org/2000/svg">
<path d="M113.145 177.91C159.265 177.91 196.653 140.546 196.653 94.4547C196.653 48.3637 159.265 10.9995 113.145 10.9995C67.025 10.9995 29.6372 48.3637 29.6372 94.4547C29.6372 140.546 67.025 177.91 113.145 177.91Z" fill="white"/>
<path d="M64.9978 40.6008L67.4332 48.4527C67.5365 48.8655 67.6225 49.1063 67.6914 49.1923C67.8807 49.4245 68.1991 49.4331 68.6466 49.2267L68.8445 49.4675L65.5056 52.1679L65.3076 51.9271C65.5916 51.5917 65.626 51.2821 65.4023 51.0069C65.342 50.9295 65.0925 50.7661 64.645 50.5081L55.5404 45.3395C55.0929 45.0815 54.7487 44.9353 54.5249 44.9009C54.3012 44.8665 54.0516 44.9181 53.7848 45.0557L53.5869 44.8149L57.1926 41.8994L57.3906 42.1402C57.1324 42.467 57.0894 42.7422 57.2701 42.9744C57.3647 43.0862 57.5368 43.2238 57.795 43.37L64.2492 47.1455L62.0461 39.887C61.9515 39.5774 61.874 39.3796 61.8138 39.3022C61.6245 39.07 61.3405 39.0614 60.9446 39.2678L60.7467 39.027L64.5159 35.974L64.7138 36.2148C64.4385 36.5846 64.404 36.8856 64.5934 37.1178C64.6622 37.1952 64.8257 37.3156 65.0925 37.4618L71.6069 41.177L69.3264 34.1766C69.2145 33.824 69.1113 33.5832 69.008 33.4542C68.8273 33.2306 68.5261 33.2392 68.1044 33.4542L67.9065 33.2134L71.4778 30.3237L71.6757 30.5645C71.4778 30.8397 71.3745 31.0719 71.3745 31.2611C71.3745 31.4503 71.4434 31.8029 71.6069 32.3276L74.7651 42.3036C74.9114 42.7766 75.0405 43.0776 75.1351 43.198C75.3331 43.4474 75.6342 43.4474 76.0473 43.2238L76.2452 43.4647L72.8633 46.1995L72.6653 45.9587C72.9751 45.6147 73.0182 45.3051 72.7858 45.0213C72.7084 44.9267 72.4502 44.7633 72.0027 44.5311L65.0064 40.575L64.9978 40.6008Z" fill="#454C85"/>
<path d="M82.5355 33.5918L83.9812 36.9114L91.8553 33.4886C92.036 33.4112 92.1565 33.308 92.2167 33.1876C92.277 33.0586 92.2856 32.878 92.2597 32.6458L92.5437 32.5168L93.9034 35.6472L93.6194 35.7676C93.4645 35.5784 93.3268 35.4666 93.1977 35.4236C93.0687 35.3806 92.9138 35.3978 92.733 35.4752L81.6147 40.2998L81.4942 40.016C81.6836 39.8612 81.804 39.7236 81.8471 39.5946C81.8901 39.4656 81.8729 39.3022 81.7868 39.1216L77.3292 28.8703C77.2517 28.6897 77.1485 28.5693 77.0194 28.5091C76.8903 28.4489 76.7096 28.4403 76.4686 28.4747L76.3481 28.1909L87.2513 23.4523C87.432 23.3749 87.5525 23.2717 87.6128 23.1513C87.673 23.0223 87.6816 22.8417 87.6558 22.6095L87.9398 22.4805L89.2994 25.6109L89.0155 25.7313C88.8606 25.5507 88.7229 25.4303 88.5938 25.3873C88.4647 25.3443 88.3098 25.3615 88.1291 25.4389L80.4702 28.7671L81.718 31.6396L86.6834 29.4809C86.8641 29.4035 86.9846 29.3003 87.0448 29.1799C87.105 29.0595 87.1222 28.8703 87.0878 28.6381L87.3718 28.5177L88.7057 31.5794L88.4217 31.7084C88.2754 31.5278 88.1291 31.416 88 31.3729C87.8709 31.3299 87.7074 31.3472 87.5353 31.4246L82.5699 33.5832L82.5355 33.5918Z" fill="#454C85"/>
<path d="M106.407 20.3993L105.435 23.7533L105.134 23.6501C105.134 23.5813 105.125 23.5297 105.117 23.4953C105.074 23.2803 104.841 23.0825 104.428 22.9105C103.137 22.3429 101.726 22.2139 100.186 22.5149C99.5058 22.6439 98.9293 22.8417 98.4388 23.1083C98.0859 23.3061 97.8192 23.5555 97.6298 23.8565C97.4491 24.1575 97.3803 24.4499 97.4405 24.7509C97.5352 25.2411 97.8966 25.5163 98.5248 25.5765C98.8518 25.6023 99.5231 25.5765 100.556 25.4733L102.096 25.3357C103.008 25.2583 103.757 25.2497 104.342 25.3013C104.927 25.3615 105.461 25.4905 105.951 25.7055C106.451 25.9291 106.872 26.2731 107.225 26.7289C107.578 27.1847 107.81 27.7007 107.922 28.2769C108.103 29.1885 107.956 30.0572 107.5 30.8828C107.087 31.631 106.347 32.276 105.272 32.8006C104.471 33.1962 103.593 33.4886 102.621 33.6778C100.883 34.0132 99.0928 33.9358 97.2426 33.437C96.8554 33.3424 96.623 33.2994 96.5542 33.3166C96.4681 33.3338 96.3562 33.4284 96.2013 33.6004L95.8915 33.5144L96.6918 30.0572L96.993 30.1346C97.0016 30.1948 97.0102 30.2292 97.0189 30.255C97.0705 30.5388 97.2598 30.7796 97.5868 30.9602C98.0773 31.244 98.7744 31.4418 99.7038 31.5364C100.625 31.631 101.477 31.6052 102.26 31.459C103.112 31.2956 103.809 31.0118 104.359 30.6076C104.661 30.384 104.884 30.126 105.031 29.825C105.177 29.5239 105.22 29.2315 105.168 28.9477C105.082 28.5177 104.79 28.2597 104.291 28.1651C103.938 28.1049 103.258 28.1135 102.242 28.1995L100.736 28.3371C99.721 28.4317 99.0067 28.4661 98.5765 28.4575C98.1462 28.4489 97.7073 28.3801 97.2598 28.2511C96.623 28.0791 96.0809 27.7437 95.642 27.2363C95.2375 26.7805 94.9793 26.2215 94.8503 25.5593C94.6351 24.4671 94.8503 23.4867 95.4613 22.6181C96.2788 21.4829 97.6815 20.7175 99.678 20.3305C100.513 20.1671 101.313 20.0983 102.07 20.1327C102.828 20.1585 103.791 20.2961 104.953 20.5369C105.349 20.6143 105.59 20.6401 105.676 20.6229C105.814 20.5971 105.951 20.4939 106.106 20.3133L106.407 20.4079V20.3993Z" fill="#454C85"/>
<path d="M118.498 22.0246L118.309 32.0351C118.309 32.2329 118.352 32.3877 118.438 32.4909C118.524 32.5941 118.688 32.6801 118.92 32.7489V33.0585L114.746 32.9811V32.6715C114.987 32.6113 115.151 32.5339 115.245 32.4307C115.34 32.3275 115.383 32.1813 115.392 31.9749L115.581 21.9644L111.433 21.887C111.235 21.887 111.089 21.9214 110.977 22.0074C110.874 22.0934 110.779 22.2568 110.71 22.489H110.4L110.469 19.0662H110.779C110.848 19.307 110.925 19.4704 111.029 19.565C111.123 19.6596 111.278 19.7026 111.467 19.7026L122.663 19.9176C122.861 19.9176 123.016 19.8832 123.128 19.7886C123.231 19.7026 123.326 19.5392 123.395 19.307H123.705L123.636 22.7298H123.326C123.266 22.489 123.18 22.3256 123.085 22.231C122.982 22.145 122.827 22.0934 122.629 22.0934L118.49 22.016L118.498 22.0246Z" fill="#454C85"/>
<path d="M130.219 29.6186L129.186 33.0844L137.413 35.5355C137.603 35.5957 137.758 35.5871 137.887 35.5355C138.016 35.4753 138.136 35.3463 138.265 35.1485L138.566 35.2345L137.594 38.5111L137.293 38.4251C137.293 38.1843 137.258 38.0037 137.19 37.8919C137.112 37.7715 136.983 37.6941 136.794 37.6339L125.176 34.168L125.262 33.8756C125.503 33.8756 125.684 33.8498 125.804 33.7724C125.925 33.7036 126.011 33.566 126.063 33.3768L129.255 22.6697C129.316 22.4805 129.316 22.3171 129.255 22.1967C129.195 22.0677 129.066 21.9473 128.859 21.8183L128.945 21.5173L140.339 24.9144C140.529 24.9746 140.683 24.966 140.812 24.9144C140.942 24.8542 141.062 24.7252 141.191 24.5274L141.492 24.6134L140.52 27.89L140.219 27.804C140.219 27.5632 140.184 27.3912 140.115 27.2708C140.047 27.1504 139.909 27.0644 139.728 27.0128L131.725 24.6306L130.83 27.632L136.019 29.18C136.209 29.2402 136.363 29.2316 136.493 29.18C136.622 29.1198 136.742 28.9908 136.871 28.793L137.172 28.879L136.217 32.0782L135.916 31.9922C135.916 31.76 135.882 31.5794 135.813 31.459C135.735 31.3386 135.606 31.2526 135.425 31.1924L130.236 29.6444L130.219 29.6186Z" fill="#454C85"/>
<path d="M145.33 36.7394L142.972 40.4375C142.869 40.6009 142.826 40.7557 142.852 40.8933C142.878 41.0309 142.964 41.1857 143.127 41.3577L142.964 41.6157L139.453 39.3797L139.616 39.1217C139.848 39.1905 140.029 39.2077 140.167 39.1733C140.296 39.1389 140.416 39.0357 140.52 38.8723L146.544 29.4466C146.655 29.2746 146.698 29.1284 146.673 28.9908C146.647 28.8532 146.561 28.6984 146.397 28.5178L146.561 28.2598L153.6 32.749C154.461 33.2994 155.106 33.781 155.545 34.1938C155.984 34.6152 156.311 35.0624 156.535 35.544C156.784 36.103 156.87 36.6964 156.776 37.3156C156.681 37.9091 156.466 38.4767 156.122 39.0099C154.96 40.8245 153.264 41.2373 151.027 40.2483L151.242 44.7203C151.285 45.5029 151.345 46.0275 151.423 46.3027C151.5 46.5693 151.664 46.7929 151.913 46.9821L151.75 47.2401L147.688 44.6429L147.852 44.3849C148.161 44.5225 148.359 44.5139 148.463 44.3591C148.523 44.2645 148.549 43.9463 148.531 43.4045L148.351 38.6745L145.347 36.7566L145.33 36.7394ZM146.501 34.9076L150.296 37.3242C150.855 37.6855 151.259 37.9177 151.518 38.0295C151.767 38.1413 152.025 38.2101 152.283 38.2273C152.843 38.2703 153.308 38.0037 153.678 37.4188C154.048 36.834 154.099 36.3008 153.824 35.8106C153.695 35.5784 153.531 35.372 153.325 35.2C153.118 35.028 152.731 34.7614 152.163 34.3916L148.377 31.975L146.509 34.8904L146.501 34.9076Z" fill="#454C85"/>
<path d="M162.231 44.8922L156.259 50.2672C156.113 50.4048 156.027 50.5338 156.009 50.6714C155.992 50.809 156.044 50.9896 156.147 51.2046L155.915 51.411L153.29 48.4956L153.522 48.2892C153.729 48.4182 153.901 48.487 154.039 48.487C154.176 48.487 154.323 48.4182 154.469 48.2806L162.791 40.7985C162.937 40.6695 163.014 40.5319 163.031 40.4029C163.049 40.2739 162.997 40.0847 162.894 39.8697L163.126 39.6633L166.164 43.0346L165.932 43.241C165.691 43.0776 165.484 43.0776 165.321 43.2238C165.209 43.327 165.14 43.5076 165.123 43.7742L164.408 54.3093L170.234 49.0632C170.381 48.9342 170.458 48.7966 170.475 48.6676C170.492 48.53 170.441 48.358 170.338 48.1344L170.57 47.928L173.195 50.8434L172.962 51.0498C172.756 50.9208 172.584 50.852 172.446 50.852C172.308 50.852 172.171 50.9208 172.024 51.0498L163.703 58.5319C163.556 58.6695 163.47 58.7985 163.453 58.9361C163.436 59.0737 163.488 59.2543 163.591 59.4693L163.358 59.6757L160.544 56.5539L160.777 56.3475C161.001 56.5109 161.198 56.5195 161.362 56.3733C161.457 56.2873 161.517 56.0207 161.543 55.5649L162.223 44.8922H162.231Z" fill="#454C85"/>
<path d="M68.0099 62.0237C78.0009 48.427 94.1104 39.5947 112.285 39.5947C142.602 39.5947 167.171 64.1565 167.171 94.446C167.171 124.735 142.594 149.297 112.285 149.297C93.8953 149.297 77.6136 140.259 67.6484 126.378" stroke="#454C85" stroke-width="2.4" stroke-linecap="round" stroke-linejoin="round"/>
<path d="M39.3876 53.114C53.8534 27.7437 81.1673 10.6382 112.483 10.6382C158.91 10.6382 196.541 48.2463 196.541 94.6437C196.541 141.041 158.91 178.649 112.483 178.649C66.0561 178.649 28.4155 141.041 28.4155 94.6437C28.4155 93.4999 28.4413 92.3647 28.4844 91.2295" stroke="#454C85" stroke-width="2.4" stroke-linecap="round" stroke-linejoin="round"/>
<path d="M23.7256 39.0356C23.7256 39.0356 31.6943 67.0805 53.5868 83.9022C53.5868 83.9022 45.446 80.2558 40.5064 72.9629C40.5064 72.9629 24.0096 50.921 23.6138 50.8608C23.6138 50.8608 23.5535 53.5526 27.994 62.1355C27.994 62.1355 17.2715 54.5072 14.6898 55.35C14.6898 55.35 14.1821 55.0662 16.824 56.812C16.824 56.812 27.994 65.2831 31.2469 69.1531C31.2469 69.1531 15.1373 57.1474 8.29595 59.005C8.29595 59.005 7.84846 59.4006 10.0945 59.7876C10.0945 59.7876 26.7634 68.9295 29.4569 71.4579C29.4569 71.4579 40.6269 78.3036 45.9021 80.9352C45.9021 80.9352 40.799 79.5334 32.8819 76.6696C32.8819 76.6696 13.1236 67.6997 4.54395 73.0232C4.54395 73.0232 11.8414 73.2468 17.2285 75.4914C17.2285 75.4914 29.8528 78.9142 35.6959 80.0924C35.6959 80.0924 56.0652 84.8053 62.1321 90.6963C62.1321 90.6963 50.5146 87.8927 48.8279 87.3337C48.8279 87.3337 18.8033 78.4154 14.8706 88.6237C14.8706 88.6237 22.3315 85.2009 34.3448 87.5057C34.3448 87.5057 52.5283 89.0795 61.8997 91.8831C61.8997 91.8831 64.1974 92.2185 65.7722 92.1669C65.7722 92.1669 67.5105 92.2271 70.7634 94.6351C70.7634 94.6351 75.3071 96.9916 76.8819 97.7226C76.8819 97.7226 78.6202 98.4536 75.3071 98.0064C75.3071 98.0064 43.1741 90.9371 33.579 107.767C33.579 107.767 45.8676 94.4717 82.5702 100.199C82.5702 100.199 93.938 102.642 97.3889 105.119C97.3889 105.119 86.9934 103.519 85.6854 103.605C85.6854 103.605 50.3253 99.9414 40.8162 107.853C40.8162 107.853 62.7 104.155 83.4135 106.589C83.4135 106.589 85.1776 107.406 78.5342 108.275C78.5342 108.275 60.1012 111.973 47.3048 124.538C47.3048 124.538 65.7722 120.384 82.6648 109.393C82.6648 109.393 88.7231 105.918 98.826 106.985C98.826 106.985 100.59 107.957 97.7073 108.215C97.7073 108.215 88.637 109.96 86.5975 112.463C86.5975 112.463 105.728 108.954 115.495 112.231C115.495 112.231 72.1403 109.453 64.4814 124.512C64.4814 124.512 68.7755 116.686 109.187 116.35C109.187 116.35 122.99 115.508 125.942 114.751L105.994 125.183C105.994 125.183 99.2132 128.545 95.0051 131.873C95.0051 131.873 84.0159 138.857 83.3877 138.685C82.7595 138.513 89.1104 138.556 97.4921 132.587C97.4921 132.587 117.362 126.954 130.58 114.166C130.58 114.166 131.759 113.495 134.117 113.237C134.117 113.237 140.855 111.887 143.213 110.967C143.213 110.967 131.424 117.864 129.746 121.227C129.746 121.227 116.106 135.443 106.932 136.879C106.932 136.879 114.006 138.392 118.154 135.529C118.154 135.529 131.682 127.616 138.919 116.763C138.919 116.763 144.977 110.029 146.75 109.866H160.639C160.639 109.866 135.554 146.124 103.903 142.761C103.903 142.761 103.12 144.051 109.738 144.946C109.738 144.946 140.27 148.308 161.483 110.451L162.954 110.408C162.954 110.408 163.126 108.344 163.04 107.544L160.054 107.501C160.054 107.501 159.013 106.348 158.29 101.919C158.29 101.919 155.313 83.5754 136.458 81.95C136.458 81.95 145.098 88.7355 147.903 93.5601C147.903 93.5601 155.872 105.953 157.67 107.079C157.67 107.079 158.961 107.638 154.246 107.475L149.418 107.363C149.418 107.363 136.174 96.2004 129.883 94.4029C129.883 94.4029 114.505 68.6027 93.4045 65.0681C93.4045 65.0681 107.604 78.811 114.342 87.5057C114.342 87.5057 115.349 88.5119 112.38 87.5659C112.38 87.5659 97.4491 81.735 91.2789 83.412C91.2789 83.412 132.448 103.717 134.048 106.495C134.048 106.495 134.298 106.916 131.019 106.323C131.019 106.323 122.603 104.895 107.612 105.738C107.612 105.738 100.625 106.245 97.8449 99.5974C97.8449 99.5974 81.3482 58.9018 72.9234 59.8048L80.7802 78.5358C80.7802 78.5358 90.2119 100.294 99.0755 103.33C99.0755 103.33 99.4714 104.284 96.098 102.771L88.6887 100.414C88.6887 100.414 74.851 82.1048 71.6584 76.8846C71.6584 76.8846 49.1291 45.8383 47.7781 45.2793C47.7781 45.2793 55.1616 66.7881 63.3282 76.7126C63.3282 76.7126 74.7736 91.4359 82.5185 96.3982C82.5185 96.3982 85.6337 98.7546 85.0399 99.262C85.0399 99.262 70.9011 95.0566 67.7859 87.8239C67.7859 87.8239 56.6762 74.5282 44.4649 67.1235C44.4649 67.1235 31.1608 54.6706 23.7515 39.0528L23.7256 39.0356Z" fill="#91BA3F"/>
<path d="M57.1153 138.59L53.9398 141.6C53.8022 141.729 53.7247 141.867 53.7075 142.013C53.6989 142.151 53.7419 142.323 53.8538 142.529L53.63 142.744L50.7988 139.76L51.0226 139.545C51.2291 139.665 51.4012 139.725 51.5389 139.725C51.6766 139.725 51.8143 139.648 51.952 139.519L60.067 131.839C60.2133 131.702 60.2907 131.564 60.3079 131.426C60.3251 131.289 60.2735 131.117 60.1616 130.902L60.3854 130.687L66.065 136.672C66.7535 137.403 67.2612 138.023 67.5796 138.53C67.898 139.037 68.1045 139.553 68.1992 140.069C68.3024 140.671 68.2336 141.256 67.9927 141.832C67.7517 142.383 67.4075 142.882 66.9514 143.312C65.3852 144.791 63.6555 144.791 61.745 143.312L60.8587 147.672C60.7038 148.437 60.6349 148.962 60.6435 149.237C60.6521 149.512 60.7554 149.77 60.9533 150.003L60.7296 150.218L57.4509 146.76L57.6746 146.545C57.9414 146.752 58.1307 146.786 58.2684 146.666C58.3545 146.588 58.4491 146.287 58.5696 145.763L59.5506 141.153L57.1325 138.599L57.1153 138.59ZM58.6901 137.094L61.745 140.319C62.2011 140.792 62.5281 141.119 62.7433 141.291C62.9584 141.463 63.1908 141.583 63.4317 141.66C63.9567 141.832 64.473 141.686 64.9721 141.213C65.4712 140.74 65.652 140.233 65.5057 139.7C65.4368 139.442 65.3335 139.209 65.1786 138.994C65.0237 138.779 64.7139 138.435 64.2579 137.945L61.2029 134.72L58.6901 137.094V137.094Z" fill="#454C85"/>
<path d="M74.3691 156.177L69.3521 152.892L67.5879 153.958C67.347 154.105 67.1835 154.242 67.0974 154.363C66.9425 154.603 67.0114 154.879 67.3126 155.205L67.1404 155.463L63.4917 153.073L63.6638 152.815C63.9048 152.909 64.1199 152.944 64.3092 152.909C64.4985 152.875 64.7567 152.754 65.1095 152.531L74.7305 146.717C75.0403 146.537 75.2468 146.356 75.3501 146.201C75.5136 145.952 75.4706 145.677 75.2296 145.358L75.4017 145.1L79.3086 147.663L79.1365 147.921C78.7579 147.801 78.4997 147.861 78.3448 148.085C78.2416 148.239 78.1727 148.454 78.1469 148.721L76.77 159.97C76.7098 160.443 76.7098 160.795 76.7528 161.019C76.8044 161.243 76.9249 161.449 77.1228 161.638L76.9507 161.896L72.8889 159.23L73.061 158.972C73.4569 159.144 73.7409 159.093 73.9216 158.826C73.999 158.714 74.0507 158.508 74.0851 158.215L74.3433 156.169L74.3691 156.177ZM74.6703 154.216L75.462 149.117L71.0646 151.851L74.6703 154.216Z" fill="#454C85"/>
<path d="M87.0883 155.971L84.9971 163.711C84.9455 163.9 84.9455 164.064 85.0057 164.184C85.066 164.304 85.2037 164.433 85.4102 164.554L85.3328 164.855L81.5894 163.849L81.6668 163.548C81.9078 163.548 82.0885 163.505 82.2003 163.427C82.3122 163.35 82.3983 163.221 82.4499 163.023L85.3586 152.247C85.4102 152.058 85.4016 151.903 85.3414 151.783C85.2811 151.662 85.1434 151.533 84.9369 151.413L85.0144 151.112L89.3429 152.281L89.2655 152.582C88.9815 152.582 88.8094 152.686 88.7491 152.901C88.7061 153.047 88.7491 153.236 88.8782 153.468L93.9297 162.662L95.9692 155.111C96.0208 154.922 96.0122 154.767 95.952 154.646C95.8917 154.526 95.754 154.397 95.5475 154.277L95.625 153.976L99.3684 154.982L99.2909 155.283C99.0499 155.283 98.8692 155.326 98.7574 155.403C98.6455 155.481 98.5594 155.61 98.5078 155.799L95.5991 166.575C95.5475 166.764 95.5475 166.927 95.6077 167.048C95.668 167.168 95.8057 167.297 96.0122 167.418L95.9348 167.719L91.9246 166.635L92.002 166.334C92.2774 166.351 92.4409 166.248 92.5011 166.042C92.5356 165.921 92.4409 165.655 92.2172 165.268L87.0711 155.979L87.0883 155.971Z" fill="#454C85"/>
<path d="M113.627 164.949H110.375C110.177 164.949 110.022 164.992 109.927 165.087C109.824 165.173 109.746 165.336 109.678 165.569H109.368V162.498H109.678C109.738 162.739 109.824 162.903 109.927 162.989C110.03 163.075 110.177 163.118 110.375 163.118H116.631V163.427C116.398 163.487 116.244 163.573 116.149 163.677C116.054 163.78 116.011 163.935 116.011 164.132V166.833C116.011 167.031 116.054 167.185 116.14 167.289C116.226 167.392 116.39 167.478 116.622 167.538V167.779C114.118 169.206 111.691 169.92 109.342 169.92C107.208 169.92 105.469 169.413 104.127 168.407C102.432 167.134 101.588 165.362 101.588 163.092C101.588 160.976 102.346 159.299 103.852 158.052C105.28 156.865 107.182 156.272 109.557 156.272C110.314 156.272 111.02 156.341 111.691 156.478C112.362 156.616 113.12 156.848 113.972 157.175C114.411 157.347 114.72 157.433 114.91 157.433C115.047 157.433 115.202 157.356 115.383 157.209L115.65 157.356L114.101 160.512L113.817 160.366C113.817 160.151 113.782 160.004 113.731 159.91C113.679 159.815 113.567 159.703 113.387 159.566C112.991 159.273 112.414 159.015 111.657 158.809C110.9 158.603 110.177 158.499 109.505 158.499C108.129 158.499 106.984 158.886 106.08 159.66C105.056 160.538 104.549 161.69 104.549 163.126C104.549 164.562 105.048 165.637 106.046 166.497C106.958 167.28 108.163 167.676 109.66 167.676C110.392 167.676 111.106 167.59 111.812 167.426C112.517 167.263 113.128 167.031 113.645 166.738V164.941L113.627 164.949Z" fill="#454C85"/>
<path d="M124.212 162.283L124.823 165.844L133.188 164.408C133.377 164.373 133.515 164.304 133.601 164.201C133.687 164.098 133.739 163.926 133.764 163.685L134.066 163.634L134.642 166.996L134.341 167.048C134.238 166.833 134.126 166.687 134.014 166.618C133.902 166.549 133.747 166.523 133.549 166.558L121.742 168.587L121.691 168.286C121.906 168.183 122.052 168.071 122.121 167.96C122.19 167.848 122.207 167.684 122.181 167.487L120.288 156.496C120.254 156.298 120.185 156.16 120.082 156.074C119.978 155.988 119.806 155.937 119.565 155.911L119.514 155.61L131.097 153.623C131.286 153.589 131.424 153.52 131.51 153.408C131.596 153.296 131.647 153.124 131.673 152.892L131.974 152.841L132.551 156.203L132.25 156.255C132.147 156.04 132.035 155.894 131.923 155.825C131.811 155.756 131.656 155.73 131.458 155.765L123.326 157.158L123.859 160.245L129.135 159.342C129.324 159.308 129.462 159.239 129.548 159.136C129.634 159.033 129.685 158.861 129.711 158.62L130.012 158.568L130.58 161.853L130.279 161.905C130.176 161.69 130.064 161.552 129.952 161.475C129.832 161.398 129.677 161.38 129.487 161.415L124.212 162.318V162.283Z" fill="#454C85"/>
<path d="M142.516 160.563L149.745 156.891C149.926 156.797 150.037 156.693 150.089 156.564C150.141 156.435 150.141 156.255 150.089 156.023L150.364 155.885L151.913 158.921L151.638 159.058C151.475 158.878 151.328 158.775 151.199 158.74C151.07 158.706 150.907 158.74 150.735 158.826L140.391 164.089L140.253 163.814C140.434 163.651 140.537 163.505 140.571 163.376C140.606 163.247 140.571 163.083 140.485 162.911L135.425 152.97C135.331 152.789 135.227 152.677 135.098 152.626C134.969 152.574 134.788 152.574 134.556 152.626L134.418 152.35L138.084 150.484L138.222 150.759C138.041 150.914 137.938 151.06 137.904 151.198C137.869 151.336 137.904 151.49 137.99 151.671L142.525 160.581L142.516 160.563Z" fill="#454C85"/>
<path d="M160.811 147.053L156.078 150.725L156.517 152.737C156.577 153.013 156.655 153.21 156.749 153.331C156.922 153.554 157.214 153.58 157.619 153.4L157.808 153.64L154.366 156.315L154.176 156.074C154.349 155.876 154.452 155.687 154.478 155.498C154.503 155.309 154.478 155.016 154.383 154.621L151.999 143.647C151.922 143.294 151.827 143.045 151.707 142.899C151.526 142.667 151.251 142.615 150.872 142.735L150.683 142.495L154.374 139.631L154.564 139.872C154.331 140.19 154.297 140.456 154.46 140.671C154.572 140.818 154.753 140.947 154.994 141.058L165.2 146.004C165.63 146.21 165.957 146.33 166.181 146.356C166.405 146.382 166.637 146.33 166.887 146.21L167.076 146.451L163.238 149.426L163.049 149.186C163.341 148.867 163.384 148.584 163.186 148.317C163.1 148.214 162.928 148.093 162.67 147.964L160.82 147.053H160.811ZM159.047 146.133L154.478 143.733L155.639 148.773L159.047 146.133V146.133Z" fill="#454C85"/>
<path d="M164.039 134.548L170.768 138.917C170.932 139.029 171.087 139.072 171.224 139.055C171.362 139.037 171.517 138.943 171.698 138.788L171.956 138.96L169.847 142.211L169.589 142.039C169.658 141.807 169.675 141.626 169.641 141.497C169.607 141.368 169.503 141.248 169.331 141.136L159.96 135.056C159.796 134.952 159.65 134.909 159.512 134.927C159.375 134.944 159.22 135.038 159.039 135.193L158.781 135.021L161.225 131.263L161.483 131.435C161.388 131.702 161.44 131.899 161.629 132.028C161.758 132.114 161.948 132.132 162.206 132.08L172.515 130.102L165.949 125.836C165.786 125.733 165.639 125.69 165.502 125.707C165.364 125.724 165.209 125.819 165.028 125.974L164.77 125.802L166.879 122.551L167.137 122.723C167.068 122.955 167.051 123.136 167.085 123.265C167.12 123.394 167.223 123.514 167.386 123.617L176.758 129.698C176.921 129.809 177.076 129.852 177.214 129.835C177.351 129.818 177.506 129.723 177.687 129.569L177.945 129.741L175.682 133.224L175.424 133.052C175.518 132.794 175.484 132.605 175.295 132.484C175.183 132.415 174.908 132.424 174.469 132.51L164.039 134.548V134.548Z" fill="#454C85"/>
<path d="M180.673 122.706L169.761 120.349C169.563 120.306 169.408 120.315 169.288 120.384C169.168 120.452 169.056 120.59 168.944 120.805L168.643 120.736L170.2 113.547C170.544 111.973 170.983 110.803 171.525 110.038C172.309 108.946 173.367 108.232 174.692 107.914C175.734 107.656 176.895 107.664 178.16 107.939C180.38 108.421 181.929 109.47 182.799 111.087C183.169 111.766 183.375 112.515 183.418 113.323C183.461 114.14 183.358 115.138 183.1 116.333L181.542 123.523L181.241 123.454C181.224 123.213 181.181 123.041 181.095 122.929C181.009 122.818 180.871 122.74 180.682 122.697L180.673 122.706ZM180.148 119.644L180.914 116.109C181.155 114.983 181.189 114.097 181 113.469C180.604 112.11 179.443 111.225 177.532 110.812C176.147 110.511 175.011 110.614 174.133 111.104C173.642 111.379 173.255 111.758 172.971 112.239C172.687 112.721 172.455 113.383 172.265 114.243L171.5 117.778L180.14 119.644H180.148Z" fill="#454C85"/>
<path d="M174.976 91.4531L177.937 93.2935L177.756 93.5515C177.696 93.5429 177.644 93.5343 177.601 93.5257C177.386 93.5085 177.136 93.6719 176.852 94.0246C175.957 95.0996 175.441 96.4068 175.312 97.9462C175.252 98.6256 175.286 99.2362 175.407 99.7694C175.501 100.156 175.665 100.483 175.906 100.741C176.138 100.999 176.413 101.137 176.715 101.163C177.205 101.206 177.567 100.939 177.799 100.354C177.919 100.053 178.066 99.3996 178.264 98.3934L178.548 96.897C178.72 96.0112 178.918 95.2888 179.133 94.7556C179.348 94.2138 179.623 93.7407 179.968 93.3365C180.32 92.9237 180.759 92.6227 181.301 92.4077C181.835 92.2013 182.394 92.1239 182.979 92.1669C183.9 92.2443 184.701 92.6141 185.363 93.2763C185.974 93.8697 186.379 94.747 186.594 95.9166C186.757 96.7852 186.8 97.7054 186.714 98.6686C186.559 100.406 186 102.083 185.019 103.708C184.821 104.052 184.718 104.259 184.709 104.327C184.709 104.413 184.761 104.551 184.89 104.74L184.718 105.007L181.62 103.304L181.775 103.037H181.904C182.196 103.072 182.472 102.96 182.738 102.702C183.143 102.315 183.522 101.704 183.866 100.853C184.21 100.002 184.417 99.1846 184.485 98.402C184.563 97.5506 184.485 96.811 184.244 96.1832C184.115 95.8392 183.926 95.5468 183.676 95.3318C183.427 95.1168 183.16 94.9878 182.868 94.962C182.429 94.9276 182.102 95.134 181.878 95.5812C181.723 95.8994 181.542 96.5444 181.353 97.5334L181.069 99.004C180.88 99.993 180.725 100.681 180.596 101.085C180.467 101.489 180.277 101.885 180.036 102.281C179.701 102.84 179.227 103.261 178.616 103.545C178.066 103.803 177.455 103.897 176.783 103.837C175.673 103.743 174.787 103.278 174.124 102.453C173.255 101.369 172.902 99.8296 173.083 97.8258C173.152 96.983 173.307 96.209 173.548 95.5038C173.78 94.79 174.176 93.9127 174.727 92.8721C174.907 92.5109 175.002 92.2873 175.011 92.2099C175.019 92.0723 174.959 91.9089 174.83 91.7197L175.002 91.4617L174.976 91.4531Z" fill="#454C85"/>
<path d="M71.7532 185.168C73.1301 185.71 74.1025 186.544 74.6877 187.671C75.2643 188.798 75.3159 189.967 74.8426 191.18C74.7996 191.292 74.7135 191.446 74.593 191.644C74.4726 191.842 74.3951 191.988 74.3607 192.083C74.3435 192.134 74.3607 192.177 74.4381 192.203C74.6102 192.272 74.834 191.937 75.1266 191.197C75.6429 189.89 75.5999 188.617 74.9889 187.387C74.3779 186.157 73.3538 185.254 71.9081 184.687C69.8858 183.887 67.7086 183.861 65.3937 184.618C63.0789 185.375 60.3423 186.992 57.1841 189.477C52.8641 192.883 50.6181 194.551 50.4632 194.491L50.446 194.456C50.446 194.456 50.4718 194.405 50.4976 194.413C51.8487 193.278 53.2169 191.042 54.611 187.714C55.747 184.988 56.5559 183.233 57.0378 182.451C57.5197 181.668 58.1909 181.014 59.0601 180.49C59.2322 180.395 59.3269 180.344 59.3269 180.318C59.3269 180.292 59.3096 180.258 59.2838 180.24C59.0687 180.154 58.4405 180.292 57.3992 180.645C55.8846 181.169 53.5698 182.597 50.4632 184.945C46.6509 187.826 43.5357 189.683 41.1348 190.518C38.7252 191.352 36.4792 191.352 34.3795 190.518C33.2866 190.088 32.469 189.503 31.9441 188.755C31.4192 188.015 31.2901 187.284 31.5741 186.561C31.7634 186.08 31.9355 185.865 32.0818 185.925C32.1506 185.951 32.1592 186.054 32.0818 186.235C31.8925 186.708 32.0216 187.035 32.469 187.215C32.7444 187.318 33.0112 187.31 33.2866 187.181C33.5619 187.052 33.7513 186.837 33.8717 186.544C34.0955 185.985 33.9062 185.581 33.321 185.349C32.9165 185.185 32.5121 185.211 32.1162 185.418C31.7204 185.624 31.4364 185.951 31.2557 186.415C30.9373 187.215 31.0663 188.024 31.6257 188.832C32.1851 189.64 33.0628 190.285 34.2332 190.741C36.3243 191.567 38.6048 191.661 41.0832 191.034C43.5616 190.406 46.0227 189.107 48.4753 187.129C51.3409 184.824 53.1051 183.422 53.7591 182.924C54.4131 182.425 55.1188 181.978 55.8674 181.573C57.2787 180.799 58.1221 180.481 58.3889 180.627C58.3544 180.662 58.32 180.696 58.2942 180.713C57.0464 181.298 55.9965 182.132 55.136 183.199C54.2754 184.265 53.4751 185.753 52.7264 187.645C52.2789 188.78 51.7884 190.148 51.2635 191.756C51.0483 192.401 50.8848 192.865 50.7816 193.141C50.2136 194.577 49.4649 195.316 48.5269 195.368C48.045 195.402 47.7696 195.497 47.7008 195.669C47.6492 195.798 47.7008 195.893 47.8299 195.953C48.0708 196.047 48.7593 195.781 49.8952 195.153C51.0225 194.525 52.1843 193.76 53.3804 192.857C57.5025 189.744 60.2132 187.817 61.5041 187.086C65.6175 184.73 69.0425 184.093 71.7618 185.16L71.7532 185.168Z" fill="#454C85" stroke="#454C85" stroke-width="0.5" stroke-linecap="round" stroke-linejoin="round"/>
<path d="M40.1023 183.491C41.4964 184.042 42.9937 184.024 44.603 183.448C45.3775 183.173 45.8078 182.949 45.8766 182.769C45.911 182.691 45.8938 182.64 45.825 182.605C45.8078 182.605 45.7733 182.605 45.7217 182.64C44.9214 183.147 44.0178 183.465 43.0024 183.594C41.9869 183.723 41.0661 183.62 40.2572 183.302C39.345 182.941 38.7082 182.356 38.3554 181.539C38.0025 180.722 38.0112 179.853 38.3726 178.933C39.0782 177.144 40.6272 175.811 43.0282 174.926C45.4291 174.04 47.6321 173.997 49.6544 174.788C50.3601 175.063 50.8764 175.424 51.2034 175.872C51.5304 176.319 51.6079 176.757 51.4272 177.213C51.2809 177.574 50.8076 178.108 49.9986 178.804C49.3532 179.363 48.9229 179.888 48.725 180.395C48.5185 180.911 48.5185 181.419 48.725 181.909C48.9316 182.399 49.2758 182.743 49.7749 182.941C50.4978 183.225 51.4185 183.096 52.5373 182.545C53.2773 182.184 53.6818 181.909 53.7592 181.711C53.7851 181.642 53.7592 181.591 53.6904 181.565C53.6474 181.548 53.5785 181.565 53.5011 181.642C52.9331 182.107 52.2877 182.442 51.5734 182.64C50.8592 182.838 50.2826 182.855 49.8437 182.674C49.1037 182.382 48.8627 181.9 49.1295 181.229C49.2241 180.989 49.4479 180.713 49.8093 180.387C50.842 179.458 51.4702 178.718 51.6939 178.159C51.9951 177.402 51.9779 176.706 51.6423 176.078C51.3067 175.45 50.7043 174.96 49.8179 174.607C47.6665 173.756 45.3689 173.782 42.9163 174.668C40.4723 175.553 38.8717 176.955 38.1144 178.864C37.7272 179.853 37.7186 180.774 38.0886 181.634C38.4586 182.494 39.1385 183.113 40.1109 183.5L40.1023 183.491Z" fill="#454C85" stroke="#454C85" stroke-width="0.5" stroke-linecap="round" stroke-linejoin="round"/>
<path d="M118.757 201.328C117.784 202.626 116.906 203.633 116.106 204.355C115.314 205.077 114.333 205.757 113.163 206.385C115.108 202.712 116.648 199.926 117.793 198.025C117.405 198.103 117.078 198.146 116.82 198.154C116.502 198.163 116.227 198.154 116.003 198.12L114.738 200.39C112.681 204.08 111.123 205.946 110.074 205.98C109.678 205.998 109.471 205.791 109.454 205.361C109.437 204.966 109.824 204.106 110.599 202.798L113.318 198.163C112.87 198.24 112.526 198.292 112.268 198.301C111.975 198.309 111.717 198.3 111.493 198.266L109.704 201.44C109.704 201.44 109.704 201.422 109.686 201.414C109.617 201.414 109.557 201.457 109.506 201.551C107.277 204.518 105.754 205.998 104.936 205.98C104.566 205.98 104.385 205.757 104.394 205.335C104.394 204.957 104.747 204.192 105.444 203.039C106.141 201.887 108.576 198.043 112.767 191.489C112.457 191.601 112.113 191.653 111.743 191.644C111.519 191.644 111.261 191.601 110.969 191.515C109.729 193.588 108.206 196.03 106.399 198.851C105.693 199.96 105.125 200.846 104.695 201.534C104.695 201.534 104.695 201.534 104.687 201.551C102.363 204.45 100.797 205.877 99.9793 205.834C99.6093 205.817 99.4372 205.593 99.4544 205.172C99.4716 204.794 99.8502 204.037 100.573 202.91C101.296 201.784 103.869 198.008 108.258 191.601C107.939 191.696 107.595 191.739 107.234 191.721C107.01 191.713 106.752 191.661 106.468 191.575C105.16 193.605 103.568 196.004 101.675 198.765C100.926 199.857 100.332 200.734 99.8846 201.405C99.876 201.405 99.8846 201.379 99.8588 201.371C99.8072 201.371 99.7556 201.405 99.6867 201.5C98.6799 202.678 97.7161 203.658 96.7781 204.441C95.84 205.224 95.1774 205.593 94.7902 205.559C94.4115 205.525 94.248 205.284 94.2911 204.837C94.3341 204.372 94.8762 203.461 95.9003 202.102L98.8692 198.215C98.4475 198.24 98.1033 198.24 97.8451 198.215C97.6214 198.189 97.3718 198.137 97.0879 198.043L96.2187 199.341C96.322 199.083 96.3822 198.877 96.3994 198.713C96.451 198.146 96.1843 197.836 95.5819 197.776C94.8762 197.707 93.9124 197.931 92.7076 198.438C91.2705 199.032 90.1948 199.72 89.4548 200.494C89.4461 200.494 89.4375 200.485 89.4289 200.485C89.3773 200.485 89.2482 200.562 89.0159 200.734C87.9402 201.809 87.028 202.282 86.2793 202.171C85.6683 202.076 85.4274 201.637 85.5479 200.855C85.5909 200.571 85.7114 200.227 85.9179 199.823L86.1158 199.711C86.5805 199.522 86.9247 199.384 87.1571 199.281C88.62 198.653 89.3859 198.12 89.4548 197.673C89.4978 197.423 89.3687 197.268 89.0675 197.225C88.6372 197.157 88.1037 197.363 87.4755 197.845C86.8473 198.318 86.2879 198.946 85.7888 199.72C85.2811 200.003 84.7389 200.39 84.1452 200.872C85.1176 199.806 85.6597 198.911 85.7716 198.197C85.9179 197.234 85.6081 196.692 84.8422 196.572C84.3087 196.486 83.1555 197.294 81.3828 198.989L81.0644 199.298C81.0644 199.298 81.0386 199.333 81.03 199.35C81.0214 199.35 81.0127 199.341 81.0041 199.333C80.9525 199.324 80.9009 199.358 80.832 199.444L80.5136 199.694L79.9457 200.201C77.7427 202.179 76.2625 203.091 75.4966 202.936C75.1094 202.859 74.9545 202.618 75.0319 202.214C75.1352 201.723 75.9097 200.726 77.3468 199.229L80.3845 196.073C79.9371 196.047 79.5842 196.013 79.3519 195.961C79.154 195.918 78.913 195.832 78.629 195.712L76.753 197.724C73.9046 200.777 72.0028 202.205 71.039 201.999C70.6775 201.921 70.5398 201.68 70.6259 201.259C70.7119 200.829 70.9873 200.382 71.4434 199.892L75.9699 195.153C75.488 195.118 75.161 195.084 74.9803 195.05C74.7996 195.015 74.55 194.929 74.2402 194.792L71.7446 197.458C71.7446 197.458 71.7446 197.458 71.736 197.458C71.6844 197.449 71.6241 197.475 71.5295 197.552C68.7671 199.96 66.9513 201.053 66.0908 200.846C65.6433 200.734 65.4798 200.476 65.5744 200.064C65.6691 199.685 65.9875 199.229 66.5297 198.696L70.9873 194.233L72.8461 194.697L73.0096 194.516L71.1594 194.052L73.4485 191.782C73.1473 191.782 72.8633 191.756 72.5966 191.687C72.3384 191.627 72.0802 191.524 71.8134 191.377L69.49 193.639L68.0787 193.287L67.8893 193.459L69.3351 193.82L66.7104 196.408C66.7104 196.408 66.6329 196.451 66.5899 196.486C65.3851 197.458 64.2492 198.24 63.1821 198.834C62.115 199.427 61.4008 199.668 61.0221 199.556C60.6607 199.453 60.5402 199.186 60.6607 198.756C60.7898 198.309 61.4868 197.518 62.7518 196.365L66.392 193.097C65.9703 193.046 65.6347 192.977 65.3851 192.908C65.17 192.848 64.929 192.745 64.6709 192.599L63.5694 193.708C63.7157 193.476 63.8189 193.278 63.862 193.132C64.0169 192.59 63.8103 192.229 63.2338 192.065C62.5539 191.868 61.5643 191.902 60.2821 192.177C57.3562 192.788 55.6437 193.957 55.136 195.703C54.9552 196.331 54.9725 196.899 55.1876 197.406C55.4027 197.913 55.7556 198.249 56.2547 198.386C56.7194 198.524 57.2701 198.438 57.8897 198.137C58.5179 197.836 59.4817 197.182 60.7812 196.185C60.3165 196.666 60.0153 197.157 59.869 197.647C59.7313 198.12 59.7485 198.55 59.9292 198.946C60.1099 199.341 60.4111 199.599 60.8414 199.72C61.4782 199.9 62.5367 199.513 64.0169 198.541C64.6795 198.111 65.2302 197.75 65.6605 197.449C65.1528 198.008 64.8344 198.524 64.7225 198.98C64.602 199.444 64.6537 199.874 64.8774 200.261C65.1011 200.648 65.4282 200.898 65.8756 201.001C66.7706 201.225 68.4057 200.356 70.7808 198.395L71.0648 198.163L70.755 198.49C70.1784 199.092 69.8428 199.668 69.7309 200.201C69.6363 200.666 69.6965 201.087 69.9116 201.465C70.1354 201.844 70.4538 202.076 70.8668 202.162C71.2627 202.248 71.736 202.128 72.2695 201.801C72.7515 201.517 73.5518 200.915 74.6533 200.003L75.0147 199.685C74.507 200.253 74.223 200.726 74.1455 201.087C74.0509 201.551 74.1111 201.973 74.3349 202.368C74.5586 202.755 74.877 202.996 75.2987 203.082C75.9699 203.22 77.0112 202.747 78.4225 201.672C80.0145 200.468 80.8751 199.737 81.0214 199.462C81.0902 199.462 81.1763 199.419 81.2709 199.307C83.0006 197.509 84.1279 196.658 84.6701 196.735C84.8938 196.77 84.9799 196.916 84.9455 197.182C84.8766 197.63 84.1021 198.696 82.6306 200.382L79.6875 203.744C80.2382 203.787 80.5394 203.822 80.5739 203.822C80.6599 203.839 80.9525 203.899 81.4602 204.02C82.6306 202.609 83.4481 201.689 83.9042 201.242C84.3603 200.795 84.9369 200.365 85.6167 199.943C85.436 200.33 85.3327 200.648 85.2897 200.915C85.1606 201.741 85.4618 202.205 86.1933 202.317C86.8387 202.42 87.5874 202.128 88.4393 201.457C88.6372 201.302 88.8007 201.173 88.947 201.053C88.5598 201.612 88.3274 202.205 88.2672 202.841C88.207 203.495 88.3274 204.045 88.6372 204.51C88.947 204.974 89.3515 205.224 89.8678 205.275C90.3497 205.318 90.8747 205.138 91.434 204.725C91.9934 204.312 92.8195 203.495 93.9124 202.274C93.5424 202.833 93.3358 203.375 93.2842 203.882C93.2412 204.372 93.3358 204.794 93.5854 205.146C93.835 205.499 94.1792 205.697 94.6267 205.74C95.2893 205.8 96.2531 205.224 97.5267 203.994C98.3184 203.237 98.9208 202.652 99.3167 202.222C99.136 202.497 99.0069 202.712 98.9294 202.841C98.6627 203.314 98.5078 203.813 98.4819 204.329C98.4561 204.802 98.5766 205.198 98.8262 205.516C99.0757 205.834 99.4113 206.006 99.833 206.023C100.702 206.066 102.105 204.905 104.041 202.549C103.929 202.747 103.835 202.902 103.774 203.013C103.516 203.495 103.387 204.002 103.378 204.518C103.378 204.991 103.499 205.387 103.757 205.697C104.015 206.006 104.36 206.17 104.781 206.178C105.659 206.195 107.036 204.974 108.912 202.532L109.351 201.964L109.325 202.007C108.671 203.177 108.352 204.028 108.37 204.561C108.387 205.009 108.542 205.387 108.852 205.705C109.161 206.023 109.514 206.178 109.91 206.17C110.375 206.152 110.831 205.929 111.278 205.49C111.717 205.052 112.423 204.149 113.395 202.755L110.977 207.279L110.762 207.417C110.031 207.761 109.488 208.027 109.127 208.225C104.695 210.409 102.509 212.448 102.57 214.348C102.578 214.709 102.724 215.002 103 215.243C103.275 215.483 103.611 215.595 104.007 215.578C105.177 215.544 106.528 214.873 108.068 213.583C109.566 212.336 110.977 210.452 112.302 207.95L112.974 206.677C114.85 205.593 116.356 204.398 117.5 203.099C118.533 201.913 119.049 201.25 119.041 201.104C119.041 201.044 119.006 201.018 118.954 201.018C118.911 201.018 118.834 201.104 118.696 201.285L118.757 201.328ZM60.6779 196.073C58.4835 197.69 57.0636 198.404 56.4182 198.215C55.876 198.06 55.6953 197.681 55.8674 197.096C56.16 196.09 57.2443 194.972 59.1203 193.742C60.9963 192.513 62.356 192.022 63.2165 192.272C63.6382 192.392 63.7845 192.676 63.6554 193.123C63.4661 193.76 62.4765 194.74 60.6865 196.073H60.6779ZM93.8005 202.196C91.9504 204.192 90.6853 205.163 90.0141 205.095C89.4548 205.043 89.2052 204.708 89.2568 204.097C89.3601 203.048 90.212 201.749 91.8213 200.201C93.4305 198.645 94.6783 197.913 95.5733 197.999C96.0122 198.042 96.2015 198.292 96.1585 198.756C96.0982 199.419 95.3065 200.562 93.7919 202.205L93.8005 202.196ZM110.702 207.855C109.282 210.624 108.086 212.577 107.096 213.695C106.115 214.813 105.108 215.389 104.076 215.423C103.258 215.449 102.836 215.105 102.819 214.4C102.759 212.697 104.91 210.71 109.265 208.423C110.194 207.941 110.736 207.649 110.882 207.563L110.702 207.855Z" fill="#454C85" stroke="#454C85" stroke-width="0.5" stroke-linecap="round" stroke-linejoin="round"/>
<path d="M149.409 189.15C149.384 189.09 149.34 189.064 149.28 189.073C149.031 189.099 148.609 189.537 148.007 190.389C147.404 191.24 146.836 192.212 146.294 193.295C143.755 197.011 141.518 199.247 139.582 199.995L139.547 199.694C139.289 197.277 137.818 195.979 135.133 195.807C135.245 195.23 135.434 194.663 135.701 194.112C137.517 193.493 139.393 192.53 141.337 191.223C143.274 189.916 145.003 188.436 146.518 186.785C146.595 187.129 146.656 187.508 146.699 187.92C146.836 189.262 146.604 190.578 145.993 191.876C145.967 191.928 145.95 191.98 145.95 192.031C145.967 192.091 146.002 192.117 146.053 192.109C146.131 192.1 146.251 191.902 146.397 191.507C146.897 190.208 147.094 189.021 146.974 187.946C146.931 187.576 146.845 187.121 146.707 186.579C147.723 185.358 148.187 184.377 148.11 183.638C148.024 182.838 147.499 182.485 146.526 182.588C146.027 182.64 145.27 182.915 144.263 183.423C142.628 182.391 140.623 182.004 138.239 182.253C135.236 182.571 132.663 183.638 130.52 185.461C128.377 187.284 127.414 189.219 127.629 191.257C127.749 192.435 128.334 193.33 129.358 193.94C130.391 194.551 131.708 194.766 133.317 194.603C133.567 194.577 133.782 194.542 133.962 194.508C133.885 195.153 133.868 195.6 133.894 195.85C133.799 195.841 133.696 195.841 133.575 195.85C132.155 195.996 130.658 196.589 129.083 197.63C127.508 198.662 126.312 199.926 125.503 201.423C124.686 202.919 124.367 204.441 124.531 205.989C124.72 207.812 125.512 209.214 126.897 210.195C128.283 211.175 130.012 211.562 132.069 211.347C134.505 211.089 136.811 210.195 138.997 208.664C140.52 207.597 141.673 206.436 142.447 205.189C143.222 203.942 143.807 202.308 144.212 200.287C144.53 198.627 144.823 197.406 145.072 196.624C145.322 195.841 145.743 194.843 146.337 193.631C147.06 192.883 147.757 192.005 148.437 191.008C149.117 190.01 149.444 189.391 149.418 189.142L149.409 189.15ZM138.136 197.243C138.876 197.948 139.272 198.903 139.332 200.098C139.074 200.167 138.807 200.21 138.515 200.244C137.577 200.347 136.785 200.15 136.157 199.677C135.529 199.195 135.159 198.516 135.064 197.621C135.012 197.114 135.03 196.589 135.124 196.065C136.389 196.142 137.387 196.538 138.127 197.243H138.136ZM146.587 182.838C147.344 182.76 147.757 183.044 147.835 183.706C147.903 184.386 147.499 185.254 146.621 186.304C146.191 185.177 145.502 184.291 144.564 183.638C145.33 183.165 146.01 182.898 146.587 182.829V182.838ZM144.332 183.758C145.348 184.437 146.045 185.366 146.432 186.527C144.952 188.135 143.248 189.606 141.32 190.922C139.393 192.246 137.56 193.209 135.821 193.811C136.613 191.945 137.809 190.079 139.401 188.196C140.993 186.312 142.637 184.833 144.332 183.758V183.758ZM133.506 194.31C131.863 194.482 130.555 194.293 129.565 193.751C128.575 193.201 128.025 192.358 127.904 191.206C127.706 189.339 128.696 187.499 130.864 185.702C133.033 183.904 135.529 182.855 138.343 182.554C140.675 182.305 142.559 182.64 143.996 183.552C138.119 186.734 134.797 190.311 134.031 194.259L133.506 194.31V194.31ZM143.79 198.292C141.69 202.807 139.754 206.006 138.007 207.881C136.251 209.756 134.195 210.814 131.837 211.063C130.099 211.244 128.644 210.943 127.474 210.16C126.304 209.369 125.641 208.251 125.486 206.806C125.228 204.39 125.942 202.111 127.629 199.978C129.307 197.845 131.407 196.563 133.911 196.142C134.066 197.621 134.556 198.756 135.391 199.539C136.226 200.33 137.276 200.648 138.558 200.519C138.85 200.485 139.1 200.442 139.315 200.382C139.298 201.595 138.816 202.816 137.861 204.037C136.906 205.258 135.916 205.92 134.892 206.032C134.384 206.084 133.937 205.972 133.567 205.705C133.197 205.43 132.981 205.06 132.93 204.587C132.895 204.295 132.938 203.985 133.059 203.641C133.171 203.297 133.308 203.125 133.455 203.108C133.515 203.108 133.549 203.125 133.558 203.186C133.558 203.254 133.558 203.332 133.558 203.418C133.532 203.573 133.524 203.684 133.532 203.753C133.584 204.226 133.868 204.433 134.401 204.372C134.685 204.338 134.926 204.2 135.133 203.942C135.339 203.684 135.425 203.418 135.4 203.125C135.331 202.489 134.943 202.205 134.246 202.274C133.79 202.326 133.394 202.584 133.059 203.065C132.723 203.547 132.594 204.063 132.654 204.613C132.706 205.146 132.956 205.568 133.386 205.886C133.816 206.204 134.332 206.333 134.918 206.273C136.028 206.153 137.069 205.482 138.033 204.235C138.997 202.996 139.513 201.681 139.565 200.287C141.398 199.582 143.506 197.587 145.881 194.319C145.132 195.566 144.435 196.899 143.799 198.301L143.79 198.292Z" fill="#454C85" stroke="#454C85" stroke-width="0.5" stroke-linecap="round" stroke-linejoin="round"/>
<path d="M188.513 185.246C188.487 185.194 188.453 185.177 188.392 185.194C188.349 185.211 188.315 185.28 188.315 185.392C187.523 189.185 186.706 191.249 185.88 191.601C185.501 191.765 185.226 191.653 185.071 191.266C184.916 190.905 185.01 189.89 185.329 188.213C185.647 186.579 185.673 185.443 185.415 184.824C185.208 184.334 184.899 183.981 184.477 183.758C184.055 183.543 183.642 183.517 183.238 183.689C182.739 183.895 182.308 184.403 181.955 185.211C181.603 186.011 181.19 187.396 180.725 189.365C180.983 188.015 180.983 187.043 180.725 186.45C180.561 186.054 180.303 185.753 179.959 185.564C179.615 185.366 179.288 185.34 178.969 185.469C178.479 185.676 177.919 187.026 177.291 189.529L177.171 189.984C177.171 189.984 177.154 190.07 177.162 190.122C177.162 190.131 177.179 190.131 177.179 190.139C177.111 190.156 177.016 190.311 176.895 190.604C176.259 192.238 175.579 193.166 174.865 193.39C174.469 193.519 174.081 193.399 173.711 193.046C174.606 190.414 174.925 188.694 174.675 187.886C174.581 187.585 174.426 187.473 174.202 187.542C173.703 187.705 173.333 188.325 173.092 189.408C172.851 190.5 172.868 191.464 173.135 192.324C173.186 192.496 173.298 192.754 173.47 193.089C172.722 195.592 171.861 197.002 170.88 197.312C170.39 197.466 170.071 197.312 169.925 196.839C169.796 196.426 169.891 195.574 170.209 194.284L171.672 188.471C171.474 188.583 171.207 188.694 170.872 188.798C170.734 188.841 170.407 188.918 169.873 189.038L169.142 192.324C168.755 194.026 168.281 195.497 167.731 196.727C167.18 197.957 166.681 198.636 166.25 198.774C165.855 198.894 165.588 198.748 165.459 198.309C165.338 197.922 165.407 197.234 165.657 196.237L167.231 189.873C166.784 190.088 166.474 190.225 166.311 190.277C166.13 190.337 165.837 190.389 165.433 190.449L164.521 194.413C164.521 194.413 164.495 194.456 164.478 194.499C164.245 195.162 163.884 195.772 163.393 196.323C162.903 196.873 162.438 197.2 161.999 197.312C161.758 197.372 161.517 197.363 161.294 197.294C162.094 195.428 162.361 193.932 162.085 192.805C161.87 191.911 161.337 191.558 160.502 191.765C159.598 191.98 158.574 192.754 157.43 194.078C156.388 195.273 155.752 196.391 155.519 197.441C154.943 198.498 154.323 199.1 153.669 199.221C153.041 199.341 152.654 198.98 152.499 198.154C152.447 197.862 152.439 197.466 152.499 196.993L152.645 196.813C153.032 196.46 153.316 196.202 153.506 196.022C154.71 194.886 155.27 194.078 155.184 193.605C155.132 193.338 154.951 193.235 154.65 193.295C154.203 193.381 153.764 193.768 153.316 194.474C152.869 195.17 152.542 195.996 152.335 196.95C151.939 197.415 151.544 197.991 151.139 198.679C151.716 197.269 151.922 196.185 151.785 195.428C151.595 194.413 151.096 193.975 150.304 194.13C149.762 194.233 148.919 195.445 147.774 197.759L147.576 198.18C147.576 198.18 147.542 198.258 147.542 198.309C147.551 198.361 147.576 198.387 147.619 198.387C147.688 198.378 147.757 198.292 147.817 198.137C148.867 195.729 149.676 194.482 150.227 194.37C150.451 194.327 150.597 194.448 150.649 194.723C150.735 195.196 150.365 196.538 149.521 198.739L147.835 203.142C148.394 202.996 148.687 202.919 148.73 202.91C148.816 202.893 149.125 202.859 149.659 202.798C150.304 200.975 150.778 199.763 151.062 199.152C151.354 198.541 151.759 197.914 152.275 197.251C152.241 197.699 152.241 198.06 152.292 198.335C152.456 199.204 152.92 199.565 153.669 199.427C154.289 199.307 154.874 198.808 155.442 197.948C155.399 198.369 155.425 198.774 155.519 199.169C155.683 199.84 156.027 200.373 156.561 200.76C157.094 201.139 157.653 201.268 158.239 201.121C159.375 200.846 160.364 199.642 161.216 197.501C161.483 197.561 161.767 197.552 162.068 197.484C162.791 197.312 163.479 196.692 164.133 195.626C164.211 195.506 164.263 195.402 164.331 195.299C164.073 196.443 164.03 197.286 164.202 197.828C164.349 198.301 164.624 198.653 165.011 198.903C165.398 199.143 165.803 199.204 166.216 199.075C167.042 198.817 167.834 197.398 168.608 194.835C168.531 195.48 168.548 196.004 168.677 196.409C168.832 196.89 169.116 197.243 169.555 197.466C169.985 197.69 170.45 197.733 170.932 197.578C171.474 197.406 171.947 197.002 172.343 196.383C172.739 195.755 173.169 194.723 173.651 193.27C174.081 193.639 174.512 193.76 174.933 193.622C175.562 193.424 176.147 192.754 176.697 191.618C177.111 190.793 177.3 190.32 177.265 190.217C177.265 190.217 177.257 190.217 177.248 190.217C177.265 190.217 177.274 190.217 177.291 190.217C177.334 190.191 177.369 190.096 177.403 189.941C177.962 187.361 178.479 185.968 178.952 185.77C179.184 185.676 179.357 185.77 179.477 186.045C179.684 186.536 179.58 188.024 179.167 190.509L178.436 194.852C178.711 194.697 179.004 194.551 179.331 194.413C179.425 194.37 179.701 194.276 180.174 194.13C180.888 187.92 181.93 184.54 183.281 183.973C183.677 183.809 183.961 183.913 184.115 184.291C184.245 184.601 184.167 185.461 183.874 186.888C183.59 188.247 183.444 189.142 183.418 189.572C183.393 190.002 183.47 190.423 183.642 190.844C183.84 191.317 184.15 191.661 184.572 191.868C184.993 192.074 185.406 192.091 185.828 191.911C186.456 191.644 187.05 190.621 187.609 188.841C188.28 186.673 188.582 185.486 188.496 185.297L188.513 185.246ZM160.39 196.529C160.467 196.864 160.691 197.148 161.053 197.389C160.218 199.436 159.28 200.58 158.221 200.838C157.576 200.992 157.172 200.734 157.008 200.064C156.724 198.903 157.025 197.312 157.894 195.308C158.764 193.304 159.641 192.186 160.536 191.971C161.251 191.799 161.707 192.109 161.896 192.9C161.999 193.321 162.008 193.717 161.939 194.095C161.836 193.915 161.698 193.846 161.543 193.88C161.182 193.966 160.872 194.31 160.614 194.912C160.356 195.514 160.287 196.047 160.399 196.529H160.39Z" fill="#454C85" stroke="#454C85" stroke-width="0.5" stroke-linecap="round" stroke-linejoin="round"/>
</svg>
