<?xml version="1.0" encoding="UTF-8"?><svg id="_이어_2" xmlns="http://www.w3.org/2000/svg" viewBox="0 0 570.15 204.27"><defs><style>.cls-1{fill:#fff;}.cls-2{fill:none;}</style></defs><g id="_이어_1-2"><g><path class="cls-1" d="M286.97,97.6l.08,.07c.01-.07,.04-.13,.06-.19l-.14,.12Z"/><path class="cls-1" d="M263.66,97.59l-.09-.08c-.02,.07-.04,.14-.05,.21l.15-.13Z"/><path class="cls-1" d="M384.3,30.71c-.84-.21-1.67-.41-2.52-.58,.42,.46,1.02,.75,1.69,.75,.3,0,.58-.06,.83-.16Z"/><path class="cls-1" d="M383.47,39.57c1.27,0,2.3-1.03,2.3-2.3s-1.03-2.3-2.3-2.3-2.3,1.03-2.3,2.3,1.03,2.3,2.3,2.3Z"/><path class="cls-1" d="M375.62,30.88c.97,0,1.8-.6,2.14-1.45-1.45-.21-2.92-.37-4.4-.49,.17,1.1,1.12,1.94,2.27,1.94Z"/><path class="cls-1" d="M375.62,39.57c1.27,0,2.3-1.03,2.3-2.3s-1.03-2.3-2.3-2.3-2.3,1.03-2.3,2.3,1.03,2.3,2.3,2.3Z"/><path class="cls-1" d="M377.92,45.96c0-1.27-1.03-2.3-2.3-2.3s-2.3,1.03-2.3,2.3c0,.13,.02,.25,.04,.37,1.46,.16,2.9,.38,4.32,.66,.16-.31,.25-.66,.25-1.03Z"/><path class="cls-1" d="M373.87,166.21c1.05-.09,2.09-.21,3.12-.35-.38-.29-.86-.47-1.38-.47-.7,0-1.32,.32-1.75,.82Z"/><path class="cls-1" d="M367.78,30.88c1.21,0,2.2-.94,2.29-2.13-.78-.03-1.56-.06-2.34-.06-.72,0-1.47,.03-2.23,.08,.1,1.18,1.08,2.11,2.28,2.11Z"/><path class="cls-1" d="M367.78,39.57c1.27,0,2.3-1.03,2.3-2.3s-1.03-2.3-2.3-2.3-2.3,1.03-2.3,2.3,1.03,2.3,2.3,2.3Z"/><path class="cls-1" d="M370.07,46.08s.01-.07,.01-.11c0-1.27-1.03-2.3-2.3-2.3s-2.3,1.03-2.3,2.3c0,.06,.01,.11,.02,.17,.77-.07,1.51-.12,2.23-.12,.79,0,1.57,.02,2.35,.06Z"/><path class="cls-1" d="M367.78,165.39c-.81,0-1.52,.42-1.93,1.05,.64,.04,1.26,.05,1.87,.05,.67,0,1.33-.03,1.99-.05-.41-.64-1.12-1.06-1.93-1.06Z"/><path class="cls-1" d="M359.93,30.88c1.08,0,1.98-.75,2.23-1.76-1.33,.2-2.69,.46-4.1,.79,.42,.58,1.1,.97,1.87,.97Z"/><path class="cls-1" d="M359.93,39.57c1.27,0,2.3-1.03,2.3-2.3s-1.03-2.3-2.3-2.3-2.3,1.03-2.3,2.3,1.03,2.3,2.3,2.3Z"/><path class="cls-1" d="M362.23,45.96c0-1.27-1.03-2.3-2.3-2.3s-2.3,1.03-2.3,2.3c0,.67,.29,1.27,.75,1.69,1.29-.4,2.54-.74,3.74-.99,.07-.22,.12-.45,.12-.7Z"/><path class="cls-1" d="M359.21,165.52c.74,.16,1.47,.3,2.19,.42-.4-.33-.91-.54-1.47-.54-.25,0-.49,.05-.72,.13Z"/><path class="cls-1" d="M352.08,39.57c1.27,0,2.3-1.03,2.3-2.3s-1.03-2.3-2.3-2.3-2.3,1.03-2.3,2.3,1.03,2.3,2.3,2.3Z"/><path class="cls-1" d="M352.08,48.27c1.27,0,2.3-1.03,2.3-2.3s-1.03-2.3-2.3-2.3-2.3,1.03-2.3,2.3,1.03,2.3,2.3,2.3Z"/><path class="cls-1" d="M344.24,39.57c1.27,0,2.3-1.03,2.3-2.3s-1.03-2.3-2.3-2.3-2.3,1.03-2.3,2.3,1.03,2.3,2.3,2.3Z"/><path class="cls-1" d="M344.24,48.27c1.27,0,2.3-1.03,2.3-2.3s-1.03-2.3-2.3-2.3-2.3,1.03-2.3,2.3,1.03,2.3,2.3,2.3Z"/><path class="cls-1" d="M344.24,52.36c-1.27,0-2.3,1.03-2.3,2.3,0,.16,.02,.31,.05,.46,1.31-.75,2.6-1.45,3.86-2.11-.41-.4-.98-.65-1.6-.65Z"/><path class="cls-1" d="M338.68,37.35c-1.17,.59-2.34,1.2-3.54,1.85,.36,.23,.78,.37,1.24,.37,1.24,0,2.25-.99,2.29-2.22Z"/><path class="cls-1" d="M336.39,48.27c1.27,0,2.3-1.03,2.3-2.3s-1.03-2.3-2.3-2.3-2.3,1.03-2.3,2.3,1.03,2.3,2.3,2.3Z"/><circle class="cls-1" cx="336.39" cy="54.66" r="2.3"/><path class="cls-1" d="M328.54,48.27c1.27,0,2.3-1.03,2.3-2.3s-1.03-2.3-2.3-2.3-2.3,1.03-2.3,2.3,1.03,2.3,2.3,2.3Z"/><circle class="cls-1" cx="328.54" cy="54.66" r="2.3"/><path class="cls-1" d="M328.54,61.05c-1.27,0-2.3,1.03-2.3,2.3,0,.59,.23,1.12,.59,1.53,1.27-.9,2.51-1.76,3.74-2.59-.39-.73-1.14-1.24-2.03-1.24Z"/><path class="cls-1" d="M328.54,139.31c-1.27,0-2.3,1.03-2.3,2.3s1.03,2.3,2.3,2.3,2.3-1.03,2.3-2.3-1.03-2.3-2.3-2.3Z"/><path class="cls-1" d="M330.84,150.3c0-1.27-1.03-2.3-2.3-2.3s-2.3,1.03-2.3,2.3c0,.18,.03,.35,.06,.52,.94,.58,1.87,1.15,2.79,1.71,1-.25,1.75-1.15,1.75-2.23Z"/><path class="cls-1" d="M322.92,46.52c-.86,.56-1.72,1.13-2.59,1.71,.12,.02,.24,.04,.36,.04,1.08,0,1.98-.75,2.23-1.75Z"/><circle class="cls-1" cx="320.7" cy="54.66" r="2.3"/><circle class="cls-1" cx="320.7" cy="63.35" r="2.3"/><path class="cls-1" d="M318.73,70.88c.46-.35,.91-.69,1.36-1.04-.58,.16-1.06,.53-1.36,1.04Z"/><path class="cls-1" d="M318.39,124.22c0,1.27,1.03,2.3,2.3,2.3,.24,0,.47-.05,.69-.12-.99-.74-1.98-1.49-2.98-2.26,0,.03,0,.05,0,.07Z"/><path class="cls-1" d="M320.7,130.61c-1.27,0-2.3,1.03-2.3,2.3s1.03,2.3,2.3,2.3,2.3-1.03,2.3-2.3-1.03-2.3-2.3-2.3Z"/><path class="cls-1" d="M320.7,139.31c-1.27,0-2.3,1.03-2.3,2.3s1.03,2.3,2.3,2.3,2.3-1.03,2.3-2.3-1.03-2.3-2.3-2.3Z"/><path class="cls-1" d="M312.85,56.96c1.27,0,2.3-1.03,2.3-2.3,0-.86-.48-1.61-1.18-2-1.12,.8-2.24,1.62-3.37,2.47,.22,1.05,1.14,1.84,2.25,1.84Z"/><path class="cls-1" d="M312.85,65.66c1.27,0,2.3-1.03,2.3-2.3s-1.03-2.3-2.3-2.3-2.3,1.03-2.3,2.3,1.03,2.3,2.3,2.3Z"/><path class="cls-1" d="M312.85,74.35c1.27,0,2.3-1.03,2.3-2.3s-1.03-2.3-2.3-2.3-2.3,1.03-2.3,2.3,1.03,2.3,2.3,2.3Z"/><path class="cls-1" d="M312.85,121.92c-1.27,0-2.3,1.03-2.3,2.3s1.03,2.3,2.3,2.3,2.3-1.03,2.3-2.3-1.03-2.3-2.3-2.3Z"/><path class="cls-1" d="M312.85,130.61c-1.27,0-2.3,1.03-2.3,2.3s1.03,2.3,2.3,2.3,2.3-1.03,2.3-2.3-1.03-2.3-2.3-2.3Z"/><path class="cls-1" d="M312.85,139.31c-.79,0-1.49,.4-1.91,1.01,1.25,.92,2.48,1.82,3.71,2.7,.31-.39,.49-.88,.49-1.41,0-1.27-1.03-2.3-2.3-2.3Z"/><path class="cls-1" d="M305,65.66c1.27,0,2.3-1.03,2.3-2.3s-1.03-2.3-2.3-2.3-2.3,1.03-2.3,2.3,1.03,2.3,2.3,2.3Z"/><path class="cls-1" d="M305,74.35c1.27,0,2.3-1.03,2.3-2.3s-1.03-2.3-2.3-2.3-2.3,1.03-2.3,2.3,1.03,2.3,2.3,2.3Z"/><path class="cls-1" d="M305,78.44c-1.27,0-2.3,1.03-2.3,2.3,0,.92,.54,1.7,1.31,2.07,1.07-.92,2.14-1.81,3.19-2.7-.27-.97-1.15-1.68-2.21-1.68Z"/><path class="cls-1" d="M302.7,115.52c0,1.27,1.03,2.3,2.3,2.3s2.3-1.03,2.3-2.3c0-.11-.02-.21-.03-.32-.78-.65-1.56-1.31-2.34-1.98-1.24,.04-2.23,1.05-2.23,2.29Z"/><path class="cls-1" d="M305,121.92c-1.27,0-2.3,1.03-2.3,2.3s1.03,2.3,2.3,2.3,2.3-1.03,2.3-2.3-1.03-2.3-2.3-2.3Z"/><path class="cls-1" d="M307.31,132.91c0-1.27-1.03-2.3-2.3-2.3s-2.3,1.03-2.3,2.3c0,.59,.23,1.13,.6,1.54,.19,.15,.39,.31,.58,.46,.33,.19,.71,.3,1.12,.3,1.27,0,2.3-1.03,2.3-2.3Z"/><path class="cls-1" d="M299.39,63.89c-.71,.58-1.42,1.17-2.13,1.76,1.04-.05,1.9-.78,2.13-1.76Z"/><path class="cls-1" d="M297.16,74.35c1.27,0,2.3-1.03,2.3-2.3s-1.03-2.3-2.3-2.3-2.3,1.03-2.3,2.3,1.03,2.3,2.3,2.3Z"/><path class="cls-1" d="M297.16,83.05c1.27,0,2.3-1.03,2.3-2.3s-1.03-2.3-2.3-2.3-2.3,1.03-2.3,2.3,1.03,2.3,2.3,2.3Z"/><path class="cls-1" d="M297.16,87.14c-1.27,0-2.3,1.03-2.3,2.3,0,.39,.11,.75,.28,1.07l3.37-2.93c-.38-.28-.84-.44-1.35-.44Z"/><path class="cls-1" d="M294.85,106.83c0,1.27,1.03,2.3,2.3,2.3,.78,0,1.47-.39,1.89-.99l-3.44-3c-.46,.42-.75,1.02-.75,1.69Z"/><path class="cls-1" d="M297.16,113.22c-1.27,0-2.3,1.03-2.3,2.3s1.03,2.3,2.3,2.3,2.3-1.03,2.3-2.3-1.03-2.3-2.3-2.3Z"/><path class="cls-1" d="M297.16,121.92c-1.27,0-2.3,1.03-2.3,2.3s1.03,2.3,2.3,2.3,2.3-1.03,2.3-2.3-1.03-2.3-2.3-2.3Z"/><path class="cls-1" d="M291.61,72.05c0-.47-.14-.9-.38-1.27-1.13,.99-2.27,1.99-3.41,3.01,.4,.35,.92,.56,1.49,.56,1.27,0,2.3-1.03,2.3-2.3Z"/><path class="cls-1" d="M289.31,83.05c1.27,0,2.3-1.03,2.3-2.3s-1.03-2.3-2.3-2.3-2.3,1.03-2.3,2.3,1.03,2.3,2.3,2.3Z"/><path class="cls-1" d="M289.31,91.74c1.27,0,2.3-1.03,2.3-2.3s-1.03-2.3-2.3-2.3-2.3,1.03-2.3,2.3,1.03,2.3,2.3,2.3Z"/><path class="cls-1" d="M287.11,97.47l1.85-1.61c-.89,.13-1.6,.77-1.85,1.61Z"/><path class="cls-1" d="M287.01,98.13c0,1.27,1.03,2.3,2.3,2.3,.27,0,.52-.05,.76-.14l-3.01-2.63c-.03,.15-.05,.31-.05,.46Z"/><path class="cls-1" d="M289.31,104.53c-1.27,0-2.3,1.03-2.3,2.3s1.03,2.3,2.3,2.3,2.3-1.03,2.3-2.3-1.03-2.3-2.3-2.3Z"/><path class="cls-1" d="M289.31,113.22c-1.27,0-2.3,1.03-2.3,2.3s1.03,2.3,2.3,2.3,2.3-1.03,2.3-2.3-1.03-2.3-2.3-2.3Z"/><path class="cls-1" d="M289.31,121.92c-.27,0-.52,.05-.76,.14,1.01,.89,2.01,1.77,3.01,2.64,.03-.15,.05-.31,.05-.48,0-1.27-1.03-2.3-2.3-2.3Z"/><path class="cls-1" d="M281.46,83.05c1.27,0,2.3-1.03,2.3-2.3,0-.93-.56-1.74-1.36-2.1l-3.12,2.81c.3,.92,1.16,1.59,2.18,1.59Z"/><path class="cls-1" d="M281.46,87.14c-1.27,0-2.3,1.03-2.3,2.3s1.03,2.3,2.3,2.3,2.3-1.03,2.3-2.3-1.03-2.3-2.3-2.3Z"/><path class="cls-1" d="M281.46,95.83c-1.27,0-2.3,1.03-2.3,2.3s1.03,2.3,2.3,2.3,2.3-1.03,2.3-2.3-1.03-2.3-2.3-2.3Z"/><path class="cls-1" d="M281.46,104.53c-1.27,0-2.3,1.03-2.3,2.3s1.03,2.3,2.3,2.3,2.3-1.03,2.3-2.3-1.03-2.3-2.3-2.3Z"/><path class="cls-1" d="M281.46,113.22c-.72,0-1.36,.34-1.78,.86l3.41,3.07c.42-.42,.68-.99,.68-1.63,0-1.27-1.03-2.3-2.3-2.3Z"/><path class="cls-1" d="M272.92,82.93l-1.4-1.25c.26,.59,.78,1.05,1.4,1.25Z"/><circle class="cls-1" cx="273.62" cy="89.44" r="2.3"/><path class="cls-1" d="M273.62,95.83c-1.27,0-2.3,1.03-2.3,2.3s1.03,2.3,2.3,2.3,2.3-1.03,2.3-2.3-1.03-2.3-2.3-2.3Z"/><path class="cls-1" d="M273.62,104.53c-1.27,0-2.3,1.03-2.3,2.3s1.03,2.3,2.3,2.3,2.3-1.03,2.3-2.3-1.03-2.3-2.3-2.3Z"/><path class="cls-1" d="M265.77,78.44c-1.27,0-2.3,1.03-2.3,2.3s1.03,2.3,2.3,2.3,2.3-1.03,2.3-2.3-1.03-2.3-2.3-2.3Z"/><circle class="cls-1" cx="265.77" cy="89.44" r="2.3"/><path class="cls-1" d="M263.51,97.72c-.02,.13-.04,.27-.04,.41,0,1.27,1.03,2.3,2.3,2.3s2.3-1.03,2.3-2.3-1.03-2.3-2.3-2.3c-1.06,0-1.94,.71-2.21,1.68l.09,.08-.15,.13Z"/><path class="cls-1" d="M265.77,104.53c-1.27,0-2.3,1.03-2.3,2.3s1.03,2.3,2.3,2.3,2.3-1.03,2.3-2.3-1.03-2.3-2.3-2.3Z"/><circle class="cls-1" cx="265.77" cy="115.52" r="2.3"/><path class="cls-1" d="M255.62,72.05c0,1.27,1.03,2.3,2.3,2.3s2.3-1.03,2.3-2.3c0-.14-.02-.27-.04-.41-.73-.63-1.46-1.27-2.19-1.89-.02,0-.04,0-.07,0-1.27,0-2.3,1.03-2.3,2.3Z"/><path class="cls-1" d="M257.92,78.44c-1.27,0-2.3,1.03-2.3,2.3s1.03,2.3,2.3,2.3,2.3-1.03,2.3-2.3-1.03-2.3-2.3-2.3Z"/><circle class="cls-1" cx="257.92" cy="89.44" r="2.3"/><path class="cls-1" d="M257.92,104.53c-1.27,0-2.3,1.03-2.3,2.3s1.03,2.3,2.3,2.3,2.3-1.03,2.3-2.3-1.03-2.3-2.3-2.3Z"/><circle class="cls-1" cx="257.92" cy="115.52" r="2.3"/><path class="cls-1" d="M257.92,121.92c-1.27,0-2.3,1.03-2.3,2.3,0,.93,.55,1.72,1.34,2.08,1.05-.89,2.11-1.79,3.17-2.71-.27-.96-1.15-1.67-2.2-1.67Z"/><path class="cls-1" d="M250.08,65.66c.77,0,1.44-.38,1.86-.96-1.2-.98-2.39-1.93-3.57-2.87-.36,.41-.59,.94-.59,1.53,0,1.27,1.03,2.3,2.3,2.3Z"/><path class="cls-1" d="M250.08,69.75c-1.27,0-2.3,1.03-2.3,2.3s1.03,2.3,2.3,2.3,2.3-1.03,2.3-2.3-1.03-2.3-2.3-2.3Z"/><path class="cls-1" d="M250.08,78.44c-1.27,0-2.3,1.03-2.3,2.3s1.03,2.3,2.3,2.3,2.3-1.03,2.3-2.3-1.03-2.3-2.3-2.3Z"/><path class="cls-1" d="M252.31,107.37l-2.02,1.74c.99-.09,1.79-.8,2.02-1.74Z"/><path class="cls-1" d="M250.08,113.22c-1.27,0-2.3,1.03-2.3,2.3s1.03,2.3,2.3,2.3,2.3-1.03,2.3-2.3-1.03-2.3-2.3-2.3Z"/><path class="cls-1" d="M250.08,121.92c-1.27,0-2.3,1.03-2.3,2.3s1.03,2.3,2.3,2.3,2.3-1.03,2.3-2.3-1.03-2.3-2.3-2.3Z"/><path class="cls-1" d="M247.77,132.91c0,.28,.06,.54,.15,.79,1.13-.89,2.26-1.8,3.4-2.72-.36-.23-.79-.37-1.25-.37-1.27,0-2.3,1.03-2.3,2.3Z"/><path class="cls-1" d="M242.04,56.94c-.65-.49-1.31-.99-1.96-1.47,.31,.81,1.06,1.39,1.96,1.47Z"/><path class="cls-1" d="M242.23,61.05c-1.27,0-2.3,1.03-2.3,2.3s1.03,2.3,2.3,2.3,2.3-1.03,2.3-2.3-1.03-2.3-2.3-2.3Z"/><path class="cls-1" d="M242.23,69.75c-1.27,0-2.3,1.03-2.3,2.3s1.03,2.3,2.3,2.3,2.3-1.03,2.3-2.3-1.03-2.3-2.3-2.3Z"/><path class="cls-1" d="M244.53,80.74c0-1.27-1.03-2.3-2.3-2.3-.29,0-.56,.06-.82,.16,1.02,.83,2.05,1.69,3.08,2.55,.02-.13,.04-.26,.04-.4Z"/><path class="cls-1" d="M242.23,117.83c1.27,0,2.3-1.03,2.3-2.3,0-.45-.13-.87-.36-1.22-1.18,.98-2.35,1.95-3.52,2.89,.41,.39,.96,.63,1.57,.63Z"/><path class="cls-1" d="M242.23,121.92c-1.27,0-2.3,1.03-2.3,2.3s1.03,2.3,2.3,2.3,2.3-1.03,2.3-2.3-1.03-2.3-2.3-2.3Z"/><path class="cls-1" d="M242.23,130.61c-1.27,0-2.3,1.03-2.3,2.3s1.03,2.3,2.3,2.3,2.3-1.03,2.3-2.3-1.03-2.3-2.3-2.3Z"/><path class="cls-1" d="M234.38,52.36c-1.27,0-2.3,1.03-2.3,2.3s1.03,2.3,2.3,2.3,2.3-1.03,2.3-2.3-1.03-2.3-2.3-2.3Z"/><path class="cls-1" d="M234.38,61.05c-1.27,0-2.3,1.03-2.3,2.3s1.03,2.3,2.3,2.3,2.3-1.03,2.3-2.3-1.03-2.3-2.3-2.3Z"/><path class="cls-1" d="M236.69,72.05c0-1.27-1.03-2.3-2.3-2.3-1.02,0-1.87,.67-2.18,1.59,1.13,.86,2.28,1.74,3.43,2.65,.63-.41,1.05-1.12,1.05-1.93Z"/><path class="cls-1" d="M232.08,124.22c0,1.27,1.03,2.3,2.3,2.3s2.3-1.03,2.3-2.3c0-1.17-.87-2.12-2-2.27-.86,.67-1.72,1.33-2.57,1.98-.01,.1-.03,.19-.03,.3Z"/><path class="cls-1" d="M234.38,130.61c-1.27,0-2.3,1.03-2.3,2.3s1.03,2.3,2.3,2.3,2.3-1.03,2.3-2.3-1.03-2.3-2.3-2.3Z"/><path class="cls-1" d="M234.38,139.31c-1.27,0-2.3,1.03-2.3,2.3s.97,2.22,2.18,2.29c.77-.54,1.55-1.09,2.32-1.65,.06-.21,.1-.42,.1-.64,0-1.27-1.03-2.3-2.3-2.3Z"/><path class="cls-1" d="M226.54,48.27c.76,0,1.44-.38,1.86-.95-1.3-.85-2.58-1.67-3.86-2.46-.18,.33-.3,.71-.3,1.11,0,1.27,1.03,2.3,2.3,2.3Z"/><path class="cls-1" d="M226.54,52.36c-1.27,0-2.3,1.03-2.3,2.3s1.03,2.3,2.3,2.3,2.3-1.03,2.3-2.3-1.03-2.3-2.3-2.3Z"/><path class="cls-1" d="M226.54,61.05c-1.27,0-2.3,1.03-2.3,2.3s1.03,2.3,2.3,2.3,2.3-1.03,2.3-2.3-1.03-2.3-2.3-2.3Z"/><path class="cls-1" d="M226.54,130.61c-1.27,0-2.3,1.03-2.3,2.3s1.03,2.3,2.3,2.3,2.3-1.03,2.3-2.3-1.03-2.3-2.3-2.3Z"/><path class="cls-1" d="M226.54,139.31c-1.27,0-2.3,1.03-2.3,2.3s1.03,2.3,2.3,2.3,2.3-1.03,2.3-2.3-1.03-2.3-2.3-2.3Z"/><path class="cls-1" d="M224.24,150.3c0,.07,.01,.14,.02,.2,1.14-.71,2.28-1.43,3.44-2.18-.34-.2-.73-.32-1.15-.32-1.27,0-2.3,1.03-2.3,2.3Z"/><path class="cls-1" d="M218.69,43.66c-1.27,0-2.3,1.03-2.3,2.3s1.03,2.3,2.3,2.3,2.3-1.03,2.3-2.3-1.03-2.3-2.3-2.3Z"/><path class="cls-1" d="M218.69,52.36c-1.27,0-2.3,1.03-2.3,2.3s1.03,2.3,2.3,2.3,2.3-1.03,2.3-2.3-1.03-2.3-2.3-2.3Z"/><path class="cls-1" d="M218.69,61.05c-.27,0-.52,.05-.75,.14,1,.66,2.02,1.33,3.04,2.03-.07-1.21-1.06-2.17-2.29-2.17Z"/><path class="cls-1" d="M218.69,135.22c1.27,0,2.3-1.03,2.3-2.3,0-.3-.06-.59-.17-.85-1.27,.86-2.52,1.69-3.75,2.49,.42,.41,.98,.66,1.61,.66Z"/><path class="cls-1" d="M218.69,139.31c-1.27,0-2.3,1.03-2.3,2.3s1.03,2.3,2.3,2.3,2.3-1.03,2.3-2.3-1.03-2.3-2.3-2.3Z"/><path class="cls-1" d="M218.69,148c-1.27,0-2.3,1.03-2.3,2.3s1.03,2.3,2.3,2.3,2.3-1.03,2.3-2.3-1.03-2.3-2.3-2.3Z"/><path class="cls-1" d="M210.84,39.57c.94,0,1.75-.57,2.1-1.37-1.39-.72-2.76-1.4-4.11-2.04-.18,.33-.3,.71-.3,1.11,0,1.27,1.03,2.3,2.3,2.3Z"/><path class="cls-1" d="M210.84,43.66c-1.27,0-2.3,1.03-2.3,2.3s1.03,2.3,2.3,2.3,2.3-1.03,2.3-2.3-1.03-2.3-2.3-2.3Z"/><path class="cls-1" d="M213.15,54.66c0-1.27-1.03-2.3-2.3-2.3s-2.3,1.03-2.3,2.3c0,.3,.06,.59,.17,.86,.8,.46,1.61,.93,2.43,1.42,1.13-.15,2-1.1,2-2.27Z"/><path class="cls-1" d="M210.84,139.31c-1.27,0-2.3,1.03-2.3,2.3s1.03,2.3,2.3,2.3,2.3-1.03,2.3-2.3-1.03-2.3-2.3-2.3Z"/><circle class="cls-1" cx="210.84" cy="150.3" r="2.3"/><path class="cls-1" d="M208.54,159c0,.06,.01,.11,.02,.16,1.25-.59,2.52-1.22,3.81-1.88-.41-.36-.94-.59-1.52-.59-1.27,0-2.3,1.03-2.3,2.3Z"/><path class="cls-1" d="M203,34.97c-1.27,0-2.3,1.03-2.3,2.3s1.03,2.3,2.3,2.3,2.3-1.03,2.3-2.3-1.03-2.3-2.3-2.3Z"/><path class="cls-1" d="M203,43.66c-1.27,0-2.3,1.03-2.3,2.3s1.03,2.3,2.3,2.3,2.3-1.03,2.3-2.3-1.03-2.3-2.3-2.3Z"/><path class="cls-1" d="M203,52.36c-.05,0-.1,.01-.15,.01,.69,.35,1.39,.71,2.1,1.08-.41-.65-1.13-1.09-1.95-1.09Z"/><path class="cls-1" d="M203,143.91c1.27,0,2.3-1.03,2.3-2.3,0-.02,0-.04,0-.06-1.26,.67-2.49,1.3-3.69,1.88,.39,.3,.87,.48,1.4,.48Z"/><circle class="cls-1" cx="203" cy="150.3" r="2.3"/><path class="cls-1" d="M203,156.7c-1.27,0-2.3,1.03-2.3,2.3s1.03,2.3,2.3,2.3,2.3-1.03,2.3-2.3-1.03-2.3-2.3-2.3Z"/><path class="cls-1" d="M195.33,30.86c-.52-.15-1.04-.31-1.55-.45,.38,.29,.86,.46,1.37,.46,.06,0,.12-.01,.18-.02Z"/><path class="cls-1" d="M195.15,34.97c-1.27,0-2.3,1.03-2.3,2.3s1.03,2.3,2.3,2.3,2.3-1.03,2.3-2.3-1.03-2.3-2.3-2.3Z"/><path class="cls-1" d="M195.15,43.66c-1.27,0-2.3,1.03-2.3,2.3s1.03,2.3,2.3,2.3,2.3-1.03,2.3-2.3-1.03-2.3-2.3-2.3Z"/><circle class="cls-1" cx="195.15" cy="150.3" r="2.3"/><path class="cls-1" d="M195.15,156.7c-1.27,0-2.3,1.03-2.3,2.3s1.03,2.3,2.3,2.3,2.3-1.03,2.3-2.3-1.03-2.3-2.3-2.3Z"/><path class="cls-1" d="M187.3,30.88c.97,0,1.8-.6,2.14-1.46-1.52-.28-2.99-.48-4.41-.6,.12,1.15,1.09,2.06,2.28,2.06Z"/><path class="cls-1" d="M187.3,34.97c-1.27,0-2.3,1.03-2.3,2.3s1.03,2.3,2.3,2.3,2.3-1.03,2.3-2.3-1.03-2.3-2.3-2.3Z"/><path class="cls-1" d="M189.61,45.96c0-1.27-1.03-2.3-2.3-2.3s-2.3,1.03-2.3,2.3c0,.08,.02,.16,.02,.25,1.35,.17,2.79,.44,4.3,.83,.17-.32,.28-.69,.28-1.08Z"/><path class="cls-1" d="M185,150.3c0,1.27,1.03,2.3,2.3,2.3s2.3-1.03,2.3-2.3c0-.84-.45-1.56-1.12-1.97-1.04,.24-2.04,.43-3,.57-.3,.39-.48,.87-.48,1.4Z"/><path class="cls-1" d="M187.3,156.7c-1.27,0-2.3,1.03-2.3,2.3s1.03,2.3,2.3,2.3,2.3-1.03,2.3-2.3-1.03-2.3-2.3-2.3Z"/><path class="cls-1" d="M185.46,166.33c1.06-.1,2.15-.25,3.26-.44-.39-.31-.88-.5-1.41-.5-.76,0-1.43,.37-1.85,.94Z"/><path class="cls-1" d="M179.46,30.88c1.23,0,2.23-.97,2.29-2.18-1.53,0-3.05,.08-4.56,.19,.15,1.13,1.1,2,2.27,2Z"/><path class="cls-1" d="M179.46,34.97c-1.27,0-2.3,1.03-2.3,2.3s1.03,2.3,2.3,2.3,2.3-1.03,2.3-2.3-1.03-2.3-2.3-2.3Z"/><path class="cls-1" d="M181.76,45.96c0-1.27-1.03-2.3-2.3-2.3s-2.3,1.03-2.3,2.3c0,.1,.02,.2,.03,.29,1.51-.14,3.03-.22,4.57-.23,0-.02,0-.04,0-.06Z"/><path class="cls-1" d="M177.16,150.3c0,1.27,1.03,2.3,2.3,2.3s2.3-1.03,2.3-2.3c0-.42-.12-.81-.32-1.15-1.29-.02-2.57-.08-3.84-.19-.28,.38-.44,.84-.44,1.35Z"/><path class="cls-1" d="M179.46,156.7c-1.27,0-2.3,1.03-2.3,2.3s1.03,2.3,2.3,2.3,2.3-1.03,2.3-2.3-1.03-2.3-2.3-2.3Z"/><path class="cls-1" d="M179.46,165.39c-.76,0-1.43,.37-1.85,.94,1.26,.08,2.52,.13,3.8,.15-.41-.65-1.12-1.09-1.95-1.09Z"/><path class="cls-1" d="M171.61,30.88c1.05,0,1.93-.71,2.2-1.67-1.39,.17-2.77,.38-4.13,.63,.41,.63,1.12,1.05,1.93,1.05Z"/><path class="cls-1" d="M171.61,34.97c-1.27,0-2.3,1.03-2.3,2.3s1.03,2.3,2.3,2.3,2.3-1.03,2.3-2.3-1.03-2.3-2.3-2.3Z"/><path class="cls-1" d="M173.91,45.96c0-1.27-1.03-2.3-2.3-2.3s-2.3,1.03-2.3,2.3c0,.59,.23,1.12,.59,1.53,1.28-.31,2.57-.58,3.88-.79,.08-.23,.13-.48,.13-.74Z"/><path class="cls-1" d="M172.7,148.29c-.33-.18-.69-.29-1.09-.29-.09,0-.17,.02-.26,.03-1.15,.13-2.05,1.09-2.05,2.28,0,1.27,1.03,2.3,2.3,2.3s2.3-1.03,2.3-2.3c0-.87-.49-1.62-1.21-2.01Z"/><path class="cls-1" d="M171.61,156.7c-1.27,0-2.3,1.03-2.3,2.3s1.03,2.3,2.3,2.3,2.3-1.03,2.3-2.3-1.03-2.3-2.3-2.3Z"/><path class="cls-1" d="M170.79,165.55c.74,.12,1.48,.23,2.23,.33-.39-.3-.87-.49-1.4-.49-.29,0-.57,.06-.83,.16Z"/><path class="cls-1" d="M163.77,34.97c-1.27,0-2.3,1.03-2.3,2.3s1.03,2.3,2.3,2.3,2.3-1.03,2.3-2.3-1.03-2.3-2.3-2.3Z"/><path class="cls-1" d="M163.77,156.7c-1.27,0-2.3,1.03-2.3,2.3s1.03,2.3,2.3,2.3,2.3-1.03,2.3-2.3-1.03-2.3-2.3-2.3Z"/><path class="cls-1" d="M155.92,156.7c-1.27,0-2.3,1.03-2.3,2.3,0,.62,.25,1.18,.65,1.6,.41,.43,.99,.7,1.63,.7,0,0,.02,0,.03,0,1.27,0,2.3-1.03,2.3-2.3s-1.03-2.3-2.3-2.3Z"/><path class="cls-1" d="M163.32,147.7c-1.27,0-2.3,1.03-2.3,2.3,0,.62,.25,1.18,.65,1.6,.41,.43,.99,.7,1.63,.7,0,0,.02,0,.03,0,1.27,0,2.3-1.03,2.3-2.3s-1.03-2.3-2.3-2.3Z"/><g><rect class="cls-1" x="435.79" y="165.69" width="1.08" height=".28"/><polygon class="cls-1" points="439.24 165.63 440.39 165.63 440.39 165.32 439.24 165.32 439.24 164.39 440.45 164.39 440.45 164.07 438.86 164.07 438.86 167.01 440.52 167.01 440.52 166.69 439.24 166.69 439.24 165.63"/><path class="cls-1" d="M442.2,165.35c-.41-.16-.58-.29-.58-.57,0-.2,.15-.44,.55-.44,.27,0,.46,.09,.56,.14l.1-.31c-.13-.07-.35-.14-.65-.14-.57,0-.95,.34-.95,.8,0,.41,.3,.66,.78,.83,.4,.15,.55,.31,.55,.58,0,.3-.23,.5-.62,.5-.26,0-.51-.09-.68-.19l-.1,.32c.16,.1,.47,.19,.75,.19,.69,0,1.03-.39,1.03-.85s-.25-.67-.75-.86Z"/><polygon class="cls-1" points="445.62 164.07 443.44 164.07 443.44 164.4 444.33 164.4 444.33 167.01 444.72 167.01 444.72 164.4 445.62 164.4 445.62 164.07"/><path class="cls-1" d="M448.24,166.62c.27-.27,.42-.66,.42-1.14s-.15-.82-.41-1.06c-.26-.24-.65-.37-1.19-.37-.3,0-.58,.03-.81,.06v2.89c.19,.02,.42,.03,.69,.03,.57,0,1.03-.15,1.3-.42Zm-1.61-2.22c.1-.02,.25-.04,.44-.04,.8,0,1.2,.44,1.19,1.13,0,.79-.44,1.25-1.25,1.25-.15,0-.29,0-.38-.02v-2.32Z"/><path class="cls-1" d="M452.37,166.69h-1.27l.23-.22c.6-.58,.98-1,.98-1.52,0-.41-.26-.82-.87-.82-.33,0-.61,.12-.8,.29l.12,.27c.13-.11,.34-.24,.6-.24,.42,0,.56,.27,.56,.55,0,.43-.33,.79-1.06,1.48l-.3,.29v.24h1.81v-.32Z"/><path class="cls-1" d="M454,167.06c.63,0,.99-.53,.99-1.5,0-.9-.34-1.44-.94-1.44s-.99,.52-.99,1.48c0,.94,.38,1.46,.94,1.46Zm.03-2.64c.4,0,.58,.46,.58,1.16s-.19,1.18-.58,1.18c-.35,0-.58-.42-.58-1.16s.24-1.18,.58-1.18Z"/><polygon class="cls-1" points="456.47 164.53 456.48 164.53 456.48 167.01 456.85 167.01 456.85 164.18 456.52 164.18 455.9 164.51 455.98 164.8 456.47 164.53"/><polygon class="cls-1" points="459.63 164.5 458.4 167.01 458.8 167.01 460.03 164.43 460.03 164.18 458.24 164.18 458.24 164.5 459.63 164.5 459.63 164.5"/><rect class="cls-1" x="461.9" y="165.69" width="1.08" height=".28"/><path class="cls-1" d="M569.69,127.74c-.52-.9-1.42-1.58-2.48-1.86-15.62-4.15-31.42-7.44-47.33-9.91V51.96c0-2.49-1.21-4.83-3.25-6.27L453.8,1.4c-2.64-1.86-6.2-1.86-8.84,0l-51.3,36.18c.01-.09,.03-.17,.03-.26,0-1.27-1.03-2.3-2.3-2.3s-2.3,1.03-2.3,2.3c0,1.09,.76,2,1.78,2.23l-6.27,4.42c-.33-.19-.71-.3-1.12-.3-1.27,0-2.3,1.03-2.3,2.3,0,.17,.02,.34,.06,.51h0c-1.47,1.43-2.33,3.41-2.33,5.49v64c-15.91,2.47-31.71,5.76-47.33,9.91-1.06,.28-1.97,.96-2.48,1.86-.46,.8-.58,1.7-.35,2.55l.47,1.71c-.56-.38-1.1-.75-1.67-1.15-.76,.37-1.29,1.15-1.29,2.06,0,1.27,1.03,2.3,2.3,2.3,.53,0,1.01-.19,1.4-.49l4.18,15.26c-.01,.1-.03,.21-.03,.32,0,.54,.2,1.03,.51,1.43l4.02,14.68c.51,1.86,2.48,2.97,4.38,2.47,12.81-3.4,25.76-6.18,38.79-8.33,.42,.46,1.02,.75,1.69,.75,.93,0,1.72-.55,2.09-1.34,1.17-.18,2.33-.36,3.5-.53,.2,1.06,1.13,1.87,2.26,1.87,1.27,0,2.3-1.03,2.3-2.3,0-.07-.01-.14-.02-.21,.48-.07,.96-.14,1.44-.2l49.92,35.2c1.32,.93,2.87,1.4,4.42,1.4s3.1-.47,4.42-1.4l49.92-35.2c17.51,2.31,34.9,5.74,52.05,10.3,.31,.08,.62,.12,.93,.12,1.57,0,3.02-1.03,3.45-2.59l9.88-36.12c.23-.85,.11-1.75-.35-2.55ZM379.98,51.96c0-2.14,1.04-4.15,2.79-5.38L445.59,2.29c1.13-.8,2.46-1.2,3.79-1.2s2.66,.4,3.79,1.2l62.82,44.3c1.75,1.23,2.79,3.24,2.79,5.38v63.83c-1.83-.28-3.65-.55-5.48-.8V56.37c0-2.49-1.21-4.83-3.25-6.27l-56.25-39.66c-2.64-1.86-6.2-1.86-8.84,0l-56.25,39.66c-2.03,1.44-3.25,3.78-3.25,6.27v58.62c-1.83,.26-3.65,.52-5.48,.8V51.96Zm132.23,4.41v58.47c-41.67-5.75-83.99-5.75-125.66,0V56.37c0-2.14,1.04-4.15,2.79-5.38l56.25-39.66c1.13-.8,2.46-1.2,3.79-1.2s2.66,.4,3.79,1.2l56.25,39.66c1.75,1.23,2.79,3.24,2.79,5.38Zm-59.04,136.52c-2.27,1.6-5.31,1.6-7.58,0l-48.95-34.52c3.31-.42,6.63-.8,9.94-1.14l38.38,27.06c1.32,.93,2.87,1.4,4.42,1.4s3.1-.47,4.42-1.4l38.38-27.06c3.32,.34,6.63,.72,9.94,1.14l-48.95,34.52Zm-44.94-35.84c27.36-2.72,54.94-2.72,82.3,0l-37.36,26.34c-2.27,1.6-5.31,1.6-7.58,0l-37.36-26.34Zm160.75-27.05l-9.88,36.12c-.35,1.29-1.72,2.05-3.05,1.7-16.81-4.47-33.86-7.85-51.03-10.16-.53-.07-1.06-.15-1.58-.22-3.3-.43-6.61-.81-9.91-1.17-.55-.06-1.1-.12-1.65-.17-28.25-2.9-56.75-2.9-85.01,0-.55,.06-1.1,.12-1.65,.17-3.31,.35-6.61,.73-9.91,1.17-.53,.07-1.06,.15-1.58,.22-17.17,2.31-34.21,5.69-51.02,10.16-1.32,.35-2.69-.41-3.05-1.7l-9.88-36.12c-.16-.56-.07-1.18,.24-1.72,.37-.65,1.04-1.15,1.82-1.35,15.53-4.13,31.24-7.4,47.05-9.86,.36-.06,.73-.11,1.09-.17,1.83-.28,3.65-.55,5.48-.81,.36-.05,.73-.1,1.09-.15,41.67-5.76,83.99-5.76,125.66,0,.36,.05,.73,.1,1.09,.15,1.83,.26,3.65,.53,5.48,.81,.36,.06,.73,.11,1.09,.17,15.81,2.46,31.52,5.74,47.05,9.86,.78,.21,1.44,.7,1.82,1.35,.31,.54,.4,1.15,.24,1.72Z"/><path class="cls-1" d="M462.11,68.9c-1.6,7.13,1.16,13.07-1.29,23.18-.17,.7,.77,1.11,1.16,.5,1.54-2.42,3.36-5.5,3.98-7.38,1-3.03,3.18-16.77,3.69-20.07,.09-.56,.48-.99,.95-1h.01s-6.7-3.27-8.51,4.76Zm4.47-3.84c.22,0,.4,.21,.4,.48s-.18,.48-.4,.48-.4-.21-.4-.48,.18-.48,.4-.48Zm-3.12,3.04s4.14,2.1,4.63-2.56c0,0,.33,5.32-4.63,2.56Z"/><path class="cls-1" d="M470.16,60.89c-5.31-4.64-7.84,6.16-7.84,6.16,2.71-8.21,7.84-6.16,7.84-6.16Z"/><path class="cls-1" d="M444.82,83.78c-1.13,1.67,.38,3.51,1.55,4.65,0,0-1.09,1.27,4.01,4.25,0,0,.36,.94,.42,2.01,.06-1.06,.42-2.01,.42-2.01,5.1-2.98,4.01-4.25,4.01-4.25,1.17-1.14,2.67-2.98,1.55-4.65-1.13-1.67-4.22,4.16-4.8,3.94-.58-.22-1.17-.22-1.17-.22,0,0-.58,0-1.17,.22-.58,.22-3.68-5.61-4.8-3.94Zm10.69,2.52c.46,.37-.75,.57-3.7,3.92,0,0,3.24-4.29,3.7-3.92Z"/><path class="cls-1" d="M450.8,95.06c-9.09,1.67-9.47-6.28-9.17-10.12-1.03,10.05,4.04,11.19,5.72,11.29,.32,.02,.63,.1,.91,.25,1,.51,1.88,.69,2.53,.69s1.53-.17,2.53-.69c.29-.15,.6-.23,.91-.25,1.68-.1,6.76-1.24,5.72-11.29,.3,3.84-.08,11.79-9.17,10.12Z"/><path class="cls-1" d="M438.17,66.17s2.6-.5,6.58,8.41c0,0-5.69-15.09-12.13-11.14,0,0,.96-.07,1.1,.29,0,0,1.23,7.26,4.45,2.44Zm-1.7-1.59c-.17,0-.3-.14-.3-.31s.13-.31,.3-.31,.3,.14,.3,.31-.13,.31-.3,.31Z"/><path class="cls-1" d="M436.3,80.67s-.25-6.92-1.59-8.15c-1.34-1.23-3.35-4.7-3.45-7.83,0,0-.4,5.38,2.07,7.48,2.47,2.1,2.97,8.5,2.97,8.5Z"/><path class="cls-1" d="M437.05,80.67s-.92,10.43,4.18,10.78c0,0-3.59-2.89-4.18-10.78Z"/><path class="cls-1" d="M450.8,101.72c-6.94,0-8.67-7.38-8.81-8.07,1.19,6.99,4.65,8.86,6.86,9.32-.55,.7-2.62,3.08-6.23,4.73,2.06-.83,5.48-2.26,7.74-3.47-.59,.98-1.74,2.58-3.65,4.01,1.65-1.13,4.54-3.15,6-4.52-.41,1.07-1.26,2.85-2.89,4.59,1.88-1.84,5.58-5.58,5.78-6.67,1.65-1.28,3.26-3.64,4-7.98-.13,.69-1.87,8.07-8.8,8.07Z"/><path class="cls-1" d="M466.69,50.74c-1.07-1.76-1.42-3.35-1.54-4.32-.06-.49-.52-.82-1-.71-1.25,.27-3.4,.38-4.35-1.65-.21-.45-.79-.61-1.19-.31-.9,.68-2.56,1.54-5.16,1.45-.71-.03-1.12,.78-.68,1.34,1.4,1.8,3.13,5.16,2.84,10.62-.27,5.1-.14,10.4,.09,14.72,.05,1,1.5,1.07,1.64,.07,.78-5.52,2.07-12.19,4.02-15.37,1.38-2.24,2.66-3.04,3.74-3.38,2.63-.82,5.8,.93,5.8,.93,0,0-3.3-1.86-4.22-3.39Z"/><path class="cls-1" d="M487.15,60.07c-1.19-.17-2.68,1.71-7.76-1.48-6.21-3.9-6.57-3.1-6.59-3.02,.03-.01,.37,.11,3.5,2.15,3.98,2.59,5.46,4.21,7.26,4.32,0,0-3.29,6.54-12.39-2.09,0,0,1.7,4.94,9.13,5.88,5.46,.69,11.84-5.02,6.87-5.75Z"/><path class="cls-1" d="M461.73,44.69l.16,.08c1.12,.56,2.45,.39,3.41-.42,16.44-13.99,23.39-.26,23.39-.26-6.27-19.64-21.06-9.16-27.49-3.44-1.3,1.16-1.03,3.26,.53,4.04Z"/><path class="cls-1" d="M442.63,107.69c-1.05,.42-1.74,.69-1.74,.69,.62-.21,1.19-.44,1.74-.69Z"/><path class="cls-1" d="M446.72,108.23c-.38,.29-.79,.57-1.24,.83,0,0,.5-.33,1.24-.83Z"/><path class="cls-1" d="M449.83,108.3c-.64,.63-1.07,1.04-1.07,1.04,.39-.34,.75-.69,1.07-1.04Z"/><path class="cls-1" d="M431.91,51.95c.1,0,.19-.04,.24-.12,.05-.08,.06-.18,.02-.27-.29-.58-.91-2.25-.31-2.96,.39-.47,1.32-.49,2.69-.08,.08,.02,.17,0,.24-.04,.07-.05,.11-.13,.11-.22,0-.01,.01-1.49,.89-1.97,.62-.34,1.6-.12,2.83,.65,.07,.04,.16,.05,.23,.03,.08-.03,.14-.09,.17-.16,0-.02,.62-1.62,1.92-1.95,.83-.21,1.78,.13,2.83,1.03,.07,.06,.17,.08,.26,.05,.09-.03,.16-.1,.18-.19,.2-.75,.98-2.73,2.2-2.96,.83-.15,1.78,.5,2.83,1.94l.44-.32c-1.18-1.63-2.32-2.35-3.37-2.16-1.42,.26-2.21,2.12-2.5,2.96-1.07-.82-2.08-1.12-3-.89-1.21,.31-1.9,1.45-2.16,1.99-1.31-.76-2.36-.93-3.12-.5-.85,.47-1.09,1.54-1.15,2.1-1.44-.38-2.43-.26-2.94,.35-.73,.86-.23,2.42,.06,3.16-1.09,.02-1.85,.35-2.27,.98-.84,1.26,.05,3.21,.09,3.29l.49-.23s-.8-1.76-.13-2.76c.36-.54,1.11-.79,2.23-.74Z"/><path class="cls-1" d="M420.37,53.81c-.64-1.98,.58-3.9,1.85-5.34,.31-.35,.63-.77,1.05-.98,.53-.26,1.17-.1,1.7,.05,1,.27,1.91,.74,2.74,1.35,.26,.2,.61-.07,.62-.35,.05-1.42,.38-2.87,1.05-4.13,.34-.65,.83-1.19,1.62-1.18,.76,0,1.49,.38,2.15,.72,.25,.13,.64-.03,.62-.35-.14-1.7-.19-3.8,1.28-4.98,1.57-1.26,3.74-.2,5.26,.6,.21,.11,.55,.03,.6-.24,.38-2.15,2.8-2.52,4.56-1.91,1.71,.59,3.05,1.92,3.8,3.54,.22,.48,.93,.06,.71-.41-.93-2.01-2.78-3.64-4.97-4.11-1.88-.41-4.09,.3-4.74,2.2-1.73-.87-3.88-1.66-5.6-.4-1.61,1.18-1.84,3.19-1.76,5.05-1.32-.58-2.82-.86-3.83,.44-.94,1.21-1.37,2.89-1.51,4.44-.86-.54-1.81-.96-2.81-1.16-1.28-.26-2.11,.14-2.96,1.08-1.52,1.69-2.97,3.96-2.21,6.31,.16,.5,.95,.29,.79-.22Z"/><path class="cls-1" d="M437.75,94.5c-.79,.31-1.5,1.27-2.41,.95-.97-.34-1.29-1.44-1.57-2.32-.1-.32-.44-.37-.68-.18-1.37,1.08-2.85-.48-3.2-1.76-.21-.78-.22-1.59-.11-2.38,.65-.58,.89-1.52,.51-2.35-.16-.36-.63-.19-.75,.1-.22,.54-.39,1.13-.51,1.74-.42,.21-.95,.27-1.37,.13-1.06-.37-1.65-1.45-2-2.45-.77-2.16-.74-4.51,0-6.67,.11-.33-.22-.54-.5-.5-1.35,.2-2.47-1.27-3.13-2.26-.64-.96-1.12-2.02-1.39-3.13-.46-1.87-.24-4.27,1.49-5.43,.44-.29,.03-1-.41-.71-2.13,1.42-2.44,4.26-1.81,6.57,.38,1.39,1.05,2.7,1.94,3.83,.75,.94,1.69,1.83,2.88,1.93-.78,2.73-.67,6.23,1.15,8.49,.71,.88,1.91,1.48,3.03,1.18-.08,1.13,.09,2.26,.64,3.22,.73,1.28,2.29,1.96,3.61,1.35,.33,.94,.78,1.87,1.74,2.3,.45,.2,.95,.27,1.43,.11,.63-.2,1.06-.73,1.66-.97,.48-.19,.27-.98-.22-.79Z"/><path class="cls-1" d="M447.9,46.97c-.98-.16-1.99,.25-2.32,1.19-.92-.46-2.05-.88-2.96-.21-.83,.62-.95,1.68-.91,2.65-.66-.3-1.41-.46-1.96,.15-.56,.62-.77,1.57-.84,2.42-.88-.57-2.08-1.03-2.9-.2-.89,.9-1.67,2.15-1.3,3.45,.07,.25,.47,.15,.39-.11-.32-1.1,.34-2.12,1.05-2.91,.43-.48,.94-.54,1.55-.35,.46,.15,.87,.38,1.26,.66,.13,.1,.3-.04,.31-.18,.03-.72,.18-1.43,.5-2.07,.47-.94,1.25-.76,2.04-.35,.13,.07,.32-.01,.31-.18-.07-.89-.1-1.94,.64-2.58,.83-.72,1.98-.16,2.81,.27,.11,.06,.27,.01,.3-.12,.27-1.25,1.68-1.35,2.66-.91,.79,.35,1.38,.99,1.75,1.76,.11,.24,.47,.03,.35-.21-.53-1.1-1.53-1.98-2.76-2.18Z"/><path class="cls-1" d="M425.62,61.32c.7-.42,1.69-1.25,2.55-1.09,.83,.15,1.28,1.09,1.61,1.77,.23,.47,.93,.06,.71-.41-.46-.95-1.13-2.03-2.28-2.17-1.25-.16-2.5,.9-3.51,1.51-2.51,1.51-5.06,3.07-7.94,3.75-1.47,.35-3.14,.52-4.55-.12-1.21-.55-2.24-1.91-1.92-3.3,.32-1.36,1.81-2.01,3.03-2.32,1.59-.41,3.24-.41,4.86-.36,3.58,.1,7.03-.01,10.52-.89,.51-.13,.29-.92-.22-.79-3.42,.86-6.8,.96-10.31,.86-2.59-.07-6.37-.15-8.14,2.16-1.67,2.18,.19,4.95,2.48,5.63,2.84,.84,6.05-.37,8.58-1.63,1.55-.77,3.03-1.68,4.51-2.58Z"/><path class="cls-1" d="M367.29,144.36c.12-.54,.18-1.09,.16-1.64,.03-.62-.21-1.23-.65-1.67-.19-.2-.43-.34-.7-.41-.63-.17-1.3,.05-1.72,.55,.26,.27,.39,.88,.39,1.83-.03,1.11-.22,2.22-.57,3.27-.86,2.78-2.8,4.5-5.81,5.21-1.17,.31-2.41-.19-3.04-1.23v-8.15c.01-.59,.2-1.16,.55-1.64,.5-.58,1.07-1.09,1.71-1.52-.69-.11-1.33-.41-1.86-.86-.3-.35-.44-.81-.39-1.27v-7.85c.21-.53,.57-.99,1.02-1.34,.41-.32,.87-.56,1.38-.69,.36-.12,.75-.1,1.09,.06,.13-.21,.2-.45,.2-.7,0-.48-.32-.91-.79-1.03-.29-.11-.6-.16-.91-.17-.46,0-.92,.07-1.36,.19-.7,.22-1.34,.59-1.88,1.09-.68-.25-1.43-.28-2.13-.08-.79,.21-1.52,.61-2.13,1.16-.64-.25-1.35-.28-2.01-.09-.72,.19-1.38,.55-1.94,1.04-.22,.2-.4,.44-.55,.7-.13,.22-.21,.48-.21,.74-.01,.22,.06,.43,.2,.59,.28-.29,.64-.5,1.03-.59,1.09-.29,1.84-.01,2.25,.83v7.87c-.01,.65-.23,1.28-.62,1.81-.47,.57-1.02,1.06-1.64,1.46,.7,.11,1.35,.41,1.89,.86,.27,.33,.4,.75,.35,1.17v9.12c-.36,1.01-1.21,1.77-2.25,2.02-.34,.11-.7,.1-1.03-.04-.13,.21-.2,.45-.2,.7,0,.48,.32,.89,.79,1,.29,.1,.59,.14,.9,.14,.44-.02,.88-.09,1.31-.21,.65-.21,1.25-.57,1.74-1.05,.69,.24,1.45,.25,2.15,.04,.81-.22,1.55-.64,2.15-1.23,1.3,.18,2.63,.08,3.89-.29,1.6-.36,3.11-1.03,4.46-1.95,.48-.36,1.01-.64,1.59-.82,.52-.11,.77,.11,.77,.69,0,.28-.02,.56-.07,.83,.29,.07,.6,.07,.89,0,.67-.15,1.27-.54,1.68-1.09,.21-.28,.37-.59,.49-.92,.12-.36,.18-.75,.17-1.13-.03-.49-.25-.95-.61-1.29,.48-.65,.74-1.44,.73-2.24,.07-.72-.26-1.41-.85-1.82Zm-15.8-7.08v4.91c-.01,2.47-.05,4.4-.11,5.81-.06,1.41-.4,2.31-1.01,2.7l.04-2.42c0-3.77-.07-5.93-.22-6.49-.1-.35-.51-.56-1.25-.63,.58-.29,1.02-.79,1.25-1.39,.15-.64,.22-3.12,.22-7.44,.26,.08,.49,.23,.67,.44,.24,.24,.38,1.09,.41,2.55v1.96Z"/><path class="cls-1" d="M391.61,145.52c-.67,.1-1.18-.29-1.54-1.16v-5.6c0-.56,.17-1.11,.5-1.57,.43-.49,.94-.89,1.51-1.2-.58-.07-1.13-.32-1.56-.72-.33-.4-.49-.91-.45-1.42v-1.51c.03-1.04-.13-2.08-.47-3.06-.94-2.49-3.56-3.41-7.84-2.67-2.36,.35-4.56,1.37-6.36,2.94-1.38,1.24-2.14,2.36-2.29,3.35-.12,.77-.52,1.47-1.13,1.96,.17,.25,.41,.44,.69,.55,.25,.1,.53,.13,.8,.08,.22-.04,.43-.11,.64-.2,.31,.64,1.01,.99,1.71,.85,.64-.07,1.22-.43,1.56-.98-.02,0-.04,0-.06,0-.26-.04-.43-.28-.39-.54v-.05c.24,.04,.49,.04,.73,0,.85-.16,1.49-.88,1.56-1.74-.99,.21-1.48-.17-1.48-1.15,0-.63,.26-1.22,.73-1.64,.65-.54,1.43-.88,2.27-.98,1.02-.18,1.78-.03,2.29,.46,.5,.49,.75,1.35,.75,2.58v2.8c-.53,.65-1.22,1.15-2.01,1.45-.51,.22-1.04,.4-1.58,.55-.57,.16-1.49,.36-2.73,.62-1.23,.26-2.39,.78-3.4,1.53-.98,.76-1.69,1.81-2.04,3-.31,1.09-.98,2.05-1.91,2.7,.41,.11,.8,.28,1.15,.52,.34,.27,.57,.66,.65,1.09,.21,.8,.63,1.54,1.22,2.12,1.38,1.39,3.43,1.81,6.19,1.32,2.06-.28,3.9-1.41,5.08-3.12,.11,.6,.49,1.11,1.04,1.39,.26,.13,.55,.22,.85,.24,.36,.03,.73,.01,1.09-.05,.54-.14,1.04-.42,1.42-.82,.61,.31,1.31,.41,1.98,.29,.6-.05,1.16-.31,1.59-.72,.32-.28,.51-.67,.55-1.09,.02-.3-.08-.6-.26-.85-.29,.26-.66,.42-1.05,.47Zm-15.69,2.35c-1.03-.69-1.75-1.74-2.02-2.95-.07-.26-.51-.49-1.3-.7,.82-.53,1.25-.93,1.3-1.21,.16-.85,.48-1.66,.93-2.4,.29-.42,.66-.78,1.09-1.05,.1,.03,.17,.13,.17,.23-.04,.23-.12,.44-.24,.64l-.31,.55c-.13,.21-.23,.43-.32,.67-.1,.28-.18,.58-.22,.87-.07,.53-.09,1.06-.08,1.6,.07,.95,.39,1.86,.93,2.64,.15,.22,.24,.47,.26,.73,0,.15-.08,.28-.19,.37Zm7.89-4.55c.02,.79-.2,1.56-.63,2.22-.38,.6-.99,1.01-1.69,1.14-.8,.2-1.64-.12-2.1-.8-.24-.37-.41-.78-.5-1.22-.12-.49-.17-1-.17-1.5,0-2.5,.68-3.98,2.05-4.43,1.09-.32,2.12-.82,3.05-1.48v6.08Zm2.91-6.13v1.79c-.03,2.47-.41,3.9-1.14,4.31v-12.42c.27,.1,.51,.28,.68,.5,.24,.26,.38,1.17,.43,2.73,.03,.44,.03,.89,.03,1.37v1.72Z"/><path class="cls-1" d="M432.51,141.36c-.24,.21-.54,.34-.86,.35-.72,.09-1.4-.38-1.56-1.09v-5.82c0-.53,.19-1.04,.55-1.42,.53-.47,1.12-.85,1.77-1.15-.69-.25-1.33-.62-1.9-1.09-.3-.35-.44-.81-.39-1.27,.02-.41,.05-.83,.05-1.25,0-2.24-.55-3.97-1.64-5.18-.54-.58-1.22-1.02-1.96-1.29-.79-.29-1.63-.4-2.46-.34-.8,.04-1.58,.19-2.34,.46-2.03,.68-3.69,2.18-4.57,4.14-.34-1.17-1.09-2.17-2.1-2.84-1.11-.65-2.41-.91-3.68-.73-.65,.06-1.29,.22-1.89,.45-1.85,.71-3.39,2.05-4.37,3.77v-1.55c0-1.34-.64-1.94-1.93-1.79-.89,.17-1.67,.68-2.18,1.42-.71-.22-1.45-.26-2.18-.14-.9,.13-1.72,.6-2.29,1.31-.25,.29-.44,.63-.58,.98-.12,.28-.19,.58-.2,.89,0,.26,.09,.5,.26,.7,.25-.24,.56-.39,.9-.44,.27-.04,.53-.06,.8-.07,.73-.01,1.09,.52,1.09,1.57v2.73c0,.59-.22,1.16-.62,1.59-.5,.46-1.05,.85-1.64,1.17,.7,.2,1.36,.55,1.93,1.01,.27,.32,.4,.74,.35,1.15v5.82c-.17,.74-.79,1.29-1.55,1.36-.36,.07-.73,0-1.05-.17-.16,.28-.23,.6-.21,.92,.02,.36,.21,.69,.5,.91,.46,.33,1.05,.44,1.6,.3,.72-.09,1.4-.38,1.96-.85,.58,.32,1.25,.45,1.9,.36,.65-.07,1.27-.33,1.78-.75,.49,.31,1.07,.43,1.64,.35,.55-.04,1.08-.26,1.5-.63,.35-.28,.56-.71,.57-1.16,.04-.33-.09-.65-.34-.87-.24,.23-.54,.38-.86,.43-.53,.06-1.03-.27-1.18-.78,.03-3.96,.04-7.92,.04-11.89,.12-.97,.5-1.89,1.09-2.66,.51-.73,1.3-1.21,2.18-1.32,.4-.05,.81-.01,1.2,.1,1.14,.33,1.71,1.66,1.71,3.99v11.1c-.15,.55-.62,.96-1.18,1.03-.31,.02-.61-.07-.86-.25-.18,.18-.29,.43-.28,.68-.04,.49,.16,.97,.55,1.29,.43,.29,.95,.4,1.46,.32,.61-.06,1.18-.31,1.64-.72,.54,.33,1.18,.47,1.81,.39,.67-.05,1.3-.3,1.83-.71,.48,.32,1.06,.47,1.64,.42,.54-.02,1.06-.22,1.46-.58,.34-.29,.54-.71,.55-1.15,.04-.31-.07-.63-.28-.86-.24,.22-.54,.37-.87,.4-.54,.06-1.05-.29-1.18-.82,.01-3.97,.03-7.94,.05-11.91,.15-.96,.55-1.86,1.15-2.62,.41-.64,1.08-1.07,1.83-1.18,2.12-.16,3.21,1.24,3.21,4.16v11.1c-.15,.55-.62,.94-1.18,.99-.31,.02-.62-.08-.86-.28-.19,.17-.29,.42-.28,.68-.04,.5,.16,.98,.55,1.3,.42,.3,.94,.43,1.45,.37,.6-.04,1.18-.27,1.64-.67,.55,.35,1.19,.5,1.83,.45,.65-.04,1.28-.28,1.81-.67,.6,.36,1.3,.54,2,.5,.58,.02,1.15-.19,1.58-.59,.29-.26,.47-.61,.5-1,.03-.21-.02-.42-.14-.6-.09-.08-.18-.18-.26-.28Zm-30.77-5.12c0,.71-.02,1.51-.07,2.42-.08,1.19-.41,2.01-.99,2.45v-1.19c.05-1.34-.02-2.69-.22-4.02-.1-.35-.52-.61-1.27-.77,.34-.14,.64-.35,.91-.6,.23-.25,.38-.55,.45-.88,.14-1.24,.19-2.48,.14-3.72v-1.21c.44,.21,.74,.76,.92,1.64,.13,1.17,.18,2.35,.15,3.53v2.37Zm12.43,.96c-.07,1.4-.41,2.24-1.03,2.54v-7.09c0-2.63-.17-4.38-.54-5.26,.66,.31,1.14,.92,1.29,1.63,.16,.58,.26,1.18,.3,1.78,.09,.71,.09,1.61,.09,2.68s-.04,2.31-.11,3.71Zm12.51-.93c-.07,1.4-.41,2.23-1.04,2.5v-7.09c0-2.63-.18-4.39-.54-5.28,.66,.33,1.14,.95,1.3,1.68,.16,.59,.26,1.19,.3,1.79,.09,.72,.09,1.62,.09,2.69s-.03,2.31-.11,3.71Z"/><path class="cls-1" d="M457.29,128.69c-.29-2.94-1.06-5-2.31-6.16-.63-.58-1.39-1-2.22-1.22-.8-.22-1.62-.34-2.44-.34-.64-.01-1.28,.04-1.9,.17-1.46,.3-2.8,1-3.87,2.03v-7.98c0-1.34-.65-2.01-1.94-1.98-.79,.01-1.57,.46-2.31,1.33-.7-.11-1.42-.15-2.13-.11-.81,0-1.6,.24-2.26,.71-.24,.18-.44,.41-.59,.67-.13,.23-.2,.49-.2,.75,0,.26,.1,.52,.26,.73,.3-.23,.67-.36,1.05-.35,1.17-.04,1.75,.65,1.75,2.07v10.56c0,.57-.21,1.11-.62,1.51-.51,.41-1.07,.75-1.68,1,.72,.28,1.37,.69,1.94,1.21,.27,.33,.4,.76,.35,1.18v5.18c0,.58-.03,1.21-.03,1.89,.01,.54-.15,1.08-.45,1.52,.29,.32,1.06,.45,2.33,.42,1.55-.09,3.03-.71,4.18-1.76,.37,.28,.76,.52,1.18,.71,1.21,.64,2.55,.98,3.91,1,2.47,0,4.36-.76,5.66-2.3,1.19-1.41,1.97-3.61,2.34-6.6,.06-.54,.27-1.06,.6-1.5,.49-.46,1.07-.82,1.7-1.06-1.33-.56-2.22-1.83-2.3-3.27Zm-14.59,9.38c-.26-.11-.47-.3-.61-.55-.19-.29-.31-.63-.35-.97-.05-.36-.09-1.21-.11-2.55-.04-.62-.04-1.51-.04-2.66-.02-1.15-.03-2.06-.03-2.73v-3.47c-.03-1.36,.03-2.72,.2-4.07,.07-.58,.44-1.09,.97-1.35l-.02,18.34Zm8.22-1.82c0,2.99-1.05,4.48-3.14,4.48-.86,0-1.67-.39-2.22-1.04-.68-.68-1.05-1.62-1.04-2.58l-.02-9c-.02-.71,.09-1.42,.32-2.1,.42-1.44,1.78-2.4,3.27-2.32,.41-.01,.81,.06,1.18,.22,1.09,.44,1.64,1.82,1.64,4.16v8.19Zm2.94-3.74c0,.68-.05,1.71-.11,3.11-.06,1.39-.41,2.2-1.03,2.43v-12.42c.28,.15,.51,.35,.69,.6,.23,.3,.38,1.36,.43,3.18,.03,.49,.03,.96,.03,1.41v1.7Z"/><path class="cls-1" d="M485.04,118.91c-1.15-.95-2.58-1.51-4.08-1.59-1.31-.13-2.62,.29-3.6,1.17-1.02,.83-1.67,2.02-1.82,3.33-.8-.21-1.61-.34-2.43-.39-2.43-.14-4.41,.3-5.96,1.3-.67,.44-1.26,1.01-1.72,1.66-.44,.63-.79,1.31-1.04,2.03-.2,.62-.49,1.2-.86,1.72-.38,.47-.88,.83-1.44,1.05,.62,.28,1.17,.68,1.64,1.17,.29,.41,.51,.87,.64,1.36,.48,1.89,1.57,3.58,3.1,4.79-2.18,1.09-3.27,2.55-3.27,4.37-.01,1.18,.48,2.31,1.35,3.11-.42,.2-.81,.44-1.16,.74-1.05,.89-1.6,1.87-1.6,2.91,0,1.57,.79,2.85,2.42,3.95,1.9,1.23,4.62,1.92,8.19,2.13,3.01,.18,5.56-.25,7.64-1.34,.94-.48,1.76-1.17,2.38-2.02,.57-.75,.88-1.66,.88-2.59,.02-.8-.17-1.59-.55-2.29-1.01-1.81-3.25-3.12-6.7-3.87-.33-.08-.61-.29-.79-.58-.27-.44-.42-.94-.43-1.45-.86,1.15-1.7,1.62-2.52,1.41-1.26-.19-2.49-.56-3.65-1.09-.28-.14-.51-.35-.68-.62-.13-.25-.2-.53-.19-.81,0-.32,.21-.59,.62-.83,1.21,.43,2.48,.67,3.76,.73,2.29,.13,4.12-.24,5.56-1.14,1.44-.9,2.49-2.37,3.17-4.43,.09-.28,.2-.55,.34-.81,.47-.69,1.15-1.2,1.94-1.46-1.16-.64-1.99-1.74-2.29-3.03-.63-2.14-2.08-3.78-4.37-4.91,.24-2.14,1.06-3.17,2.46-3.06,.05,0,.1,0,.15,0,.56,.04,.98,.53,.94,1.09-.02,.32-.17,.61-.41,.82-.31,.3-.7,.51-1.12,.59,.23,.45,.68,.76,1.18,.8,.91,.07,1.5-.12,1.76-.58,.2,.17,.31,.42,.32,.69,.01,.23-.09,.46-.28,.6,.3,.13,.63,.19,.96,.19,1.31,.11,2.04-.65,2.18-2.32,.82-.21,1.21-.81,1.16-1.81-.67,.03-1.32-.21-1.8-.67Zm-17.64,15.64c-.5-.89-.86-1.86-1.06-2.86l-.38-1.58c-.04-.16-.39-.42-1.05-.77,.65-.26,1-.49,1.05-.67,.13-.6,.31-1.3,.55-2.08,.22-.76,.6-1.47,1.12-2.07,.09,.07,.15,.17,.15,.28v.45c-.01,.24-.06,.48-.13,.7-.34,1.13-.51,2.3-.51,3.48,0,1.2,.17,2.4,.51,3.55,.09,.31,.13,.62,.13,.94,0,.26-.15,.5-.38,.64Zm11.7,15.59c-.83,.92-2.65,1.26-5.46,1.09-1.95-.04-3.86-.54-5.58-1.45-1.29-.74-1.94-1.54-1.94-2.38-.08-.92,.46-1.78,1.33-2.1,1.2,.53,2.47,.9,3.77,1.1,.29,.09,.54,.28,.69,.55,.26,.47,.38,1,.34,1.53,1.02-1.03,1.87-1.48,2.56-1.36,1.07,.16,2.12,.42,3.14,.79,.4,.14,.77,.35,1.09,.62,.26,.19,.41,.48,.43,.8,0,.31-.14,.6-.36,.81Zm-9.94-6.91c.67,.28,1.36,.51,2.06,.7,.74,.2,2.04,.46,3.88,.79,1.5,.24,2.96,.64,4.37,1.2,.51,.18,.97,.47,1.35,.84,.24,.23,.39,.53,.41,.86,.02,.24-.06,.48-.22,.65-.66-.84-1.56-1.47-2.57-1.8-1.25-.39-2.53-.69-3.82-.89-.3,0-.6,.07-.87,.2-.43,.16-.68,.37-.74,.64-.19-.86-.5-1.35-.94-1.47-3.81-.89-5.74-1.98-5.79-3.32-.01-.17,.05-.33,.16-.46,.44,.78,1.36,1.47,2.73,2.06Zm6.2-10.51c0,1.21-.18,2.05-.55,2.54-.17,.24-.41,.41-.69,.51-.32,.09-.64,.12-.97,.1-.33-.01-.66-.09-.97-.21-.34-.18-.63-.45-.83-.78h-.02c-.27-.4-.41-1.21-.38-2.41v-5.17c0-1.21,.17-2.06,.55-2.56,.17-.23,.4-.41,.68-.5,.31-.09,.64-.13,.97-.1,.33,.02,.66,.09,.97,.22,.34,.18,.62,.45,.82,.79,.28,.4,.41,1.21,.41,2.42v5.17Zm2.8-6.26c.13,1.19,.19,2.39,.15,3.59,0,1.22-.04,2.25-.13,3.27-.09,1.03-.42,1.62-1,1.77v-10.07c.54,.29,.9,.82,.98,1.43Z"/><path class="cls-1" d="M508.72,134.74c-.27-.56-.45-1.17-.51-1.8-.34-2.3-1.45-4.42-3.15-6-1.77-1.75-4.08-2.85-6.55-3.14-2.25-.35-4.55,.18-6.42,1.48-1.78,1.21-2.96,3.12-3.24,5.25-.05,.3-.12,.59-.21,.88-.28,1.02-1.07,1.82-2.08,2.13,.68,.35,1.28,.83,1.78,1.42,.16,.2,.27,.42,.35,.67,.12,.51,.2,1.02,.25,1.54,.16,1,.44,1.97,.83,2.9,.43,1.12,1.06,2.15,1.84,3.05,1.69,1.88,4.01,2.99,6.95,3.35,2.76,.34,4.94-.12,6.58-1.41s2.66-3.37,3.06-6.24c.07-.54,.29-1.04,.64-1.46,.48-.4,1.04-.68,1.64-.83-.73-.44-1.34-1.05-1.77-1.78Zm-16.31,4.07c.1,.35,.15,.7,.17,1.06-.01,.18-.11,.34-.26,.43-.27-.43-.51-.87-.73-1.32-.51-1.34-.9-2.72-1.15-4.13-.04-.32-.41-.67-1.09-1.04,.66-.25,1.03-.53,1.09-.86,.17-.77,.4-1.67,.68-2.69,.2-.87,.61-1.69,1.2-2.37,.19,.18,.28,.43,.27,.68-.03,.28-.08,.56-.17,.83-.17,.62-.34,1.35-.51,2.18-.08,.43-.14,.85-.19,1.27-.06,.59-.09,1.19-.08,1.78,.11,1.41,.37,2.8,.77,4.16Zm9.32,.93c0,2.98-1.09,4.33-3.2,4.07-2.11-.26-3.17-1.87-3.17-4.86v-8.26c0-3.11,1.06-4.54,3.18-4.28h0c2.13,.27,3.18,1.96,3.18,5.07v8.26Zm2.94-5.14v1.7c0,.68-.05,1.71-.11,3.09s-.4,2.15-1.03,2.3l.04-12.42c.27,.18,.49,.42,.67,.69,.23,.33,.38,1.41,.43,3.23v1.41Z"/><path class="cls-1" d="M534.38,150.38c-.67-.14-1.18-.72-1.54-1.73v-5.59c-.02-.51,.16-1.01,.5-1.39,.43-.34,.95-.56,1.5-.64-.61-.31-1.13-.75-1.54-1.29-.31-.47-.47-1.03-.45-1.59v-1.51c.02-1.09-.14-2.18-.46-3.23-.94-2.8-3.53-4.71-7.8-5.53-2.57-.49-4.69-.28-6.36,.61-1.38,.75-2.14,1.58-2.29,2.52-.08,.68-.51,1.27-1.14,1.54,.17,.31,.41,.58,.7,.79,.23,.19,.51,.32,.8,.38,.21,.04,.43,.05,.64,.04,.29,.74,.93,1.29,1.71,1.47,.56,.19,1.17,.02,1.56-.41-.28-.11-.46-.39-.45-.69v-.06c.23,.13,.47,.22,.73,.26,.85,.15,1.36-.23,1.56-1.17-.02,0-.04,0-.06,0-.86-.07-1.5-.83-1.42-1.69-.04-.56,.25-1.1,.73-1.39,.72-.31,1.52-.36,2.27-.15,.9,.13,1.71,.59,2.28,1.3,.55,.84,.82,1.84,.75,2.85v2.8c-.56,.47-1.27,.72-2,.71-.53,.02-1.06,0-1.58-.05-.55-.06-1.49-.19-2.73-.39-1.14-.2-2.31-.1-3.41,.29-.99,.4-1.74,1.23-2.05,2.25-.27,.95-.99,1.7-1.92,2,.42,.27,.81,.59,1.16,.94,.33,.37,.56,.82,.65,1.31,.23,.93,.65,1.81,1.23,2.58,1.38,1.89,3.47,3.07,6.19,3.57,2.25,.42,3.94,0,5.07-1.27,.11,.72,.47,1.38,1.02,1.87,.25,.22,.54,.4,.84,.55,.35,.16,.72,.27,1.09,.34,.49,.07,1-.04,1.42-.31,.55,.5,1.23,.85,1.96,1.02,.52,.17,1.1,.12,1.58-.14,.32-.19,.53-.53,.55-.9,0-.33-.09-.66-.26-.94-.32,.16-.69,.19-1.03,.09Zm-15.64-3.45c-1-1.02-1.7-2.28-2.02-3.67-.07-.29-.51-.68-1.3-1.17,.82-.23,1.26-.48,1.3-.73,.14-.75,.46-1.46,.93-2.06,.29-.32,.67-.55,1.09-.65,.1,.07,.16,.18,.17,.3-.04,.2-.12,.38-.24,.55-.09,.13-.19,.26-.31,.41-.12,.17-.23,.35-.31,.55-.11,.25-.18,.52-.22,.79-.07,.52-.1,1.05-.09,1.57,.09,1.05,.41,2.07,.93,2.98,.14,.26,.23,.54,.26,.83,0,.13-.07,.25-.19,.3Zm7.88-1.66c.04,.72-.18,1.43-.63,1.99-.43,.46-1.07,.66-1.69,.51-.9-.17-1.68-.75-2.1-1.57-.23-.44-.4-.91-.5-1.4-.11-.51-.16-1.04-.16-1.56,0-2.51,.68-3.73,2.04-3.69,1.03,.09,2.07-.03,3.05-.36v6.08Zm2.89-5.09v1.81c-.04,2.46-.41,3.75-1.13,3.89l.02-12.44c.27,.2,.49,.46,.67,.74,.22,.36,.36,1.33,.41,2.9,.03,.44,.03,.9,.03,1.38v1.73Z"/><path class="cls-1" d="M553.11,150.03c-.25-.04-.5-.05-.75-.04-.38,0-.61,.09-.7,.26,.05,.39,.08,.77,.08,1.16,0,.39-.07,.78-.2,1.14-.11,.31-.3,.58-.55,.79-.25,.2-.55,.33-.87,.36-.31,.04-.63,.02-.94-.07-.32-.08-.63-.21-.91-.38-.97-.62-1.45-1.99-1.45-4.17v-12.63c1.44,.35,2.87,.71,4.3,1.09,.42,.14,.88,.11,1.28-.08,.36-.18,.58-.57,.55-.98,.02-.35-.03-.7-.14-1.04-1.99-.53-3.98-1.05-5.97-1.56v-7.78c-.51-.19-1.07-.08-1.47,.28-.44,.56-.72,1.22-.82,1.93-.24-.37-.61-.63-1.04-.72-.45-.12-.96,.21-1.54,.97-.68,.93-1.02,2.07-.98,3.22v.59c-1.23-.49-2.14-.48-2.73,.03-.23,.19-.4,.44-.49,.72-.09,.26-.13,.53-.14,.81,0,.29,.1,.56,.26,.8,.32-.16,.69-.19,1.03-.08,1.17,.26,1.71,1.11,1.71,2.53v2.18c.04,1.19-.75,2.24-1.9,2.53,1.27,.93,1.9,1.7,1.9,2.29v2.28c-.03,1.27,.18,2.54,.61,3.74,1.11,2.86,3.36,4.69,6.74,5.56,1.54,.47,3.21,.34,4.66-.37,.57-.29,1.07-.71,1.44-1.23,.36-.5,.55-1.1,.55-1.71,.02-.56-.13-1.11-.43-1.59-.25-.41-.64-.7-1.09-.83Zm-9.62-5.11c0,.47-.03,1.12-.08,1.95-.08,1.17-.4,1.87-.98,2.1v-1.2c.05-1.42-.03-2.84-.22-4.25-.1-.4-.51-.81-1.26-1.25,.71-.09,1.15-.29,1.26-.64,.03-.11,.08-.22,.14-.32,.09-.91,.12-1.82,.08-2.73v-5.82c.46,.46,.76,1.05,.85,1.7,.12,.9,.17,1.82,.16,2.73,.05,.61,.05,1.26,.05,1.92v4.65c0,.29,0,.68,0,1.15Z"/></g><path class="cls-2" d="M131.93,176.47c.63-.81,.93-1.49,.87-2.01-.02-.23-.1-.4-.23-.5-.15-.12-.39-.17-.71-.13-.44,.05-.96,.24-1.54,.57,.69,.54,1.23,1.23,1.6,2.07Z"/><path class="cls-2" d="M122.29,189.11c.54,.41,1.23,.58,2.05,.49,.2-.02,.39-.05,.57-.09-.08-.98-.42-1.77-1.04-2.35h0c-.62-.59-1.45-.93-2.49-1.03-.06,.41-.07,.81-.03,1.21,.08,.78,.39,1.36,.93,1.77Z"/><path class="cls-2" d="M97.3,197.58c-3.95,2.07-5.92,3.88-5.87,5.37,.01,.37,.13,.78,.96,.76,.89-.03,1.79-.55,2.66-1.54,.86-.98,1.92-2.68,3.15-5.05-.23,.12-.53,.28-.9,.47Z"/><path class="cls-2" d="M122.23,183.48c1.46-.56,3.01-1.4,4.62-2.5,1.73-1.19,3.29-2.52,4.63-3.97-.34-.94-.91-1.71-1.72-2.28-1.51,.98-3,2.33-4.42,4.01-1.34,1.58-2.38,3.17-3.1,4.74Z"/><path class="cls-2" d="M124.05,193.63c-.93,1.19-1.95,1.85-3.03,1.97-.6,.06-1.12-.07-1.56-.39-.45-.33-.7-.78-.76-1.32-.06-.56,.08-1.08,.41-1.57,.34-.49,.76-.77,1.24-.82,.75-.07,1.21,.26,1.29,.97,.03,.32-.06,.63-.29,.9-.22,.28-.5,.43-.81,.47-.81,.08-.99-.44-1.03-.76,0-.05,0-.11,0-.19-.02,.04-.03,.08-.05,.13-.1,.29-.13,.56-.11,.79,.04,.38,.21,.67,.51,.9,.31,.22,.66,.32,1.09,.27,.89-.09,1.77-.69,2.62-1.78,.79-1.01,1.23-2.02,1.3-3.02-.15,.03-.3,.05-.47,.07-1.24,.13-2.29-.19-3.1-.96-.76-.72-1.24-1.75-1.41-3.07-2.17,.42-4.02,1.58-5.5,3.45-1.52,1.93-2.17,4.01-1.94,6.2,.13,1.28,.72,2.28,1.75,2.97,1.04,.7,2.36,.97,3.92,.81,2.13-.23,4.02-1.2,5.6-2.89,1.61-1.72,3.4-4.69,5.34-8.85,.23-.51,.48-1.01,.73-1.51-1.56,1.84-3,3.04-4.28,3.58-.08,1.28-.57,2.51-1.46,3.65Z"/><path class="cls-2" d="M129.03,174.29c-.97-.53-2.15-.79-3.53-.79-.41,0-.84,.02-1.29,.07-2.56,.27-4.86,1.24-6.83,2.87-1.95,1.62-2.85,3.28-2.68,4.94,.11,1.01,.58,1.73,1.44,2.21,.88,.49,2.07,.65,3.54,.5l.34-.04c.76-3.59,3.79-6.87,9.01-9.77Z"/><path class="cls-2" d="M54.68,183.13c.1-.35-.03-.47-.27-.54-.12-.04-.25-.05-.39-.05-.75,0-1.84,.47-3.24,1.39-1.69,1.11-2.68,2.12-2.93,3-.13,.44-.02,.68,.38,.79,.36,.11,1.32-.15,3.78-1.96,2.02-1.5,2.58-2.26,2.68-2.63Z"/><path class="cls-2" d="M163.78,109.22c-.37-1.26-1.44-2.08-3.22-2.47-1.29-.28-2.34-.19-3.15,.27-.45,.26-.81,.61-1.08,1.05-.26,.45-.48,1.07-.65,1.86l-.71,3.28,8.02,1.73,.71-3.28c.23-1.05,.25-1.87,.08-2.45Z"/><path class="cls-2" d="M135.28,38.5c.52,.33,.9,.55,1.13,.66,.23,.11,.47,.17,.71,.19,.52,.04,.95-.21,1.3-.75,.34-.54,.39-1.04,.13-1.49-.12-.22-.27-.41-.46-.57-.19-.16-.55-.41-1.08-.75l-3.52-2.25-1.73,2.71,3.52,2.25Z"/><path class="cls-2" d="M84.49,187.91s-.08,0-.12,0c-.76,0-1.84,.67-3.21,2-1.45,1.4-2.24,2.58-2.32,3.5-.04,.46,.11,.67,.52,.71,.3,.04,1.16-.27,3.35-2.63,1.71-1.85,2.11-2.7,2.15-3.09,.02-.16,0-.28-.06-.35-.06-.07-.16-.11-.3-.13Z"/><polygon class="cls-2" points="65.09 147.05 65.82 142.32 61.74 144.86 65.09 147.05"/><path class="cls-2" d="M54.03,135.06c.2,.16,.41,.27,.64,.35,.49,.16,.97,.02,1.43-.42s.63-.91,.49-1.41c-.06-.24-.16-.46-.31-.66-.14-.2-.43-.52-.86-.97l-2.84-3-2.33,2.21,2.84,3c.42,.44,.73,.74,.93,.9Z"/><polygon class="cls-2" points="140.24 142 143.4 139.55 139.16 137.32 140.24 142"/><path class="cls-2" d="M144.67,184.76c.27-.62,.6-.97,1-1.07,.06-.01,.16-.02,.26,0,0-.22-.02-.45-.08-.68-.08-.32-.2-.54-.37-.65-.1-.07-.22-.1-.37-.1-.09,0-.18,.01-.29,.04-.76,.18-1.54,1.19-2.31,2.98-.79,1.82-1.06,3.26-.81,4.29,.06,.26,.17,.44,.31,.53,.14,.09,.33,.1,.58,.05,.89-.21,1.7-1.2,2.43-2.94-.3-.23-.49-.51-.56-.82-.12-.49-.05-1.03,.21-1.63Z"/><path class="cls-1" d="M48.88,42.75l-3.35,2.71,.18,.22c.25-.13,.47-.18,.68-.14,.21,.03,.53,.17,.94,.41l8.45,4.8c.41,.24,.64,.39,.7,.46,.21,.26,.18,.54-.09,.86l.18,.22,3.1-2.51-.18-.22c-.42,.19-.72,.18-.89-.03-.06-.07-.14-.3-.24-.68l-2.26-7.29,6.49,3.68c.41,.21,.66,.36,.73,.45,.21,.26,.17,.55-.11,.87l.18,.22,3.14-2.54-.18-.22c-.38,.21-.66,.21-.85-.02-.09-.11-.21-.39-.35-.83l-2.93-9.27c-.15-.49-.22-.82-.22-.99,0-.18,.1-.39,.28-.65l-.18-.22-3.31,2.68,.18,.22c.39-.21,.67-.21,.84,0,.1,.12,.2,.34,.3,.67l2.12,6.5-6.05-3.45c-.25-.14-.4-.25-.46-.32-.18-.22-.14-.5,.11-.84l-.18-.22-3.5,2.83,.18,.22c.36-.19,.63-.18,.81,.03,.06,.07,.13,.25,.22,.54l2.05,6.74-5.99-3.5c-.24-.14-.4-.26-.49-.37-.17-.21-.13-.47,.11-.77l-.18-.22Z"/><path class="cls-1" d="M76.76,25.64l-10.12,4.4,.11,.26c.22-.03,.39-.02,.51,.03,.12,.05,.21,.17,.28,.34l4.14,9.52c.07,.17,.09,.32,.05,.44-.04,.12-.15,.25-.32,.4l.12,.26,10.32-4.48c.17-.07,.31-.09,.43-.05,.12,.04,.25,.14,.4,.32l.27-.12-1.26-2.91-.27,.12c.03,.22,.02,.39-.04,.51-.06,.12-.17,.21-.33,.28l-7.31,3.17-1.34-3.08,4.61-2c.17-.07,.31-.09,.43-.05s.25,.15,.39,.31l.27-.12-1.24-2.84-.27,.12c.03,.22,.02,.39-.04,.51-.05,.12-.17,.21-.33,.28l-4.61,2-1.16-2.67,7.11-3.09c.17-.07,.31-.09,.43-.05,.12,.04,.25,.15,.39,.32l.27-.12-1.26-2.91-.27,.12c.03,.22,.02,.39-.04,.5-.05,.12-.17,.21-.33,.28Z"/><path class="cls-1" d="M87.16,25.31c.45-.25,.99-.43,1.62-.55,1.43-.28,2.74-.15,3.94,.37,.39,.16,.6,.34,.64,.54,0,.04,.01,.08,.02,.14l.28,.09,.9-3.12-.28-.08c-.14,.17-.27,.26-.4,.29-.08,.01-.3-.01-.67-.08-1.08-.22-1.98-.35-2.68-.38-.7-.03-1.44,.04-2.22,.19-1.85,.36-3.16,1.07-3.91,2.13-.58,.8-.77,1.71-.57,2.73,.12,.62,.37,1.14,.74,1.56,.41,.47,.91,.78,1.51,.94,.42,.12,.82,.18,1.22,.19,.4,.01,1.06-.03,2-.11l1.4-.13c.94-.08,1.57-.09,1.9-.03,.47,.09,.74,.33,.82,.73,.05,.26,0,.54-.13,.82-.14,.28-.35,.52-.63,.73-.51,.37-1.16,.64-1.95,.79-.72,.14-1.51,.17-2.37,.08-.86-.09-1.51-.27-1.96-.53-.3-.17-.47-.39-.53-.66,0-.02-.01-.06-.02-.11l-.28-.07-.74,3.21,.28,.08c.14-.16,.25-.25,.33-.26,.07-.01,.28,.02,.64,.11,1.72,.46,3.38,.53,4.99,.22,.9-.17,1.72-.45,2.46-.82,1-.49,1.68-1.09,2.07-1.78,.42-.77,.55-1.57,.39-2.42-.1-.53-.32-1.01-.65-1.44-.33-.43-.72-.74-1.18-.95-.45-.2-.95-.33-1.49-.38-.54-.05-1.24-.04-2.09,.03l-1.43,.13c-.96,.09-1.59,.12-1.89,.09-.58-.06-.92-.31-1.01-.76-.05-.28,0-.55,.18-.83,.17-.28,.42-.51,.75-.69Z"/><path class="cls-1" d="M109.61,24.37c.19,0,.33,.05,.42,.13,.1,.08,.17,.24,.23,.46h.29l.06-3.17h-.29c-.06,.21-.15,.36-.24,.44-.1,.08-.24,.12-.43,.12l-10.39-.2c-.18,0-.32-.05-.41-.13-.09-.08-.17-.24-.23-.46h-.29l-.06,3.17h.29c.06-.21,.15-.36,.24-.44,.1-.08,.24-.12,.42-.12l3.85,.07-.18,9.3c0,.19-.05,.33-.13,.42-.09,.09-.24,.17-.46,.23v.29l3.86,.07v-.29c-.21-.06-.36-.14-.44-.24-.08-.1-.12-.24-.12-.42l.18-9.3,3.84,.07Z"/><path class="cls-1" d="M112.79,34.82c-.05,.18-.13,.3-.24,.37-.11,.07-.28,.1-.5,.09l-.08,.28,10.78,3.22c.17,.05,.3,.13,.36,.24,.07,.11,.1,.27,.1,.5l.28,.08,.91-3.04-.28-.08c-.12,.19-.24,.31-.35,.36-.12,.05-.26,.05-.44,0l-7.63-2.28,.96-3.22,4.82,1.44c.17,.05,.29,.13,.36,.24,.07,.11,.1,.28,.1,.49l.28,.08,.89-2.97-.28-.08c-.12,.19-.24,.31-.35,.36-.12,.05-.26,.05-.44,0l-4.82-1.44,.83-2.79,7.43,2.21c.17,.05,.3,.13,.36,.24,.07,.11,.1,.27,.1,.5l.28,.08,.91-3.04-.28-.08c-.12,.19-.24,.31-.35,.36-.12,.05-.26,.06-.44,0l-10.57-3.15-.08,.28c.19,.12,.31,.24,.37,.35,.05,.12,.05,.26,0,.44l-2.97,9.95Z"/><path class="cls-1" d="M126.2,39.94c-.1,.15-.21,.24-.33,.28-.12,.04-.29,.02-.51-.05l-.15,.24,3.26,2.08,.16-.24c-.15-.16-.23-.3-.26-.43-.02-.13,.02-.27,.11-.42l2.19-3.43,2.79,1.78,.17,4.39c.02,.5,0,.8-.06,.89-.09,.14-.28,.15-.56,.02l-.15,.24,3.77,2.41,.15-.24c-.23-.17-.38-.38-.46-.63-.07-.25-.13-.74-.17-1.47l-.2-4.15c2.08,.92,3.65,.54,4.73-1.15,.32-.49,.52-1.02,.61-1.57,.09-.58,.01-1.12-.22-1.64-.2-.45-.51-.87-.92-1.26-.41-.39-1.01-.84-1.81-1.34l-6.53-4.17-.15,.24c.15,.17,.24,.31,.26,.44,.02,.13-.02,.27-.12,.42l-5.59,8.75Zm7.29-6.39l3.52,2.25c.53,.34,.89,.59,1.08,.75,.19,.16,.34,.35,.46,.57,.26,.45,.21,.95-.13,1.49-.35,.54-.78,.79-1.3,.75-.24-.02-.48-.08-.71-.19-.23-.11-.61-.33-1.13-.66l-3.52-2.25,1.73-2.71Z"/><path class="cls-1" d="M139.16,48.68c-.14,.12-.27,.19-.4,.19-.13,0-.29-.06-.48-.18l-.21,.19,2.43,2.7,.21-.19c-.1-.2-.14-.37-.13-.49,.01-.13,.09-.25,.23-.38l5.54-4.99-.63,9.91c-.03,.42-.08,.67-.17,.75-.15,.14-.33,.13-.54-.03l-.21,.19,2.61,2.9,.21-.19c-.1-.2-.14-.37-.13-.49,.01-.13,.09-.25,.23-.38l7.72-6.95c.13-.12,.26-.18,.39-.18,.13,0,.29,.06,.48,.18l.21-.19-2.43-2.7-.21,.19c.1,.2,.14,.37,.13,.49-.02,.13-.09,.25-.22,.37l-5.41,4.87,.66-9.79c.02-.24,.08-.41,.18-.51,.16-.14,.35-.14,.57,.01l.21-.19-2.82-3.13-.21,.19c.1,.2,.14,.37,.13,.49-.01,.13-.09,.25-.22,.37l-7.72,6.95Z"/><path class="cls-1" d="M58.14,60.88c-.31,.43-.22,1.03,.21,1.34,.43,.31,1.03,.22,1.34-.21,9.39-12.8,24.47-20.44,40.32-20.44,27.56,0,49.98,22.42,49.98,49.98s-22.42,49.98-49.98,49.98c-16.07,0-31.27-7.81-40.64-20.88-.31-.43-.91-.53-1.34-.22-.43,.31-.53,.91-.22,1.34,9.74,13.58,25.51,21.68,42.2,21.68,28.62,0,51.9-23.28,51.9-51.9s-23.28-51.9-51.9-51.9c-16.46,0-32.11,7.93-41.86,21.22Z"/><path class="cls-1" d="M179.16,91.74c0-16.91-5.35-32.58-14.44-45.44,.15-1.13-.55-2.22-1.69-2.52-.07-.02-.13-.02-.19-.03-1.51-1.96-3.1-3.85-4.78-5.66-.94-1.02-1.92-2.01-2.91-2.98-14.23-13.81-33.61-22.34-54.96-22.34-28.32,0-54.63,15.3-68.66,39.93-.26,.46-.1,1.05,.36,1.31,.46,.26,1.04,.1,1.31-.36C46.88,29.61,72.56,14.68,100.19,14.68c20.81,0,39.71,8.31,53.59,21.76,1,.97,1.97,1.96,2.92,2.98,12.74,13.75,20.55,32.14,20.55,52.32,0,18.63-6.65,35.73-17.69,49.07-.88,1.06-1.79,2.09-2.72,3.1-14.09,15.29-34.26,24.88-56.64,24.88-42.49,0-77.06-34.57-77.06-77.06,0-1.04,.02-2.1,.06-3.13,.02-.53-.39-.97-.92-1-.53-.02-.97,.39-1,.92-.04,1.06-.06,2.14-.06,3.21,0,43.55,35.43,78.97,78.97,78.97,19.57,0,37.49-7.17,51.31-19,.06,.5,.28,.96,.62,1.3,.41,.43,.99,.7,1.63,.7,0,0,.02,0,.03,0,1.27,0,2.3-1.03,2.3-2.3,0-1.09-.75-1.99-1.76-2.23,.89-.84,1.77-1.7,2.62-2.59,.16,.07,.32,.14,.48,.21,0,0,.02,0,.03,0,1.27,0,2.3-1.03,2.3-2.3,0-.29-.07-.55-.16-.8,.49-.55,.99-1.1,1.46-1.67,11.32-13.67,18.14-31.2,18.14-50.3Z"/><path class="cls-1" d="M73.17,132.61c.05,.01,.19-.03,.4-.12-.36,.06-.51,.09-.4,.12Z"/><path class="cls-1" d="M53.23,89.16s2.14,.31,3.59,.26c0,0,1.61,.05,4.64,2.29,0,0,4.22,2.19,5.68,2.86,0,0,1.61,.68-1.46,.26,0,0-29.82-6.56-38.73,9.06,0,0,11.41-12.34,45.47-7.03,0,0,10.55,2.27,13.75,4.57,0,0-9.65-1.48-10.86-1.41,0,0-32.81-3.4-41.64,3.95,0,0,20.31-3.44,39.53-1.17,0,0,1.64,.76-4.53,1.56,0,0-17.11,3.44-28.99,15.1,0,0,17.14-3.85,32.81-14.06,0,0,5.63-3.23,15-2.24,0,0,1.64,.9-1.04,1.14,0,0-8.42,1.62-10.31,3.95,0,0,17.75-3.26,26.82-.21,0,0-40.24-2.58-47.35,11.41,0,0,3.98-7.27,41.49-7.58,0,0,12.81-.78,15.55-1.48l-18.52,9.69s-6.29,3.13-10.2,6.21c0,0-8.39,5.34-10.39,6.21,1.45-.25,6.47-1.1,12.69-5.55,0,0,18.44-5.23,30.7-17.11,0,0,1.09-.63,3.28-.86,0,0,6.25-1.25,8.44-2.11,0,0-10.94,6.41-12.5,9.53,0,0-12.66,13.2-21.17,14.53,0,0,6.56,1.41,10.42-1.25,0,0,12.55-7.34,19.27-17.42,0,0,5.63-6.25,7.27-6.41h12.89s-23.28,33.67-52.66,30.55c0,0-.73,1.2,5.42,2.03,0,0,28.33,3.13,48.02-32.03l1.37-.04s.16-1.91,.08-2.66l-2.77-.04s-.96-1.07-1.64-5.18c0,0-2.76-17.03-20.26-18.54,0,0,8.02,6.3,10.63,10.78,0,0,7.4,11.51,9.06,12.55,0,0,1.2,.52-3.18,.36l-4.48-.1s-12.29-10.37-18.13-12.03c0,0-14.27-23.96-33.86-27.24,0,0,13.18,12.76,19.43,20.83,0,0,.94,.94-1.82,.05,0,0-13.85-5.42-19.58-3.85,0,0,38.21,18.86,39.69,21.43,0,0,.23,.39-2.81-.16,0,0-7.81-1.33-21.72-.55,0,0-6.48,.47-9.06-5.7,0,0-15.31-37.79-23.13-36.96l7.29,17.4s8.75,20.21,16.98,23.02c0,0,.36,.89-2.76-.52l-6.88-2.19s-12.84-17.01-15.81-21.85c0,0-20.91-28.83-22.16-29.35,0,0,6.85,19.98,14.43,29.19,0,0,10.63,13.67,17.81,18.28,0,0,2.89,2.19,2.34,2.66,0,0-13.13-3.91-16.02-10.63,0,0-10.31-12.34-21.64-19.22,0,0-12.34-11.56-19.22-26.07,0,0,7.4,26.04,27.71,41.67,0,0-7.55-3.39-12.14-10.16,0,0-15.31-20.47-15.68-20.52,0,0-.05,2.5,4.06,10.47,0,0-9.95-7.08-12.34-6.3,0,0-.47-.26,1.98,1.35,0,0,10.37,7.86,13.39,11.46,0,0-14.95-11.15-21.3-9.43,0,0-.42,.36,1.67,.73,0,0,15.47,8.49,17.97,10.83,0,0,10.37,6.35,15.26,8.8,0,0-4.74-1.3-12.08-3.96,0,0-18.33-8.33-26.3-3.39,0,0,6.77,.21,11.77,2.29,0,0,11.72,3.18,17.14,4.27,0,0,18.91,4.38,24.53,9.84,0,0-10.78-2.6-12.34-3.13,0,0-27.87-8.28-31.51,1.2,0,0,6.93-3.18,18.07-1.04,0,0,16.88,1.46,25.57,4.06Z"/><path class="cls-1" d="M53.09,136.93c1.77,1.38,3.38,1.38,4.83,0,.43-.4,.75-.86,.97-1.38,.23-.54,.29-1.08,.19-1.64-.08-.48-.28-.96-.57-1.43-.3-.47-.77-1.05-1.41-1.72l-5.27-5.56-.21,.2c.1,.2,.15,.36,.14,.49s-.09,.25-.22,.38l-7.53,7.13c-.13,.12-.26,.19-.39,.19s-.29-.05-.48-.17l-.21,.2,2.63,2.77,.21-.2c-.1-.19-.15-.35-.14-.48,.01-.13,.08-.26,.21-.38l2.95-2.79,2.25,2.37-.91,4.28c-.11,.49-.2,.77-.28,.84-.12,.12-.3,.08-.55-.11l-.21,.2,3.04,3.21,.21-.2c-.18-.22-.28-.45-.29-.71,0-.26,.06-.74,.2-1.45l.82-4.05Zm-2.82-5.77l2.33-2.21,2.84,3c.43,.45,.71,.78,.86,.97,.14,.2,.24,.42,.31,.66,.13,.5-.03,.97-.49,1.41s-.94,.58-1.43,.42c-.23-.07-.44-.19-.64-.35-.2-.16-.51-.46-.93-.9l-2.84-3Z"/><path class="cls-1" d="M68.33,141.96c.03-.25,.09-.44,.18-.59,.14-.21,.38-.26,.73-.15l.16-.24-3.63-2.38-.16,.24c.22,.29,.26,.55,.11,.78-.1,.15-.29,.31-.57,.48l-8.93,5.4c-.33,.2-.57,.32-.74,.35-.17,.03-.37,0-.6-.09l-.16,.24,3.39,2.22,.16-.24c-.28-.3-.35-.57-.2-.79,.08-.12,.23-.24,.45-.38l1.63-.99,4.65,3.05-.24,1.9c-.03,.27-.09,.46-.16,.56-.17,.26-.43,.3-.8,.14l-.16,.24,3.77,2.47,.16-.24c-.18-.18-.3-.37-.34-.57-.04-.2-.04-.53,.02-.97l1.28-10.45Zm-3.24,5.09l-3.35-2.2,4.08-2.54-.73,4.74Z"/><path class="cls-1" d="M87.24,148.52c.05-.17,.12-.3,.23-.37,.11-.07,.27-.11,.49-.11l.07-.28-3.47-.94-.07,.28c.19,.11,.32,.23,.37,.34s.06,.26,.01,.43l-1.89,7.01-4.69-8.54c-.12-.21-.16-.39-.12-.52,.05-.2,.21-.3,.48-.3l.07-.28-4.02-1.08-.07,.28c.19,.11,.32,.23,.37,.34,.06,.11,.06,.26,.01,.43l-2.7,10.01c-.05,.18-.13,.3-.23,.37-.11,.07-.27,.11-.49,.11l-.07,.28,3.47,.94,.07-.28c-.19-.11-.32-.23-.37-.34-.06-.11-.06-.26-.01-.44l1.94-7.19,4.78,8.63c.2,.37,.29,.61,.26,.72-.05,.2-.21,.29-.46,.27l-.07,.28,3.72,1,.07-.28c-.19-.11-.32-.23-.37-.34s-.06-.26-.01-.44l2.7-10.01Z"/><path class="cls-1" d="M103.59,155.84c.09-.1,.23-.17,.45-.23v-.29h-5.8c-.19,0-.32-.04-.42-.12-.09-.08-.17-.23-.23-.45h-.29v2.85h.29c.06-.22,.14-.36,.23-.45,.09-.08,.23-.13,.42-.13h3.02v1.67c-.48,.27-1.05,.48-1.7,.64-.66,.16-1.32,.23-2,.23-1.39,0-2.51-.36-3.35-1.09-.93-.79-1.39-1.84-1.39-3.13s.47-2.4,1.43-3.22c.84-.72,1.9-1.08,3.18-1.08,.63,0,1.29,.1,2,.29,.71,.19,1.24,.43,1.6,.7,.17,.12,.27,.23,.32,.32,.05,.09,.07,.23,.08,.42l.26,.13,1.44-2.93-.25-.13c-.17,.14-.31,.21-.44,.21-.17,0-.46-.08-.87-.24-.79-.3-1.49-.52-2.11-.65-.62-.13-1.28-.19-1.98-.19-2.2,0-3.96,.55-5.29,1.65-1.4,1.16-2.1,2.72-2.1,4.68,0,2.1,.79,3.75,2.36,4.93,1.25,.94,2.86,1.41,4.84,1.41,2.18,0,4.43-.66,6.76-1.99v-.22c-.22-.06-.37-.14-.45-.23-.08-.1-.12-.24-.12-.42v-2.51c0-.19,.04-.33,.13-.42Z"/><path class="cls-1" d="M108.74,160.11l.05,.28,10.96-1.88c.18-.03,.32-.01,.43,.05,.11,.07,.21,.2,.31,.4l.28-.05-.54-3.12-.28,.05c-.02,.22-.07,.38-.15,.48s-.21,.16-.39,.19l-7.76,1.33-.57-3.31,4.9-.84c.18-.03,.32-.01,.43,.06,.11,.07,.21,.2,.31,.4l.28-.05-.52-3.05-.28,.05c-.02,.22-.07,.38-.15,.48s-.21,.16-.39,.19l-4.9,.84-.49-2.86,7.55-1.3c.18-.03,.32-.01,.43,.06,.11,.07,.21,.2,.31,.4l.28-.05-.54-3.12-.28,.05c-.02,.22-.07,.38-.15,.48-.08,.1-.21,.17-.39,.2l-10.75,1.85,.05,.28c.22,.02,.38,.07,.48,.15s.16,.21,.2,.39l1.75,10.21c.03,.18,.01,.33-.05,.44-.07,.11-.2,.21-.4,.31Z"/><path class="cls-1" d="M125.95,155.97l.13,.26,9.6-4.89c.17-.08,.31-.11,.43-.08s.26,.13,.41,.29l.26-.13-1.44-2.82-.26,.13c.04,.22,.04,.39,0,.51s-.15,.22-.32,.3l-6.71,3.41-4.21-8.27c-.08-.17-.11-.31-.08-.44,.03-.13,.13-.26,.3-.41l-.13-.26-3.41,1.73,.13,.26c.22-.04,.39-.04,.51,0,.12,.05,.22,.15,.3,.32l4.7,9.23c.08,.17,.11,.31,.08,.43s-.13,.26-.29,.41Z"/><path class="cls-1" d="M147.29,142.6l3.56-2.76-.18-.23c-.23,.12-.45,.16-.65,.14-.21-.02-.51-.13-.91-.33l-9.47-4.59c-.23-.11-.39-.23-.5-.36-.15-.2-.12-.45,.09-.74l-.18-.23-3.43,2.66,.18,.23c.35-.12,.61-.07,.77,.15,.11,.14,.2,.37,.27,.7l2.22,10.19c.09,.37,.11,.65,.09,.82-.03,.17-.12,.35-.28,.53l.18,.23,3.2-2.48-.18-.23c-.38,.17-.65,.14-.81-.06-.08-.11-.16-.29-.21-.55l-.41-1.87,4.39-3.41,1.72,.84c.25,.12,.41,.23,.48,.33,.19,.24,.14,.51-.13,.8l.18,.23Zm-7.05-.6l-1.08-4.68,4.24,2.23-3.16,2.46Z"/><path class="cls-1" d="M158.84,127.55l2.1-3.23-.24-.16c-.17,.15-.31,.23-.44,.25s-.27-.02-.42-.12l-8.7-5.65c-.15-.1-.24-.21-.28-.33-.03-.12-.02-.29,.05-.5l-.24-.16-1.96,3.02,.24,.16c.17-.15,.31-.23,.44-.25,.13-.02,.26,.02,.41,.12l6.09,3.96-9.57,1.84c-.24,.05-.42,.03-.54-.05-.18-.11-.22-.3-.14-.55l-.24-.16-2.27,3.49,.24,.16c.17-.15,.31-.23,.44-.25,.13-.02,.26,.02,.41,.12l8.7,5.65c.16,.1,.25,.21,.29,.33,.03,.12,.02,.29-.05,.5l.24,.16,1.96-3.02-.24-.16c-.17,.15-.31,.23-.44,.25s-.27-.02-.42-.12l-6.24-4.06,9.68-1.89c.41-.08,.67-.09,.77-.03,.17,.11,.21,.29,.12,.53l.24,.16Z"/><path class="cls-1" d="M163.86,118.01c.08,.1,.12,.26,.13,.49l.28,.06,1.44-6.68c.24-1.11,.34-2.04,.3-2.79-.04-.76-.23-1.45-.57-2.08-.81-1.5-2.24-2.48-4.31-2.92-1.17-.25-2.25-.26-3.22-.02-1.23,.3-2.21,.95-2.94,1.97-.5,.71-.91,1.8-1.23,3.26l-1.44,6.68,.28,.06c.1-.2,.21-.33,.32-.39,.11-.06,.26-.07,.44-.03l10.13,2.19c.18,.04,.31,.11,.39,.21Zm-8.9-4.78l.71-3.28c.17-.8,.39-1.42,.65-1.86,.26-.45,.62-.8,1.08-1.05,.82-.46,1.87-.55,3.15-.27,1.78,.38,2.85,1.21,3.22,2.47,.17,.59,.15,1.41-.08,2.45l-.71,3.28-8.02-1.73Z"/><path class="cls-1" d="M156.85,92.52c-.22,.66-.36,1.38-.43,2.16-.16,1.86,.16,3.29,.97,4.3,.61,.77,1.43,1.2,2.47,1.29,.63,.05,1.19-.04,1.7-.28,.56-.26,1-.65,1.32-1.17,.22-.36,.4-.73,.52-1.11,.12-.37,.27-1.02,.44-1.93l.26-1.36c.18-.91,.34-1.52,.49-1.81,.21-.42,.52-.61,.92-.58,.27,.02,.52,.14,.75,.34s.41,.47,.53,.79c.22,.58,.29,1.27,.22,2.06-.06,.73-.26,1.48-.58,2.27s-.67,1.36-1.05,1.72c-.25,.24-.51,.34-.78,.32h-.12l-.15,.24,2.88,1.58,.16-.25c-.12-.18-.17-.31-.16-.38,0-.07,.1-.26,.28-.58,.91-1.51,1.44-3.07,1.58-4.68,.08-.9,.04-1.75-.11-2.56-.2-1.08-.58-1.9-1.15-2.45-.62-.61-1.36-.96-2.21-1.03-.54-.05-1.06,.03-1.56,.22-.5,.19-.91,.48-1.24,.86-.31,.37-.57,.81-.77,1.31-.2,.5-.38,1.17-.54,1.99l-.26,1.39c-.18,.93-.32,1.54-.43,1.82-.21,.54-.55,.79-1.01,.75-.28-.02-.53-.16-.75-.39-.22-.24-.37-.54-.46-.9-.11-.5-.14-1.06-.09-1.69,.12-1.43,.6-2.64,1.43-3.64,.26-.33,.49-.48,.7-.46,.04,0,.08,.01,.14,.02l.16-.24-2.75-1.71-.16,.24c.12,.18,.18,.33,.17,.46,0,.08-.09,.28-.26,.62-.51,.97-.88,1.78-1.09,2.44Z"/><path class="cls-1" d="M50.22,171.46s-.05,.01-.08,.02c0,0,.01,.02,.01,.02,.02-.01,.04-.03,.06-.04Z"/><path class="cls-1" d="M65.57,177.77c-.58-1.18-1.58-2.06-2.97-2.6-1.92-.76-4-.78-6.18-.07-2.16,.7-4.75,2.23-7.68,4.55-2.55,2.01-4.05,3.16-4.94,3.81,.94-1.19,1.9-2.94,2.85-5.22,1.05-2.51,1.8-4.15,2.24-4.86,.43-.69,1.04-1.29,1.8-1.75,.26-.14,.31-.18,.34-.26,0-.02,.01-.04,.01-.07,0-.06-.01-.16-.17-.26-.19-.07-.55-.09-1.89,.37-1.42,.49-3.6,1.84-6.49,4.02-3.51,2.65-6.4,4.38-8.6,5.14-2.17,.75-4.24,.76-6.13,.01-.98-.38-1.71-.91-2.17-1.57-.45-.64-.56-1.24-.32-1.85v-.03c.01,.33,.2,.59,.57,.74,.31,.12,.62,.11,.92-.04,.3-.14,.51-.38,.64-.69,.12-.31,.13-.58,.03-.81-.1-.24-.32-.43-.65-.56-.43-.17-.86-.15-1.28,.07-.41,.21-.71,.56-.89,1.03-.32,.81-.19,1.62,.37,2.43,.54,.78,1.39,1.41,2.51,1.85,1.97,.78,4.15,.87,6.48,.28,2.31-.59,4.65-1.82,6.93-3.66,2.65-2.13,4.3-3.45,4.9-3.9,.61-.45,1.26-.87,1.93-1.24,.31-.17,.57-.31,.8-.42-.65,.46-1.23,1-1.73,1.63-.8,1.01-1.56,2.41-2.26,4.18-.41,1.05-.87,2.34-1.36,3.83-.2,.6-.35,1.03-.44,1.27-.49,1.25-1.14,1.9-1.92,1.94-.34,.02-.82,.09-.94,.4-.05,.14-.03,.24,0,.31,.04,.1,.12,.17,.24,.21,.05,.02,.11,.03,.18,.03,.27,0,.77-.16,1.9-.78,1.05-.58,2.15-1.31,3.26-2.15,3.8-2.87,6.33-4.67,7.52-5.34,3.75-2.14,6.89-2.74,9.35-1.77,1.22,.48,2.1,1.23,2.62,2.23,.52,1,.56,2.02,.13,3.09-.03,.07-.09,.19-.21,.4-.12,.19-.19,.34-.24,.44-.05,.12-.01,.29,.18,.37,.38,.14,.65-.42,.9-1.05,.5-1.27,.45-2.51-.13-3.7Zm-15.35-6.31s-.04,.03-.06,.04c0,0,0-.02-.01-.02,.03,0,.05-.01,.08-.02Z"/><path class="cls-1" d="M45.86,172.42c-.02-.05-.07-.12-.18-.16-.12-.04-.24,0-.37,.1-.51,.42-1.08,.72-1.71,.89-.61,.17-1.11,.19-1.48,.04-.59-.23-.76-.56-.55-1.08,.07-.19,.27-.43,.58-.71,.99-.89,1.58-1.59,1.8-2.15,.3-.76,.28-1.46-.06-2.1-.33-.62-.94-1.11-1.8-1.45-2.03-.8-4.24-.79-6.54,.05-2.32,.84-3.85,2.19-4.57,4.01-.38,.96-.39,1.88-.02,2.72,.37,.84,1.03,1.46,1.99,1.84,.65,.26,1.33,.38,2.03,.38,.74,0,1.5-.14,2.29-.42,1.03-.36,1.23-.58,1.3-.74,.07-.18,0-.34-.17-.41-.1-.04-.19,0-.28,.05-.71,.46-1.53,.74-2.44,.86-.91,.11-1.73,.02-2.45-.26-.8-.32-1.35-.82-1.66-1.53-.31-.71-.3-1.46,.02-2.27,.63-1.6,2.04-2.81,4.2-3.61,2.17-.8,4.19-.85,6-.13,.62,.24,1.07,.56,1.35,.94,.26,.36,.32,.7,.18,1.05-.08,.21-.37,.62-1.27,1.4-.62,.54-1.04,1.06-1.23,1.55-.21,.53-.21,1.05,0,1.56,.21,.51,.58,.87,1.09,1.07,.72,.28,1.64,.16,2.72-.37,.97-.47,1.17-.71,1.23-.88,.04-.1,.02-.19,0-.24Z"/><path class="cls-1" d="M106.24,190.36c-.11,0-.2,.08-.39,.32h0c-.89,1.19-1.71,2.13-2.43,2.78-.58,.53-1.29,1.04-2.1,1.52,1.64-3.09,2.98-5.49,3.97-7.15,.04-.07,.04-.15,0-.22-.05-.06-.13-.09-.2-.08-.34,.07-.64,.11-.87,.12-.28,.01-.53,0-.73-.03-.08,0-.16,.03-.2,.1l-1.18,2.11c-2.32,4.17-3.54,5.07-4.16,5.09-.12,.01-.21-.02-.27-.07-.06-.06-.09-.16-.1-.31,0-.23,.17-.8,1.03-2.27l2.53-4.3c.04-.07,.04-.15,0-.22-.05-.06-.12-.1-.2-.08-.4,.07-.72,.11-.94,.12-.26,0-.49,0-.69-.03-.08,0-.16,.03-.2,.1l-1.6,2.83c-.08,.02-.16,.07-.23,.2-2.5,3.33-3.59,4.04-4.07,4.04h0c-.16,0-.31-.04-.31-.4,0-.22,.17-.75,.95-2.03,.65-1.08,2.93-4.68,6.8-10.72,.05-.07,.04-.16-.01-.23-.05-.07-.14-.09-.22-.07-.27,.09-.57,.13-.88,.13-.19,0-.42-.04-.67-.11-.08-.02-.18,.01-.22,.09-1.13,1.89-2.55,4.18-4.23,6.81-.66,1.03-1.18,1.85-1.58,2.49-2.62,3.27-3.72,3.94-4.2,3.91-.11,0-.18-.03-.22-.08-.07-.08-.08-.22-.07-.33,.01-.22,.19-.74,1.01-2,.68-1.05,3.08-4.58,7.13-10.5,.05-.07,.05-.16,0-.23-.05-.07-.14-.1-.22-.07-.27,.08-.56,.12-.89,.1-.19,0-.41-.05-.66-.13-.09-.03-.18,0-.23,.08-1.2,1.86-2.69,4.11-4.45,6.67-.65,.95-1.18,1.73-1.59,2.34-.13,.03-.22,.15-.25,.18-.92,1.08-1.82,1.99-2.68,2.7-1.08,.9-1.53,1.01-1.7,.99-.16-.02-.32-.06-.29-.45,.03-.27,.3-.91,1.46-2.44l2.76-3.61c.05-.06,.05-.15,.02-.21-.04-.07-.11-.11-.19-.11-.38,.02-.69,.02-.92,0-.19-.02-.42-.07-.66-.15-.09-.03-.18,0-.23,.08l-.29,.43c-.02-.16-.09-.3-.18-.41-.16-.19-.41-.31-.75-.34-.7-.07-1.6,.14-2.77,.63-1.3,.54-2.31,1.17-3.02,1.89-.09,.02-.21,.09-.47,.29-.94,.94-1.74,1.37-2.37,1.28-.22-.03-.36-.12-.45-.27-.09-.16-.11-.41-.06-.73,.04-.23,.14-.51,.3-.85l.1-.06c.43-.17,.75-.31,.97-.4,1.46-.62,2.18-1.15,2.25-1.65,.05-.34-.14-.58-.53-.64-.46-.07-1,.13-1.63,.61-.59,.45-1.12,1.03-1.58,1.75-.1,.05-.19,.11-.29,.18,.35-.52,.55-.99,.62-1.41,.2-1.27-.45-1.64-1.03-1.73-.35-.05-1.1,.12-3.38,2.3l-.26,.26c-.09,.01-.17,.06-.23,.14l-.83,.71c-2.47,2.23-3.52,2.58-3.95,2.49-.25-.05-.33-.17-.27-.43,.06-.29,.47-.98,2.1-2.67l2.82-2.93c.05-.06,.07-.14,.04-.21-.03-.07-.1-.12-.17-.13-.41-.02-.72-.06-.93-.1-.17-.04-.38-.11-.63-.22-.08-.04-.17-.02-.23,.05l-1.74,1.87c-3.21,3.45-4.55,4.03-5.12,3.91-.16-.03-.3-.09-.23-.45,.07-.36,.31-.75,.71-1.17l4.2-4.4c.05-.06,.07-.14,.04-.21-.03-.07-.1-.12-.17-.13-.44-.03-.74-.06-.89-.09-.16-.03-.37-.11-.65-.22-.08-.03-.17-.01-.22,.05l-2.26,2.41c-.1,.02-.18,.08-.24,.13-3.12,2.71-4.37,3.13-4.87,3.01-.35-.09-.39-.26-.33-.49,.08-.31,.36-.71,.84-1.18l4.06-4.06,1.61,.4c.07,.02,.15,0,.19-.06l.15-.17c.05-.05,.06-.13,.04-.19-.02-.07-.07-.12-.14-.14l-1.38-.34,1.87-1.86c.06-.06,.07-.14,.04-.22-.03-.07-.1-.12-.18-.12h0c-.26,0-.51-.02-.74-.08-.22-.05-.45-.15-.68-.27-.08-.04-.17-.03-.23,.03l-2.07,2.02-1.21-.3c-.07-.02-.13,0-.18,.04l-.18,.16c-.06,.05-.08,.13-.06,.2,.02,.07,.07,.13,.15,.15l.99,.25-2.16,2.13s-.08,.05-.12,.08c-1.11,.89-2.16,1.62-3.13,2.16-1.23,.68-1.68,.71-1.85,.66-.17-.05-.2-.12-.21-.15-.04-.08-.03-.2,.01-.34,.08-.26,.46-.84,1.89-2.13l3.38-3.04c.06-.05,.08-.13,.06-.21-.02-.07-.09-.13-.17-.14-.38-.05-.68-.1-.9-.17-.19-.05-.4-.15-.62-.27-.08-.04-.18-.03-.24,.03l-.36,.37c.01-.44-.25-.76-.78-.92-.67-.19-1.6-.16-2.84,.1-2.78,.58-4.43,1.73-4.93,3.41-.18,.62-.16,1.2,.05,1.72,.22,.53,.6,.88,1.12,1.03,.48,.14,1.04,.06,1.66-.24,.42-.2,.98-.56,1.71-1.08-.06,.13-.11,.26-.15,.39-.14,.48-.12,.94,.07,1.34,.19,.42,.52,.7,.97,.83,.66,.19,1.67-.17,3.11-1.12,.2-.13,.4-.26,.58-.38-.11,.2-.18,.39-.23,.57-.12,.48-.06,.93,.17,1.34,.23,.41,.58,.67,1.05,.79,.76,.19,1.96-.34,3.67-1.62-.12,.22-.2,.44-.24,.65-.1,.48-.03,.92,.2,1.31,.23,.4,.58,.65,1.02,.74,.42,.08,.91-.04,1.44-.36,.35-.2,.84-.56,1.51-1.09-.03,.08-.05,.15-.07,.22-.1,.48-.03,.92,.2,1.33,.24,.41,.58,.67,1.03,.76,.68,.14,1.69-.3,3.06-1.35,1.74-1.32,2.24-1.81,2.41-2.03,.09-.03,.17-.09,.26-.19,2.03-2.11,2.72-2.37,2.98-2.33,.06,.01,.11,.02,.09,.18-.03,.21-.35,.87-2.1,2.87l-2.73,3.12c-.05,.06-.06,.14-.03,.21,.03,.07,.09,.12,.17,.12,.5,.04,.77,.07,.81,.07,.08,.01,.35,.07,.81,.18,.07,.02,.15,0,.2-.07,1.08-1.3,1.84-2.16,2.26-2.57,.29-.28,.64-.57,1.04-.84-.04,.13-.07,.25-.09,.36-.07,.43-.02,.78,.15,1.04,.17,.27,.46,.43,.86,.49,.58,.09,1.24-.12,1.97-.64-.11,.3-.18,.6-.22,.91-.06,.65,.06,1.21,.37,1.68,.32,.48,.75,.75,1.29,.8,.51,.05,1.03-.14,1.59-.55,.37-.28,.86-.73,1.48-1.38-.04,.14-.06,.28-.07,.41-.05,.5,.06,.94,.32,1.31,.27,.38,.64,.59,1.11,.63,.68,.06,1.61-.48,2.85-1.68,.26-.25,.5-.47,.71-.68-.09,.28-.14,.56-.16,.85-.02,.49,.1,.9,.36,1.24,.27,.34,.63,.53,1.08,.55,.02,0,.03,0,.05,0,.73,0,1.76-.74,3.14-2.27-.05,.22-.08,.44-.08,.67,0,.49,.13,.9,.4,1.22,.28,.33,.65,.51,1.1,.51h.02c.77,0,1.86-.85,3.3-2.61-.13,.36-.18,.67-.18,.92,.01,.46,.18,.86,.5,1.2,.32,.34,.73,.51,1.13,.49,.48-.02,.95-.25,1.4-.69,.12-.11,.25-.26,.39-.43l-.97,1.81-.13,.09c-.7,.33-1.2,.58-1.52,.75-4.23,2.08-6.26,4-6.2,5.87,.01,.39,.17,.72,.47,.98,.28,.24,.62,.36,1.01,.36,.02,0,.04,0,.06,0,1.12-.04,2.43-.68,3.89-1.9,1.4-1.17,2.74-2.95,3.98-5.29l.6-1.13c1.73-1,3.14-2.13,4.2-3.34,1.49-1.71,1.48-1.87,1.48-1.99,0-.16-.12-.28-.29-.27Zm-54.24-4.59c-2.46,1.81-3.41,2.07-3.78,1.96-.39-.11-.51-.35-.38-.79,.26-.89,1.24-1.9,2.93-3,1.41-.92,2.49-1.39,3.24-1.39,.14,0,.28,.02,.39,.05,.24,.07,.37,.19,.27,.54-.11,.38-.66,1.14-2.68,2.63Zm30.71,5.71c-2.19,2.36-3.04,2.67-3.35,2.63-.41-.04-.56-.25-.52-.71,.09-.92,.87-2.09,2.32-3.5,1.37-1.33,2.45-2,3.21-2,.04,0,.08,0,.12,0,.15,.01,.25,.06,.3,.13,.06,.07,.08,.19,.06,.35-.04,.39-.44,1.24-2.15,3.09Zm12.34,10.68c-.87,.99-1.77,1.51-2.66,1.54-.84,.02-.95-.39-.96-.76-.05-1.49,1.93-3.3,5.87-5.37,.37-.19,.67-.35,.9-.47-1.23,2.37-2.29,4.07-3.15,5.05Z"/><path class="cls-1" d="M134.66,179.48s0-.04-.02-.06c-.06-.13-.18-.2-.32-.19-.2,.02-.54,.19-1.32,1.31-.56,.79-1.1,1.71-1.59,2.7-2.22,3.24-4.2,5.28-5.9,6.04h0c-.24-2.29-1.6-3.56-4.05-3.78,.1-.42,.24-.83,.43-1.23,1.67-.58,3.42-1.48,5.2-2.68,1.69-1.14,3.23-2.44,4.58-3.86,.04,.21,.07,.43,.09,.65,.13,1.2-.09,2.4-.64,3.57-.03,.07-.05,.14-.06,.21,0,.02,0,.05,0,.07,.04,.15,.17,.24,.31,.22,.17-.02,.3-.19,.49-.68,.47-1.23,.66-2.37,.55-3.4-.04-.33-.11-.74-.23-1.2,.94-1.15,1.36-2.06,1.28-2.8-.05-.43-.22-.75-.51-.95-.28-.19-.68-.26-1.17-.2-.47,.05-1.15,.29-2.07,.74-1.53-.93-3.42-1.29-5.62-1.06-2.81,.3-5.26,1.31-7.27,3.03-2.03,1.73-2.96,3.6-2.76,5.55,.12,1.16,.7,2.05,1.7,2.64,.99,.59,2.26,.8,3.8,.64,.12-.01,.24-.03,.35-.04-.03,.33-.05,.6-.05,.8-.04,0-.07,0-.11,0-1.34,.14-2.78,.71-4.26,1.68-1.48,.97-2.62,2.19-3.39,3.6-.77,1.42-1.08,2.88-.93,4.36,.18,1.74,.95,3.1,2.28,4.05,1.09,.77,2.4,1.16,3.93,1.16,.33,0,.67-.02,1.01-.05,2.28-.24,4.47-1.09,6.52-2.53,1.43-1,2.53-2.11,3.26-3.28,.73-1.17,1.29-2.73,1.67-4.62,.29-1.52,.56-2.66,.79-3.38,.23-.71,.62-1.63,1.15-2.72,.66-.69,1.32-1.51,1.95-2.44,.87-1.28,.96-1.67,.94-1.87Zm-9.76,10.03c-.18,.04-.37,.07-.57,.09-.82,.09-1.51-.08-2.05-.49-.55-.41-.85-.99-.93-1.77-.04-.4-.03-.8,.03-1.21,1.03,.1,1.87,.44,2.49,1.02h0c.61,.58,.96,1.37,1.04,2.35Zm6.96-15.68c.32-.04,.56,0,.71,.13,.13,.1,.2,.27,.23,.5,.05,.52-.24,1.19-.87,2.01-.37-.84-.91-1.53-1.6-2.07,.58-.33,1.1-.52,1.54-.57Zm-2.12,.9c.81,.57,1.39,1.34,1.72,2.28-1.34,1.45-2.9,2.78-4.63,3.97-1.6,1.1-3.15,1.94-4.62,2.5,.72-1.57,1.77-3.16,3.1-4.74,1.42-1.68,2.91-3.03,4.42-4.01Zm-10.07,9.36c-1.47,.16-2.66-.01-3.54-.5-.86-.48-1.34-1.2-1.44-2.21-.17-1.66,.73-3.32,2.68-4.94,1.98-1.64,4.27-2.61,6.83-2.87,.45-.05,.88-.07,1.29-.07,1.38,0,2.57,.26,3.53,.79-5.22,2.89-8.25,6.18-9.01,9.77l-.34,.04Zm9.38,3.81c-1.93,4.16-3.73,7.13-5.34,8.85-1.59,1.69-3.47,2.67-5.6,2.89-1.56,.17-2.88-.11-3.92-.81-1.03-.69-1.62-1.69-1.75-2.97-.23-2.18,.42-4.27,1.94-6.2,1.48-1.87,3.32-3.03,5.5-3.45,.17,1.32,.65,2.35,1.41,3.07,.81,.77,1.85,1.09,3.1,.96,.17-.02,.33-.04,.47-.07-.07,.99-.51,2.01-1.3,3.02-.85,1.09-1.73,1.68-2.62,1.78-.43,.05-.78-.04-1.09-.27-.3-.22-.47-.52-.51-.9-.02-.24,.01-.51,.11-.79,.02-.05,.03-.09,.05-.13,0,.08,0,.14,0,.19,.03,.32,.22,.83,1.03,.76,.31-.03,.59-.19,.81-.47,.22-.28,.32-.58,.29-.9-.07-.7-.54-1.04-1.29-.97-.49,.05-.9,.33-1.24,.82-.33,.48-.47,1.01-.41,1.57,.06,.55,.31,.99,.76,1.32,.44,.32,.97,.46,1.56,.39,1.08-.11,2.1-.78,3.03-1.97,.89-1.14,1.38-2.37,1.46-3.65,1.29-.54,2.72-1.74,4.28-3.58-.25,.49-.49,1-.73,1.51Z"/><path class="cls-1" d="M170.94,175.79c-.06-.15-.21-.21-.37-.15-.12,.05-.19,.17-.2,.33-.9,4.28-1.66,5.42-2.14,5.62-.13,.05-.23,.06-.3,.03-.07-.03-.14-.11-.19-.24-.07-.17-.13-.74,.25-2.72,.31-1.57,.33-2.64,.07-3.26-.21-.5-.53-.86-.96-1.09-.44-.23-.88-.26-1.32-.07-.51,.22-.95,.72-1.3,1.51-.19,.42-.39,1.02-.61,1.78-.03-.24-.08-.44-.16-.62-.17-.41-.44-.72-.8-.92-.37-.21-.74-.24-1.09-.1-.33,.14-.87,.7-1.67,3.9l-.1,.4s-.03,.1-.03,.15c-.06,.08-.13,.21-.23,.43-.56,1.45-1.16,2.28-1.76,2.47-.26,.08-.52,.02-.78-.19,.82-2.44,1.1-4.01,.85-4.79-.17-.54-.54-.5-.69-.45-.54,.17-.92,.79-1.16,1.88-.23,1.04-.21,1.99,.05,2.81,.05,.16,.15,.38,.29,.67-.67,2.2-1.42,3.45-2.25,3.71-.35,.11-.53,.02-.64-.31-.07-.24-.09-.82,.27-2.27l1.36-5.4c.02-.08,0-.16-.07-.21-.07-.05-.15-.05-.22-.01-.17,.1-.4,.2-.7,.29-.08,.03-.31,.09-.91,.22-.08,.02-.14,.08-.15,.15l-.68,3.05c-.36,1.56-.79,2.93-1.3,4.05-.64,1.42-1.06,1.73-1.25,1.8-.13,.04-.23,.04-.3,0-.08-.05-.14-.14-.19-.29-.07-.22-.09-.71,.19-1.82l1.46-5.91c.02-.07,0-.15-.07-.2-.06-.05-.14-.06-.21-.02-.5,.24-.72,.33-.83,.36-.16,.05-.42,.1-.78,.15-.08,.01-.15,.07-.17,.15l-.84,3.65s-.02,.04-.05,.09c-.21,.59-.53,1.14-.97,1.63-.43,.48-.83,.77-1.19,.85-.11,.03-.22,.04-.33,.03,.68-1.67,.9-3.03,.65-4.07-.11-.47-.32-.8-.6-.99-.29-.19-.67-.23-1.11-.13-.89,.21-1.85,.94-2.96,2.21-.97,1.12-1.58,2.19-1.81,3.18-.5,.91-1.03,1.43-1.57,1.53-.31,.06-.69,.02-.85-.83-.05-.24-.05-.57,0-.97l.08-.1c.36-.33,.62-.57,.8-.74,1.2-1.13,1.71-1.91,1.62-2.43-.04-.23-.16-.34-.26-.39-.13-.07-.29-.09-.47-.06-.47,.09-.92,.48-1.37,1.18-.42,.65-.73,1.43-.93,2.31-.08,.1-.16,.2-.25,.31,.16-.66,.2-1.22,.12-1.67-.1-.51-.28-.89-.54-1.12-.28-.24-.63-.33-1.06-.24-.37,.07-1.02,.51-2.49,3.48l-.17,.37c-.04,.07-.07,.15-.06,.27,.03,.13,.13,.23,.3,.23,.18-.03,.28-.22,.33-.35,1.24-2.83,1.84-3.33,2.09-3.38,.03,0,.07,0,.09,0,.01,0,.05,.04,.07,.16,.05,.28-.09,1.13-1.04,3.62l-1.56,4.09c-.03,.07-.01,.15,.04,.2,.04,.04,.09,.07,.15,.07,.02,0,.03,0,.05,0,.5-.13,.77-.2,.81-.21,.08-.02,.36-.05,.85-.11,.08,0,.14-.06,.17-.13,.59-1.67,1.03-2.81,1.3-3.36,.19-.39,.43-.8,.73-1.22,0,.16,.02,.29,.04,.42,.22,1.16,.94,1.28,1.51,1.17,.48-.09,.95-.41,1.4-.95,.01,.19,.04,.38,.09,.56,.16,.67,.51,1.21,1.05,1.59,.54,.39,1.12,.51,1.72,.37,1.1-.27,2.03-1.36,2.84-3.33,.23,.03,.46,.01,.71-.05,.59-.14,1.15-.57,1.68-1.28-.07,.61-.05,1.1,.06,1.46,.15,.48,.43,.85,.83,1.11,.41,.26,.84,.32,1.28,.18,.7-.22,1.34-1.17,1.97-2.89,.02,.1,.04,.2,.07,.29,.16,.5,.46,.87,.91,1.1,.45,.24,.93,.27,1.43,.12,.55-.17,1.03-.58,1.42-1.2,.35-.55,.73-1.45,1.15-2.67,.38,.25,.77,.32,1.15,.19,.64-.2,1.21-.84,1.75-1.96,.39-.78,.52-1.12,.55-1.29,.06-.07,.09-.17,.13-.32,.68-3.15,1.15-3.66,1.32-3.73,.07-.03,.14-.06,.23,.15,.12,.29,.17,1.22-.3,4.03l-.68,4.03c-.01,.08,.02,.15,.08,.2,.06,.05,.15,.05,.21,0,.24-.14,.52-.28,.81-.4,.09-.04,.34-.12,.77-.26,.07-.02,.13-.09,.14-.17,.82-7.05,1.95-8.93,2.76-9.27,.31-.13,.43-.02,.52,.19,.06,.14,.11,.62-.23,2.3-.27,1.29-.41,2.11-.43,2.52-.02,.43,.05,.85,.23,1.27,.2,.48,.52,.84,.96,1.05,.44,.22,.89,.23,1.33,.05,.65-.27,1.23-1.24,1.76-2.97,.96-3.09,.87-3.3,.82-3.43Zm-26.27,8.97c-.26,.6-.33,1.14-.21,1.63,.08,.31,.27,.59,.56,.82-.73,1.73-1.54,2.72-2.43,2.94-.24,.06-.44,.04-.58-.05-.14-.09-.25-.27-.31-.53-.25-1.03,.02-2.48,.81-4.29,.78-1.8,1.56-2.8,2.31-2.98,.1-.02,.2-.04,.29-.04,.14,0,.27,.03,.37,.1,.17,.11,.29,.33,.37,.65,.06,.23,.08,.46,.08,.68-.1-.03-.19-.02-.26,0-.4,.1-.73,.45-1,1.07Z"/></g></g></svg>