<svg width="360" height="365" viewBox="0 0 360 365" fill="none" xmlns="http://www.w3.org/2000/svg">
<path d="M185.147 291.198C260.616 291.198 321.796 230.041 321.796 154.601C321.796 79.1602 260.616 18.0037 185.147 18.0037C109.678 18.0037 48.4976 79.1602 48.4976 154.601C48.4976 230.041 109.678 291.198 185.147 291.198Z" fill="white"/>
<path d="M106.359 66.4546L110.345 79.3063C110.514 79.9819 110.654 80.3761 110.767 80.5168C111.077 80.8969 111.598 80.911 112.33 80.5731L112.654 80.9673L107.19 85.3873L106.866 84.9931C107.331 84.4441 107.387 83.9374 107.021 83.4869C106.923 83.3603 106.514 83.0928 105.782 82.6705L90.8836 74.2106C90.1513 73.7883 89.588 73.549 89.2219 73.4927C88.8558 73.4364 88.4474 73.5209 88.0109 73.7461L87.687 73.352L93.5873 68.5801L93.9111 68.9742C93.4887 69.5091 93.4183 69.9596 93.714 70.3396C93.8689 70.5226 94.1505 70.7478 94.573 70.9871L105.134 77.1667L101.529 65.2862C101.374 64.7795 101.248 64.4557 101.149 64.329C100.839 63.949 100.375 63.9349 99.7269 64.2727L99.403 63.8786L105.571 58.8815L105.895 59.2756C105.444 59.8809 105.388 60.3736 105.698 60.7536C105.81 60.8803 106.078 61.0774 106.514 61.3167L117.174 67.3977L113.443 55.9395C113.259 55.3624 113.09 54.9682 112.922 54.7571C112.626 54.3911 112.133 54.4052 111.443 54.7571L111.119 54.363L116.963 49.6333L117.287 50.0274C116.963 50.4779 116.794 50.8579 116.794 51.1676C116.794 51.4773 116.907 52.0544 117.174 52.9131L122.342 69.2417C122.582 70.0159 122.793 70.5085 122.948 70.7056C123.272 71.1138 123.764 71.1138 124.44 70.7478L124.764 71.142L119.23 75.6183L118.906 75.2241C119.413 74.6611 119.484 74.1543 119.103 73.6898C118.977 73.535 118.554 73.2675 117.822 72.8874L106.373 66.4123L106.359 66.4546Z" fill="#454C85"/>
<path d="M135.058 54.9823L137.424 60.4158L150.308 54.8134C150.604 54.6867 150.801 54.5178 150.9 54.3207C150.998 54.1096 151.013 53.814 150.97 53.4339L151.435 53.2228L153.66 58.3466L153.195 58.5436C152.942 58.234 152.716 58.051 152.505 57.9806C152.294 57.9102 152.04 57.9383 151.745 58.065L133.551 65.9619L133.354 65.4974C133.664 65.244 133.861 65.0188 133.931 64.8076C134.002 64.5965 133.974 64.329 133.833 64.0334L126.538 47.2544C126.412 46.9588 126.243 46.7617 126.031 46.6632C125.82 46.5647 125.525 46.5506 125.13 46.6069L124.933 46.1424L142.775 38.3863C143.07 38.2596 143.268 38.0907 143.366 37.8936C143.465 37.6825 143.479 37.3869 143.437 37.0068L143.901 36.7957L146.126 41.9195L145.661 42.1165C145.408 41.8209 145.183 41.6238 144.971 41.5535C144.76 41.4831 144.507 41.5112 144.211 41.6379L131.678 47.0855L133.72 51.787L141.845 48.2538C142.141 48.1271 142.338 47.9582 142.437 47.7611C142.535 47.5641 142.563 47.2544 142.507 46.8743L142.972 46.6773L145.155 51.6884L144.69 51.8996C144.45 51.604 144.211 51.421 144 51.3506C143.789 51.2802 143.521 51.3084 143.239 51.4351L135.114 54.9682L135.058 54.9823Z" fill="#454C85"/>
<path d="M174.121 33.3891L172.53 38.8789L172.037 38.71C172.037 38.5974 172.023 38.5129 172.009 38.4566C171.938 38.1047 171.558 37.7809 170.882 37.4994C168.77 36.5704 166.46 36.3592 163.94 36.8519C162.827 37.063 161.884 37.3868 161.081 37.8232C160.504 38.1469 160.067 38.5551 159.757 39.0478C159.462 39.5405 159.349 40.0191 159.448 40.5117C159.603 41.3141 160.194 41.7645 161.222 41.8631C161.757 41.9053 162.855 41.8631 164.545 41.6942L167.066 41.4689C168.559 41.3423 169.784 41.3282 170.741 41.4126C171.699 41.5112 172.572 41.7223 173.375 42.0742C174.191 42.4402 174.881 43.0033 175.459 43.7493C176.036 44.4954 176.416 45.3399 176.599 46.2831C176.895 47.7752 176.656 49.1969 175.909 50.5482C175.233 51.7728 174.022 52.8286 172.262 53.6872C170.952 54.3347 169.516 54.8133 167.925 55.123C165.08 55.672 162.151 55.5453 159.124 54.7289C158.49 54.574 158.11 54.5037 157.997 54.5318C157.856 54.56 157.673 54.7148 157.42 54.9963L156.913 54.8556L158.223 49.1969L158.715 49.3235C158.73 49.4221 158.744 49.4784 158.758 49.5206C158.842 49.9851 159.152 50.3793 159.687 50.6749C160.49 51.1394 161.63 51.4632 163.151 51.618C164.658 51.7728 166.052 51.7306 167.333 51.4913C168.728 51.2239 169.868 50.7593 170.769 50.0977C171.262 49.7318 171.628 49.3095 171.868 48.8168C172.107 48.3241 172.178 47.8455 172.093 47.381C171.952 46.6772 171.474 46.2549 170.657 46.1001C170.079 46.0015 168.967 46.0156 167.305 46.1564L164.841 46.3816C163.179 46.5364 162.011 46.5927 161.306 46.5787C160.602 46.5646 159.884 46.452 159.152 46.2408C158.11 45.9593 157.223 45.4103 156.505 44.5798C155.843 43.8338 155.42 42.9188 155.209 41.8349C154.857 40.0472 155.209 38.4425 156.209 37.0208C157.547 35.1627 159.842 33.9099 163.109 33.2765C164.475 33.009 165.784 32.8964 167.024 32.9527C168.263 32.995 169.84 33.2202 171.741 33.6143C172.389 33.741 172.783 33.7832 172.924 33.7551C173.149 33.7129 173.375 33.5439 173.628 33.2483L174.121 33.4032V33.3891Z" fill="#454C85"/>
<path d="M193.906 36.0495L193.596 52.4344C193.596 52.7582 193.666 53.0116 193.807 53.1805C193.948 53.3494 194.216 53.4902 194.596 53.6028V54.1095L187.766 53.9828V53.4761C188.16 53.3775 188.428 53.2509 188.583 53.0819C188.738 52.913 188.808 52.6737 188.822 52.3359L189.132 35.951L182.345 35.8243C182.021 35.8243 181.781 35.8806 181.598 36.0214C181.429 36.1622 181.274 36.4296 181.162 36.8097H180.655L180.767 31.2073H181.274C181.387 31.6014 181.514 31.8689 181.683 32.0237C181.838 32.1785 182.091 32.2489 182.401 32.2489L200.721 32.6008C201.045 32.6008 201.299 32.5445 201.482 32.3897C201.651 32.2489 201.806 31.9815 201.918 31.6014H202.425L202.313 37.2038H201.806C201.707 36.8097 201.566 36.5422 201.411 36.3874C201.242 36.2466 200.989 36.1622 200.665 36.1622L193.892 36.0355L193.906 36.0495Z" fill="#454C85"/>
<path d="M213.085 48.479L211.395 54.1518L224.857 58.1636C225.167 58.2621 225.421 58.248 225.632 58.1636C225.843 58.065 226.04 57.8539 226.251 57.5301L226.744 57.6709L225.153 63.034L224.66 62.8932C224.66 62.4991 224.604 62.2035 224.491 62.0205C224.364 61.8234 224.153 61.6967 223.843 61.5982L204.833 55.9254L204.974 55.4468C205.368 55.4468 205.664 55.4046 205.861 55.2779C206.058 55.1653 206.199 54.9401 206.283 54.6304L211.508 37.1053C211.606 36.7957 211.606 36.5282 211.508 36.3311C211.409 36.12 211.198 35.9229 210.86 35.7118L211.001 35.2191L229.645 40.7793C229.955 40.8778 230.208 40.8637 230.42 40.7793C230.631 40.6807 230.828 40.4696 231.039 40.1458L231.532 40.2866L229.941 45.6497L229.448 45.5089C229.448 45.1148 229.392 44.8333 229.279 44.6362C229.166 44.4391 228.941 44.2984 228.645 44.2139L215.549 40.3148L214.085 45.2274L222.576 47.7612C222.886 47.8597 223.139 47.8456 223.351 47.7612C223.562 47.6626 223.759 47.4515 223.97 47.1277L224.463 47.2685L222.9 52.5049L222.407 52.3641C222.407 51.9841 222.351 51.6885 222.238 51.4914C222.111 51.2943 221.9 51.1536 221.604 51.055L213.113 48.5213L213.085 48.479Z" fill="#454C85"/>
<path d="M237.813 60.1342L233.954 66.187C233.785 66.4545 233.715 66.7078 233.757 66.9331C233.799 67.1583 233.94 67.4117 234.208 67.6932L233.94 68.1155L228.195 64.4556L228.462 64.0333C228.843 64.1459 229.138 64.1741 229.364 64.1178C229.575 64.0615 229.772 63.8926 229.941 63.6251L239.798 48.1974C239.981 47.9159 240.052 47.6766 240.009 47.4514C239.967 47.2261 239.826 46.9728 239.559 46.6772L239.826 46.2549L251.345 53.6027C252.753 54.5036 253.81 55.2919 254.528 55.9676C255.246 56.6573 255.781 57.3893 256.147 58.1776C256.555 59.0925 256.696 60.0638 256.541 61.0773C256.386 62.0486 256.034 62.9776 255.471 63.8503C253.57 66.8204 250.796 67.4961 247.135 65.8773L247.487 73.197C247.557 74.478 247.656 75.3366 247.783 75.7871C247.909 76.2235 248.177 76.5894 248.585 76.8991L248.318 77.3214L241.671 73.0703L241.939 72.6481C242.446 72.8733 242.769 72.8592 242.938 72.6058C243.037 72.451 243.079 71.9302 243.051 71.0434L242.755 63.3014L237.841 60.1623L237.813 60.1342ZM239.728 57.1359L245.938 61.0914C246.853 61.6826 247.515 62.0626 247.937 62.2456C248.346 62.4286 248.768 62.5412 249.191 62.5694C250.106 62.6398 250.866 62.2034 251.472 61.2462C252.077 60.289 252.162 59.4163 251.711 58.6139C251.5 58.2339 251.233 57.896 250.895 57.6145C250.557 57.333 249.923 56.8966 248.994 56.2913L242.798 52.3359L239.742 57.1078L239.728 57.1359Z" fill="#454C85"/>
<path d="M265.469 73.4786L255.697 82.2763C255.457 82.5015 255.316 82.7127 255.288 82.9379C255.26 83.1631 255.345 83.4587 255.514 83.8106L255.133 84.1485L250.838 79.3766L251.219 79.0388C251.557 79.2499 251.838 79.3625 252.063 79.3625C252.289 79.3625 252.528 79.2499 252.768 79.0247L266.385 66.7782C266.624 66.5671 266.751 66.3419 266.779 66.1307C266.807 65.9196 266.723 65.6099 266.554 65.258L266.934 64.9202L271.905 70.4381L271.524 70.7759C271.13 70.5085 270.792 70.5085 270.525 70.7478C270.342 70.9167 270.229 71.2123 270.201 71.6487L269.032 88.8922L278.565 80.3056C278.805 80.0945 278.931 79.8693 278.96 79.6581C278.988 79.4329 278.903 79.1514 278.734 78.7854L279.115 78.4475L283.409 83.2194L283.029 83.5573C282.691 83.3461 282.41 83.2335 282.184 83.2335C281.959 83.2335 281.734 83.3461 281.494 83.5573L267.877 95.8037C267.638 96.0289 267.497 96.2401 267.469 96.4653C267.441 96.6905 267.525 96.9861 267.694 97.338L267.314 97.6759L262.709 92.5661L263.089 92.2283C263.456 92.4958 263.779 92.5098 264.047 92.2705C264.202 92.1298 264.301 91.6934 264.343 90.9474L265.455 73.4786H265.469Z" fill="#454C85"/>
<path d="M111.288 101.519C127.637 79.264 153.998 64.8076 183.739 64.8076C233.349 64.8076 273.552 105.01 273.552 154.587C273.552 204.164 233.335 244.366 183.739 244.366C153.646 244.366 127.003 229.571 110.697 206.852" stroke="#454C85" stroke-width="2.4" stroke-linecap="round" stroke-linejoin="round"/>
<path d="M64.4523 86.9356C88.1237 45.4104 132.819 17.4125 184.063 17.4125C260.034 17.4125 321.613 78.9684 321.613 154.91C321.613 230.852 260.034 292.408 184.063 292.408C108.092 292.408 46.498 230.852 46.498 154.91C46.498 153.038 46.5403 151.18 46.6107 149.322" stroke="#454C85" stroke-width="2.4" stroke-linecap="round" stroke-linejoin="round"/>
<path d="M38.8233 63.8926C38.8233 63.8926 51.863 109.796 87.687 137.329C87.687 137.329 74.3656 131.361 66.2827 119.424C66.2827 119.424 39.288 83.3461 38.6402 83.2476C38.6402 83.2476 38.5416 87.6535 45.8078 101.702C45.8078 101.702 28.262 89.216 24.0374 90.5954C24.0374 90.5954 23.2066 90.1309 27.5297 92.9884C27.5297 92.9884 45.8078 106.854 51.1307 113.188C51.1307 113.188 24.7697 93.5374 13.5747 96.5779C13.5747 96.5779 12.8425 97.2254 16.5178 97.8588C16.5178 97.8588 43.7941 112.822 48.2017 116.96C48.2017 116.96 66.4798 128.165 75.112 132.473C75.112 132.473 66.7615 130.178 53.8063 125.491C53.8063 125.491 21.4746 110.809 7.43506 119.522C7.43506 119.522 19.3764 119.888 28.1916 123.562C28.1916 123.562 48.8495 129.165 58.411 131.093C58.411 131.093 91.7425 138.807 101.67 148.449C101.67 148.449 82.6598 143.86 79.8998 142.945C79.8998 142.945 30.7685 128.348 24.3332 145.057C24.3332 145.057 36.542 139.454 56.2002 143.227C56.2002 143.227 85.9549 145.803 101.29 150.392C101.29 150.392 105.05 150.941 107.627 150.856C107.627 150.856 110.471 150.955 115.794 154.896C115.794 154.896 123.229 158.753 125.806 159.95C125.806 159.95 128.651 161.146 123.229 160.414C123.229 160.414 70.648 148.843 54.9469 176.391C54.9469 176.391 75.0556 154.629 135.114 164.004C135.114 164.004 153.716 168.001 159.363 172.055C159.363 172.055 142.352 169.437 140.212 169.578C140.212 169.578 82.35 163.581 66.7896 176.532C66.7896 176.532 102.6 170.479 136.494 174.462C136.494 174.462 139.381 175.8 128.51 177.221C128.51 177.221 98.3469 183.274 77.4073 203.84C77.4073 203.84 107.627 197.041 135.269 179.051C135.269 179.051 145.183 173.364 161.715 175.11C161.715 175.11 164.601 176.701 159.884 177.123C159.884 177.123 145.042 179.98 141.705 184.077C141.705 184.077 173.008 178.333 188.991 183.696C188.991 183.696 118.047 179.15 105.514 203.798C105.514 203.798 112.541 190.988 178.669 190.439C178.669 190.439 201.256 189.06 206.086 187.821L173.445 204.895C173.445 204.895 162.348 210.399 155.462 215.847C155.462 215.847 137.48 227.277 136.452 226.995C135.424 226.714 145.816 226.784 159.532 217.015C159.532 217.015 192.047 207.795 213.676 186.864C213.676 186.864 215.606 185.766 219.464 185.343C219.464 185.343 230.49 183.133 234.348 181.627C234.348 181.627 215.056 192.916 212.31 198.42C212.31 198.42 189.991 221.689 174.98 224.039C174.98 224.039 186.555 226.517 193.342 221.829C193.342 221.829 215.479 208.879 227.322 191.115C227.322 191.115 237.235 180.093 240.136 179.825H262.864C262.864 179.825 221.816 239.171 170.023 233.668C170.023 233.668 168.742 235.779 179.57 237.243C179.57 237.243 229.532 242.747 264.244 180.783L266.652 180.712C266.652 180.712 266.934 177.334 266.793 176.025L261.906 175.954C261.906 175.954 260.203 174.068 259.02 166.819C259.02 166.819 254.147 136.794 223.294 134.134C223.294 134.134 237.432 145.24 242.023 153.137C242.023 153.137 255.063 173.421 258.006 175.265C258.006 175.265 260.118 176.18 252.401 175.912L244.501 175.729C244.501 175.729 222.83 157.458 212.536 154.516C212.536 154.516 187.372 112.287 152.843 106.502C152.843 106.502 176.078 128.996 187.104 143.227C187.104 143.227 188.752 144.874 183.893 143.325C183.893 143.325 159.462 133.782 149.365 136.527C149.365 136.527 216.732 169.761 219.351 174.308C219.351 174.308 219.76 174.997 214.395 174.026C214.395 174.026 200.623 171.689 176.092 173.069C176.092 173.069 164.658 173.899 160.109 163.018C160.109 163.018 133.115 96.409 119.329 97.887L132.185 128.545C132.185 128.545 147.619 164.158 162.123 169.127C162.123 169.127 162.771 170.69 157.251 168.212L145.126 164.356C145.126 164.356 122.483 134.387 117.259 125.843C117.259 125.843 80.3926 75.027 78.1818 74.112C78.1818 74.112 90.2639 109.317 103.628 125.561C103.628 125.561 122.356 149.66 135.03 157.782C135.03 157.782 140.127 161.639 139.156 162.469C139.156 162.469 116.019 155.586 110.922 143.748C110.922 143.748 92.7423 121.986 72.7603 109.866C72.7603 109.866 50.9899 89.4834 38.8655 63.9207L38.8233 63.8926Z" fill="#91BA3F"/>
<path d="M93.4605 226.841L88.2644 231.767C88.039 231.978 87.9123 232.204 87.8841 232.443C87.8701 232.668 87.9405 232.95 88.1235 233.288L87.7574 233.639L83.1245 228.755L83.4906 228.403C83.8286 228.6 84.1102 228.699 84.3355 228.699C84.5609 228.699 84.7862 228.572 85.0115 228.361L98.2906 215.791C98.53 215.565 98.6567 215.34 98.6849 215.115C98.713 214.89 98.6285 214.608 98.4455 214.256L98.8116 213.904L108.106 223.702C109.232 224.898 110.063 225.912 110.584 226.742C111.105 227.573 111.443 228.417 111.598 229.262C111.767 230.247 111.654 231.204 111.26 232.147C110.866 233.048 110.302 233.865 109.556 234.569C106.993 236.99 104.163 236.99 101.037 234.569L99.5861 241.705C99.3326 242.958 99.22 243.817 99.234 244.267C99.2481 244.718 99.4171 245.14 99.741 245.52L99.3749 245.872L94.0097 240.213L94.3758 239.861C94.8124 240.199 95.1222 240.255 95.3475 240.058C95.4883 239.932 95.6432 239.439 95.8403 238.58L97.4457 231.035L93.4887 226.855L93.4605 226.841ZM96.0375 224.391L101.037 229.67C101.783 230.444 102.318 230.979 102.67 231.261C103.022 231.542 103.402 231.739 103.797 231.866C104.656 232.147 105.5 231.908 106.317 231.134C107.134 230.36 107.43 229.529 107.19 228.656C107.078 228.234 106.909 227.854 106.655 227.502C106.402 227.15 105.895 226.587 105.148 225.785L100.149 220.506L96.0375 224.391V224.391Z" fill="#454C85"/>
<path d="M121.694 255.627L113.485 250.25L110.598 251.995C110.204 252.234 109.936 252.46 109.795 252.657C109.542 253.051 109.654 253.501 110.147 254.036L109.866 254.458L103.895 250.545L104.177 250.123C104.571 250.278 104.923 250.334 105.233 250.278C105.543 250.221 105.965 250.024 106.542 249.658L122.286 240.143C122.793 239.847 123.131 239.551 123.3 239.298C123.567 238.89 123.497 238.439 123.103 237.919L123.384 237.496L129.777 241.691L129.496 242.113C128.876 241.916 128.454 242.015 128.2 242.381C128.031 242.634 127.918 242.986 127.876 243.422L125.623 261.834C125.525 262.609 125.525 263.186 125.595 263.552C125.679 263.918 125.877 264.255 126.201 264.565L125.919 264.987L119.272 260.624L119.554 260.202C120.202 260.483 120.666 260.399 120.962 259.962C121.089 259.779 121.173 259.441 121.23 258.963L121.652 255.613L121.694 255.627ZM122.187 252.417L123.483 244.07L116.287 248.546L122.187 252.417Z" fill="#454C85"/>
<path d="M142.507 255.289L139.085 267.958C139.001 268.267 139.001 268.535 139.099 268.732C139.198 268.929 139.423 269.14 139.761 269.337L139.634 269.83L133.509 268.183L133.636 267.69C134.03 267.69 134.326 267.62 134.509 267.493C134.692 267.366 134.832 267.155 134.917 266.831L139.677 249.194C139.761 248.884 139.747 248.631 139.648 248.434C139.55 248.237 139.325 248.025 138.987 247.828L139.113 247.336L146.196 249.25L146.07 249.743C145.605 249.743 145.323 249.912 145.225 250.264C145.154 250.503 145.225 250.813 145.436 251.193L153.702 266.24L157.039 253.881C157.124 253.572 157.11 253.318 157.011 253.121C156.913 252.924 156.687 252.713 156.349 252.516L156.476 252.023L162.602 253.67L162.475 254.163C162.081 254.163 161.785 254.233 161.602 254.36C161.419 254.486 161.278 254.698 161.194 255.007L156.434 272.645C156.349 272.955 156.349 273.222 156.448 273.419C156.547 273.616 156.772 273.827 157.11 274.024L156.983 274.517L150.421 272.744L150.548 272.251C150.998 272.279 151.266 272.11 151.364 271.772C151.421 271.575 151.266 271.139 150.9 270.505L142.479 255.303L142.507 255.289Z" fill="#454C85"/>
<path d="M185.935 269.985H180.612C180.288 269.985 180.035 270.055 179.88 270.21C179.711 270.351 179.584 270.618 179.472 270.998H178.965V265.973H179.472C179.57 266.367 179.711 266.634 179.88 266.775C180.049 266.916 180.288 266.986 180.612 266.986H190.85V267.493C190.47 267.592 190.216 267.732 190.061 267.901C189.906 268.07 189.836 268.324 189.836 268.647V273.067C189.836 273.391 189.906 273.645 190.047 273.813C190.188 273.982 190.455 274.123 190.836 274.222V274.616C186.738 276.952 182.767 278.121 178.923 278.121C175.43 278.121 172.586 277.29 170.389 275.643C167.615 273.56 166.235 270.66 166.235 266.944C166.235 263.481 167.474 260.736 169.938 258.695C172.276 256.753 175.388 255.782 179.275 255.782C180.514 255.782 181.668 255.894 182.767 256.119C183.865 256.345 185.104 256.725 186.499 257.26C187.217 257.541 187.724 257.682 188.033 257.682C188.259 257.682 188.512 257.555 188.808 257.316L189.244 257.555L186.71 262.721L186.245 262.482C186.245 262.13 186.189 261.891 186.104 261.736C186.02 261.581 185.837 261.398 185.541 261.173C184.893 260.694 183.95 260.272 182.711 259.934C181.471 259.596 180.288 259.427 179.19 259.427C176.937 259.427 175.064 260.061 173.586 261.328C171.91 262.763 171.079 264.65 171.079 267C171.079 269.351 171.896 271.111 173.529 272.518C175.022 273.799 176.993 274.447 179.444 274.447C180.64 274.447 181.809 274.306 182.964 274.039C184.119 273.771 185.118 273.391 185.963 272.913V269.971L185.935 269.985Z" fill="#454C85"/>
<path d="M203.256 265.621L204.256 271.448L217.943 269.098C218.253 269.041 218.478 268.929 218.619 268.76C218.76 268.591 218.845 268.309 218.887 267.915L219.38 267.831L220.323 273.335L219.83 273.419C219.661 273.067 219.478 272.828 219.295 272.715C219.112 272.603 218.859 272.561 218.535 272.617L199.215 275.939L199.13 275.446C199.482 275.277 199.721 275.094 199.834 274.911C199.947 274.728 199.975 274.461 199.933 274.137L196.835 256.147C196.778 255.824 196.666 255.599 196.497 255.458C196.328 255.317 196.046 255.233 195.652 255.19L195.567 254.698L214.521 251.446C214.831 251.39 215.057 251.277 215.197 251.094C215.338 250.911 215.423 250.63 215.465 250.249L215.958 250.165L216.901 255.669L216.408 255.753C216.239 255.401 216.056 255.162 215.873 255.05C215.69 254.937 215.437 254.895 215.113 254.951L201.806 257.231L202.679 262.285L211.311 260.807C211.621 260.75 211.846 260.638 211.987 260.469C212.128 260.3 212.212 260.018 212.254 259.624L212.747 259.54L213.677 264.917L213.184 265.002C213.015 264.65 212.832 264.424 212.649 264.298C212.451 264.171 212.198 264.143 211.888 264.199L203.256 265.677V265.621Z" fill="#454C85"/>
<path d="M233.208 262.806L245.037 256.795C245.332 256.64 245.515 256.471 245.6 256.26C245.684 256.049 245.684 255.753 245.6 255.373L246.051 255.148L248.585 260.117L248.135 260.342C247.867 260.047 247.628 259.878 247.416 259.821C247.205 259.765 246.938 259.821 246.656 259.962L229.73 268.577L229.504 268.126C229.8 267.859 229.969 267.62 230.025 267.409C230.082 267.197 230.025 266.93 229.885 266.648L221.605 250.376C221.45 250.081 221.281 249.898 221.07 249.813C220.858 249.729 220.563 249.729 220.182 249.813L219.957 249.363L225.956 246.308L226.181 246.759C225.885 247.012 225.716 247.251 225.66 247.476C225.604 247.702 225.66 247.955 225.801 248.251L233.222 262.834L233.208 262.806Z" fill="#454C85"/>
<path d="M263.145 240.692L255.401 246.702L256.119 249.996C256.217 250.447 256.344 250.77 256.499 250.967C256.781 251.333 257.259 251.376 257.921 251.08L258.231 251.474L252.598 255.852L252.288 255.458C252.57 255.134 252.739 254.824 252.781 254.515C252.824 254.205 252.781 253.726 252.626 253.079L248.726 235.117C248.599 234.54 248.444 234.132 248.247 233.893C247.951 233.513 247.501 233.428 246.881 233.625L246.571 233.231L252.612 228.544L252.922 228.938C252.542 229.459 252.486 229.895 252.753 230.247C252.936 230.486 253.232 230.698 253.626 230.881L270.327 238.974C271.031 239.312 271.566 239.509 271.933 239.552C272.299 239.594 272.679 239.509 273.087 239.312L273.397 239.706L267.117 244.577L266.807 244.183C267.286 243.662 267.356 243.197 267.032 242.761C266.891 242.592 266.61 242.395 266.187 242.184L263.16 240.692H263.145ZM260.259 239.186L252.781 235.258L254.682 243.507L260.259 239.186V239.186Z" fill="#454C85"/>
<path d="M268.426 220.225L279.438 227.375C279.706 227.558 279.959 227.629 280.184 227.601C280.41 227.573 280.663 227.418 280.959 227.164L281.381 227.446L277.931 232.767L277.509 232.485C277.622 232.105 277.65 231.81 277.593 231.598C277.537 231.387 277.368 231.19 277.087 231.007L261.751 221.055C261.484 220.886 261.245 220.816 261.019 220.844C260.794 220.872 260.54 221.027 260.245 221.28L259.822 220.999L263.821 214.847L264.244 215.129C264.089 215.565 264.174 215.889 264.483 216.1C264.695 216.241 265.004 216.269 265.427 216.185L282.297 212.947L271.552 205.965C271.285 205.796 271.045 205.726 270.82 205.754C270.595 205.782 270.341 205.937 270.046 206.191L269.623 205.909L273.073 200.588L273.496 200.87C273.383 201.25 273.355 201.545 273.411 201.756C273.467 201.968 273.636 202.165 273.904 202.334L289.239 212.286C289.507 212.469 289.76 212.539 289.985 212.511C290.211 212.483 290.464 212.328 290.76 212.074L291.182 212.356L287.479 218.057L287.056 217.775C287.211 217.353 287.155 217.043 286.845 216.846C286.662 216.734 286.211 216.748 285.493 216.889L268.426 220.225V220.225Z" fill="#454C85"/>
<path d="M295.646 200.842L277.791 196.985C277.467 196.914 277.213 196.928 277.016 197.041C276.819 197.154 276.636 197.379 276.453 197.731L275.96 197.618L278.509 185.85C279.072 183.274 279.79 181.36 280.677 180.107C281.959 178.319 283.691 177.151 285.859 176.63C287.563 176.208 289.464 176.222 291.534 176.672C295.167 177.461 297.702 179.178 299.124 181.824C299.73 182.936 300.068 184.161 300.138 185.484C300.209 186.822 300.04 188.454 299.617 190.411L297.069 202.179L296.576 202.066C296.547 201.672 296.477 201.391 296.336 201.208C296.195 201.025 295.97 200.898 295.66 200.827L295.646 200.842ZM294.787 195.83L296.041 190.045C296.435 188.201 296.491 186.751 296.181 185.724C295.534 183.499 293.633 182.05 290.506 181.374C288.239 180.881 286.38 181.05 284.944 181.853C284.141 182.303 283.508 182.922 283.043 183.711C282.578 184.499 282.198 185.583 281.888 186.99L280.635 192.776L294.773 195.83H294.787Z" fill="#454C85"/>
<path d="M286.324 149.688L291.168 152.7L290.873 153.123C290.774 153.109 290.689 153.094 290.619 153.08C290.267 153.052 289.859 153.32 289.394 153.897C287.929 155.656 287.085 157.796 286.873 160.316C286.775 161.428 286.831 162.427 287.028 163.3C287.183 163.933 287.451 164.468 287.845 164.89C288.225 165.313 288.676 165.538 289.169 165.58C289.971 165.651 290.563 165.214 290.943 164.257C291.14 163.764 291.379 162.695 291.703 161.048L292.168 158.598C292.45 157.148 292.774 155.966 293.126 155.093C293.478 154.207 293.928 153.432 294.492 152.771C295.069 152.095 295.787 151.602 296.674 151.25C297.547 150.913 298.463 150.786 299.42 150.856C300.927 150.983 302.236 151.588 303.321 152.672C304.321 153.643 304.982 155.079 305.334 156.994C305.602 158.415 305.672 159.922 305.532 161.498C305.278 164.341 304.363 167.086 302.758 169.747C302.434 170.31 302.265 170.648 302.251 170.76C302.251 170.901 302.335 171.126 302.546 171.436L302.265 171.872L297.195 169.085L297.449 168.649H297.66C298.139 168.705 298.589 168.522 299.026 168.1C299.688 167.466 300.307 166.467 300.871 165.073C301.434 163.68 301.772 162.343 301.884 161.062C302.011 159.668 301.884 158.458 301.49 157.43C301.279 156.867 300.969 156.388 300.561 156.036C300.152 155.685 299.716 155.473 299.237 155.431C298.519 155.375 297.984 155.713 297.618 156.445C297.364 156.965 297.069 158.021 296.759 159.64L296.294 162.047C295.984 163.666 295.731 164.792 295.52 165.454C295.308 166.115 294.998 166.763 294.604 167.41C294.055 168.325 293.281 169.015 292.281 169.479C291.379 169.902 290.38 170.056 289.281 169.958C287.465 169.803 286.014 169.043 284.93 167.692C283.508 165.918 282.93 163.398 283.226 160.119C283.339 158.739 283.592 157.472 283.987 156.318C284.367 155.15 285.015 153.714 285.916 152.011C286.211 151.419 286.366 151.053 286.38 150.927C286.395 150.701 286.296 150.434 286.085 150.124L286.366 149.702L286.324 149.688Z" fill="#454C85"/>
<path d="M117.414 303.078C119.667 303.965 121.258 305.33 122.216 307.174C123.159 309.018 123.244 310.933 122.469 312.917C122.399 313.1 122.258 313.354 122.061 313.678C121.864 314.001 121.737 314.241 121.681 314.395C121.652 314.48 121.681 314.55 121.807 314.592C122.089 314.705 122.455 314.156 122.934 312.946C123.779 310.806 123.708 308.723 122.709 306.71C121.709 304.697 120.033 303.219 117.667 302.29C114.358 300.981 110.795 300.938 107.007 302.177C103.219 303.416 98.7414 306.062 93.5734 310.13C86.5043 315.705 82.829 318.435 82.5755 318.337L82.5474 318.28C82.5474 318.28 82.5896 318.196 82.6319 318.21C84.8427 316.352 87.0817 312.692 89.3629 307.245C91.2217 302.782 92.5454 299.911 93.334 298.63C94.1226 297.349 95.2209 296.279 96.6432 295.42C96.9248 295.266 97.0797 295.181 97.0797 295.139C97.0797 295.097 97.0516 295.04 97.0093 295.012C96.6573 294.871 95.6293 295.097 93.9254 295.674C91.447 296.533 87.659 298.869 82.5755 302.712C76.3373 307.428 71.2397 310.468 67.3109 311.834C63.368 313.199 59.6927 313.199 56.2567 311.834C54.4683 311.13 53.1306 310.172 52.2716 308.948C51.4126 307.737 51.2014 306.541 51.6661 305.358C51.9759 304.57 52.2575 304.218 52.4969 304.317C52.6096 304.359 52.6236 304.528 52.4969 304.823C52.1871 305.598 52.3983 306.133 53.1306 306.428C53.5812 306.597 54.0177 306.583 54.4683 306.372C54.919 306.161 55.2288 305.809 55.4259 305.33C55.792 304.415 55.4822 303.754 54.5247 303.374C53.8628 303.106 53.201 303.148 52.5532 303.486C51.9055 303.824 51.4408 304.359 51.1451 305.119C50.624 306.428 50.8353 307.751 51.7506 309.075C52.6659 310.398 54.1022 311.453 56.0173 312.199C59.4392 313.551 63.1709 313.706 67.2264 312.678C71.282 311.651 75.3093 309.525 79.3226 306.287C84.0119 302.515 86.8986 300.221 87.9688 299.404C89.0391 298.588 90.1938 297.856 91.4189 297.194C93.7283 295.927 95.1083 295.406 95.5448 295.646C95.4885 295.702 95.4322 295.758 95.3899 295.786C93.3481 296.744 91.6301 298.109 90.2219 299.855C88.8137 301.6 87.5041 304.035 86.279 307.132C85.5468 308.99 84.7441 311.228 83.8851 313.861C83.5331 314.916 83.2655 315.676 83.0965 316.127C82.1672 318.478 80.942 319.688 79.4071 319.773C78.6186 319.829 78.1679 319.984 78.0553 320.265C77.9708 320.476 78.0553 320.631 78.2665 320.73C78.6608 320.885 79.7873 320.448 81.6461 319.421C83.4908 318.393 85.3919 317.14 87.3492 315.662C94.0944 310.567 98.5302 307.414 100.642 306.217C107.373 302.36 112.978 301.318 117.428 303.064L117.414 303.078Z" fill="#454C85" stroke="#454C85" stroke-width="0.5" stroke-linecap="round" stroke-linejoin="round"/>
<path d="M65.6213 300.333C67.9025 301.234 70.3527 301.206 72.986 300.263C74.2534 299.812 74.9575 299.446 75.0701 299.151C75.1265 299.024 75.0983 298.94 74.9856 298.883C74.9575 298.883 74.9011 298.883 74.8167 298.94C73.5071 299.77 72.0285 300.291 70.3668 300.502C68.7052 300.713 67.1984 300.544 65.8747 300.024C64.3821 299.432 63.34 298.475 62.7627 297.138C62.1853 295.801 62.1994 294.379 62.7908 292.873C63.9455 289.945 66.4803 287.763 70.4091 286.313C74.3379 284.863 77.9428 284.793 81.252 286.088C82.4067 286.538 83.2516 287.13 83.7867 287.862C84.3218 288.594 84.4486 289.311 84.1529 290.057C83.9135 290.649 83.139 291.521 81.8153 292.662C80.7592 293.577 80.0551 294.435 79.7312 295.266C79.3932 296.11 79.3932 296.941 79.7312 297.743C80.0691 298.546 80.6324 299.109 81.4492 299.432C82.632 299.897 84.1388 299.686 85.9694 298.785C87.1804 298.194 87.8423 297.743 87.969 297.419C88.0113 297.307 87.969 297.222 87.8564 297.18C87.7859 297.152 87.6733 297.18 87.5466 297.307C86.6172 298.067 85.561 298.616 84.3922 298.94C83.2235 299.263 82.28 299.292 81.5618 298.996C80.3508 298.517 79.9565 297.729 80.393 296.631C80.5479 296.237 80.9141 295.787 81.5055 295.252C83.1953 293.731 84.2233 292.521 84.5894 291.606C85.0823 290.367 85.0541 289.227 84.5049 288.199C83.9557 287.172 82.97 286.369 81.5196 285.792C77.9991 284.399 74.2393 284.441 70.226 285.891C66.2268 287.341 63.6076 289.635 62.3684 292.76C61.7347 294.379 61.7206 295.885 62.3261 297.293C62.9317 298.7 64.0441 299.714 65.6354 300.347L65.6213 300.333Z" fill="#454C85" stroke="#454C85" stroke-width="0.5" stroke-linecap="round" stroke-linejoin="round"/>
<path d="M194.328 329.528C192.737 331.653 191.301 333.3 189.991 334.482C188.696 335.665 187.09 336.777 185.175 337.804C188.358 331.794 190.878 327.233 192.751 324.122C192.118 324.249 191.582 324.319 191.16 324.333C190.639 324.347 190.188 324.333 189.822 324.277L187.752 327.993C184.387 334.032 181.838 337.087 180.12 337.143C179.472 337.171 179.134 336.833 179.106 336.129C179.078 335.482 179.712 334.074 180.979 331.935L185.429 324.347C184.697 324.474 184.133 324.559 183.711 324.573C183.232 324.587 182.81 324.573 182.443 324.516L179.514 329.711C179.514 329.711 179.514 329.682 179.486 329.668C179.374 329.668 179.275 329.739 179.191 329.894C175.543 334.75 173.051 337.171 171.713 337.143C171.108 337.143 170.812 336.777 170.826 336.087C170.826 335.468 171.403 334.215 172.544 332.329C173.685 330.443 177.67 324.15 184.528 313.424C184.021 313.607 183.457 313.692 182.852 313.678C182.486 313.678 182.063 313.607 181.584 313.466C179.557 316.859 177.064 320.857 174.107 325.474C172.952 327.289 172.023 328.739 171.319 329.865C171.319 329.865 171.319 329.865 171.305 329.894C167.503 334.637 164.94 336.974 163.602 336.904C162.997 336.875 162.715 336.509 162.743 335.82C162.771 335.2 163.391 333.962 164.574 332.118C165.757 330.274 169.967 324.094 177.149 313.607C176.628 313.762 176.064 313.832 175.473 313.804C175.107 313.79 174.684 313.706 174.22 313.565C172.079 316.887 169.474 320.814 166.376 325.333C165.151 327.12 164.179 328.556 163.447 329.654C163.433 329.654 163.447 329.612 163.405 329.598C163.32 329.598 163.236 329.654 163.123 329.809C161.476 331.738 159.899 333.342 158.364 334.623C156.829 335.904 155.744 336.509 155.111 336.453C154.491 336.397 154.224 336.003 154.294 335.271C154.364 334.511 155.252 333.018 156.927 330.794L161.786 324.432C161.096 324.474 160.532 324.474 160.11 324.432C159.744 324.39 159.335 324.305 158.871 324.15L157.448 326.276C157.617 325.854 157.716 325.516 157.744 325.248C157.829 324.319 157.392 323.813 156.406 323.714C155.252 323.601 153.674 323.967 151.703 324.798C149.351 325.769 147.591 326.895 146.38 328.162C146.366 328.162 146.352 328.148 146.338 328.148C146.253 328.148 146.042 328.275 145.662 328.556C143.902 330.316 142.409 331.09 141.184 330.907C140.184 330.752 139.79 330.034 139.987 328.753C140.057 328.289 140.255 327.726 140.592 327.064L140.916 326.881C141.677 326.572 142.24 326.346 142.62 326.177C145.014 325.15 146.267 324.277 146.38 323.545C146.45 323.137 146.239 322.884 145.746 322.813C145.042 322.701 144.169 323.038 143.141 323.827C142.113 324.601 141.198 325.628 140.381 326.895C139.55 327.36 138.663 327.993 137.692 328.782C139.283 327.036 140.17 325.572 140.353 324.404C140.592 322.827 140.086 321.94 138.832 321.743C137.959 321.603 136.072 322.926 133.171 325.699L132.65 326.206C132.65 326.206 132.608 326.262 132.594 326.29C132.58 326.29 132.566 326.276 132.552 326.262C132.467 326.248 132.383 326.304 132.27 326.445L131.749 326.853L130.82 327.684C127.215 330.921 124.793 332.413 123.539 332.16C122.906 332.033 122.652 331.639 122.779 330.977C122.948 330.175 124.215 328.542 126.567 326.093L131.538 320.927C130.806 320.885 130.228 320.828 129.848 320.744C129.524 320.674 129.13 320.533 128.665 320.336L125.595 323.63C120.934 328.627 117.822 330.963 116.245 330.626C115.654 330.499 115.428 330.105 115.569 329.415C115.71 328.711 116.161 327.979 116.907 327.177L124.314 319.421C123.525 319.364 122.99 319.308 122.695 319.252C122.399 319.196 121.99 319.055 121.484 318.83L117.4 323.193C117.4 323.193 117.4 323.193 117.386 323.193C117.301 323.179 117.203 323.221 117.048 323.348C112.528 327.289 109.556 329.077 108.148 328.739C107.416 328.556 107.148 328.134 107.303 327.458C107.458 326.839 107.979 326.093 108.866 325.22L116.161 317.915L119.202 318.675L119.47 318.379L116.442 317.619L120.188 313.903C119.695 313.903 119.23 313.861 118.794 313.748C118.371 313.649 117.949 313.481 117.512 313.241L113.71 316.943L111.401 316.366L111.091 316.648L113.457 317.239L109.162 321.476C109.162 321.476 109.035 321.546 108.965 321.603C106.993 323.193 105.135 324.474 103.388 325.445C101.642 326.417 100.474 326.811 99.854 326.628C99.2625 326.459 99.0654 326.023 99.2625 325.319C99.4737 324.587 100.614 323.292 102.684 321.406L108.641 316.056C107.951 315.972 107.402 315.859 106.993 315.747C106.641 315.648 106.247 315.479 105.825 315.24L104.022 317.056C104.262 316.676 104.431 316.352 104.501 316.113C104.754 315.226 104.416 314.635 103.473 314.367C102.361 314.044 100.741 314.1 98.6429 314.55C93.8551 315.55 91.0529 317.464 90.222 320.322C89.9263 321.349 89.9545 322.278 90.3065 323.109C90.6586 323.939 91.2359 324.488 92.0527 324.713C92.8131 324.939 93.7143 324.798 94.7282 324.305C95.7562 323.813 97.3333 322.743 99.4597 321.11C98.6992 321.898 98.2064 322.701 97.967 323.503C97.7417 324.277 97.7699 324.981 98.0656 325.628C98.3613 326.276 98.8541 326.698 99.5582 326.895C100.6 327.191 102.332 326.557 104.754 324.967C105.839 324.263 106.74 323.672 107.444 323.179C106.613 324.094 106.092 324.939 105.909 325.685C105.712 326.445 105.796 327.149 106.163 327.782C106.529 328.416 107.064 328.824 107.796 328.993C109.261 329.359 111.936 327.937 115.823 324.728L116.287 324.347L115.78 324.882C114.837 325.868 114.288 326.811 114.105 327.684C113.95 328.444 114.048 329.133 114.4 329.753C114.767 330.372 115.288 330.752 115.963 330.893C116.611 331.034 117.386 330.837 118.259 330.302C119.047 329.837 120.357 328.852 122.159 327.36L122.751 326.839C121.92 327.768 121.455 328.542 121.329 329.133C121.174 329.894 121.272 330.583 121.638 331.231C122.005 331.864 122.526 332.258 123.216 332.399C124.314 332.624 126.018 331.85 128.327 330.091C130.932 328.12 132.341 326.923 132.58 326.473C132.693 326.473 132.833 326.403 132.988 326.22C135.819 323.278 137.663 321.884 138.551 322.011C138.917 322.067 139.058 322.306 139.001 322.743C138.889 323.475 137.621 325.22 135.213 327.979L130.397 333.483C131.299 333.553 131.791 333.61 131.848 333.61C131.989 333.638 132.467 333.736 133.298 333.933C135.213 331.625 136.551 330.119 137.297 329.387C138.044 328.655 138.987 327.951 140.1 327.261C139.804 327.895 139.635 328.416 139.565 328.852C139.353 330.203 139.846 330.963 141.043 331.146C142.099 331.315 143.324 330.837 144.718 329.739C145.042 329.485 145.31 329.274 145.549 329.077C144.916 329.992 144.535 330.963 144.437 332.005C144.338 333.075 144.535 333.976 145.042 334.736C145.549 335.496 146.211 335.904 147.056 335.989C147.845 336.059 148.704 335.763 149.619 335.088C150.534 334.412 151.886 333.075 153.674 331.076C153.069 331.991 152.731 332.878 152.646 333.708C152.576 334.511 152.731 335.2 153.139 335.777C153.548 336.355 154.111 336.678 154.843 336.749C155.927 336.847 157.505 335.904 159.589 333.891C160.884 332.653 161.87 331.695 162.518 330.992C162.222 331.442 162.011 331.794 161.884 332.005C161.448 332.779 161.194 333.596 161.152 334.44C161.11 335.214 161.307 335.862 161.715 336.383C162.123 336.904 162.673 337.185 163.363 337.213C164.785 337.284 167.08 335.383 170.249 331.526C170.066 331.85 169.911 332.104 169.812 332.287C169.39 333.075 169.178 333.905 169.164 334.75C169.164 335.524 169.361 336.172 169.784 336.678C170.206 337.185 170.77 337.453 171.46 337.467C172.896 337.495 175.149 335.496 178.219 331.498L178.937 330.569L178.895 330.64C177.825 332.554 177.304 333.948 177.332 334.82C177.36 335.552 177.613 336.172 178.12 336.692C178.627 337.213 179.205 337.467 179.852 337.453C180.613 337.424 181.359 337.058 182.091 336.341C182.81 335.623 183.964 334.145 185.556 331.864L181.599 339.268L181.247 339.494C180.05 340.057 179.162 340.493 178.571 340.817C171.319 344.392 167.742 347.728 167.841 350.839C167.855 351.43 168.094 351.909 168.545 352.303C168.995 352.697 169.545 352.88 170.192 352.852C172.107 352.796 174.318 351.698 176.839 349.586C179.289 347.545 181.599 344.463 183.767 340.366L184.865 338.283C187.935 336.509 190.4 334.553 192.272 332.427C193.962 330.485 194.807 329.401 194.793 329.162C194.793 329.063 194.737 329.021 194.652 329.021C194.582 329.021 194.455 329.162 194.23 329.457L194.328 329.528ZM99.2907 320.927C95.6998 323.573 93.3763 324.742 92.3202 324.432C91.4331 324.179 91.1373 323.559 91.419 322.602C91.8978 320.955 93.6721 319.125 96.7419 317.112C99.8117 315.099 102.037 314.297 103.445 314.705C104.135 314.902 104.374 315.367 104.163 316.099C103.853 317.14 102.234 318.745 99.3048 320.927H99.2907ZM153.491 330.949C150.464 334.215 148.394 335.806 147.295 335.693C146.38 335.609 145.972 335.06 146.056 334.06C146.225 332.343 147.619 330.217 150.253 327.684C152.886 325.136 154.928 323.939 156.392 324.08C157.11 324.15 157.42 324.559 157.35 325.319C157.251 326.403 155.956 328.275 153.477 330.963L153.491 330.949ZM181.148 340.212C178.824 344.744 176.867 347.939 175.248 349.769C173.642 351.599 171.995 352.542 170.305 352.599C168.967 352.641 168.277 352.078 168.249 350.924C168.15 348.137 171.671 344.885 178.796 341.141C180.317 340.352 181.204 339.874 181.444 339.733L181.148 340.212Z" fill="#454C85" stroke="#454C85" stroke-width="0.5" stroke-linecap="round" stroke-linejoin="round"/>
<path d="M244.487 309.595C244.445 309.497 244.375 309.455 244.276 309.469C243.868 309.511 243.178 310.229 242.192 311.622C241.206 313.016 240.277 314.607 239.39 316.38C235.236 322.461 231.574 326.121 228.406 327.346L228.35 326.853C227.927 322.898 225.519 320.772 221.126 320.49C221.309 319.547 221.619 318.618 222.055 317.717C225.026 316.704 228.096 315.127 231.279 312.988C234.447 310.848 237.277 308.427 239.756 305.724C239.883 306.287 239.981 306.907 240.052 307.582C240.277 309.778 239.897 311.932 238.897 314.058C238.855 314.142 238.826 314.227 238.826 314.311C238.855 314.41 238.911 314.452 238.995 314.438C239.122 314.424 239.319 314.1 239.559 313.452C240.375 311.327 240.699 309.384 240.502 307.625C240.432 307.019 240.291 306.273 240.066 305.387C241.727 303.388 242.488 301.783 242.361 300.572C242.22 299.263 241.361 298.686 239.77 298.855C238.953 298.94 237.714 299.39 236.066 300.221C233.391 298.531 230.11 297.898 226.209 298.306C221.295 298.827 217.084 300.572 213.578 303.557C210.071 306.541 208.494 309.708 208.846 313.044C209.043 314.973 210.001 316.437 211.677 317.436C213.367 318.435 215.521 318.787 218.154 318.52C218.563 318.478 218.915 318.421 219.211 318.365C219.084 319.421 219.056 320.153 219.098 320.561C218.943 320.547 218.774 320.547 218.577 320.561C216.253 320.8 213.803 321.771 211.226 323.475C208.649 325.164 206.692 327.233 205.368 329.682C204.03 332.132 203.509 334.623 203.777 337.157C204.087 340.141 205.382 342.436 207.649 344.04C209.917 345.645 212.747 346.278 216.113 345.926C220.098 345.504 223.872 344.04 227.448 341.535C229.941 339.789 231.828 337.889 233.095 335.848C234.362 333.807 235.32 331.132 235.982 327.824C236.503 325.108 236.982 323.109 237.39 321.828C237.798 320.547 238.488 318.914 239.46 316.929C240.643 315.705 241.784 314.269 242.896 312.636C244.008 311.003 244.544 309.99 244.501 309.581L244.487 309.595ZM226.04 322.841C227.251 323.996 227.899 325.558 227.998 327.515C227.575 327.627 227.139 327.698 226.66 327.754C225.125 327.923 223.829 327.599 222.801 326.825C221.773 326.037 221.168 324.925 221.013 323.461C220.928 322.63 220.957 321.771 221.112 320.913C223.182 321.039 224.815 321.687 226.026 322.841H226.04ZM239.868 299.263C241.108 299.137 241.784 299.601 241.91 300.685C242.023 301.797 241.361 303.219 239.925 304.936C239.221 303.092 238.094 301.642 236.559 300.572C237.813 299.798 238.925 299.362 239.868 299.249V299.263ZM236.179 300.77C237.841 301.882 238.981 303.402 239.615 305.302C237.193 307.934 234.405 310.341 231.25 312.495C228.096 314.663 225.097 316.239 222.252 317.225C223.548 314.17 225.505 311.116 228.11 308.033C230.715 304.95 233.405 302.529 236.179 300.77V300.77ZM218.464 318.041C215.775 318.323 213.634 318.013 212.015 317.126C210.395 316.225 209.494 314.846 209.297 312.96C208.973 309.905 210.593 306.893 214.141 303.951C217.69 301.009 221.773 299.292 226.378 298.799C230.194 298.391 233.278 298.94 235.63 300.432C226.012 305.64 220.576 311.496 219.323 317.957L218.464 318.041V318.041ZM235.292 324.559C231.856 331.949 228.688 337.185 225.829 340.254C222.956 343.322 219.591 345.054 215.732 345.462C212.888 345.758 210.508 345.265 208.593 343.984C206.678 342.689 205.593 340.859 205.34 338.494C204.918 334.539 206.086 330.808 208.846 327.318C211.592 323.827 215.028 321.729 219.126 321.039C219.38 323.461 220.182 325.319 221.548 326.6C222.914 327.895 224.632 328.415 226.73 328.204C227.209 328.148 227.617 328.078 227.969 327.979C227.941 329.964 227.153 331.963 225.59 333.962C224.026 335.96 222.407 337.044 220.731 337.227C219.901 337.312 219.168 337.129 218.563 336.692C217.957 336.242 217.605 335.637 217.521 334.862C217.464 334.384 217.535 333.877 217.732 333.314C217.915 332.751 218.14 332.469 218.38 332.441C218.478 332.441 218.535 332.469 218.549 332.568C218.549 332.681 218.549 332.807 218.549 332.948C218.506 333.201 218.492 333.384 218.506 333.497C218.591 334.271 219.056 334.609 219.929 334.511C220.393 334.454 220.788 334.229 221.126 333.807C221.464 333.384 221.604 332.948 221.562 332.469C221.45 331.428 220.816 330.963 219.675 331.076C218.929 331.16 218.281 331.583 217.732 332.371C217.183 333.159 216.972 334.004 217.07 334.905C217.155 335.777 217.563 336.467 218.267 336.988C218.971 337.509 219.816 337.72 220.774 337.621C222.59 337.424 224.294 336.326 225.871 334.285C227.448 332.258 228.293 330.105 228.378 327.824C231.377 326.67 234.827 323.404 238.714 318.055C237.489 320.096 236.348 322.278 235.306 324.573L235.292 324.559Z" fill="#454C85" stroke="#454C85" stroke-width="0.5" stroke-linecap="round" stroke-linejoin="round"/>
<path d="M308.475 303.205C308.433 303.12 308.376 303.092 308.278 303.12C308.207 303.148 308.151 303.261 308.151 303.444C306.855 309.652 305.518 313.03 304.166 313.607C303.546 313.875 303.096 313.692 302.842 313.058C302.589 312.467 302.744 310.806 303.265 308.061C303.786 305.387 303.828 303.529 303.405 302.515C303.067 301.713 302.561 301.136 301.871 300.77C301.181 300.418 300.505 300.375 299.843 300.657C299.026 300.995 298.322 301.825 297.745 303.148C297.167 304.458 296.491 306.724 295.731 309.947C296.153 307.737 296.153 306.147 295.731 305.175C295.463 304.528 295.041 304.035 294.478 303.726C293.914 303.402 293.379 303.36 292.858 303.571C292.056 303.909 291.14 306.119 290.112 310.215L289.915 310.961C289.915 310.961 289.887 311.102 289.901 311.186C289.901 311.2 289.929 311.2 289.929 311.214C289.817 311.242 289.662 311.496 289.465 311.974C288.422 314.649 287.31 316.169 286.141 316.535C285.493 316.746 284.86 316.549 284.254 315.972C285.719 311.665 286.24 308.849 285.831 307.526C285.677 307.034 285.423 306.851 285.057 306.963C284.24 307.231 283.635 308.244 283.24 310.018C282.846 311.805 282.874 313.382 283.311 314.79C283.395 315.071 283.578 315.493 283.86 316.042C282.635 320.139 281.227 322.447 279.621 322.954C278.819 323.207 278.298 322.954 278.058 322.18C277.847 321.504 278.002 320.11 278.523 317.999L280.917 308.483C280.593 308.666 280.156 308.849 279.607 309.018C279.382 309.089 278.847 309.215 277.974 309.412L276.777 314.79C276.143 317.577 275.369 319.984 274.467 321.997C273.566 324.01 272.749 325.122 272.045 325.347C271.398 325.544 270.961 325.305 270.75 324.587C270.553 323.953 270.665 322.827 271.074 321.194L273.651 310.778C272.918 311.13 272.411 311.355 272.144 311.439C271.848 311.538 271.369 311.622 270.708 311.721L269.215 318.21C269.215 318.21 269.173 318.281 269.145 318.351C268.764 319.435 268.173 320.434 267.37 321.335C266.568 322.236 265.807 322.771 265.089 322.954C264.695 323.052 264.3 323.038 263.934 322.926C265.244 319.871 265.68 317.422 265.23 315.578C264.878 314.114 264.005 313.537 262.639 313.875C261.16 314.227 259.484 315.493 257.612 317.661C255.908 319.618 254.866 321.448 254.485 323.165C253.542 324.896 252.528 325.882 251.458 326.079C250.43 326.276 249.796 325.685 249.543 324.333C249.458 323.855 249.444 323.207 249.543 322.433L249.782 322.137C250.416 321.56 250.881 321.138 251.19 320.842C253.162 318.984 254.077 317.661 253.936 316.887C253.852 316.451 253.556 316.282 253.063 316.38C252.331 316.521 251.613 317.154 250.881 318.309C250.148 319.449 249.613 320.8 249.275 322.363C248.627 323.123 247.98 324.066 247.318 325.192C248.261 322.884 248.599 321.11 248.374 319.871C248.064 318.21 247.247 317.492 245.952 317.746C245.065 317.915 243.685 319.899 241.812 323.686L241.488 324.376C241.488 324.376 241.432 324.502 241.432 324.587C241.446 324.671 241.488 324.713 241.558 324.713C241.671 324.699 241.784 324.559 241.882 324.305C243.6 320.364 244.924 318.323 245.825 318.14C246.191 318.069 246.431 318.266 246.515 318.717C246.656 319.491 246.05 321.687 244.67 325.291L241.91 332.498C242.826 332.258 243.305 332.132 243.375 332.118C243.516 332.089 244.023 332.033 244.896 331.935C245.952 328.95 246.726 326.966 247.191 325.966C247.67 324.967 248.332 323.939 249.177 322.855C249.12 323.587 249.12 324.179 249.205 324.629C249.472 326.051 250.233 326.642 251.458 326.417C252.472 326.22 253.429 325.403 254.359 323.996C254.288 324.685 254.331 325.347 254.485 325.994C254.753 327.092 255.316 327.965 256.189 328.599C257.062 329.218 257.978 329.429 258.935 329.19C260.794 328.739 262.413 326.769 263.808 323.264C264.244 323.362 264.709 323.348 265.202 323.235C266.385 322.954 267.511 321.94 268.581 320.195C268.708 319.998 268.793 319.829 268.905 319.66C268.483 321.532 268.412 322.912 268.694 323.798C268.933 324.573 269.384 325.15 270.018 325.558C270.651 325.952 271.313 326.051 271.989 325.84C273.341 325.417 274.636 323.095 275.904 318.9C275.777 319.956 275.805 320.814 276.016 321.476C276.27 322.264 276.735 322.841 277.453 323.207C278.157 323.573 278.917 323.644 279.706 323.39C280.593 323.109 281.368 322.447 282.015 321.434C282.663 320.406 283.367 318.717 284.156 316.338C284.86 316.943 285.564 317.14 286.254 316.915C287.282 316.591 288.239 315.493 289.141 313.635C289.817 312.284 290.126 311.51 290.07 311.341C290.07 311.341 290.056 311.341 290.042 311.341C290.07 311.341 290.084 311.341 290.112 311.341C290.183 311.299 290.239 311.144 290.295 310.89C291.211 306.668 292.056 304.387 292.83 304.063C293.21 303.909 293.492 304.063 293.689 304.514C294.027 305.316 293.858 307.751 293.182 311.82L291.985 318.928C292.436 318.675 292.915 318.435 293.45 318.21C293.605 318.14 294.055 317.985 294.83 317.746C295.998 307.583 297.702 302.051 299.913 301.121C300.561 300.854 301.026 301.023 301.279 301.642C301.49 302.149 301.364 303.557 300.885 305.893C300.42 308.117 300.181 309.581 300.138 310.285C300.096 310.989 300.223 311.679 300.505 312.368C300.828 313.143 301.335 313.706 302.025 314.044C302.715 314.381 303.391 314.41 304.081 314.114C305.109 313.678 306.081 312.002 306.996 309.089C308.095 305.541 308.588 303.599 308.447 303.289L308.475 303.205ZM262.456 321.673C262.582 322.222 262.949 322.686 263.54 323.081C262.174 326.431 260.639 328.303 258.907 328.725C257.851 328.979 257.189 328.556 256.922 327.458C256.457 325.558 256.95 322.954 258.372 319.674C259.794 316.394 261.231 314.564 262.695 314.212C263.864 313.931 264.61 314.438 264.92 315.733C265.089 316.422 265.103 317.07 264.99 317.689C264.821 317.394 264.596 317.281 264.343 317.337C263.751 317.478 263.244 318.041 262.822 319.027C262.399 320.012 262.287 320.885 262.47 321.673H262.456Z" fill="#454C85" stroke="#454C85" stroke-width="0.5" stroke-linecap="round" stroke-linejoin="round"/>
</svg>
