<svg width="505" height="44" viewBox="0 0 505 44" fill="none" xmlns="http://www.w3.org/2000/svg">
<path d="M58.3885 0.999997V-2.86102e-06H57.6645L57.4385 0.687794L58.3885 0.999997ZM48.6085 30.76L47.6568 31.067L48.5997 33.9899L49.5585 31.0722L48.6085 30.76ZM39.0085 0.999997L39.9602 0.692994L39.7367 -2.86102e-06H39.0085V0.999997ZM30.0085 0.999997V-2.86102e-06H29.2891L29.0604 0.682036L30.0085 0.999997ZM20.1085 30.52L19.1564 30.8258L20.0879 33.7264L21.0566 30.838L20.1085 30.52ZM10.6285 0.999997L11.5806 0.694239L11.3577 -2.86102e-06H10.6285V0.999997ZM0.548516 0.999997V-2.86102e-06H-0.832652L-0.401516 1.31215L0.548516 0.999997ZM14.3485 43L13.3985 43.3122L13.6245 44H14.3485V43ZM24.7285 43V44H25.4478L25.6766 43.318L24.7285 43ZM34.2685 14.56L35.2196 14.251L34.2837 11.3704L33.3204 14.242L34.2685 14.56ZM43.5085 43L42.5575 43.309L42.782 44H43.5085V43ZM53.9485 43V44H54.6735L54.899 43.3109L53.9485 43ZM67.6885 0.999997L68.639 1.31092L69.0678 -2.86102e-06H67.6885V0.999997ZM57.4385 0.687794L47.6585 30.4478L49.5585 31.0722L59.3385 1.3122L57.4385 0.687794ZM49.5602 30.453L39.9602 0.692994L38.0568 1.307L47.6568 31.067L49.5602 30.453ZM39.0085 -2.86102e-06H30.0085V2H39.0085V-2.86102e-06ZM29.0604 0.682036L19.1604 30.202L21.0566 30.838L30.9566 1.31796L29.0604 0.682036ZM21.0606 30.2142L11.5806 0.694239L9.67641 1.30576L19.1564 30.8258L21.0606 30.2142ZM10.6285 -2.86102e-06H0.548516V2H10.6285V-2.86102e-06ZM-0.401516 1.31215L13.3985 43.3122L15.2985 42.6878L1.49855 0.687844L-0.401516 1.31215ZM14.3485 44H24.7285V42H14.3485V44ZM25.6766 43.318L35.2166 14.878L33.3204 14.242L23.7804 42.682L25.6766 43.318ZM33.3175 14.869L42.5575 43.309L44.4596 42.691L35.2196 14.251L33.3175 14.869ZM43.5085 44H53.9485V42H43.5085V44ZM54.899 43.3109L68.639 1.31092L66.7381 0.68907L52.9981 42.6891L54.899 43.3109ZM67.6885 -2.86102e-06H58.3885V2H67.6885V-2.86102e-06ZM123.455 43V44H124.458L124.455 42.9971L123.455 43ZM123.335 0.999997L124.335 0.99714L124.332 -2.86102e-06H123.335V0.999997ZM115.355 0.999997V-2.86102e-06H114.785L114.495 0.48987L115.355 0.999997ZM99.8748 27.1L99.0181 27.6159L99.8814 29.0492L100.735 27.6101L99.8748 27.1ZM84.1548 0.999997L85.0114 0.484054L84.7198 -2.86102e-06H84.1548V0.999997ZM76.1148 0.999997V-2.86102e-06H75.1148V0.999997H76.1148ZM76.1148 43H75.1148V44H76.1148V43ZM85.2348 43V44H86.2348V43H85.2348ZM85.2348 18.34L86.0891 17.8203L84.2348 14.7719V18.34H85.2348ZM97.5348 38.56L96.6804 39.0797L96.9726 39.56H97.5348V38.56ZM101.915 38.56V39.56H102.483L102.774 39.0716L101.915 38.56ZM114.275 17.8L115.275 17.7976L115.266 14.1801L113.416 17.2884L114.275 17.8ZM114.335 43L113.335 43.0024L113.337 44H114.335V43ZM124.455 42.9971L124.335 0.99714L122.335 1.00285L122.455 43.0029L124.455 42.9971ZM123.335 -2.86102e-06H115.355V2H123.335V-2.86102e-06ZM114.495 0.48987L99.0147 26.5899L100.735 27.6101L116.215 1.51012L114.495 0.48987ZM100.731 26.5841L85.0114 0.484054L83.2981 1.51594L99.0181 27.6159L100.731 26.5841ZM84.1548 -2.86102e-06H76.1148V2H84.1548V-2.86102e-06ZM75.1148 0.999997V43H77.1148V0.999997H75.1148ZM76.1148 44H85.2348V42H76.1148V44ZM86.2348 43V18.34H84.2348V43H86.2348ZM84.3804 18.8597L96.6804 39.0797L98.3891 38.0403L86.0891 17.8203L84.3804 18.8597ZM97.5348 39.56H101.915V37.56H97.5348V39.56ZM102.774 39.0716L115.134 18.3116L113.416 17.2884L101.056 38.0484L102.774 39.0716ZM113.275 17.8024L113.335 43.0024L115.335 42.9976L115.275 17.7976L113.275 17.8024ZM114.335 44H123.455V42H114.335V44ZM146.079 35.2H145.079V36.2H146.079V35.2ZM146.079 25.48V24.48H145.079V25.48H146.079ZM165.579 25.48V26.48H166.579V25.48H165.579ZM165.579 17.92H166.579V16.92H165.579V17.92ZM146.079 17.92H145.079V18.92H146.079V17.92ZM146.079 8.8V7.8H145.079V8.8H146.079ZM168.159 8.8V9.8H169.159V8.8H168.159ZM168.159 0.999997H169.159V-2.86102e-06H168.159V0.999997ZM136.419 0.999997V-2.86102e-06H135.419V0.999997H136.419ZM136.419 43H135.419V44H136.419V43ZM168.939 43V44H169.939V43H168.939ZM168.939 35.2H169.939V34.2H168.939V35.2ZM147.079 35.2V25.48H145.079V35.2H147.079ZM146.079 26.48H165.579V24.48H146.079V26.48ZM166.579 25.48V17.92H164.579V25.48H166.579ZM165.579 16.92H146.079V18.92H165.579V16.92ZM147.079 17.92V8.8H145.079V17.92H147.079ZM146.079 9.8H168.159V7.8H146.079V9.8ZM169.159 8.8V0.999997H167.159V8.8H169.159ZM168.159 -2.86102e-06H136.419V2H168.159V-2.86102e-06ZM135.419 0.999997V43H137.419V0.999997H135.419ZM136.419 44H168.939V42H136.419V44ZM169.939 43V35.2H167.939V43H169.939ZM168.939 34.2H146.079V36.2H168.939V34.2ZM214.366 44.48C225.114 44.48 233.066 37.194 233.066 26.86H231.066C231.066 35.966 224.137 42.48 214.366 42.48V44.48ZM233.066 26.86C233.066 16.526 225.114 9.24 214.366 9.24V11.24C224.137 11.24 231.066 17.754 231.066 26.86H233.066ZM214.366 9.24C203.622 9.24 195.606 16.5217 195.606 26.86H197.606C197.606 17.7583 204.589 11.24 214.366 11.24V9.24ZM195.606 26.86C195.606 37.1983 203.622 44.48 214.366 44.48V42.48C204.589 42.48 197.606 35.9617 197.606 26.86H195.606ZM214.366 34.8C212.271 34.8 210.469 34.0524 209.19 32.7278C207.911 31.4034 207.086 29.4304 207.086 26.86H205.086C205.086 29.8696 206.06 32.3666 207.751 34.1172C209.442 35.8676 211.78 36.8 214.366 36.8V34.8ZM207.086 26.86C207.086 24.2896 207.911 22.3166 209.19 20.9922C210.469 19.6676 212.271 18.92 214.366 18.92V16.92C211.78 16.92 209.442 17.8524 207.751 19.6028C206.06 21.3534 205.086 23.8504 205.086 26.86H207.086ZM214.366 18.92C216.459 18.92 218.244 19.6669 219.508 20.9886C220.772 22.3113 221.586 24.2849 221.586 26.86H223.586C223.586 23.8551 222.629 21.3587 220.953 19.6064C219.277 17.8531 216.952 16.92 214.366 16.92V18.92ZM221.586 26.86C221.586 29.4351 220.772 31.4087 219.508 32.7314C218.244 34.0531 216.459 34.8 214.366 34.8V36.8C216.952 36.8 219.277 35.8669 220.953 34.1136C222.629 32.3613 223.586 29.8649 223.586 26.86H221.586ZM250.262 14.5H249.262V17.0783L251 15.1743L250.262 14.5ZM250.262 10.72H251.262V9.72H250.262V10.72ZM241.322 10.72V9.72H240.322V10.72H241.322ZM241.322 43H240.322V44H241.322V43ZM250.682 43V44H251.682V43H250.682ZM264.962 43H263.962V44H264.962V43ZM274.322 43V44H275.322V43H274.322ZM260.942 9.24C256.336 9.24 252.267 10.8207 249.523 13.8257L251 15.1743C253.297 12.6593 256.788 11.24 260.942 11.24V9.24ZM251.262 14.5V10.72H249.262V14.5H251.262ZM250.262 9.72H241.322V11.72H250.262V9.72ZM240.322 10.72V43H242.322V10.72H240.322ZM241.322 44H250.682V42H241.322V44ZM251.682 43V27.04H249.682V43H251.682ZM251.682 27.04C251.682 24.2474 252.441 22.3497 253.587 21.1543C254.728 19.9626 256.377 19.34 258.422 19.34V17.34C255.967 17.34 253.746 18.0974 252.142 19.7707C250.543 21.4403 249.682 23.8926 249.682 27.04H251.682ZM258.422 19.34C260.297 19.34 261.623 19.8777 262.498 20.8582C263.391 21.8591 263.962 23.485 263.962 25.96H265.962C265.962 23.215 265.333 21.0309 263.991 19.5267C262.631 18.0023 260.686 17.34 258.422 17.34V19.34ZM263.962 25.96V43H265.962V25.96H263.962ZM264.962 44H274.322V42H264.962V44ZM275.322 43V24.52H273.322V43H275.322ZM275.322 24.52C275.322 19.4031 273.82 15.5483 271.189 12.9751C268.564 10.4076 264.941 9.24 260.942 9.24V11.24C264.562 11.24 267.63 12.2924 269.79 14.4049C271.944 16.5117 273.322 19.7969 273.322 24.52H275.322ZM335.379 0.999997V-2.86102e-06H334.379V0.999997H335.379ZM335.379 26.5L334.605 27.1335L336.379 29.2997V26.5H335.379ZM314.499 0.999997L315.272 0.366462L314.972 -2.86102e-06H314.499V0.999997ZM306.459 0.999997V-2.86102e-06H305.459V0.999997H306.459ZM306.459 43H305.459V44H306.459V43ZM316.059 43V44H317.059V43H316.059ZM316.059 17.5L316.831 16.8654L315.059 14.7065V17.5H316.059ZM336.999 43L336.226 43.6346L336.526 44H336.999V43ZM344.979 43V44H345.979V43H344.979ZM344.979 0.999997H345.979V-2.86102e-06H344.979V0.999997ZM334.379 0.999997V26.5H336.379V0.999997H334.379ZM336.152 25.8665L315.272 0.366462L313.725 1.63353L334.605 27.1335L336.152 25.8665ZM314.499 -2.86102e-06H306.459V2H314.499V-2.86102e-06ZM305.459 0.999997V43H307.459V0.999997H305.459ZM306.459 44H316.059V42H306.459V44ZM317.059 43V17.5H315.059V43H317.059ZM315.286 18.1346L336.226 43.6346L337.771 42.3654L316.831 16.8654L315.286 18.1346ZM336.999 44H344.979V42H336.999V44ZM345.979 43V0.999997H343.979V43H345.979ZM344.979 -2.86102e-06H335.379V2H344.979V-2.86102e-06ZM367.576 35.2H366.576V36.2H367.576V35.2ZM367.576 25.48V24.48H366.576V25.48H367.576ZM387.076 25.48V26.48H388.076V25.48H387.076ZM387.076 17.92H388.076V16.92H387.076V17.92ZM367.576 17.92H366.576V18.92H367.576V17.92ZM367.576 8.8V7.8H366.576V8.8H367.576ZM389.656 8.8V9.8H390.656V8.8H389.656ZM389.656 0.999997H390.656V-2.86102e-06H389.656V0.999997ZM357.916 0.999997V-2.86102e-06H356.916V0.999997H357.916ZM357.916 43H356.916V44H357.916V43ZM390.436 43V44H391.436V43H390.436ZM390.436 35.2H391.436V34.2H390.436V35.2ZM368.576 35.2V25.48H366.576V35.2H368.576ZM367.576 26.48H387.076V24.48H367.576V26.48ZM388.076 25.48V17.92H386.076V25.48H388.076ZM387.076 16.92H367.576V18.92H387.076V16.92ZM368.576 17.92V8.8H366.576V17.92H368.576ZM367.576 9.8H389.656V7.8H367.576V9.8ZM390.656 8.8V0.999997H388.656V8.8H390.656ZM389.656 -2.86102e-06H357.916V2H389.656V-2.86102e-06ZM356.916 0.999997V43H358.916V0.999997H356.916ZM357.916 44H390.436V42H357.916V44ZM391.436 43V35.2H389.436V43H391.436ZM390.436 34.2H367.576V36.2H390.436V34.2ZM454.764 0.999997V-2.86102e-06H454.04L453.814 0.687794L454.764 0.999997ZM444.984 30.76L444.032 31.067L444.975 33.9899L445.934 31.0722L444.984 30.76ZM435.384 0.999997L436.335 0.692994L436.112 -2.86102e-06H435.384V0.999997ZM426.384 0.999997V-2.86102e-06H425.664L425.435 0.682036L426.384 0.999997ZM416.484 30.52L415.531 30.8258L416.463 33.7264L417.432 30.838L416.484 30.52ZM407.004 0.999997L407.956 0.694239L407.733 -2.86102e-06H407.004V0.999997ZM396.924 0.999997V-2.86102e-06H395.542L395.973 1.31215L396.924 0.999997ZM410.724 43L409.773 43.3122L409.999 44H410.724V43ZM421.104 43V44H421.823L422.052 43.318L421.104 43ZM430.644 14.56L431.595 14.251L430.659 11.3704L429.695 14.242L430.644 14.56ZM439.884 43L438.932 43.309L439.157 44H439.884V43ZM450.324 43V44H451.049L451.274 43.3109L450.324 43ZM464.064 0.999997L465.014 1.31092L465.443 -2.86102e-06H464.064V0.999997ZM453.814 0.687794L444.034 30.4478L445.934 31.0722L455.714 1.3122L453.814 0.687794ZM445.935 30.453L436.335 0.692994L434.432 1.307L444.032 31.067L445.935 30.453ZM435.384 -2.86102e-06H426.384V2H435.384V-2.86102e-06ZM425.435 0.682036L415.535 30.202L417.432 30.838L427.332 1.31796L425.435 0.682036ZM417.436 30.2142L407.956 0.694239L406.051 1.30576L415.531 30.8258L417.436 30.2142ZM407.004 -2.86102e-06H396.924V2H407.004V-2.86102e-06ZM395.973 1.31215L409.773 43.3122L411.674 42.6878L397.874 0.687844L395.973 1.31215ZM410.724 44H421.104V42H410.724V44ZM422.052 43.318L431.592 14.878L429.695 14.242L420.155 42.682L422.052 43.318ZM429.692 14.869L438.932 43.309L440.835 42.691L431.595 14.251L429.692 14.869ZM439.884 44H450.324V42H439.884V44ZM451.274 43.3109L465.014 1.31092L463.113 0.68907L449.373 42.6891L451.274 43.3109ZM464.064 -2.86102e-06H454.764V2H464.064V-2.86102e-06ZM499.31 11.38L498.815 12.2491L499.807 12.8134L500.236 11.7566L499.31 11.38ZM502.31 4L503.236 4.37658L503.551 3.60091L502.843 3.1542L502.31 4ZM472.49 31.54L473.079 30.7319L472.084 30.0069L471.578 31.129L472.49 31.54ZM469.19 38.86L468.278 38.449L467.954 39.168L468.578 39.6507L469.19 38.86ZM486.29 44.72C492.448 44.72 497.146 43.1805 500.327 40.6216C503.523 38.0499 505.11 34.5057 505.11 30.7H503.11C503.11 33.9143 501.787 36.8801 499.073 39.0634C496.343 41.2595 492.132 42.72 486.29 42.72V44.72ZM505.11 30.7C505.11 26.5268 503.433 23.6825 500.91 21.7108C498.446 19.7859 495.219 18.726 492.147 17.9411C488.977 17.1309 486.079 16.6294 483.846 15.821C482.75 15.4244 481.945 14.9941 481.422 14.5053C480.934 14.0483 480.69 13.5412 480.69 12.88H478.69C478.69 14.1538 479.209 15.1729 480.056 15.9656C480.869 16.7266 481.971 17.2693 483.165 17.7015C485.51 18.5506 488.718 19.1291 491.652 19.8789C494.686 20.654 497.563 21.6341 499.678 23.2867C501.734 24.8925 503.11 27.1632 503.11 30.7H505.11ZM480.69 12.88C480.69 11.8802 481.09 10.994 482.083 10.316C483.126 9.6047 484.892 9.08 487.67 9.08V7.08C484.688 7.08 482.464 7.63529 480.956 8.66398C479.4 9.72602 478.69 11.2398 478.69 12.88H480.69ZM487.67 9.08C491.198 9.08 495.049 10.1051 498.815 12.2491L499.804 10.5109C495.771 8.21491 491.582 7.08 487.67 7.08V9.08ZM500.236 11.7566L503.236 4.37658L501.383 3.62342L498.383 11.0034L500.236 11.7566ZM502.843 3.1542C498.743 0.56776 493.144 -0.720001 487.73 -0.720001V1.28C492.876 1.28 498.077 2.51223 501.776 4.8458L502.843 3.1542ZM487.73 -0.720001C481.603 -0.720001 476.932 0.803919 473.772 3.36572C470.595 5.9415 469.03 9.50211 469.03 13.36H471.03C471.03 10.0779 472.344 7.09849 475.032 4.91928C477.737 2.72608 481.917 1.28 487.73 1.28V-0.720001ZM469.03 13.36C469.03 17.5737 470.702 20.4472 473.225 22.4422C475.689 24.3903 478.917 25.4642 481.989 26.2605C483.526 26.659 485.085 27.0019 486.491 27.3375C487.918 27.6782 489.204 28.0149 490.289 28.4144C491.383 28.8172 492.188 29.2545 492.711 29.7518C493.201 30.2174 493.45 30.7383 493.45 31.42H495.45C495.45 30.1367 494.935 29.1069 494.09 28.3025C493.277 27.5297 492.175 26.9775 490.98 26.5375C489.775 26.0941 488.39 25.7348 486.955 25.3922C485.5 25.0447 484.006 24.7172 482.491 24.3245C479.458 23.5383 476.581 22.5459 474.466 20.8734C472.41 19.2478 471.03 16.9463 471.03 13.36H469.03ZM493.45 31.42C493.45 32.35 493.056 33.1584 492.036 33.7857C490.956 34.4497 489.145 34.92 486.35 34.92V36.92C489.315 36.92 491.553 36.4303 493.084 35.4893C494.674 34.5116 495.45 33.07 495.45 31.42H493.45ZM486.35 34.92C481.518 34.92 476.445 33.185 473.079 30.7319L471.901 32.3481C475.615 35.055 481.102 36.92 486.35 36.92V34.92ZM471.578 31.129L468.278 38.449L470.101 39.271L473.401 31.951L471.578 31.129ZM468.578 39.6507C472.524 42.7062 479.483 44.72 486.29 44.72V42.72C479.776 42.72 473.295 40.7738 469.802 38.0693L468.578 39.6507Z" fill="#00305B"/>
</svg>
